<svg xmlns="http://www.w3.org/2000/svg" xmlns:xlink="http://www.w3.org/1999/xlink" contentStyleType="text/css" height="759px" preserveAspectRatio="none" style="width:706px;height:759px;background:#FFFFFF;" version="1.1" viewBox="0 0 706 759" width="706px" zoomAndPan="magnify"><title>Appointment Scheduling App Diagram</title><defs/><g><text fill="#000000" font-family="sans-serif" font-size="14" font-weight="bold" lengthAdjust="spacing" textLength="256.6689" x="217.8386" y="24.5332">Appointment Scheduling App Diagram</text><!--class ClientLayer--><g id="elem_ClientLayer"><rect codeLine="5" fill="#F1F1F1" height="171.2656" id="ClientLayer" rx="2.5" ry="2.5" style="stroke:#181818;stroke-width:0.5;" width="185.5234" x="378.5" y="45.6094"/><ellipse cx="431.605" cy="61.6094" fill="#ADD1B2" rx="11" ry="11" style="stroke:#181818;stroke-width:1.0;"/><path d="M434.3706,57.4844 Q434.5269,57.2656 434.7144,57.1563 Q434.9019,57.0469 435.1206,57.0469 Q435.4956,57.0469 435.73,57.3125 Q435.9644,57.5625 435.9644,58.1719 L435.9644,59.625 Q435.9644,60.2344 435.73,60.5 Q435.4956,60.7656 435.1206,60.7656 Q434.7769,60.7656 434.5737,60.5625 Q434.3706,60.375 434.2612,59.8594 Q434.2144,59.5 434.0269,59.3125 Q433.6987,58.9375 433.0894,58.7188 Q432.48,58.5 431.855,58.5 Q431.0894,58.5 430.4487,58.8281 Q429.8237,59.1563 429.3237,59.9063 Q428.8394,60.6563 428.8394,61.6875 L428.8394,62.7813 Q428.8394,64.0156 429.73,64.8438 Q430.6206,65.6563 432.2144,65.6563 Q433.1519,65.6563 433.8081,65.4063 Q434.1987,65.25 434.6206,64.8125 Q434.8862,64.5469 435.0269,64.4688 Q435.1831,64.3906 435.3862,64.3906 Q435.7144,64.3906 435.9644,64.6563 Q436.23,64.9063 436.23,65.25 Q436.23,65.5938 435.8862,66 Q435.3862,66.5781 434.5894,66.9063 Q433.5112,67.3594 432.2144,67.3594 Q430.6987,67.3594 429.4956,66.7344 Q428.5112,66.2344 427.8237,65.1719 Q427.1362,64.0938 427.1362,62.8125 L427.1362,61.6563 Q427.1362,60.3281 427.7456,59.1875 Q428.3706,58.0313 429.4644,57.4219 Q430.5581,56.7969 431.7925,56.7969 Q432.5269,56.7969 433.1675,56.9688 Q433.8237,57.125 434.3706,57.4844 Z " fill="#000000"/><text fill="#000000" font-family="sans-serif" font-size="14" lengthAdjust="spacing" textLength="70.8135" x="452.105" y="67.3379">ClientLayer</text><line style="stroke:#181818;stroke-width:0.5;" x1="379.5" x2="563.0234" y1="77.6094" y2="77.6094"/><text fill="#000000" font-family="sans-serif" font-size="14" lengthAdjust="spacing" textLength="127.6338" x="398.5" y="96.1426">Angular Applications</text><rect fill="none" height="6" style="stroke:#C82930;stroke-width:1.0;" width="6" x="386.5" y="106.5234"/><text fill="#000000" font-family="sans-serif" font-size="14" lengthAdjust="spacing" textLength="138.5166" x="398.5" y="113.752">Appointment List View</text><rect fill="none" height="6" style="stroke:#C82930;stroke-width:1.0;" width="6" x="386.5" y="124.1328"/><text fill="#000000" font-family="sans-serif" font-size="14" lengthAdjust="spacing" textLength="159.5234" x="398.5" y="131.3613">Appointment Details View</text><rect fill="none" height="6" style="stroke:#C82930;stroke-width:1.0;" width="6" x="386.5" y="141.7422"/><text fill="#000000" font-family="sans-serif" font-size="14" lengthAdjust="spacing" textLength="149.3926" x="398.5" y="148.9707">Appointment Form View</text><rect fill="none" height="6" style="stroke:#C82930;stroke-width:1.0;" width="6" x="386.5" y="159.3516"/><text fill="#000000" font-family="sans-serif" font-size="14" lengthAdjust="spacing" textLength="91.0479" x="398.5" y="166.5801">Calendar View</text><rect fill="none" height="6" style="stroke:#C82930;stroke-width:1.0;" width="6" x="386.5" y="176.9609"/><text fill="#000000" font-family="sans-serif" font-size="14" lengthAdjust="spacing" textLength="129.165" x="398.5" y="184.1895">Notification List View</text><rect fill="none" height="6" style="stroke:#C82930;stroke-width:1.0;" width="6" x="386.5" y="194.5703"/><text fill="#000000" font-family="sans-serif" font-size="14" lengthAdjust="spacing" textLength="107.3652" x="398.5" y="201.7988">User Profile View</text><line style="stroke:#181818;stroke-width:0.5;" x1="379.5" x2="563.0234" y1="208.875" y2="208.875"/></g><!--class APIGateway--><g id="elem_APIGateway"><rect codeLine="15" fill="#F1F1F1" height="83.2188" id="APIGateway" rx="2.5" ry="2.5" style="stroke:#181818;stroke-width:0.5;" width="109.8135" x="296.5" y="294.6094"/><ellipse cx="311.5" cy="310.6094" fill="#ADD1B2" rx="11" ry="11" style="stroke:#181818;stroke-width:1.0;"/><path d="M314.2656,306.4844 Q314.4219,306.2656 314.6094,306.1563 Q314.7969,306.0469 315.0156,306.0469 Q315.3906,306.0469 315.625,306.3125 Q315.8594,306.5625 315.8594,307.1719 L315.8594,308.625 Q315.8594,309.2344 315.625,309.5 Q315.3906,309.7656 315.0156,309.7656 Q314.6719,309.7656 314.4688,309.5625 Q314.2656,309.375 314.1563,308.8594 Q314.1094,308.5 313.9219,308.3125 Q313.5938,307.9375 312.9844,307.7188 Q312.375,307.5 311.75,307.5 Q310.9844,307.5 310.3438,307.8281 Q309.7188,308.1563 309.2188,308.9063 Q308.7344,309.6563 308.7344,310.6875 L308.7344,311.7813 Q308.7344,313.0156 309.625,313.8438 Q310.5156,314.6563 312.1094,314.6563 Q313.0469,314.6563 313.7031,314.4063 Q314.0938,314.25 314.5156,313.8125 Q314.7813,313.5469 314.9219,313.4688 Q315.0781,313.3906 315.2813,313.3906 Q315.6094,313.3906 315.8594,313.6563 Q316.125,313.9063 316.125,314.25 Q316.125,314.5938 315.7813,315 Q315.2813,315.5781 314.4844,315.9063 Q313.4063,316.3594 312.1094,316.3594 Q310.5938,316.3594 309.3906,315.7344 Q308.4063,315.2344 307.7188,314.1719 Q307.0313,313.0938 307.0313,311.8125 L307.0313,310.6563 Q307.0313,309.3281 307.6406,308.1875 Q308.2656,307.0313 309.3594,306.4219 Q310.4531,305.7969 311.6875,305.7969 Q312.4219,305.7969 313.0625,305.9688 Q313.7188,306.125 314.2656,306.4844 Z " fill="#000000"/><text fill="#000000" font-family="sans-serif" font-size="14" lengthAdjust="spacing" textLength="77.8135" x="325.5" y="316.3379">APIGateway</text><line style="stroke:#181818;stroke-width:0.5;" x1="297.5" x2="405.3135" y1="326.6094" y2="326.6094"/><text fill="#000000" font-family="sans-serif" font-size="14" lengthAdjust="spacing" textLength="57.5859" x="302.5" y="345.1426">GraphQL</text><text fill="#000000" font-family="sans-serif" font-size="14" lengthAdjust="spacing" textLength="52.9102" x="302.5" y="362.752">RSocket</text><line style="stroke:#181818;stroke-width:0.5;" x1="297.5" x2="405.3135" y1="369.8281" y2="369.8281"/></g><!--class Services--><g id="elem_Services"><rect codeLine="20" fill="#F1F1F1" height="118.4375" id="Services" rx="2.5" ry="2.5" style="stroke:#181818;stroke-width:0.5;" width="141.1787" x="264" y="455.6094"/><ellipse cx="303.9732" cy="471.6094" fill="#ADD1B2" rx="11" ry="11" style="stroke:#181818;stroke-width:1.0;"/><path d="M306.7389,467.4844 Q306.8951,467.2656 307.0826,467.1563 Q307.2701,467.0469 307.4889,467.0469 Q307.8639,467.0469 308.0982,467.3125 Q308.3326,467.5625 308.3326,468.1719 L308.3326,469.625 Q308.3326,470.2344 308.0982,470.5 Q307.8639,470.7656 307.4889,470.7656 Q307.1451,470.7656 306.942,470.5625 Q306.7389,470.375 306.6295,469.8594 Q306.5826,469.5 306.3951,469.3125 Q306.067,468.9375 305.4576,468.7188 Q304.8482,468.5 304.2232,468.5 Q303.4576,468.5 302.817,468.8281 Q302.192,469.1563 301.692,469.9063 Q301.2076,470.6563 301.2076,471.6875 L301.2076,472.7813 Q301.2076,474.0156 302.0982,474.8438 Q302.9889,475.6563 304.5826,475.6563 Q305.5201,475.6563 306.1764,475.4063 Q306.567,475.25 306.9889,474.8125 Q307.2545,474.5469 307.3951,474.4688 Q307.5514,474.3906 307.7545,474.3906 Q308.0826,474.3906 308.3326,474.6563 Q308.5982,474.9063 308.5982,475.25 Q308.5982,475.5938 308.2545,476 Q307.7545,476.5781 306.9576,476.9063 Q305.8795,477.3594 304.5826,477.3594 Q303.067,477.3594 301.8639,476.7344 Q300.8795,476.2344 300.192,475.1719 Q299.5045,474.0938 299.5045,472.8125 L299.5045,471.6563 Q299.5045,470.3281 300.1139,469.1875 Q300.7389,468.0313 301.8326,467.4219 Q302.9264,466.7969 304.1607,466.7969 Q304.8951,466.7969 305.5357,466.9688 Q306.192,467.125 306.7389,467.4844 Z " fill="#000000"/><text fill="#000000" font-family="sans-serif" font-size="14" lengthAdjust="spacing" textLength="53.6826" x="323.5229" y="477.3379">Services</text><line style="stroke:#181818;stroke-width:0.5;" x1="265" x2="404.1787" y1="487.6094" y2="487.6094"/><text fill="#000000" font-family="sans-serif" font-size="14" lengthAdjust="spacing" textLength="129.1787" x="270" y="506.1426">Appointment Service</text><text fill="#000000" font-family="sans-serif" font-size="14" lengthAdjust="spacing" textLength="119.8271" x="270" y="523.752">Notification Service</text><text fill="#000000" font-family="sans-serif" font-size="14" lengthAdjust="spacing" textLength="80.1309" x="270" y="541.3613">User Service</text><text fill="#000000" font-family="sans-serif" font-size="14" lengthAdjust="spacing" textLength="107.3857" x="270" y="558.9707">Calendar Service</text><line style="stroke:#181818;stroke-width:0.5;" x1="265" x2="404.1787" y1="566.0469" y2="566.0469"/></g><!--class NgRxStore--><g id="elem_NgRxStore"><rect codeLine="27" fill="#F1F1F1" height="65.6094" id="NgRxStore" rx="2.5" ry="2.5" style="stroke:#181818;stroke-width:0.5;" width="130.2959" x="454.5" y="669.1094"/><ellipse cx="482.9222" cy="685.1094" fill="#ADD1B2" rx="11" ry="11" style="stroke:#181818;stroke-width:1.0;"/><path d="M485.6878,680.9844 Q485.8441,680.7656 486.0316,680.6563 Q486.2191,680.5469 486.4378,680.5469 Q486.8128,680.5469 487.0472,680.8125 Q487.2816,681.0625 487.2816,681.6719 L487.2816,683.125 Q487.2816,683.7344 487.0472,684 Q486.8128,684.2656 486.4378,684.2656 Q486.0941,684.2656 485.891,684.0625 Q485.6878,683.875 485.5785,683.3594 Q485.5316,683 485.3441,682.8125 Q485.016,682.4375 484.4066,682.2188 Q483.7972,682 483.1722,682 Q482.4066,682 481.766,682.3281 Q481.141,682.6563 480.641,683.4063 Q480.1566,684.1563 480.1566,685.1875 L480.1566,686.2813 Q480.1566,687.5156 481.0472,688.3438 Q481.9378,689.1563 483.5316,689.1563 Q484.4691,689.1563 485.1253,688.9063 Q485.516,688.75 485.9378,688.3125 Q486.2035,688.0469 486.3441,687.9688 Q486.5003,687.8906 486.7035,687.8906 Q487.0316,687.8906 487.2816,688.1563 Q487.5472,688.4063 487.5472,688.75 Q487.5472,689.0938 487.2035,689.5 Q486.7035,690.0781 485.9066,690.4063 Q484.8285,690.8594 483.5316,690.8594 Q482.016,690.8594 480.8128,690.2344 Q479.8285,689.7344 479.141,688.6719 Q478.4535,687.5938 478.4535,686.3125 L478.4535,685.1563 Q478.4535,683.8281 479.0628,682.6875 Q479.6878,681.5313 480.7816,680.9219 Q481.8753,680.2969 483.1097,680.2969 Q483.8441,680.2969 484.4847,680.4688 Q485.141,680.625 485.6878,680.9844 Z " fill="#000000"/><text fill="#000000" font-family="sans-serif" font-size="14" lengthAdjust="spacing" textLength="68.4688" x="499.9049" y="690.8379">NgRxStore</text><line style="stroke:#181818;stroke-width:0.5;" x1="455.5" x2="583.7959" y1="701.1094" y2="701.1094"/><text fill="#000000" font-family="sans-serif" font-size="14" lengthAdjust="spacing" textLength="118.2959" x="460.5" y="719.6426">State Management</text><line style="stroke:#181818;stroke-width:0.5;" x1="455.5" x2="583.7959" y1="726.7188" y2="726.7188"/></g><!--class Entities--><g id="elem_Entities"><rect codeLine="31" fill="#F1F1F1" height="100.8281" id="Entities" rx="2.5" ry="2.5" style="stroke:#181818;stroke-width:0.5;" width="90.6064" x="7" y="651.6094"/><ellipse cx="27.7133" cy="667.6094" fill="#ADD1B2" rx="11" ry="11" style="stroke:#181818;stroke-width:1.0;"/><path d="M30.479,663.4844 Q30.6352,663.2656 30.8227,663.1563 Q31.0102,663.0469 31.229,663.0469 Q31.604,663.0469 31.8383,663.3125 Q32.0727,663.5625 32.0727,664.1719 L32.0727,665.625 Q32.0727,666.2344 31.8383,666.5 Q31.604,666.7656 31.229,666.7656 Q30.8852,666.7656 30.6821,666.5625 Q30.479,666.375 30.3696,665.8594 Q30.3227,665.5 30.1352,665.3125 Q29.8071,664.9375 29.1977,664.7188 Q28.5883,664.5 27.9633,664.5 Q27.1977,664.5 26.5571,664.8281 Q25.9321,665.1563 25.4321,665.9063 Q24.9477,666.6563 24.9477,667.6875 L24.9477,668.7813 Q24.9477,670.0156 25.8383,670.8438 Q26.729,671.6563 28.3227,671.6563 Q29.2602,671.6563 29.9165,671.4063 Q30.3071,671.25 30.729,670.8125 Q30.9946,670.5469 31.1352,670.4688 Q31.2915,670.3906 31.4946,670.3906 Q31.8227,670.3906 32.0727,670.6563 Q32.3383,670.9063 32.3383,671.25 Q32.3383,671.5938 31.9946,672 Q31.4946,672.5781 30.6977,672.9063 Q29.6196,673.3594 28.3227,673.3594 Q26.8071,673.3594 25.604,672.7344 Q24.6196,672.2344 23.9321,671.1719 Q23.2446,670.0938 23.2446,668.8125 L23.2446,667.6563 Q23.2446,666.3281 23.854,665.1875 Q24.479,664.0313 25.5727,663.4219 Q26.6665,662.7969 27.9008,662.7969 Q28.6352,662.7969 29.2758,662.9688 Q29.9321,663.125 30.479,663.4844 Z " fill="#000000"/><text fill="#000000" font-family="sans-serif" font-size="14" lengthAdjust="spacing" textLength="45.9102" x="42.983" y="673.3379">Entities</text><line style="stroke:#181818;stroke-width:0.5;" x1="8" x2="96.6064" y1="683.6094" y2="683.6094"/><text fill="#000000" font-family="sans-serif" font-size="14" lengthAdjust="spacing" textLength="78.6064" x="13" y="702.1426">Appointment</text><text fill="#000000" font-family="sans-serif" font-size="14" lengthAdjust="spacing" textLength="69.2549" x="13" y="719.752">Notification</text><text fill="#000000" font-family="sans-serif" font-size="14" lengthAdjust="spacing" textLength="29.5586" x="13" y="737.3613">User</text><line style="stroke:#181818;stroke-width:0.5;" x1="8" x2="96.6064" y1="744.4375" y2="744.4375"/></g><!--class Kafka--><g id="elem_Kafka"><rect codeLine="37" fill="#F1F1F1" height="100.8281" id="Kafka" rx="2.5" ry="2.5" style="stroke:#181818;stroke-width:0.5;" width="169.958" x="210.5" y="651.6094"/><ellipse cx="273.3291" cy="667.6094" fill="#ADD1B2" rx="11" ry="11" style="stroke:#181818;stroke-width:1.0;"/><path d="M276.0947,663.4844 Q276.251,663.2656 276.4385,663.1563 Q276.626,663.0469 276.8447,663.0469 Q277.2197,663.0469 277.4541,663.3125 Q277.6885,663.5625 277.6885,664.1719 L277.6885,665.625 Q277.6885,666.2344 277.4541,666.5 Q277.2197,666.7656 276.8447,666.7656 Q276.501,666.7656 276.2979,666.5625 Q276.0947,666.375 275.9854,665.8594 Q275.9385,665.5 275.751,665.3125 Q275.4229,664.9375 274.8135,664.7188 Q274.2041,664.5 273.5791,664.5 Q272.8135,664.5 272.1729,664.8281 Q271.5479,665.1563 271.0479,665.9063 Q270.5635,666.6563 270.5635,667.6875 L270.5635,668.7813 Q270.5635,670.0156 271.4541,670.8438 Q272.3447,671.6563 273.9385,671.6563 Q274.876,671.6563 275.5322,671.4063 Q275.9229,671.25 276.3447,670.8125 Q276.6104,670.5469 276.751,670.4688 Q276.9072,670.3906 277.1104,670.3906 Q277.4385,670.3906 277.6885,670.6563 Q277.9541,670.9063 277.9541,671.25 Q277.9541,671.5938 277.6104,672 Q277.1104,672.5781 276.3135,672.9063 Q275.2354,673.3594 273.9385,673.3594 Q272.4229,673.3594 271.2197,672.7344 Q270.2354,672.2344 269.5479,671.1719 Q268.8604,670.0938 268.8604,668.8125 L268.8604,667.6563 Q268.8604,666.3281 269.4697,665.1875 Q270.0947,664.0313 271.1885,663.4219 Q272.2822,662.7969 273.5166,662.7969 Q274.251,662.7969 274.8916,662.9688 Q275.5479,663.125 276.0947,663.4844 Z " fill="#000000"/><text fill="#000000" font-family="sans-serif" font-size="14" lengthAdjust="spacing" textLength="35.7998" x="293.8291" y="673.3379">Kafka</text><line style="stroke:#181818;stroke-width:0.5;" x1="211.5" x2="379.458" y1="683.6094" y2="683.6094"/><rect fill="none" height="6" style="stroke:#C82930;stroke-width:1.0;" width="6" x="218.5" y="694.9141"/><text fill="#000000" font-family="sans-serif" font-size="14" lengthAdjust="spacing" textLength="143.958" x="230.5" y="702.1426">Topic for Appointments</text><rect fill="none" height="6" style="stroke:#C82930;stroke-width:1.0;" width="6" x="218.5" y="712.5234"/><text fill="#000000" font-family="sans-serif" font-size="14" lengthAdjust="spacing" textLength="134.6064" x="230.5" y="719.752">Topic for Notifications</text><rect fill="none" height="6" style="stroke:#C82930;stroke-width:1.0;" width="6" x="218.5" y="730.1328"/><text fill="#000000" font-family="sans-serif" font-size="14" lengthAdjust="spacing" textLength="94.9102" x="230.5" y="737.3613">Topic for Users</text><line style="stroke:#181818;stroke-width:0.5;" x1="211.5" x2="379.458" y1="744.4375" y2="744.4375"/></g><!--link ClientLayer to APIGateway--><g id="link_ClientLayer_APIGateway"><path codeLine="43" d="M378.5,212.4394 C370.23,223.1394 362.94,234.5994 357.5,246.6094 C350.83,261.3394 348.7318,272.8704 348.4418,288.4304 " fill="none" id="ClientLayer-to-APIGateway" style="stroke:#181818;stroke-width:1.0;"/><polygon fill="#181818" points="348.33,294.4294,352.497,285.5055,348.4232,289.4302,344.4984,285.3564,348.33,294.4294" style="stroke:#181818;stroke-width:1.0;"/><text fill="#000000" font-family="sans-serif" font-size="13" lengthAdjust="spacing" textLength="203.0488" x="358.5" y="261.1045">Sends GraphQL Queries/Mutations</text></g><!--link APIGateway to Services--><g id="link_APIGateway_Services"><path codeLine="44" d="M347.56,378.0494 C345.34,401.0594 343.1151,424.197 340.6751,449.537 " fill="none" id="APIGateway-to-Services" style="stroke:#181818;stroke-width:1.0;"/><polygon fill="#181818" points="340.1,455.5094,344.9442,446.9342,340.5792,450.5324,336.981,446.1674,340.1,455.5094" style="stroke:#181818;stroke-width:1.0;"/><text fill="#000000" font-family="sans-serif" font-size="13" lengthAdjust="spacing" textLength="99.7217" x="345.5" y="422.1045">Routes Requests</text></g><!--link ClientLayer to NgRxStore--><g id="link_ClientLayer_NgRxStore"><path codeLine="45" d="M551.74,216.6394 C557.67,226.2294 562.77,236.2794 566.5,246.6094 C620.89,397.3394 562.2584,587.5508 534.2284,663.4608 " fill="none" id="ClientLayer-to-NgRxStore" style="stroke:#181818;stroke-width:1.0;"/><polygon fill="#181818" points="532.15,669.0894,539.0199,662.0321,533.882,664.3989,531.5152,659.261,532.15,669.0894" style="stroke:#181818;stroke-width:1.0;"/><text fill="#000000" font-family="sans-serif" font-size="13" lengthAdjust="spacing" textLength="109.8462" x="588.5" y="422.1045">State Management</text></g><!--link Services to NgRxStore--><g id="link_Services_NgRxStore"><path codeLine="46" d="M398.52,573.6294 C409,583.4994 419.65,593.7494 429.5,603.6094 C450.66,624.7994 469.5225,645.1629 486.9125,664.4529 " fill="none" id="Services-to-NgRxStore" style="stroke:#181818;stroke-width:1.0;"/><polygon fill="#181818" points="490.93,668.9094,487.8747,659.5464,487.5821,665.1957,481.9328,664.9031,490.93,668.9094" style="stroke:#181818;stroke-width:1.0;"/><text fill="#000000" font-family="sans-serif" font-size="13" lengthAdjust="spacing" textLength="82.3862" x="445.5" y="618.1045">State Updates</text></g><!--link Services to Entities--><g id="link_Services_Entities"><path codeLine="47" d="M263.79,521.6094 C205.76,530.2994 125.59,551.5694 77.5,603.6094 C65.52,616.5694 60.274,628.5954 56.894,645.5354 " fill="none" id="Services-to-Entities" style="stroke:#181818;stroke-width:1.0;"/><polygon fill="#181818" points="55.72,651.4194,61.4037,643.376,56.6984,646.516,53.5584,641.8107,55.72,651.4194" style="stroke:#181818;stroke-width:1.0;"/><text fill="#000000" font-family="sans-serif" font-size="13" lengthAdjust="spacing" textLength="99.7217" x="78.5" y="618.1045">Manages Entities</text></g><!--link Services to Kafka--><g id="link_Services_Kafka"><path codeLine="48" d="M263.93,540.8394 C235.86,554.7494 206.48,575.1194 190.5,603.6094 C178.76,624.5494 186.0954,639.8129 205.6454,655.3729 " fill="none" id="Services-to-Kafka" style="stroke:#181818;stroke-width:1.0;"/><polygon fill="#181818" points="210.34,659.1094,205.7891,650.375,206.4279,655.9957,200.8072,656.6344,210.34,659.1094" style="stroke:#181818;stroke-width:1.0;"/><text fill="#000000" font-family="sans-serif" font-size="13" lengthAdjust="spacing" textLength="99.7217" x="191.5" y="618.1045">Publishes Events</text></g><!--link Kafka to Services--><g id="link_Kafka_Services"><path codeLine="49" d="M305.92,651.5594 C310.95,627.6294 315.7855,604.631 321.0355,579.661 " fill="none" id="Kafka-to-Services" style="stroke:#181818;stroke-width:1.0;"/><polygon fill="#181818" points="322.27,573.7894,316.5038,581.7738,321.2412,578.6824,324.3326,583.4198,322.27,573.7894" style="stroke:#181818;stroke-width:1.0;"/><text fill="#000000" font-family="sans-serif" font-size="13" lengthAdjust="spacing" textLength="105.4917" x="315.5" y="618.1045">Consumes Events</text></g><!--SRC=[RLBBReCm4Bpp5Uu7eDuvL48aZQgIA86aTnSMiegnYHz9ewh_NlC8O98JPdOyEpFmaaE174YoZFRXPXKlISQeKfwdKJCWOLqBvBe2hacQ7I4t37dPm6I1j9IqyhpnQiJG4cDw0qb-FK92NXf6PKDdc56DWYiB-uviZ4gJBuJhmsG1cY9JpuVlGbRZ9A8CU6vN3SX6Q2pwfRCT1sNzRQKeq2PiqRzfYd3xiQ8QhlJMXbX9MXztiJqbgSXEe5rs2lA26QWkyBIkRc1Hnye8jpR6ro727NBMRCha9zL2GhidrTOWMLDEIsYMkTmbjnyF7otDhFGMtBkVj3ZHzg9FzgB6Z1H2JaNKR3HLdCyQUTNeJtyCtt-RLXpOl3nNzvh9pe2qtb_NHlUQ4t9pToWy88amsXuIE1jGrjbypLXQy5ZPeFESUQXp-r0kRMWsw9NK0Bd4hiQ0RCqtGtLiU9Usl6umon7PcAOQIVy0]--></g></svg>