<svg xmlns="http://www.w3.org/2000/svg" xmlns:xlink="http://www.w3.org/1999/xlink" contentStyleType="text/css" height="1007px" preserveAspectRatio="none" style="width:696px;height:1007px;background:#FFFFFF;" version="1.1" viewBox="0 0 696 1007" width="696px" zoomAndPan="magnify"><title>Appointment Scheduling App Diagram for BECS</title><defs/><g><text fill="#000000" font-family="sans-serif" font-size="14" font-weight="bold" lengthAdjust="spacing" textLength="322.0068" x="180.1697" y="24.5332">Appointment Scheduling App Diagram for BECS</text><!--class AppointmentSchedulingApp--><g id="elem_AppointmentSchedulingApp"><rect codeLine="5" fill="#F1F1F1" height="382.5781" id="AppointmentSchedulingApp" rx="2.5" ry="2.5" style="stroke:#181818;stroke-width:0.5;" width="282.0195" x="330.5" y="45.6094"/><ellipse cx="380.8638" cy="61.6094" fill="#ADD1B2" rx="11" ry="11" style="stroke:#181818;stroke-width:1.0;"/><path d="M383.6294,57.4844 Q383.7856,57.2656 383.9731,57.1563 Q384.1606,57.0469 384.3794,57.0469 Q384.7544,57.0469 384.9888,57.3125 Q385.2231,57.5625 385.2231,58.1719 L385.2231,59.625 Q385.2231,60.2344 384.9888,60.5 Q384.7544,60.7656 384.3794,60.7656 Q384.0356,60.7656 383.8325,60.5625 Q383.6294,60.375 383.52,59.8594 Q383.4731,59.5 383.2856,59.3125 Q382.9575,58.9375 382.3481,58.7188 Q381.7388,58.5 381.1138,58.5 Q380.3481,58.5 379.7075,58.8281 Q379.0825,59.1563 378.5825,59.9063 Q378.0981,60.6563 378.0981,61.6875 L378.0981,62.7813 Q378.0981,64.0156 378.9888,64.8438 Q379.8794,65.6563 381.4731,65.6563 Q382.4106,65.6563 383.0669,65.4063 Q383.4575,65.25 383.8794,64.8125 Q384.145,64.5469 384.2856,64.4688 Q384.4419,64.3906 384.645,64.3906 Q384.9731,64.3906 385.2231,64.6563 Q385.4888,64.9063 385.4888,65.25 Q385.4888,65.5938 385.145,66 Q384.645,66.5781 383.8481,66.9063 Q382.77,67.3594 381.4731,67.3594 Q379.9575,67.3594 378.7544,66.7344 Q377.77,66.2344 377.0825,65.1719 Q376.395,64.0938 376.395,62.8125 L376.395,61.6563 Q376.395,60.3281 377.0044,59.1875 Q377.6294,58.0313 378.7231,57.4219 Q379.8169,56.7969 381.0513,56.7969 Q381.7856,56.7969 382.4263,56.9688 Q383.0825,57.125 383.6294,57.4844 Z " fill="#000000"/><text fill="#000000" font-family="sans-serif" font-size="14" lengthAdjust="spacing" textLength="172.792" x="401.3638" y="67.3379">AppointmentSchedulingApp</text><line style="stroke:#181818;stroke-width:0.5;" x1="331.5" x2="611.5195" y1="77.6094" y2="77.6094"/><text fill="#000000" font-family="sans-serif" font-size="14" lengthAdjust="spacing" textLength="41.2344" x="336.5" y="96.1426">Views:</text><text fill="#000000" font-family="sans-serif" font-size="14" lengthAdjust="spacing" textLength="116.7236" x="336.5" y="113.752">-- Scheduling View</text><text fill="#000000" font-family="sans-serif" font-size="14" lengthAdjust="spacing" textLength="115.1377" x="336.5" y="131.3613">-- Reminders View</text><text fill="#000000" font-family="sans-serif" font-size="14" lengthAdjust="spacing" textLength="131.4961" x="336.5" y="148.9707">-- Cancellations View</text><text fill="#000000" font-family="sans-serif" font-size="14" lengthAdjust="spacing" textLength="167.2754" x="336.5" y="166.5801">-- HIPAA Compliance View</text><text fill="#000000" font-family="sans-serif" font-size="14" lengthAdjust="spacing" textLength="270.0195" x="336.5" y="184.1895">-- Integration with Donor Management View</text><text fill="#000000" font-family="sans-serif" font-size="14" lengthAdjust="spacing" textLength="177.3789" x="336.5" y="201.7988">-- Real-time Availability View</text><text fill="#000000" font-family="sans-serif" font-size="14" lengthAdjust="spacing" textLength="132.2822" x="336.5" y="219.4082">-- Rescheduling View</text><text fill="#000000" font-family="sans-serif" font-size="14" lengthAdjust="spacing" textLength="174.3096" x="336.5" y="237.0176">-- Calendar Integration View</text><text fill="#000000" font-family="sans-serif" font-size="14" lengthAdjust="spacing" textLength="3.8896" x="336.5" y="254.627">&#160;</text><text fill="#000000" font-family="sans-serif" font-size="14" lengthAdjust="spacing" textLength="83.2686" x="336.5" y="272.2363">Components:</text><text fill="#000000" font-family="sans-serif" font-size="14" lengthAdjust="spacing" textLength="77.0273" x="336.5" y="289.8457">-- Calendars</text><text fill="#000000" font-family="sans-serif" font-size="14" lengthAdjust="spacing" textLength="89.4688" x="336.5" y="307.4551">-- Notifications</text><text fill="#000000" font-family="sans-serif" font-size="14" lengthAdjust="spacing" textLength="52.876" x="336.5" y="325.0645">-- Forms</text><text fill="#000000" font-family="sans-serif" font-size="14" lengthAdjust="spacing" textLength="150.1855" x="336.5" y="342.6738">-- Secure Data Handling</text><text fill="#000000" font-family="sans-serif" font-size="14" lengthAdjust="spacing" textLength="150.9648" x="336.5" y="360.2832">-- Consent Management</text><text fill="#000000" font-family="sans-serif" font-size="14" lengthAdjust="spacing" textLength="112.8203" x="336.5" y="377.8926">-- Data Encryption</text><text fill="#000000" font-family="sans-serif" font-size="14" lengthAdjust="spacing" textLength="101.1377" x="336.5" y="395.502">-- User Interface</text><text fill="#000000" font-family="sans-serif" font-size="14" lengthAdjust="spacing" textLength="105.8271" x="336.5" y="413.1113">-- API Integration</text><line style="stroke:#181818;stroke-width:0.5;" x1="331.5" x2="611.5195" y1="420.1875" y2="420.1875"/></g><!--class APIGateway--><g id="elem_APIGateway"><rect codeLine="27" fill="#F1F1F1" height="83.2188" id="APIGateway" rx="2.5" ry="2.5" style="stroke:#181818;stroke-width:0.5;" width="109.8135" x="296.5" y="506.6094"/><ellipse cx="311.5" cy="522.6094" fill="#ADD1B2" rx="11" ry="11" style="stroke:#181818;stroke-width:1.0;"/><path d="M314.2656,518.4844 Q314.4219,518.2656 314.6094,518.1563 Q314.7969,518.0469 315.0156,518.0469 Q315.3906,518.0469 315.625,518.3125 Q315.8594,518.5625 315.8594,519.1719 L315.8594,520.625 Q315.8594,521.2344 315.625,521.5 Q315.3906,521.7656 315.0156,521.7656 Q314.6719,521.7656 314.4688,521.5625 Q314.2656,521.375 314.1563,520.8594 Q314.1094,520.5 313.9219,520.3125 Q313.5938,519.9375 312.9844,519.7188 Q312.375,519.5 311.75,519.5 Q310.9844,519.5 310.3438,519.8281 Q309.7188,520.1563 309.2188,520.9063 Q308.7344,521.6563 308.7344,522.6875 L308.7344,523.7813 Q308.7344,525.0156 309.625,525.8438 Q310.5156,526.6563 312.1094,526.6563 Q313.0469,526.6563 313.7031,526.4063 Q314.0938,526.25 314.5156,525.8125 Q314.7813,525.5469 314.9219,525.4688 Q315.0781,525.3906 315.2813,525.3906 Q315.6094,525.3906 315.8594,525.6563 Q316.125,525.9063 316.125,526.25 Q316.125,526.5938 315.7813,527 Q315.2813,527.5781 314.4844,527.9063 Q313.4063,528.3594 312.1094,528.3594 Q310.5938,528.3594 309.3906,527.7344 Q308.4063,527.2344 307.7188,526.1719 Q307.0313,525.0938 307.0313,523.8125 L307.0313,522.6563 Q307.0313,521.3281 307.6406,520.1875 Q308.2656,519.0313 309.3594,518.4219 Q310.4531,517.7969 311.6875,517.7969 Q312.4219,517.7969 313.0625,517.9688 Q313.7188,518.125 314.2656,518.4844 Z " fill="#000000"/><text fill="#000000" font-family="sans-serif" font-size="14" lengthAdjust="spacing" textLength="77.8135" x="325.5" y="528.3379">APIGateway</text><line style="stroke:#181818;stroke-width:0.5;" x1="297.5" x2="405.3135" y1="538.6094" y2="538.6094"/><text fill="#000000" font-family="sans-serif" font-size="14" lengthAdjust="spacing" textLength="57.5859" x="302.5" y="557.1426">GraphQL</text><text fill="#000000" font-family="sans-serif" font-size="14" lengthAdjust="spacing" textLength="52.9102" x="302.5" y="574.752">RSocket</text><line style="stroke:#181818;stroke-width:0.5;" x1="297.5" x2="405.3135" y1="581.8281" y2="581.8281"/></g><!--class Services--><g id="elem_Services"><rect codeLine="32" fill="#F1F1F1" height="136.0469" id="Services" rx="2.5" ry="2.5" style="stroke:#181818;stroke-width:0.5;" width="141.1787" x="264" y="667.6094"/><ellipse cx="303.9732" cy="683.6094" fill="#ADD1B2" rx="11" ry="11" style="stroke:#181818;stroke-width:1.0;"/><path d="M306.7389,679.4844 Q306.8951,679.2656 307.0826,679.1563 Q307.2701,679.0469 307.4889,679.0469 Q307.8639,679.0469 308.0982,679.3125 Q308.3326,679.5625 308.3326,680.1719 L308.3326,681.625 Q308.3326,682.2344 308.0982,682.5 Q307.8639,682.7656 307.4889,682.7656 Q307.1451,682.7656 306.942,682.5625 Q306.7389,682.375 306.6295,681.8594 Q306.5826,681.5 306.3951,681.3125 Q306.067,680.9375 305.4576,680.7188 Q304.8482,680.5 304.2232,680.5 Q303.4576,680.5 302.817,680.8281 Q302.192,681.1563 301.692,681.9063 Q301.2076,682.6563 301.2076,683.6875 L301.2076,684.7813 Q301.2076,686.0156 302.0982,686.8438 Q302.9889,687.6563 304.5826,687.6563 Q305.5201,687.6563 306.1764,687.4063 Q306.567,687.25 306.9889,686.8125 Q307.2545,686.5469 307.3951,686.4688 Q307.5514,686.3906 307.7545,686.3906 Q308.0826,686.3906 308.3326,686.6563 Q308.5982,686.9063 308.5982,687.25 Q308.5982,687.5938 308.2545,688 Q307.7545,688.5781 306.9576,688.9063 Q305.8795,689.3594 304.5826,689.3594 Q303.067,689.3594 301.8639,688.7344 Q300.8795,688.2344 300.192,687.1719 Q299.5045,686.0938 299.5045,684.8125 L299.5045,683.6563 Q299.5045,682.3281 300.1139,681.1875 Q300.7389,680.0313 301.8326,679.4219 Q302.9264,678.7969 304.1607,678.7969 Q304.8951,678.7969 305.5357,678.9688 Q306.192,679.125 306.7389,679.4844 Z " fill="#000000"/><text fill="#000000" font-family="sans-serif" font-size="14" lengthAdjust="spacing" textLength="53.6826" x="323.5229" y="689.3379">Services</text><line style="stroke:#181818;stroke-width:0.5;" x1="265" x2="404.1787" y1="699.6094" y2="699.6094"/><text fill="#000000" font-family="sans-serif" font-size="14" lengthAdjust="spacing" textLength="129.1787" x="270" y="718.1426">Appointment Service</text><text fill="#000000" font-family="sans-serif" font-size="14" lengthAdjust="spacing" textLength="119.8271" x="270" y="735.752">Notification Service</text><text fill="#000000" font-family="sans-serif" font-size="14" lengthAdjust="spacing" textLength="80.1309" x="270" y="753.3613">User Service</text><text fill="#000000" font-family="sans-serif" font-size="14" lengthAdjust="spacing" textLength="107.3857" x="270" y="770.9707">Calendar Service</text><text fill="#000000" font-family="sans-serif" font-size="14" lengthAdjust="spacing" textLength="116.7305" x="270" y="788.5801">Integration Service</text><line style="stroke:#181818;stroke-width:0.5;" x1="265" x2="404.1787" y1="795.6563" y2="795.6563"/></g><!--class NgRxStore--><g id="elem_NgRxStore"><rect codeLine="40" fill="#F1F1F1" height="65.6094" id="NgRxStore" rx="2.5" ry="2.5" style="stroke:#181818;stroke-width:0.5;" width="130.2959" x="454.5" y="907.6094"/><ellipse cx="482.9222" cy="923.6094" fill="#ADD1B2" rx="11" ry="11" style="stroke:#181818;stroke-width:1.0;"/><path d="M485.6878,919.4844 Q485.8441,919.2656 486.0316,919.1563 Q486.2191,919.0469 486.4378,919.0469 Q486.8128,919.0469 487.0472,919.3125 Q487.2816,919.5625 487.2816,920.1719 L487.2816,921.625 Q487.2816,922.2344 487.0472,922.5 Q486.8128,922.7656 486.4378,922.7656 Q486.0941,922.7656 485.891,922.5625 Q485.6878,922.375 485.5785,921.8594 Q485.5316,921.5 485.3441,921.3125 Q485.016,920.9375 484.4066,920.7188 Q483.7972,920.5 483.1722,920.5 Q482.4066,920.5 481.766,920.8281 Q481.141,921.1563 480.641,921.9063 Q480.1566,922.6563 480.1566,923.6875 L480.1566,924.7813 Q480.1566,926.0156 481.0472,926.8438 Q481.9378,927.6563 483.5316,927.6563 Q484.4691,927.6563 485.1253,927.4063 Q485.516,927.25 485.9378,926.8125 Q486.2035,926.5469 486.3441,926.4688 Q486.5003,926.3906 486.7035,926.3906 Q487.0316,926.3906 487.2816,926.6563 Q487.5472,926.9063 487.5472,927.25 Q487.5472,927.5938 487.2035,928 Q486.7035,928.5781 485.9066,928.9063 Q484.8285,929.3594 483.5316,929.3594 Q482.016,929.3594 480.8128,928.7344 Q479.8285,928.2344 479.141,927.1719 Q478.4535,926.0938 478.4535,924.8125 L478.4535,923.6563 Q478.4535,922.3281 479.0628,921.1875 Q479.6878,920.0313 480.7816,919.4219 Q481.8753,918.7969 483.1097,918.7969 Q483.8441,918.7969 484.4847,918.9688 Q485.141,919.125 485.6878,919.4844 Z " fill="#000000"/><text fill="#000000" font-family="sans-serif" font-size="14" lengthAdjust="spacing" textLength="68.4688" x="499.9049" y="929.3379">NgRxStore</text><line style="stroke:#181818;stroke-width:0.5;" x1="455.5" x2="583.7959" y1="939.6094" y2="939.6094"/><text fill="#000000" font-family="sans-serif" font-size="14" lengthAdjust="spacing" textLength="118.2959" x="460.5" y="958.1426">State Management</text><line style="stroke:#181818;stroke-width:0.5;" x1="455.5" x2="583.7959" y1="965.2188" y2="965.2188"/></g><!--class Entities--><g id="elem_Entities"><rect codeLine="44" fill="#F1F1F1" height="118.4375" id="Entities" rx="2.5" ry="2.5" style="stroke:#181818;stroke-width:0.5;" width="90.6064" x="7" y="881.6094"/><ellipse cx="27.7133" cy="897.6094" fill="#ADD1B2" rx="11" ry="11" style="stroke:#181818;stroke-width:1.0;"/><path d="M30.479,893.4844 Q30.6352,893.2656 30.8227,893.1563 Q31.0102,893.0469 31.229,893.0469 Q31.604,893.0469 31.8383,893.3125 Q32.0727,893.5625 32.0727,894.1719 L32.0727,895.625 Q32.0727,896.2344 31.8383,896.5 Q31.604,896.7656 31.229,896.7656 Q30.8852,896.7656 30.6821,896.5625 Q30.479,896.375 30.3696,895.8594 Q30.3227,895.5 30.1352,895.3125 Q29.8071,894.9375 29.1977,894.7188 Q28.5883,894.5 27.9633,894.5 Q27.1977,894.5 26.5571,894.8281 Q25.9321,895.1563 25.4321,895.9063 Q24.9477,896.6563 24.9477,897.6875 L24.9477,898.7813 Q24.9477,900.0156 25.8383,900.8438 Q26.729,901.6563 28.3227,901.6563 Q29.2602,901.6563 29.9165,901.4063 Q30.3071,901.25 30.729,900.8125 Q30.9946,900.5469 31.1352,900.4688 Q31.2915,900.3906 31.4946,900.3906 Q31.8227,900.3906 32.0727,900.6563 Q32.3383,900.9063 32.3383,901.25 Q32.3383,901.5938 31.9946,902 Q31.4946,902.5781 30.6977,902.9063 Q29.6196,903.3594 28.3227,903.3594 Q26.8071,903.3594 25.604,902.7344 Q24.6196,902.2344 23.9321,901.1719 Q23.2446,900.0938 23.2446,898.8125 L23.2446,897.6563 Q23.2446,896.3281 23.854,895.1875 Q24.479,894.0313 25.5727,893.4219 Q26.6665,892.7969 27.9008,892.7969 Q28.6352,892.7969 29.2758,892.9688 Q29.9321,893.125 30.479,893.4844 Z " fill="#000000"/><text fill="#000000" font-family="sans-serif" font-size="14" lengthAdjust="spacing" textLength="45.9102" x="42.983" y="903.3379">Entities</text><line style="stroke:#181818;stroke-width:0.5;" x1="8" x2="96.6064" y1="913.6094" y2="913.6094"/><text fill="#000000" font-family="sans-serif" font-size="14" lengthAdjust="spacing" textLength="78.6064" x="13" y="932.1426">Appointment</text><text fill="#000000" font-family="sans-serif" font-size="14" lengthAdjust="spacing" textLength="69.2549" x="13" y="949.752">Notification</text><text fill="#000000" font-family="sans-serif" font-size="14" lengthAdjust="spacing" textLength="29.5586" x="13" y="967.3613">User</text><text fill="#000000" font-family="sans-serif" font-size="14" lengthAdjust="spacing" textLength="56.8135" x="13" y="984.9707">Calendar</text><line style="stroke:#181818;stroke-width:0.5;" x1="8" x2="96.6064" y1="992.0469" y2="992.0469"/></g><!--class Kafka--><g id="elem_Kafka"><rect codeLine="51" fill="#F1F1F1" height="118.4375" id="Kafka" rx="2.5" ry="2.5" style="stroke:#181818;stroke-width:0.5;" width="142.7305" x="224" y="881.6094"/><ellipse cx="273.2153" cy="897.6094" fill="#ADD1B2" rx="11" ry="11" style="stroke:#181818;stroke-width:1.0;"/><path d="M275.981,893.4844 Q276.1372,893.2656 276.3247,893.1563 Q276.5122,893.0469 276.731,893.0469 Q277.106,893.0469 277.3403,893.3125 Q277.5747,893.5625 277.5747,894.1719 L277.5747,895.625 Q277.5747,896.2344 277.3403,896.5 Q277.106,896.7656 276.731,896.7656 Q276.3872,896.7656 276.1841,896.5625 Q275.981,896.375 275.8716,895.8594 Q275.8247,895.5 275.6372,895.3125 Q275.3091,894.9375 274.6997,894.7188 Q274.0903,894.5 273.4653,894.5 Q272.6997,894.5 272.0591,894.8281 Q271.4341,895.1563 270.9341,895.9063 Q270.4497,896.6563 270.4497,897.6875 L270.4497,898.7813 Q270.4497,900.0156 271.3403,900.8438 Q272.231,901.6563 273.8247,901.6563 Q274.7622,901.6563 275.4185,901.4063 Q275.8091,901.25 276.231,900.8125 Q276.4966,900.5469 276.6372,900.4688 Q276.7935,900.3906 276.9966,900.3906 Q277.3247,900.3906 277.5747,900.6563 Q277.8403,900.9063 277.8403,901.25 Q277.8403,901.5938 277.4966,902 Q276.9966,902.5781 276.1997,902.9063 Q275.1216,903.3594 273.8247,903.3594 Q272.3091,903.3594 271.106,902.7344 Q270.1216,902.2344 269.4341,901.1719 Q268.7466,900.0938 268.7466,898.8125 L268.7466,897.6563 Q268.7466,896.3281 269.356,895.1875 Q269.981,894.0313 271.0747,893.4219 Q272.1685,892.7969 273.4028,892.7969 Q274.1372,892.7969 274.7778,892.9688 Q275.4341,893.125 275.981,893.4844 Z " fill="#000000"/><text fill="#000000" font-family="sans-serif" font-size="14" lengthAdjust="spacing" textLength="35.7998" x="293.7153" y="903.3379">Kafka</text><line style="stroke:#181818;stroke-width:0.5;" x1="225" x2="365.7305" y1="913.6094" y2="913.6094"/><rect fill="none" height="6" style="stroke:#C82930;stroke-width:1.0;" width="6" x="232" y="924.9141"/><text fill="#000000" font-family="sans-serif" font-size="14" lengthAdjust="spacing" textLength="116.7305" x="244" y="932.1426">Appointment Topic</text><rect fill="none" height="6" style="stroke:#C82930;stroke-width:1.0;" width="6" x="232" y="942.5234"/><text fill="#000000" font-family="sans-serif" font-size="14" lengthAdjust="spacing" textLength="107.3789" x="244" y="949.752">Notification Topic</text><rect fill="none" height="6" style="stroke:#C82930;stroke-width:1.0;" width="6" x="232" y="960.1328"/><text fill="#000000" font-family="sans-serif" font-size="14" lengthAdjust="spacing" textLength="67.6826" x="244" y="967.3613">User Topic</text><rect fill="none" height="6" style="stroke:#C82930;stroke-width:1.0;" width="6" x="232" y="977.7422"/><text fill="#000000" font-family="sans-serif" font-size="14" lengthAdjust="spacing" textLength="94.9375" x="244" y="984.9707">Calendar Topic</text><line style="stroke:#181818;stroke-width:0.5;" x1="225" x2="365.7305" y1="992.0469" y2="992.0469"/></g><!--link AppointmentSchedulingApp to APIGateway--><g id="link_AppointmentSchedulingApp_APIGateway"><path codeLine="58" d="M367.17,428.6194 C363.55,438.6194 360.28,448.6494 357.5,458.6094 C353.23,473.8894 351.6819,485.2047 351.0419,500.4347 " fill="none" id="AppointmentSchedulingApp-to-APIGateway" style="stroke:#181818;stroke-width:1.0;"/><polygon fill="#181818" points="350.79,506.4294,355.1643,497.6053,350.9999,501.4338,347.1714,497.2694,350.79,506.4294" style="stroke:#181818;stroke-width:1.0;"/><text fill="#000000" font-family="sans-serif" font-size="13" lengthAdjust="spacing" textLength="203.0488" x="358.5" y="473.1045">Sends GraphQL Queries/Mutations</text></g><!--link APIGateway to Services--><g id="link_APIGateway_Services"><path codeLine="59" d="M347.77,589.8194 C345.69,612.5394 343.5874,635.4344 341.2074,661.4144 " fill="none" id="APIGateway-to-Services" style="stroke:#181818;stroke-width:1.0;"/><polygon fill="#181818" points="340.66,667.3894,345.4644,658.7918,341.1161,662.4102,337.4977,658.062,340.66,667.3894" style="stroke:#181818;stroke-width:1.0;"/><text fill="#000000" font-family="sans-serif" font-size="13" lengthAdjust="spacing" textLength="99.7217" x="345.5" y="634.1045">Routes Requests</text></g><!--link AppointmentSchedulingApp to NgRxStore--><g id="link_AppointmentSchedulingApp_NgRxStore"><path codeLine="60" d="M559.08,428.7094 C561.95,438.7094 564.46,448.7094 566.5,458.6094 C600.86,625.2194 552.9589,823.8576 530.8589,901.6876 " fill="none" id="AppointmentSchedulingApp-to-NgRxStore" style="stroke:#181818;stroke-width:1.0;"/><polygon fill="#181818" points="529.22,907.4594,535.5263,899.8943,530.5858,902.6495,527.8305,897.709,529.22,907.4594" style="stroke:#181818;stroke-width:1.0;"/><text fill="#000000" font-family="sans-serif" font-size="13" lengthAdjust="spacing" textLength="109.8462" x="578.5" y="634.1045">State Management</text></g><!--link Services to NgRxStore--><g id="link_Services_NgRxStore"><path codeLine="61" d="M401.56,803.8594 C411.06,813.7294 420.6,823.8594 429.5,833.6094 C451.63,857.8694 471.8094,881.6513 489.4694,902.9413 " fill="none" id="Services-to-NgRxStore" style="stroke:#181818;stroke-width:1.0;"/><polygon fill="#181818" points="493.3,907.5594,490.6327,898.0786,490.1078,903.711,484.4754,903.1861,493.3,907.5594" style="stroke:#181818;stroke-width:1.0;"/><text fill="#000000" font-family="sans-serif" font-size="13" lengthAdjust="spacing" textLength="82.3862" x="445.5" y="848.1045">State Updates</text></g><!--link Services to Entities--><g id="link_Services_Entities"><path codeLine="62" d="M263.96,744.9294 C205.63,755.5594 124.95,779.5994 77.5,833.6094 C65.9,846.8194 60.6357,858.5438 57.1057,875.6038 " fill="none" id="Services-to-Entities" style="stroke:#181818;stroke-width:1.0;"/><polygon fill="#181818" points="55.89,881.4794,61.6306,873.4766,56.9031,876.5831,53.7966,871.8556,55.89,881.4794" style="stroke:#181818;stroke-width:1.0;"/><text fill="#000000" font-family="sans-serif" font-size="13" lengthAdjust="spacing" textLength="99.7217" x="78.5" y="848.1045">Manages Entities</text></g><!--link Services to Kafka--><g id="link_Services_Kafka"><path codeLine="63" d="M263.75,766.0794 C235.64,781.7094 206.29,803.9394 190.5,833.6094 C176.26,860.3594 192.0526,881.3614 218.7426,900.0214 " fill="none" id="Services-to-Kafka" style="stroke:#181818;stroke-width:1.0;"/><polygon fill="#181818" points="223.66,903.4594,218.5759,895.0242,219.5622,900.5944,213.992,901.5807,223.66,903.4594" style="stroke:#181818;stroke-width:1.0;"/><text fill="#000000" font-family="sans-serif" font-size="13" lengthAdjust="spacing" textLength="99.7217" x="191.5" y="848.1045">Publishes Events</text></g><!--link Kafka to Services--><g id="link_Kafka_Services"><path codeLine="64" d="M306.66,881.4994 C311.33,857.2094 315.6597,834.7119 320.4897,809.5319 " fill="none" id="Kafka-to-Services" style="stroke:#181818;stroke-width:1.0;"/><polygon fill="#181818" points="321.62,803.6394,315.9962,811.7247,320.6781,808.5499,323.8529,813.2318,321.62,803.6394" style="stroke:#181818;stroke-width:1.0;"/><text fill="#000000" font-family="sans-serif" font-size="13" lengthAdjust="spacing" textLength="105.4917" x="315.5" y="848.1045">Consumes Events</text></g><!--SRC=[VLF1Zfim4Btp5Uu7eDuvLAA4PgFkHbdOxNqMXcIqngQsIHfL_VVQc82zkws4XFtyPkQz6VjJYnq9P5LPFENxxNt96WvQ9uaXmv7bmo19c1w5ONLpmdRa98uEPXk2euAUTLAnhsLH9ycQ8mXRerpGxuIn7uGNdJ6xIjCmgSCzM65FeaMb0wm0qI3dO4YA4B_R7VAS5R8VE3bASBGJ1gr45y4kP4vi8uKL-m02ZZXP2ai2Jmtrrl8PYCCBSJBNYA0_abe0Hz62YehDn_PpkgImfHR3jm3jjtjfgAF6s_BGDwdwULbZCofa6p30xa2qhlYSnjATWzMCnoTgAHfr7LnA3pvhz09L1mrwB3_iGit9dsX-XzqM35xWEarigs0uFTxRLLNBvXLDpAvHdQb1FN6Z6-CFB1hQ3E19sBfTchb2OLjlQ5HyVwn-rKRQBhdgjR6omwP4t5BOMqtlXRuHE0iB1CLflaFt2bEEDBBx90Tg9ZIokyAJtNMxsFMGhV7FTvEcNyAXPBONejMtmR374PNrzVbXDFDD2iWkTXbHnYev6hkeyEU8skZ_rroxcxtlxPBqO-RpqDgVZcdB2B8varwWcEYRdB73-C99dnplxDvHuW_Uc7BFOUnNqby0]--></g></svg>