<svg xmlns="http://www.w3.org/2000/svg" xmlns:xlink="http://www.w3.org/1999/xlink" contentStyleType="text/css" height="724px" preserveAspectRatio="none" style="width:819px;height:724px;background:#FFFFFF;" version="1.1" viewBox="0 0 819 724" width="819px" zoomAndPan="magnify"><defs/><g><!--cluster Appointment Scheduling App--><g id="cluster_Appointment Scheduling App"><path d="M8.5,6 L206.2588,6 A3.75,3.75 0 0 1 208.7588,8.5 L215.7588,29.6094 L809.5,29.6094 A2.5,2.5 0 0 1 812,32.1094 L812,714.5 A2.5,2.5 0 0 1 809.5,717 L8.5,717 A2.5,2.5 0 0 1 6,714.5 L6,8.5 A2.5,2.5 0 0 1 8.5,6 " fill="none" style="stroke:#000000;stroke-width:1.5;"/><line style="stroke:#000000;stroke-width:1.5;" x1="6" x2="215.7588" y1="29.6094" y2="29.6094"/><text fill="#000000" font-family="sans-serif" font-size="14" font-weight="bold" lengthAdjust="spacing" textLength="196.7588" x="10" y="22.5332">Appointment Scheduling App</text></g><!--cluster Domain--><g id="cluster_Domain"><path d="M32.5,50 L84.8379,50 A3.75,3.75 0 0 1 87.3379,52.5 L94.3379,73.6094 L785.5,73.6094 A2.5,2.5 0 0 1 788,76.1094 L788,503.5 A2.5,2.5 0 0 1 785.5,506 L32.5,506 A2.5,2.5 0 0 1 30,503.5 L30,52.5 A2.5,2.5 0 0 1 32.5,50 " fill="none" style="stroke:#000000;stroke-width:1.5;"/><line style="stroke:#000000;stroke-width:1.5;" x1="30" x2="94.3379" y1="73.6094" y2="73.6094"/><text fill="#000000" font-family="sans-serif" font-size="14" font-weight="bold" lengthAdjust="spacing" textLength="51.3379" x="34" y="66.5332">Domain</text></g><!--cluster Transactions--><g id="cluster_Transactions"><path d="M456.5,530 L544.6377,530 A3.75,3.75 0 0 1 547.1377,532.5 L554.1377,553.6094 L632.5,553.6094 A2.5,2.5 0 0 1 635,556.1094 L635,690.5 A2.5,2.5 0 0 1 632.5,693 L456.5,693 A2.5,2.5 0 0 1 454,690.5 L454,532.5 A2.5,2.5 0 0 1 456.5,530 " fill="none" style="stroke:#000000;stroke-width:1.5;"/><line style="stroke:#000000;stroke-width:1.5;" x1="454" x2="554.1377" y1="553.6094" y2="553.6094"/><text fill="#000000" font-family="sans-serif" font-size="14" font-weight="bold" lengthAdjust="spacing" textLength="87.1377" x="458" y="546.5332">Transactions</text></g><!--cluster Entities--><g id="cluster_Entities"><path d="M45,530 L96.5654,530 A3.75,3.75 0 0 1 99.0654,532.5 L106.0654,553.6094 L358.5,553.6094 A2.5,2.5 0 0 1 361,556.1094 L361,690.5 A2.5,2.5 0 0 1 358.5,693 L45,693 A2.5,2.5 0 0 1 42.5,690.5 L42.5,532.5 A2.5,2.5 0 0 1 45,530 " fill="none" style="stroke:#000000;stroke-width:1.5;"/><line style="stroke:#000000;stroke-width:1.5;" x1="42.5" x2="106.0654" y1="553.6094" y2="553.6094"/><text fill="#000000" font-family="sans-serif" font-size="14" font-weight="bold" lengthAdjust="spacing" textLength="50.5654" x="46.5" y="546.5332">Entities</text></g><!--entity Appointment List--><g id="elem_Appointment List"><rect fill="#F1F1F1" height="37.6094" rx="2.5" ry="2.5" style="stroke:#181818;stroke-width:0.5;" width="124.2822" x="46" y="224"/><text fill="#000000" font-family="sans-serif" font-size="14" lengthAdjust="spacing" textLength="104.2822" x="56" y="248.5332">Appointment List</text></g><!--entity Appointment Details View--><g id="elem_Appointment Details View"><rect fill="#F1F1F1" height="37.6094" rx="2.5" ry="2.5" style="stroke:#181818;stroke-width:0.5;" width="179.5234" x="230" y="196"/><text fill="#000000" font-family="sans-serif" font-size="14" lengthAdjust="spacing" textLength="159.5234" x="240" y="220.5332">Appointment Details View</text></g><!--entity Appointment Form View--><g id="elem_Appointment Form View"><rect fill="#F1F1F1" height="37.6094" rx="2.5" ry="2.5" style="stroke:#181818;stroke-width:0.5;" width="169.3926" x="235.5" y="123"/><text fill="#000000" font-family="sans-serif" font-size="14" lengthAdjust="spacing" textLength="149.3926" x="245.5" y="147.5332">Appointment Form View</text></g><!--entity Calendar View--><g id="elem_Calendar View"><rect fill="#F1F1F1" height="37.6094" rx="2.5" ry="2.5" style="stroke:#181818;stroke-width:0.5;" width="111.0479" x="264.5" y="379"/><text fill="#000000" font-family="sans-serif" font-size="14" lengthAdjust="spacing" textLength="91.0479" x="274.5" y="403.5332">Calendar View</text></g><!--entity Notification List View--><g id="elem_Notification List View"><rect fill="#F1F1F1" height="37.6094" rx="2.5" ry="2.5" style="stroke:#181818;stroke-width:0.5;" width="149.165" x="245.5" y="306"/><text fill="#000000" font-family="sans-serif" font-size="14" lengthAdjust="spacing" textLength="129.165" x="255.5" y="330.5332">Notification List View</text></g><!--entity API Service--><g id="elem_API Service"><rect fill="#F1F1F1" height="37.6094" rx="2.5" ry="2.5" style="stroke:#181818;stroke-width:0.5;" width="93.1377" x="679" y="352"/><text fill="#000000" font-family="sans-serif" font-size="14" lengthAdjust="spacing" textLength="73.1377" x="689" y="376.5332">API Service</text></g><!--entity NgRx Store--><g id="elem_NgRx Store"><rect fill="#F1F1F1" height="37.6094" rx="2.5" ry="2.5" style="stroke:#181818;stroke-width:0.5;" width="92.3584" x="498.5" y="251"/><text fill="#000000" font-family="sans-serif" font-size="14" lengthAdjust="spacing" textLength="72.3584" x="508.5" y="275.5332">NgRx Store</text></g><!--entity Notification Service--><g id="elem_Notification Service"><rect fill="#F1F1F1" height="37.6094" rx="2.5" ry="2.5" style="stroke:#181818;stroke-width:0.5;" width="139.8271" x="474.5" y="324"/><text fill="#000000" font-family="sans-serif" font-size="14" lengthAdjust="spacing" textLength="119.8271" x="484.5" y="348.5332">Notification Service</text></g><!--entity User Profile View--><g id="elem_User Profile View"><rect fill="#F1F1F1" height="37.6094" rx="2.5" ry="2.5" style="stroke:#181818;stroke-width:0.5;" width="127.3652" x="256.5" y="452"/><text fill="#000000" font-family="sans-serif" font-size="14" lengthAdjust="spacing" textLength="107.3652" x="266.5" y="476.5332">User Profile View</text></g><!--entity User Service--><g id="elem_User Service"><rect fill="#F1F1F1" height="37.6094" rx="2.5" ry="2.5" style="stroke:#181818;stroke-width:0.5;" width="100.1309" x="494.5" y="443"/><text fill="#000000" font-family="sans-serif" font-size="14" lengthAdjust="spacing" textLength="80.1309" x="504.5" y="467.5332">User Service</text></g><!--entity Appointment Service--><g id="elem_Appointment Service"><rect fill="#F1F1F1" height="37.6094" rx="2.5" ry="2.5" style="stroke:#181818;stroke-width:0.5;" width="149.1787" x="470" y="566"/><text fill="#000000" font-family="sans-serif" font-size="14" lengthAdjust="spacing" textLength="129.1787" x="480" y="590.5332">Appointment Service</text></g><!--entity Calendar Service--><g id="elem_Calendar Service"><rect fill="#F1F1F1" height="37.6094" rx="2.5" ry="2.5" style="stroke:#181818;stroke-width:0.5;" width="127.3857" x="481" y="639"/><text fill="#000000" font-family="sans-serif" font-size="14" lengthAdjust="spacing" textLength="107.3857" x="491" y="663.5332">Calendar Service</text></g><!--entity Appointment--><g id="elem_Appointment"><rect fill="#F1F1F1" height="37.6094" rx="2.5" ry="2.5" style="stroke:#181818;stroke-width:0.5;" width="98.6064" x="58.5" y="639"/><text fill="#000000" font-family="sans-serif" font-size="14" lengthAdjust="spacing" textLength="78.6064" x="68.5" y="663.5332">Appointment</text></g><!--entity Notification--><g id="elem_Notification"><rect fill="#F1F1F1" height="37.6094" rx="2.5" ry="2.5" style="stroke:#181818;stroke-width:0.5;" width="89.2549" x="63.5" y="566"/><text fill="#000000" font-family="sans-serif" font-size="14" lengthAdjust="spacing" textLength="69.2549" x="73.5" y="590.5332">Notification</text></g><!--entity User--><g id="elem_User"><rect fill="#F1F1F1" height="37.6094" rx="2.5" ry="2.5" style="stroke:#181818;stroke-width:0.5;" width="49.5586" x="295" y="639"/><text fill="#000000" font-family="sans-serif" font-size="14" lengthAdjust="spacing" textLength="29.5586" x="305" y="663.5332">User</text></g><!--link Appointment List to Appointment Details View--><g id="link_Appointment List_Appointment Details View"><path d="M170.02,234.86 C188.67,232.38 203.6325,230.3822 223.7525,227.7022 " fill="none" id="Appointment List-to-Appointment Details View" style="stroke:#181818;stroke-width:1.0;"/><polygon fill="#181818" points="229.7,226.91,220.2507,224.1333,224.7438,227.5702,221.3069,232.0633,229.7,226.91" style="stroke:#181818;stroke-width:1.0;"/></g><!--link Appointment List to Appointment Form View--><g id="link_Appointment List_Appointment Form View"><path d="M142.14,223.94 C166.18,210.42 199.67,192.23 230,178 C242.52,172.12 250.7193,168.5236 263.5993,163.3036 " fill="none" id="Appointment List-to-Appointment Form View" style="stroke:#181818;stroke-width:1.0;"/><polygon fill="#181818" points="269.16,161.05,259.3166,160.7233,264.5261,162.928,262.3214,168.1376,269.16,161.05" style="stroke:#181818;stroke-width:1.0;"/></g><!--link Appointment List to Calendar View--><g id="link_Appointment List_Calendar View"><path d="M124.44,262.03 C145.87,287.45 186.9,332.55 230,361 C240.47,367.91 246.9464,371.5604 258.6464,376.6404 " fill="none" id="Appointment List-to-Calendar View" style="stroke:#181818;stroke-width:1.0;"/><polygon fill="#181818" points="264.15,379.03,257.4876,371.7765,259.5637,377.0387,254.3015,379.1147,264.15,379.03" style="stroke:#181818;stroke-width:1.0;"/></g><!--link Appointment List to Notification List View--><g id="link_Appointment List_Notification List View"><path d="M157.71,262.02 C191.51,275.22 230.7812,290.547 264.6012,303.757 " fill="none" id="Appointment List-to-Notification List View" style="stroke:#181818;stroke-width:1.0;"/><polygon fill="#181818" points="270.19,305.94,263.2621,298.9397,265.5327,304.1209,260.3515,306.3914,270.19,305.94" style="stroke:#181818;stroke-width:1.0;"/></g><!--link Appointment List to API Service--><g id="link_Appointment List_API Service"><path d="M118.67,223.94 C135.97,192.23 175.58,129.66 230,105 C302.87,71.98 330.61,95.11 410,105 C516,118.21 562.82,93.41 643,164 C700.4,214.53 717.045,304.7728 721.965,345.7628 " fill="none" id="Appointment List-to-API Service" style="stroke:#181818;stroke-width:1.0;"/><polygon fill="#181818" points="722.68,351.72,725.5789,342.3074,722.0841,346.7556,717.6359,343.2608,722.68,351.72" style="stroke:#181818;stroke-width:1.0;"/></g><!--link Appointment List to NgRx Store--><g id="link_Appointment List_NgRx Store"><path d="M170.24,247.11 C189.38,248.38 210.57,249.77 230,251 C325.5,257.05 431.4104,263.3861 492.3404,266.9861 " fill="none" id="Appointment List-to-NgRx Store" style="stroke:#181818;stroke-width:1.0;"/><polygon fill="#181818" points="498.33,267.34,489.5816,262.8161,493.3387,267.0451,489.1097,270.8022,498.33,267.34" style="stroke:#181818;stroke-width:1.0;"/></g><!--link Appointment Details View to API Service--><g id="link_Appointment Details View_API Service"><path d="M410.29,198.5 C478.9,190.63 573.4,190.66 643,233 C687.33,259.97 708.6253,315.1373 717.8353,346.2173 " fill="none" id="Appointment Details View-to-API Service" style="stroke:#181818;stroke-width:1.0;"/><polygon fill="#181818" points="719.54,351.97,720.8181,342.2044,718.1194,347.1761,713.1478,344.4774,719.54,351.97" style="stroke:#181818;stroke-width:1.0;"/></g><!--link Appointment Details View to NgRx Store--><g id="link_Appointment Details View_NgRx Store"><path d="M397.88,234 C431.42,242.3 463.7554,250.29 492.5954,257.42 " fill="none" id="Appointment Details View-to-NgRx Store" style="stroke:#181818;stroke-width:1.0;"/><polygon fill="#181818" points="498.42,258.86,490.643,252.8169,493.5661,257.66,488.723,260.5831,498.42,258.86" style="stroke:#181818;stroke-width:1.0;"/></g><!--link Appointment Form View to API Service--><g id="link_Appointment Form View_API Service"><path d="M404.61,138.7 C474.96,140.17 574.72,152.69 643,205 C691.8,242.39 711.9172,310.8687 719.5972,345.9587 " fill="none" id="Appointment Form View-to-API Service" style="stroke:#181818;stroke-width:1.0;"/><polygon fill="#181818" points="720.88,351.82,722.8633,342.1729,719.811,346.9356,715.0483,343.8833,720.88,351.82" style="stroke:#181818;stroke-width:1.0;"/></g><!--link Appointment Form View to NgRx Store--><g id="link_Appointment Form View_NgRx Store"><path d="M373.65,161.07 C385.82,166.09 398.55,171.84 410,178 C450.15,199.62 488.1865,227.0718 514.1965,246.9918 " fill="none" id="Appointment Form View-to-NgRx Store" style="stroke:#181818;stroke-width:1.0;"/><polygon fill="#181818" points="518.96,250.64,514.2469,241.9921,514.9904,247.5999,509.3826,248.3434,518.96,250.64" style="stroke:#181818;stroke-width:1.0;"/></g><!--link Calendar View to API Service--><g id="link_Calendar View_API Service"><path d="M375.74,395.42 C439.84,392.25 549.21,386.37 643,379 C654.62,378.09 661.1884,377.5228 672.8684,376.3828 " fill="none" id="Calendar View-to-API Service" style="stroke:#181818;stroke-width:1.0;"/><polygon fill="#181818" points="678.84,375.8,669.494,372.6932,673.8636,376.2857,670.2711,380.6554,678.84,375.8" style="stroke:#181818;stroke-width:1.0;"/></g><!--link Calendar View to NgRx Store--><g id="link_Calendar View_NgRx Store"><path d="M375.68,381.3 C387.77,376.02 399.96,369.33 410,361 C432.48,342.34 423.15,324.2 446,306 C461.1,293.97 474.8868,287.5115 492.4868,281.9715 " fill="none" id="Calendar View-to-NgRx Store" style="stroke:#181818;stroke-width:1.0;"/><polygon fill="#181818" points="498.21,280.17,488.4243,279.0568,493.4407,281.6712,490.8263,286.6877,498.21,280.17" style="stroke:#181818;stroke-width:1.0;"/></g><!--link Notification List View to Notification Service--><g id="link_Notification List View_Notification Service"><path d="M394.78,330.97 C420.46,333.05 443.1694,334.8876 468.4594,336.9276 " fill="none" id="Notification List View-to-Notification Service" style="stroke:#181818;stroke-width:1.0;"/><polygon fill="#181818" points="474.44,337.41,465.7908,332.6993,469.4562,337.008,465.1475,340.6734,474.44,337.41" style="stroke:#181818;stroke-width:1.0;"/></g><!--link Notification List View to NgRx Store--><g id="link_Notification List View_NgRx Store"><path d="M394.78,306.76 C429.06,298.29 462.8958,289.9318 492.6258,282.5718 " fill="none" id="Notification List View-to-NgRx Store" style="stroke:#181818;stroke-width:1.0;"/><polygon fill="#181818" points="498.45,281.13,488.7525,279.41,493.5965,282.3315,490.675,287.1756,498.45,281.13" style="stroke:#181818;stroke-width:1.0;"/></g><!--link User Profile View to User Service--><g id="link_User Profile View_User Service"><path d="M383.57,468.47 C418.66,467.05 455.8049,465.5425 488.4349,464.2225 " fill="none" id="User Profile View-to-User Service" style="stroke:#181818;stroke-width:1.0;"/><polygon fill="#181818" points="494.43,463.98,485.2757,460.3471,489.4341,464.1821,485.599,468.3405,494.43,463.98" style="stroke:#181818;stroke-width:1.0;"/></g><!--link User Profile View to NgRx Store--><g id="link_User Profile View_NgRx Store"><path d="M383.65,453.53 C393.49,448.53 402.78,442.14 410,434 C449.21,389.79 405.91,349.42 446,306 C459.59,291.29 473.9417,284.176 492.3917,279.016 " fill="none" id="User Profile View-to-NgRx Store" style="stroke:#181818;stroke-width:1.0;"/><polygon fill="#181818" points="498.17,277.4,488.4252,275.9719,493.3548,278.7467,490.58,283.6762,498.17,277.4" style="stroke:#181818;stroke-width:1.0;"/></g><!--link Appointment Service to API Service--><g id="link_Appointment Service_API Service"><path d="M574.2,565.83 C594.91,551.08 622.68,529.33 643,506 C675.18,469.04 699.5921,423.1687 712.9321,395.6587 " fill="none" id="Appointment Service-to-API Service" style="stroke:#181818;stroke-width:1.0;"/><polygon fill="#181818" points="715.55,390.26,708.0239,396.6128,713.3684,394.759,715.2223,400.1034,715.55,390.26" style="stroke:#181818;stroke-width:1.0;"/></g><!--link Notification Service to API Service--><g id="link_Notification Service_API Service"><path d="M614.71,353.83 C636.25,357.2 653.5221,359.9028 673.0221,362.9528 " fill="none" id="Notification Service-to-API Service" style="stroke:#181818;stroke-width:1.0;"/><polygon fill="#181818" points="678.95,363.88,670.6762,358.5373,674.0101,363.1073,669.44,366.4412,678.95,363.88" style="stroke:#181818;stroke-width:1.0;"/></g><!--link User Service to API Service--><g id="link_User Service_API Service"><path d="M583.02,442.92 C613.57,427.39 651.1418,408.2996 681.6818,392.7696 " fill="none" id="User Service-to-API Service" style="stroke:#181818;stroke-width:1.0;"/><polygon fill="#181818" points="687.03,390.05,677.1946,390.564,682.5731,392.3164,680.8208,397.695,687.03,390.05" style="stroke:#181818;stroke-width:1.0;"/></g><!--link Calendar Service to API Service--><g id="link_Calendar Service_API Service"><path d="M608.23,644.3 C621.04,639.08 633.5,631.89 643,622 C707.45,554.94 720.5644,442.3889 723.3844,396.1889 " fill="none" id="Calendar Service-to-API Service" style="stroke:#181818;stroke-width:1.0;"/><polygon fill="#181818" points="723.75,390.2,719.2091,398.9396,723.4454,395.1907,727.1942,399.427,723.75,390.2" style="stroke:#181818;stroke-width:1.0;"/></g><!--SRC=[bPF1JiCm343l-Gfhz_q24c8W8I4qKU22Th1IjxFM9bLY60Zjtsah5TOkeKsEiLzURCl-mAP1XpLeMpVMa95ClYe2HrhGb1MfYWe1iU2ut0lat4NO6gKQr0Si2LRNJMFPIDt2aEazvUyLcnBQwnLyAsZFR-h6riXckExEspdzm5vsiCxjqQolng4D2NBbuPNfk4kcxwoh4z0RhCZaw1AGHojSiCQkDtqivQVRUyZ8VR2cXRBowHCoiQxD3mEZTgMO8k2yyQ_5AReG5NQDPpBdY6M7tuuCBpBTIziy7zI-U7AmTRRWTkCcH1-xDFs7d4kwv9CQBz-pG-EntruVNS51ETVWO4Vce55HYqUu09YMUck4XIbQPgIGoLU7jq_g1m00]--></g></svg>