<svg xmlns="http://www.w3.org/2000/svg" xmlns:xlink="http://www.w3.org/1999/xlink" contentStyleType="text/css" height="724px" preserveAspectRatio="none" style="width:784px;height:724px;background:#FFFFFF;" version="1.1" viewBox="0 0 784 724" width="784px" zoomAndPan="magnify"><defs/><g><!--cluster Appointment Scheduling App--><g id="cluster_Appointment Scheduling App"><path d="M8.5,6 L206.2588,6 A3.75,3.75 0 0 1 208.7588,8.5 L215.7588,29.6094 L774.5,29.6094 A2.5,2.5 0 0 1 777,32.1094 L777,714.5 A2.5,2.5 0 0 1 774.5,717 L8.5,717 A2.5,2.5 0 0 1 6,714.5 L6,8.5 A2.5,2.5 0 0 1 8.5,6 " fill="none" style="stroke:#000000;stroke-width:1.5;"/><line style="stroke:#000000;stroke-width:1.5;" x1="6" x2="215.7588" y1="29.6094" y2="29.6094"/><text fill="#000000" font-family="sans-serif" font-size="14" font-weight="bold" lengthAdjust="spacing" textLength="196.7588" x="10" y="22.5332">Appointment Scheduling App</text></g><!--cluster Domain--><g id="cluster_Domain"><path d="M32.5,50 L84.8379,50 A3.75,3.75 0 0 1 87.3379,52.5 L94.3379,73.6094 L750.5,73.6094 A2.5,2.5 0 0 1 753,76.1094 L753,503.5 A2.5,2.5 0 0 1 750.5,506 L32.5,506 A2.5,2.5 0 0 1 30,503.5 L30,52.5 A2.5,2.5 0 0 1 32.5,50 " fill="none" style="stroke:#000000;stroke-width:1.5;"/><line style="stroke:#000000;stroke-width:1.5;" x1="30" x2="94.3379" y1="73.6094" y2="73.6094"/><text fill="#000000" font-family="sans-serif" font-size="14" font-weight="bold" lengthAdjust="spacing" textLength="51.3379" x="34" y="66.5332">Domain</text></g><!--cluster Transactions--><g id="cluster_Transactions"><path d="M421.5,530 L509.6377,530 A3.75,3.75 0 0 1 512.1377,532.5 L519.1377,553.6094 L597.5,553.6094 A2.5,2.5 0 0 1 600,556.1094 L600,690.5 A2.5,2.5 0 0 1 597.5,693 L421.5,693 A2.5,2.5 0 0 1 419,690.5 L419,532.5 A2.5,2.5 0 0 1 421.5,530 " fill="none" style="stroke:#000000;stroke-width:1.5;"/><line style="stroke:#000000;stroke-width:1.5;" x1="419" x2="519.1377" y1="553.6094" y2="553.6094"/><text fill="#000000" font-family="sans-serif" font-size="14" font-weight="bold" lengthAdjust="spacing" textLength="87.1377" x="423" y="546.5332">Transactions</text></g><!--cluster Entities--><g id="cluster_Entities"><path d="M45,530 L96.5654,530 A3.75,3.75 0 0 1 99.0654,532.5 L106.0654,553.6094 L341,553.6094 A2.5,2.5 0 0 1 343.5,556.1094 L343.5,690.5 A2.5,2.5 0 0 1 341,693 L45,693 A2.5,2.5 0 0 1 42.5,690.5 L42.5,532.5 A2.5,2.5 0 0 1 45,530 " fill="none" style="stroke:#000000;stroke-width:1.5;"/><line style="stroke:#000000;stroke-width:1.5;" x1="42.5" x2="106.0654" y1="553.6094" y2="553.6094"/><text fill="#000000" font-family="sans-serif" font-size="14" font-weight="bold" lengthAdjust="spacing" textLength="50.5654" x="46.5" y="546.5332">Entities</text></g><!--entity Appointment List--><g id="elem_Appointment List"><rect fill="#F1F1F1" height="37.6094" rx="2.5" ry="2.5" style="stroke:#181818;stroke-width:0.5;" width="124.2822" x="46" y="224"/><text fill="#000000" font-family="sans-serif" font-size="14" lengthAdjust="spacing" textLength="104.2822" x="56" y="248.5332">Appointment List</text></g><!--entity Appointment Details--><g id="elem_Appointment Details"><rect fill="#F1F1F1" height="37.6094" rx="2.5" ry="2.5" style="stroke:#181818;stroke-width:0.5;" width="145.2891" x="230" y="196"/><text fill="#000000" font-family="sans-serif" font-size="14" lengthAdjust="spacing" textLength="125.2891" x="240" y="220.5332">Appointment Details</text></g><!--entity Appointment Form--><g id="elem_Appointment Form"><rect fill="#F1F1F1" height="37.6094" rx="2.5" ry="2.5" style="stroke:#181818;stroke-width:0.5;" width="135.1582" x="235" y="123"/><text fill="#000000" font-family="sans-serif" font-size="14" lengthAdjust="spacing" textLength="115.1582" x="245" y="147.5332">Appointment Form</text></g><!--entity Calendar View--><g id="elem_Calendar View"><rect fill="#F1F1F1" height="37.6094" rx="2.5" ry="2.5" style="stroke:#181818;stroke-width:0.5;" width="111.0479" x="247" y="379"/><text fill="#000000" font-family="sans-serif" font-size="14" lengthAdjust="spacing" textLength="91.0479" x="257" y="403.5332">Calendar View</text></g><!--entity Notification List--><g id="elem_Notification List"><rect fill="#F1F1F1" height="37.6094" rx="2.5" ry="2.5" style="stroke:#181818;stroke-width:0.5;" width="114.9307" x="245" y="306"/><text fill="#000000" font-family="sans-serif" font-size="14" lengthAdjust="spacing" textLength="94.9307" x="255" y="330.5332">Notification List</text></g><!--entity API Service--><g id="elem_API Service"><rect fill="#F1F1F1" height="37.6094" rx="2.5" ry="2.5" style="stroke:#181818;stroke-width:0.5;" width="93.1377" x="644" y="352"/><text fill="#000000" font-family="sans-serif" font-size="14" lengthAdjust="spacing" textLength="73.1377" x="654" y="376.5332">API Service</text></g><!--entity NgRx Store--><g id="elem_NgRx Store"><rect fill="#F1F1F1" height="37.6094" rx="2.5" ry="2.5" style="stroke:#181818;stroke-width:0.5;" width="92.3584" x="463.5" y="251"/><text fill="#000000" font-family="sans-serif" font-size="14" lengthAdjust="spacing" textLength="72.3584" x="473.5" y="275.5332">NgRx Store</text></g><!--entity Notification Service--><g id="elem_Notification Service"><rect fill="#F1F1F1" height="37.6094" rx="2.5" ry="2.5" style="stroke:#181818;stroke-width:0.5;" width="139.8271" x="439.5" y="324"/><text fill="#000000" font-family="sans-serif" font-size="14" lengthAdjust="spacing" textLength="119.8271" x="449.5" y="348.5332">Notification Service</text></g><!--entity User Profile--><g id="elem_User Profile"><rect fill="#F1F1F1" height="37.6094" rx="2.5" ry="2.5" style="stroke:#181818;stroke-width:0.5;" width="93.1309" x="256" y="452"/><text fill="#000000" font-family="sans-serif" font-size="14" lengthAdjust="spacing" textLength="73.1309" x="266" y="476.5332">User Profile</text></g><!--entity User Service--><g id="elem_User Service"><rect fill="#F1F1F1" height="37.6094" rx="2.5" ry="2.5" style="stroke:#181818;stroke-width:0.5;" width="100.1309" x="459.5" y="443"/><text fill="#000000" font-family="sans-serif" font-size="14" lengthAdjust="spacing" textLength="80.1309" x="469.5" y="467.5332">User Service</text></g><!--entity Appointment Service--><g id="elem_Appointment Service"><rect fill="#F1F1F1" height="37.6094" rx="2.5" ry="2.5" style="stroke:#181818;stroke-width:0.5;" width="149.1787" x="435" y="566"/><text fill="#000000" font-family="sans-serif" font-size="14" lengthAdjust="spacing" textLength="129.1787" x="445" y="590.5332">Appointment Service</text></g><!--entity Calendar Service--><g id="elem_Calendar Service"><rect fill="#F1F1F1" height="37.6094" rx="2.5" ry="2.5" style="stroke:#181818;stroke-width:0.5;" width="127.3857" x="446" y="639"/><text fill="#000000" font-family="sans-serif" font-size="14" lengthAdjust="spacing" textLength="107.3857" x="456" y="663.5332">Calendar Service</text></g><!--entity Appointment--><g id="elem_Appointment"><rect fill="#F1F1F1" height="37.6094" rx="2.5" ry="2.5" style="stroke:#181818;stroke-width:0.5;" width="98.6064" x="58.5" y="639"/><text fill="#000000" font-family="sans-serif" font-size="14" lengthAdjust="spacing" textLength="78.6064" x="68.5" y="663.5332">Appointment</text></g><!--entity Notification--><g id="elem_Notification"><rect fill="#F1F1F1" height="37.6094" rx="2.5" ry="2.5" style="stroke:#181818;stroke-width:0.5;" width="89.2549" x="63.5" y="566"/><text fill="#000000" font-family="sans-serif" font-size="14" lengthAdjust="spacing" textLength="69.2549" x="73.5" y="590.5332">Notification</text></g><!--entity User--><g id="elem_User"><rect fill="#F1F1F1" height="37.6094" rx="2.5" ry="2.5" style="stroke:#181818;stroke-width:0.5;" width="49.5586" x="277.5" y="639"/><text fill="#000000" font-family="sans-serif" font-size="14" lengthAdjust="spacing" textLength="29.5586" x="287.5" y="663.5332">User</text></g><!--link Appointment List to Appointment Details--><g id="link_Appointment List_Appointment Details"><path d="M170.17,234.1 C189.11,231.35 204.2025,229.1538 223.7925,226.3038 " fill="none" id="Appointment List-to-Appointment Details" style="stroke:#181818;stroke-width:1.0;"/><polygon fill="#181818" points="229.73,225.44,220.2479,222.7774,224.7821,226.1598,221.3996,230.694,229.73,225.44" style="stroke:#181818;stroke-width:1.0;"/></g><!--link Appointment List to Appointment Form--><g id="link_Appointment List_Appointment Form"><path d="M143.82,223.98 C167.93,210.89 200.81,193.19 230,178 C240.73,172.42 247.0594,169.1652 257.8194,163.7552 " fill="none" id="Appointment List-to-Appointment Form" style="stroke:#181818;stroke-width:1.0;"/><polygon fill="#181818" points="263.18,161.06,253.3423,161.5291,258.7129,163.306,256.936,168.6766,263.18,161.06" style="stroke:#181818;stroke-width:1.0;"/></g><!--link Appointment List to Calendar View--><g id="link_Appointment List_Calendar View"><path d="M125.55,262.37 C147.58,287.34 188.6,331.12 230,361 C239.07,367.54 244.1388,370.8188 254.1288,376.0688 " fill="none" id="Appointment List-to-Calendar View" style="stroke:#181818;stroke-width:1.0;"/><polygon fill="#181818" points="259.44,378.86,253.3339,371.1324,255.014,376.534,249.6123,378.214,259.44,378.86" style="stroke:#181818;stroke-width:1.0;"/></g><!--link Appointment List to Notification List--><g id="link_Appointment List_Notification List"><path d="M153.65,262.02 C184.63,275.22 220.23,290.3785 251.24,303.5885 " fill="none" id="Appointment List-to-Notification List" style="stroke:#181818;stroke-width:1.0;"/><polygon fill="#181818" points="256.76,305.94,250.0476,298.7328,252.16,303.9804,246.9123,306.0928,256.76,305.94" style="stroke:#181818;stroke-width:1.0;"/></g><!--link Appointment List to API Service--><g id="link_Appointment List_API Service"><path d="M118.67,223.94 C135.97,192.23 175.58,129.66 230,105 C288.7,78.4 311.08,96.77 375,105 C481.17,118.67 527.82,95.08 608,166 C664.8,216.24 681.7411,305.4469 686.8411,345.9869 " fill="none" id="Appointment List-to-API Service" style="stroke:#181818;stroke-width:1.0;"/><polygon fill="#181818" points="687.59,351.94,690.4354,342.5111,686.9659,346.9791,682.4979,343.5097,687.59,351.94" style="stroke:#181818;stroke-width:1.0;"/></g><!--link Appointment List to NgRx Store--><g id="link_Appointment List_NgRx Store"><path d="M170.11,247.13 C250.87,252.59 385.3237,261.6754 457.2337,266.5354 " fill="none" id="Appointment List-to-NgRx Store" style="stroke:#181818;stroke-width:1.0;"/><polygon fill="#181818" points="463.22,266.94,454.5102,262.3422,458.2314,266.6028,453.9708,270.324,463.22,266.94" style="stroke:#181818;stroke-width:1.0;"/></g><!--link Appointment Details to API Service--><g id="link_Appointment Details_API Service"><path d="M375.26,201.26 C440.78,192.66 537.83,190.15 608,233 C652.17,259.97 673.4664,314.8499 682.7464,345.9899 " fill="none" id="Appointment Details-to-API Service" style="stroke:#181818;stroke-width:1.0;"/><polygon fill="#181818" points="684.46,351.74,685.723,341.9725,683.032,346.9483,678.0562,344.2572,684.46,351.74" style="stroke:#181818;stroke-width:1.0;"/></g><!--link Appointment Details to NgRx Store--><g id="link_Appointment Details_NgRx Store"><path d="M374.34,234 C403.85,241.92 431.445,249.3252 457.535,256.3252 " fill="none" id="Appointment Details-to-NgRx Store" style="stroke:#181818;stroke-width:1.0;"/><polygon fill="#181818" points="463.33,257.88,455.674,251.6844,458.5008,256.5843,453.6009,259.4111,463.33,257.88" style="stroke:#181818;stroke-width:1.0;"/></g><!--link Appointment Form to API Service--><g id="link_Appointment Form_API Service"><path d="M370.09,139.89 C436.87,141.17 539.38,152.79 608,206 C656.35,243.49 676.6538,311.3661 684.4738,346.1461 " fill="none" id="Appointment Form-to-API Service" style="stroke:#181818;stroke-width:1.0;"/><polygon fill="#181818" points="685.79,352,687.7183,342.3418,684.6932,347.1218,679.9131,344.0967,685.79,352" style="stroke:#181818;stroke-width:1.0;"/></g><!--link Appointment Form to NgRx Store--><g id="link_Appointment Form_NgRx Store"><path d="M343.73,161.04 C354.07,166.27 365.08,172.12 375,178 C413.99,201.1 451.9085,227.9724 478.2685,247.3824 " fill="none" id="Appointment Form-to-NgRx Store" style="stroke:#181818;stroke-width:1.0;"/><polygon fill="#181818" points="483.1,250.94,478.2245,242.3826,479.0738,247.9753,473.481,248.8245,483.1,250.94" style="stroke:#181818;stroke-width:1.0;"/></g><!--link Calendar View to API Service--><g id="link_Calendar View_API Service"><path d="M358.27,395.17 C419.26,391.88 520.75,386 608,379 C619.62,378.07 626.1884,377.4933 637.8584,376.3533 " fill="none" id="Calendar View-to-API Service" style="stroke:#181818;stroke-width:1.0;"/><polygon fill="#181818" points="643.83,375.77,634.4837,372.664,638.8537,376.2561,635.2615,380.6261,643.83,375.77" style="stroke:#181818;stroke-width:1.0;"/></g><!--link Calendar View to NgRx Store--><g id="link_Calendar View_NgRx Store"><path d="M348.89,379 C358.11,373.95 367.32,367.93 375,361 C396.68,341.42 388.15,324.2 411,306 C426.1,293.97 439.8868,287.5115 457.4868,281.9715 " fill="none" id="Calendar View-to-NgRx Store" style="stroke:#181818;stroke-width:1.0;"/><polygon fill="#181818" points="463.21,280.17,453.4243,279.0568,458.4407,281.6712,455.8263,286.6877,463.21,280.17" style="stroke:#181818;stroke-width:1.0;"/></g><!--link Notification List to Notification Service--><g id="link_Notification List_Notification Service"><path d="M360.06,329.97 C384.59,332.12 407.5731,334.1341 433.3731,336.4041 " fill="none" id="Notification List-to-Notification Service" style="stroke:#181818;stroke-width:1.0;"/><polygon fill="#181818" points="439.35,336.93,430.7352,332.1566,434.3692,336.4918,430.0341,340.1258,439.35,336.93" style="stroke:#181818;stroke-width:1.0;"/></g><!--link Notification List to NgRx Store--><g id="link_Notification List_NgRx Store"><path d="M360.06,309.83 C392.65,301.08 427.2649,291.7945 457.6849,283.6345 " fill="none" id="Notification List-to-NgRx Store" style="stroke:#181818;stroke-width:1.0;"/><polygon fill="#181818" points="463.48,282.08,453.751,280.5483,458.6507,283.3754,455.8237,288.2752,463.48,282.08" style="stroke:#181818;stroke-width:1.0;"/></g><!--link User Profile to User Service--><g id="link_User Profile_User Service"><path d="M349.25,468.99 C381.94,467.56 419.8758,465.8935 453.3158,464.4235 " fill="none" id="User Profile-to-User Service" style="stroke:#181818;stroke-width:1.0;"/><polygon fill="#181818" points="459.31,464.16,450.143,460.5591,454.3148,464.3796,450.4944,468.5514,459.31,464.16" style="stroke:#181818;stroke-width:1.0;"/></g><!--link User Profile to NgRx Store--><g id="link_User Profile_NgRx Store"><path d="M349.14,454.47 C358.79,449.19 368.11,442.45 375,434 C412.33,388.19 370.91,349.42 411,306 C424.59,291.29 438.9417,284.176 457.3917,279.016 " fill="none" id="User Profile-to-NgRx Store" style="stroke:#181818;stroke-width:1.0;"/><polygon fill="#181818" points="463.17,277.4,453.4252,275.9719,458.3548,278.7467,455.58,283.6762,463.17,277.4" style="stroke:#181818;stroke-width:1.0;"/></g><!--link Appointment Service to API Service--><g id="link_Appointment Service_API Service"><path d="M539.2,565.83 C559.91,551.08 587.68,529.33 608,506 C640.18,469.04 664.5921,423.1687 677.9321,395.6587 " fill="none" id="Appointment Service-to-API Service" style="stroke:#181818;stroke-width:1.0;"/><polygon fill="#181818" points="680.55,390.26,673.0239,396.6128,678.3684,394.759,680.2223,400.1034,680.55,390.26" style="stroke:#181818;stroke-width:1.0;"/></g><!--link Notification Service to API Service--><g id="link_Notification Service_API Service"><path d="M579.71,353.83 C601.25,357.2 618.5221,359.9028 638.0221,362.9528 " fill="none" id="Notification Service-to-API Service" style="stroke:#181818;stroke-width:1.0;"/><polygon fill="#181818" points="643.95,363.88,635.6762,358.5373,639.0101,363.1073,634.44,366.4412,643.95,363.88" style="stroke:#181818;stroke-width:1.0;"/></g><!--link User Service to API Service--><g id="link_User Service_API Service"><path d="M548.02,442.92 C578.57,427.39 616.1418,408.2996 646.6818,392.7696 " fill="none" id="User Service-to-API Service" style="stroke:#181818;stroke-width:1.0;"/><polygon fill="#181818" points="652.03,390.05,642.1946,390.564,647.5731,392.3164,645.8208,397.695,652.03,390.05" style="stroke:#181818;stroke-width:1.0;"/></g><!--link Calendar Service to API Service--><g id="link_Calendar Service_API Service"><path d="M573.23,644.3 C586.04,639.08 598.5,631.89 608,622 C672.45,554.94 685.5644,442.3889 688.3844,396.1889 " fill="none" id="Calendar Service-to-API Service" style="stroke:#181818;stroke-width:1.0;"/><polygon fill="#181818" points="688.75,390.2,684.2091,398.9396,688.4454,395.1907,692.1942,399.427,688.75,390.2" style="stroke:#181818;stroke-width:1.0;"/></g><!--SRC=[bLFDIiGm4BxdAOQzxoi8uYe88ejLBxA78PrsXqsJaeok8llkjfLAVssQuypta_c62IUs9NeiGBkYT9Qi9F9b23nfGPiRKeOo0N7WEJyAf5nts5cbIjGdp0asrsNfs4fHaI7HHqhV3TiSgl86lXLKxm-wSmMoRSlrU-ko7pZ80RQfEzljLR-r8q4suR2QUETy4SUwGKCsHG-lJESuogCJpbXZdSXlB-v_-tj8o7-mfaYV_EaJ4d6-mayJsdpMc8mvopvDd6jC1eHfXtxqI_9pw6djyOvczZSs-fSwQVOIoCFUkumDTS1DUQm_W-vArxYBwb_HiqSRi3d3C7jBhTjIc9CHB95wyqIlAu8m7FNM2WlJx9WpWmo-scfVr0y0]--></g></svg>