<svg xmlns="http://www.w3.org/2000/svg" xmlns:xlink="http://www.w3.org/1999/xlink" contentStyleType="text/css" height="756px" preserveAspectRatio="none" style="width:809px;height:756px;background:#FFFFFF;" version="1.1" viewBox="0 0 809 756" width="809px" zoomAndPan="magnify"><defs/><g><!--cluster Appointment Scheduling App--><g id="cluster_Appointment Scheduling App"><path d="M8.5,6 L206.2588,6 A3.75,3.75 0 0 1 208.7588,8.5 L215.7588,29.6094 L799.5,29.6094 A2.5,2.5 0 0 1 802,32.1094 L802,746.5 A2.5,2.5 0 0 1 799.5,749 L8.5,749 A2.5,2.5 0 0 1 6,746.5 L6,8.5 A2.5,2.5 0 0 1 8.5,6 " fill="none" style="stroke:#000000;stroke-width:1.5;"/><line style="stroke:#000000;stroke-width:1.5;" x1="6" x2="215.7588" y1="29.6094" y2="29.6094"/><text fill="#000000" font-family="sans-serif" font-size="14" font-weight="bold" lengthAdjust="spacing" textLength="196.7588" x="10" y="22.5332">Appointment Scheduling App</text></g><!--cluster Domain--><g id="cluster_Domain"><path d="M32.5,50 L84.8379,50 A3.75,3.75 0 0 1 87.3379,52.5 L94.3379,73.6094 L775.5,73.6094 A2.5,2.5 0 0 1 778,76.1094 L778,519.5 A2.5,2.5 0 0 1 775.5,522 L32.5,522 A2.5,2.5 0 0 1 30,519.5 L30,52.5 A2.5,2.5 0 0 1 32.5,50 " fill="none" style="stroke:#000000;stroke-width:1.5;"/><line style="stroke:#000000;stroke-width:1.5;" x1="30" x2="94.3379" y1="73.6094" y2="73.6094"/><text fill="#000000" font-family="sans-serif" font-size="14" font-weight="bold" lengthAdjust="spacing" textLength="51.3379" x="34" y="66.5332">Domain</text></g><!--cluster Transactions--><g id="cluster_Transactions"><path d="M421.5,546 L509.6377,546 A3.75,3.75 0 0 1 512.1377,548.5 L519.1377,569.6094 L613.5,569.6094 A2.5,2.5 0 0 1 616,572.1094 L616,722.5 A2.5,2.5 0 0 1 613.5,725 L421.5,725 A2.5,2.5 0 0 1 419,722.5 L419,548.5 A2.5,2.5 0 0 1 421.5,546 " fill="none" style="stroke:#000000;stroke-width:1.5;"/><line style="stroke:#000000;stroke-width:1.5;" x1="419" x2="519.1377" y1="569.6094" y2="569.6094"/><text fill="#000000" font-family="sans-serif" font-size="14" font-weight="bold" lengthAdjust="spacing" textLength="87.1377" x="423" y="562.5332">Transactions</text></g><!--cluster Entities--><g id="cluster_Entities"><path d="M45,546 L96.5654,546 A3.75,3.75 0 0 1 99.0654,548.5 L106.0654,569.6094 L357,569.6094 A2.5,2.5 0 0 1 359.5,572.1094 L359.5,722.5 A2.5,2.5 0 0 1 357,725 L45,725 A2.5,2.5 0 0 1 42.5,722.5 L42.5,548.5 A2.5,2.5 0 0 1 45,546 " fill="none" style="stroke:#000000;stroke-width:1.5;"/><line style="stroke:#000000;stroke-width:1.5;" x1="42.5" x2="106.0654" y1="569.6094" y2="569.6094"/><text fill="#000000" font-family="sans-serif" font-size="14" font-weight="bold" lengthAdjust="spacing" textLength="50.5654" x="46.5" y="562.5332">Entities</text></g><!--entity Appointment List--><g id="elem_Appointment List"><rect fill="#F1F1F1" height="37.6094" rx="2.5" ry="2.5" style="stroke:#181818;stroke-width:0.5;" width="124.2822" x="54" y="232"/><text fill="#000000" font-family="sans-serif" font-size="14" lengthAdjust="spacing" textLength="104.2822" x="64" y="256.5332">Appointment List</text></g><!--entity Appointment Details--><g id="elem_Appointment Details"><rect fill="#F1F1F1" height="37.6094" rx="2.5" ry="2.5" style="stroke:#181818;stroke-width:0.5;" width="145.2891" x="238" y="204"/><text fill="#000000" font-family="sans-serif" font-size="14" lengthAdjust="spacing" textLength="125.2891" x="248" y="228.5332">Appointment Details</text></g><!--entity Appointment Form--><g id="elem_Appointment Form"><rect fill="#F1F1F1" height="37.6094" rx="2.5" ry="2.5" style="stroke:#181818;stroke-width:0.5;" width="135.1582" x="243" y="131"/><text fill="#000000" font-family="sans-serif" font-size="14" lengthAdjust="spacing" textLength="115.1582" x="253" y="155.5332">Appointment Form</text></g><!--entity Calendar View--><g id="elem_Calendar View"><rect fill="#F1F1F1" height="37.6094" rx="2.5" ry="2.5" style="stroke:#181818;stroke-width:0.5;" width="111.0479" x="255" y="387"/><text fill="#000000" font-family="sans-serif" font-size="14" lengthAdjust="spacing" textLength="91.0479" x="265" y="411.5332">Calendar View</text></g><!--entity Notification List--><g id="elem_Notification List"><rect fill="#F1F1F1" height="37.6094" rx="2.5" ry="2.5" style="stroke:#181818;stroke-width:0.5;" width="114.9307" x="253" y="314"/><text fill="#000000" font-family="sans-serif" font-size="14" lengthAdjust="spacing" textLength="94.9307" x="263" y="338.5332">Notification List</text></g><!--entity API Gateway--><g id="elem_API Gateway"><rect fill="#F1F1F1" height="37.6094" rx="2.5" ry="2.5" style="stroke:#181818;stroke-width:0.5;" width="101.7031" x="652" y="360"/><text fill="#000000" font-family="sans-serif" font-size="14" lengthAdjust="spacing" textLength="81.7031" x="662" y="384.5332">API Gateway</text></g><!--entity NgRx Store--><g id="elem_NgRx Store"><rect fill="#F1F1F1" height="37.6094" rx="2.5" ry="2.5" style="stroke:#181818;stroke-width:0.5;" width="92.3584" x="471.5" y="259"/><text fill="#000000" font-family="sans-serif" font-size="14" lengthAdjust="spacing" textLength="72.3584" x="481.5" y="283.5332">NgRx Store</text></g><!--entity Notification Service--><g id="elem_Notification Service"><rect fill="#F1F1F1" height="37.6094" rx="2.5" ry="2.5" style="stroke:#181818;stroke-width:0.5;" width="139.8271" x="447.5" y="332"/><text fill="#000000" font-family="sans-serif" font-size="14" lengthAdjust="spacing" textLength="119.8271" x="457.5" y="356.5332">Notification Service</text></g><!--entity User Profile--><g id="elem_User Profile"><rect fill="#F1F1F1" height="37.6094" rx="2.5" ry="2.5" style="stroke:#181818;stroke-width:0.5;" width="93.1309" x="264" y="460"/><text fill="#000000" font-family="sans-serif" font-size="14" lengthAdjust="spacing" textLength="73.1309" x="274" y="484.5332">User Profile</text></g><!--entity User Service--><g id="elem_User Service"><rect fill="#F1F1F1" height="37.6094" rx="2.5" ry="2.5" style="stroke:#181818;stroke-width:0.5;" width="100.1309" x="467.5" y="451"/><text fill="#000000" font-family="sans-serif" font-size="14" lengthAdjust="spacing" textLength="80.1309" x="477.5" y="475.5332">User Service</text></g><!--entity Appointment Service--><g id="elem_Appointment Service"><rect fill="#F1F1F1" height="37.6094" rx="2.5" ry="2.5" style="stroke:#181818;stroke-width:0.5;" width="149.1787" x="443" y="590"/><text fill="#000000" font-family="sans-serif" font-size="14" lengthAdjust="spacing" textLength="129.1787" x="453" y="614.5332">Appointment Service</text></g><!--entity Calendar Service--><g id="elem_Calendar Service"><rect fill="#F1F1F1" height="37.6094" rx="2.5" ry="2.5" style="stroke:#181818;stroke-width:0.5;" width="127.3857" x="454" y="663"/><text fill="#000000" font-family="sans-serif" font-size="14" lengthAdjust="spacing" textLength="107.3857" x="464" y="687.5332">Calendar Service</text></g><!--entity Appointment--><g id="elem_Appointment"><rect fill="#F1F1F1" height="37.6094" rx="2.5" ry="2.5" style="stroke:#181818;stroke-width:0.5;" width="98.6064" x="66.5" y="663"/><text fill="#000000" font-family="sans-serif" font-size="14" lengthAdjust="spacing" textLength="78.6064" x="76.5" y="687.5332">Appointment</text></g><!--entity Notification--><g id="elem_Notification"><rect fill="#F1F1F1" height="37.6094" rx="2.5" ry="2.5" style="stroke:#181818;stroke-width:0.5;" width="89.2549" x="71.5" y="590"/><text fill="#000000" font-family="sans-serif" font-size="14" lengthAdjust="spacing" textLength="69.2549" x="81.5" y="614.5332">Notification</text></g><!--entity User--><g id="elem_User"><rect fill="#F1F1F1" height="37.6094" rx="2.5" ry="2.5" style="stroke:#181818;stroke-width:0.5;" width="49.5586" x="285.5" y="663"/><text fill="#000000" font-family="sans-serif" font-size="14" lengthAdjust="spacing" textLength="29.5586" x="295.5" y="687.5332">User</text></g><!--link Appointment List to Appointment Details--><g id="link_Appointment List_Appointment Details"><path d="M178.17,242.1 C197.11,239.35 212.2025,237.1538 231.7925,234.3038 " fill="none" id="Appointment List-to-Appointment Details" style="stroke:#181818;stroke-width:1.0;"/><polygon fill="#181818" points="237.73,233.44,228.2479,230.7774,232.7821,234.1598,229.3996,238.694,237.73,233.44" style="stroke:#181818;stroke-width:1.0;"/></g><!--link Appointment List to Appointment Form--><g id="link_Appointment List_Appointment Form"><path d="M151.82,231.98 C175.93,218.89 208.81,201.19 238,186 C248.73,180.42 255.0594,177.1652 265.8194,171.7552 " fill="none" id="Appointment List-to-Appointment Form" style="stroke:#181818;stroke-width:1.0;"/><polygon fill="#181818" points="271.18,169.06,261.3423,169.5291,266.7129,171.306,264.936,176.6766,271.18,169.06" style="stroke:#181818;stroke-width:1.0;"/></g><!--link Appointment List to Calendar View--><g id="link_Appointment List_Calendar View"><path d="M133.55,270.37 C155.58,295.34 196.6,339.12 238,369 C247.07,375.54 252.1388,378.8188 262.1288,384.0688 " fill="none" id="Appointment List-to-Calendar View" style="stroke:#181818;stroke-width:1.0;"/><polygon fill="#181818" points="267.44,386.86,261.3339,379.1324,263.014,384.534,257.6123,386.214,267.44,386.86" style="stroke:#181818;stroke-width:1.0;"/></g><!--link Appointment List to Notification List--><g id="link_Appointment List_Notification List"><path d="M161.65,270.02 C192.63,283.22 228.23,298.3785 259.24,311.5885 " fill="none" id="Appointment List-to-Notification List" style="stroke:#181818;stroke-width:1.0;"/><polygon fill="#181818" points="264.76,313.94,258.0476,306.7328,260.16,311.9804,254.9123,314.0928,264.76,313.94" style="stroke:#181818;stroke-width:1.0;"/></g><!--link Appointment List to API Gateway--><g id="link_Appointment List_API Gateway"><path d="M126.67,231.94 C143.97,200.23 183.58,137.66 238,113 C296.7,86.4 319.02,105.28 383,113 C492.48,126.21 541.48,98.85 624,172 C680.9,222.44 695.8391,312.7102 699.9691,353.7402 " fill="none" id="Appointment List-to-API Gateway" style="stroke:#181818;stroke-width:1.0;"/><polygon fill="#181818" points="700.57,359.71,703.6485,350.3546,700.0692,354.7351,695.6887,351.1559,700.57,359.71" style="stroke:#181818;stroke-width:1.0;"/></g><!--link Appointment List to NgRx Store--><g id="link_Appointment List_NgRx Store"><path d="M178.11,255.13 C258.87,260.59 393.3237,269.6754 465.2337,274.5354 " fill="none" id="Appointment List-to-NgRx Store" style="stroke:#181818;stroke-width:1.0;"/><polygon fill="#181818" points="471.22,274.94,462.5102,270.3422,466.2314,274.6028,461.9708,278.324,471.22,274.94" style="stroke:#181818;stroke-width:1.0;"/></g><!--link Appointment Details to API Gateway--><g id="link_Appointment Details_API Gateway"><path d="M383.06,208.76 C450.45,199.35 551.57,195.9 624,241 C667.45,268.06 687.3586,322.8621 695.8586,353.9721 " fill="none" id="Appointment Details-to-API Gateway" style="stroke:#181818;stroke-width:1.0;"/><polygon fill="#181818" points="697.44,359.76,698.9265,350.024,696.1222,354.9368,691.2094,352.1325,697.44,359.76" style="stroke:#181818;stroke-width:1.0;"/></g><!--link Appointment Details to NgRx Store--><g id="link_Appointment Details_NgRx Store"><path d="M382.34,242 C411.85,249.92 439.445,257.3252 465.535,264.3252 " fill="none" id="Appointment Details-to-NgRx Store" style="stroke:#181818;stroke-width:1.0;"/><polygon fill="#181818" points="471.33,265.88,463.674,259.6844,466.5008,264.5843,461.6009,267.4111,471.33,265.88" style="stroke:#181818;stroke-width:1.0;"/></g><!--link Appointment Form to API Gateway--><g id="link_Appointment Form_API Gateway"><path d="M378.11,146.86 C446.73,147.1 553.35,157.57 624,213 C671.98,250.64 690.6498,318.9752 697.6098,353.9752 " fill="none" id="Appointment Form-to-API Gateway" style="stroke:#181818;stroke-width:1.0;"/><polygon fill="#181818" points="698.78,359.86,700.9478,350.2527,697.8048,354.956,693.1015,351.813,698.78,359.86" style="stroke:#181818;stroke-width:1.0;"/></g><!--link Appointment Form to NgRx Store--><g id="link_Appointment Form_NgRx Store"><path d="M351.73,169.04 C362.07,174.27 373.08,180.12 383,186 C421.99,209.1 459.9085,235.9724 486.2685,255.3824 " fill="none" id="Appointment Form-to-NgRx Store" style="stroke:#181818;stroke-width:1.0;"/><polygon fill="#181818" points="491.1,258.94,486.2245,250.3826,487.0738,255.9753,481.481,256.8245,491.1,258.94" style="stroke:#181818;stroke-width:1.0;"/></g><!--link Calendar View to API Gateway--><g id="link_Calendar View_API Gateway"><path d="M366.03,403.37 C428.43,400.2 533.67,394.38 624,387 C632.95,386.27 636.5091,385.9706 645.7091,385.0606 " fill="none" id="Calendar View-to-API Gateway" style="stroke:#181818;stroke-width:1.0;"/><polygon fill="#181818" points="651.68,384.47,642.33,381.3753,646.7043,384.9622,643.1174,389.3365,651.68,384.47" style="stroke:#181818;stroke-width:1.0;"/></g><!--link Calendar View to NgRx Store--><g id="link_Calendar View_NgRx Store"><path d="M358.59,386.99 C367.39,382.02 376.01,376.04 383,369 C402.33,349.54 390.28,331.97 411,314 C427.89,299.36 445.1977,292.0889 465.4977,286.8889 " fill="none" id="Calendar View-to-NgRx Store" style="stroke:#181818;stroke-width:1.0;"/><polygon fill="#181818" points="471.31,285.4,461.5989,283.7584,466.4664,286.6407,463.5841,291.5082,471.31,285.4" style="stroke:#181818;stroke-width:1.0;"/></g><!--link Notification List to Notification Service--><g id="link_Notification List_Notification Service"><path d="M368.06,337.97 C392.59,340.12 415.5731,342.1341 441.3731,344.4041 " fill="none" id="Notification List-to-Notification Service" style="stroke:#181818;stroke-width:1.0;"/><polygon fill="#181818" points="447.35,344.93,438.7352,340.1566,442.3692,344.4918,438.0341,348.1258,447.35,344.93" style="stroke:#181818;stroke-width:1.0;"/></g><!--link Notification List to NgRx Store--><g id="link_Notification List_NgRx Store"><path d="M368.06,317.83 C400.65,309.08 435.2649,299.7945 465.6849,291.6345 " fill="none" id="Notification List-to-NgRx Store" style="stroke:#181818;stroke-width:1.0;"/><polygon fill="#181818" points="471.48,290.08,461.751,288.5483,466.6507,291.3754,463.8237,296.2752,471.48,290.08" style="stroke:#181818;stroke-width:1.0;"/></g><!--link User Profile to User Service--><g id="link_User Profile_User Service"><path d="M357.25,476.99 C389.94,475.56 427.8758,473.8935 461.3158,472.4235 " fill="none" id="User Profile-to-User Service" style="stroke:#181818;stroke-width:1.0;"/><polygon fill="#181818" points="467.31,472.16,458.143,468.5591,462.3148,472.3796,458.4944,476.5514,467.31,472.16" style="stroke:#181818;stroke-width:1.0;"/></g><!--link User Profile to NgRx Store--><g id="link_User Profile_NgRx Store"><path d="M357.14,462.96 C366.9,457.64 376.28,450.76 383,442 C418.44,395.79 372.22,357.45 411,314 C426.33,296.82 444.3527,289.131 465.5127,284.431 " fill="none" id="User Profile-to-NgRx Store" style="stroke:#181818;stroke-width:1.0;"/><polygon fill="#181818" points="471.37,283.13,461.7168,281.1767,466.489,284.2142,463.4515,288.9863,471.37,283.13" style="stroke:#181818;stroke-width:1.0;"/></g><!--link Appointment Service to API Gateway--><g id="link_Appointment Service_API Gateway"><path d="M544.02,589.82 C566.78,571.88 600.11,543.49 624,514 C654.5,476.35 677.92,430.7764 690.79,403.4964 " fill="none" id="Appointment Service-to-API Gateway" style="stroke:#181818;stroke-width:1.0;"/><polygon fill="#181818" points="693.35,398.07,685.8923,404.5029,691.2166,402.592,693.1275,407.9163,693.35,398.07" style="stroke:#181818;stroke-width:1.0;"/></g><!--link Notification Service to API Gateway--><g id="link_Notification Service_API Gateway"><path d="M587.61,361.55 C608.95,364.8 626.0886,367.4153 645.8886,370.4353 " fill="none" id="Notification Service-to-API Gateway" style="stroke:#181818;stroke-width:1.0;"/><polygon fill="#181818" points="651.82,371.34,643.526,366.0287,646.8772,370.5861,642.3198,373.9372,651.82,371.34" style="stroke:#181818;stroke-width:1.0;"/></g><!--link User Service to API Gateway--><g id="link_User Service_API Gateway"><path d="M556.97,450.92 C588.29,435.39 626.9052,416.2468 658.2052,400.7168 " fill="none" id="User Service-to-API Gateway" style="stroke:#181818;stroke-width:1.0;"/><polygon fill="#181818" points="663.58,398.05,653.74,398.467,659.101,400.2723,657.2957,405.6334,663.58,398.05" style="stroke:#181818;stroke-width:1.0;"/></g><!--link Calendar Service to API Gateway--><g id="link_Calendar Service_API Gateway"><path d="M581.06,671.37 C596.82,666.04 612.5,658.03 624,646 C692.42,574.45 701.1792,452.2792 701.9892,404.0492 " fill="none" id="Calendar Service-to-API Gateway" style="stroke:#181818;stroke-width:1.0;"/><polygon fill="#181818" points="702.09,398.05,697.9394,406.9816,702.006,403.0493,705.9383,407.1159,702.09,398.05" style="stroke:#181818;stroke-width:1.0;"/></g><!--SRC=[bLF1JiCm3BtdAwpTzmj8Y052GcYYm0NrOALkPorDgjGm9hH_f-qeQhMKfZxqyEBdPp_NzPvjXHvBqAwid2KhYHmDWISjQ0j3ob0k80uy5pk1ZDiNTbQf2lKU2uBLTLKvjb8sP4ZqZh8FmxQ01bx1ju8c_b8thaIsFTo6k89aHtu0jV4-BFh8jQImNb-DuGq9igdJnSGxvyiurWqQiXbwU6Cwn56Ud73E6bkJpdXSVzi7k4UX0nuZTOhdBqZ4UKhLDA7tQ8d8c1EdqrcwH6H0c5OOspzNFfGzNVjoJu7z9UG_MLCQIPqKUwsRFtphNSw6VfCxA5m_a3qitUUTrFaxFh4NZxR6xaRhfOVMjpFdTD2ZET9euEXTHX32FjnQOM5Qwi4_amRckMpYf7u0]--></g></svg>