<svg xmlns="http://www.w3.org/2000/svg" xmlns:xlink="http://www.w3.org/1999/xlink" contentStyleType="text/css" height="971px" preserveAspectRatio="none" style="width:694px;height:971px;background:#FFFFFF;" version="1.1" viewBox="0 0 694 971" width="694px" zoomAndPan="magnify"><title>Compliance and Regulatory App Diagram for BECS</title><defs/><g><text fill="#000000" font-family="sans-serif" font-size="14" font-weight="bold" lengthAdjust="spacing" textLength="341.4961" x="169.675" y="24.5332">Compliance and Regulatory App Diagram for BECS</text><!--class ComplianceAndReportingApp--><g id="elem_ComplianceAndReportingApp"><rect codeLine="5" fill="#F1F1F1" height="347.3594" id="ComplianceAndReportingApp" rx="2.5" ry="2.5" style="stroke:#181818;stroke-width:0.5;" width="291.3232" x="323.5" y="45.6094"/><ellipse cx="372.688" cy="61.6094" fill="#ADD1B2" rx="11" ry="11" style="stroke:#181818;stroke-width:1.0;"/><path d="M375.4536,57.4844 Q375.6099,57.2656 375.7974,57.1563 Q375.9849,57.0469 376.2036,57.0469 Q376.5786,57.0469 376.813,57.3125 Q377.0474,57.5625 377.0474,58.1719 L377.0474,59.625 Q377.0474,60.2344 376.813,60.5 Q376.5786,60.7656 376.2036,60.7656 Q375.8599,60.7656 375.6567,60.5625 Q375.4536,60.375 375.3442,59.8594 Q375.2974,59.5 375.1099,59.3125 Q374.7817,58.9375 374.1724,58.7188 Q373.563,58.5 372.938,58.5 Q372.1724,58.5 371.5317,58.8281 Q370.9067,59.1563 370.4067,59.9063 Q369.9224,60.6563 369.9224,61.6875 L369.9224,62.7813 Q369.9224,64.0156 370.813,64.8438 Q371.7036,65.6563 373.2974,65.6563 Q374.2349,65.6563 374.8911,65.4063 Q375.2817,65.25 375.7036,64.8125 Q375.9692,64.5469 376.1099,64.4688 Q376.2661,64.3906 376.4692,64.3906 Q376.7974,64.3906 377.0474,64.6563 Q377.313,64.9063 377.313,65.25 Q377.313,65.5938 376.9692,66 Q376.4692,66.5781 375.6724,66.9063 Q374.5942,67.3594 373.2974,67.3594 Q371.7817,67.3594 370.5786,66.7344 Q369.5942,66.2344 368.9067,65.1719 Q368.2192,64.0938 368.2192,62.8125 L368.2192,61.6563 Q368.2192,60.3281 368.8286,59.1875 Q369.4536,58.0313 370.5474,57.4219 Q371.6411,56.7969 372.8755,56.7969 Q373.6099,56.7969 374.2505,56.9688 Q374.9067,57.125 375.4536,57.4844 Z " fill="#000000"/><text fill="#000000" font-family="sans-serif" font-size="14" lengthAdjust="spacing" textLength="184.4473" x="393.188" y="67.3379">ComplianceAndReportingApp</text><line style="stroke:#181818;stroke-width:0.5;" x1="324.5" x2="613.8232" y1="77.6094" y2="77.6094"/><text fill="#000000" font-family="sans-serif" font-size="14" lengthAdjust="spacing" textLength="41.2344" x="329.5" y="96.1426">Views:</text><text fill="#000000" font-family="sans-serif" font-size="14" lengthAdjust="spacing" textLength="192.9648" x="329.5" y="113.752">-- Regulatory Compliance View</text><text fill="#000000" font-family="sans-serif" font-size="14" lengthAdjust="spacing" textLength="113.6064" x="329.5" y="131.3613">-- Audit Logs View</text><text fill="#000000" font-family="sans-serif" font-size="14" lengthAdjust="spacing" textLength="108.1514" x="329.5" y="148.9707">-- Reporting View</text><text fill="#000000" font-family="sans-serif" font-size="14" lengthAdjust="spacing" textLength="167.2754" x="329.5" y="166.5801">-- HIPAA Compliance View</text><text fill="#000000" font-family="sans-serif" font-size="14" lengthAdjust="spacing" textLength="3.8896" x="329.5" y="184.1895">&#160;</text><text fill="#000000" font-family="sans-serif" font-size="14" lengthAdjust="spacing" textLength="83.2686" x="329.5" y="201.7988">Components:</text><text fill="#000000" font-family="sans-serif" font-size="14" lengthAdjust="spacing" textLength="62.2344" x="329.5" y="219.4082">-- Reports</text><text fill="#000000" font-family="sans-serif" font-size="14" lengthAdjust="spacing" textLength="43.5723" x="329.5" y="237.0176">-- Logs</text><text fill="#000000" font-family="sans-serif" font-size="14" lengthAdjust="spacing" textLength="125.2617" x="329.5" y="254.627">-- Data Export Tools</text><text fill="#000000" font-family="sans-serif" font-size="14" lengthAdjust="spacing" textLength="166.5166" x="329.5" y="272.2363">-- Compliance Dashboards</text><text fill="#000000" font-family="sans-serif" font-size="14" lengthAdjust="spacing" textLength="142.3926" x="329.5" y="289.8457">-- Quality Management</text><text fill="#000000" font-family="sans-serif" font-size="14" lengthAdjust="spacing" textLength="83.2344" x="329.5" y="307.4551">-- Audit Trails</text><text fill="#000000" font-family="sans-serif" font-size="14" lengthAdjust="spacing" textLength="101.1377" x="329.5" y="325.0645">-- User Interface</text><text fill="#000000" font-family="sans-serif" font-size="14" lengthAdjust="spacing" textLength="105.8271" x="329.5" y="342.6738">-- API Integration</text><line style="stroke:#181818;stroke-width:0.5;" x1="324.5" x2="613.8232" y1="349.75" y2="349.75"/><text fill="#000000" font-family="sans-serif" font-size="14" lengthAdjust="spacing" textLength="279.3232" x="329.5" y="368.2832">-- FDA Regulations View (21 CFR Part 1271)</text><text fill="#000000" font-family="sans-serif" font-size="14" lengthAdjust="spacing" textLength="252.8613" x="329.5" y="385.8926">-- GDPR Compliance View (if applicable)</text></g><!--class APIGateway--><g id="elem_APIGateway"><rect codeLine="25" fill="#F1F1F1" height="83.2188" id="APIGateway" rx="2.5" ry="2.5" style="stroke:#181818;stroke-width:0.5;" width="109.8135" x="294" y="470.6094"/><ellipse cx="309" cy="486.6094" fill="#ADD1B2" rx="11" ry="11" style="stroke:#181818;stroke-width:1.0;"/><path d="M311.7656,482.4844 Q311.9219,482.2656 312.1094,482.1563 Q312.2969,482.0469 312.5156,482.0469 Q312.8906,482.0469 313.125,482.3125 Q313.3594,482.5625 313.3594,483.1719 L313.3594,484.625 Q313.3594,485.2344 313.125,485.5 Q312.8906,485.7656 312.5156,485.7656 Q312.1719,485.7656 311.9688,485.5625 Q311.7656,485.375 311.6563,484.8594 Q311.6094,484.5 311.4219,484.3125 Q311.0938,483.9375 310.4844,483.7188 Q309.875,483.5 309.25,483.5 Q308.4844,483.5 307.8438,483.8281 Q307.2188,484.1563 306.7188,484.9063 Q306.2344,485.6563 306.2344,486.6875 L306.2344,487.7813 Q306.2344,489.0156 307.125,489.8438 Q308.0156,490.6563 309.6094,490.6563 Q310.5469,490.6563 311.2031,490.4063 Q311.5938,490.25 312.0156,489.8125 Q312.2813,489.5469 312.4219,489.4688 Q312.5781,489.3906 312.7813,489.3906 Q313.1094,489.3906 313.3594,489.6563 Q313.625,489.9063 313.625,490.25 Q313.625,490.5938 313.2813,491 Q312.7813,491.5781 311.9844,491.9063 Q310.9063,492.3594 309.6094,492.3594 Q308.0938,492.3594 306.8906,491.7344 Q305.9063,491.2344 305.2188,490.1719 Q304.5313,489.0938 304.5313,487.8125 L304.5313,486.6563 Q304.5313,485.3281 305.1406,484.1875 Q305.7656,483.0313 306.8594,482.4219 Q307.9531,481.7969 309.1875,481.7969 Q309.9219,481.7969 310.5625,481.9688 Q311.2188,482.125 311.7656,482.4844 Z " fill="#000000"/><text fill="#000000" font-family="sans-serif" font-size="14" lengthAdjust="spacing" textLength="77.8135" x="323" y="492.3379">APIGateway</text><line style="stroke:#181818;stroke-width:0.5;" x1="295" x2="402.8135" y1="502.6094" y2="502.6094"/><text fill="#000000" font-family="sans-serif" font-size="14" lengthAdjust="spacing" textLength="57.5859" x="300" y="521.1426">GraphQL</text><text fill="#000000" font-family="sans-serif" font-size="14" lengthAdjust="spacing" textLength="52.9102" x="300" y="538.752">RSocket</text><line style="stroke:#181818;stroke-width:0.5;" x1="295" x2="402.8135" y1="545.8281" y2="545.8281"/></g><!--class Services--><g id="elem_Services"><rect codeLine="30" fill="#F1F1F1" height="136.0469" id="Services" rx="2.5" ry="2.5" style="stroke:#181818;stroke-width:0.5;" width="136.4961" x="264" y="631.6094"/><ellipse cx="301.8661" cy="647.6094" fill="#ADD1B2" rx="11" ry="11" style="stroke:#181818;stroke-width:1.0;"/><path d="M304.6317,643.4844 Q304.7879,643.2656 304.9754,643.1563 Q305.1629,643.0469 305.3817,643.0469 Q305.7567,643.0469 305.9911,643.3125 Q306.2254,643.5625 306.2254,644.1719 L306.2254,645.625 Q306.2254,646.2344 305.9911,646.5 Q305.7567,646.7656 305.3817,646.7656 Q305.0379,646.7656 304.8348,646.5625 Q304.6317,646.375 304.5223,645.8594 Q304.4754,645.5 304.2879,645.3125 Q303.9598,644.9375 303.3504,644.7188 Q302.7411,644.5 302.1161,644.5 Q301.3504,644.5 300.7098,644.8281 Q300.0848,645.1563 299.5848,645.9063 Q299.1004,646.6563 299.1004,647.6875 L299.1004,648.7813 Q299.1004,650.0156 299.9911,650.8438 Q300.8817,651.6563 302.4754,651.6563 Q303.4129,651.6563 304.0692,651.4063 Q304.4598,651.25 304.8817,650.8125 Q305.1473,650.5469 305.2879,650.4688 Q305.4442,650.3906 305.6473,650.3906 Q305.9754,650.3906 306.2254,650.6563 Q306.4911,650.9063 306.4911,651.25 Q306.4911,651.5938 306.1473,652 Q305.6473,652.5781 304.8504,652.9063 Q303.7723,653.3594 302.4754,653.3594 Q300.9598,653.3594 299.7567,652.7344 Q298.7723,652.2344 298.0848,651.1719 Q297.3973,650.0938 297.3973,648.8125 L297.3973,647.6563 Q297.3973,646.3281 298.0067,645.1875 Q298.6317,644.0313 299.7254,643.4219 Q300.8192,642.7969 302.0536,642.7969 Q302.7879,642.7969 303.4286,642.9688 Q304.0848,643.125 304.6317,643.4844 Z " fill="#000000"/><text fill="#000000" font-family="sans-serif" font-size="14" lengthAdjust="spacing" textLength="53.6826" x="320.9474" y="653.3379">Services</text><line style="stroke:#181818;stroke-width:0.5;" x1="265" x2="399.4961" y1="663.6094" y2="663.6094"/><text fill="#000000" font-family="sans-serif" font-size="14" lengthAdjust="spacing" textLength="124.4961" x="270" y="682.1426">Compliance Service</text><text fill="#000000" font-family="sans-serif" font-size="14" lengthAdjust="spacing" textLength="111.2754" x="270" y="699.752">Reporting Service</text><text fill="#000000" font-family="sans-serif" font-size="14" lengthAdjust="spacing" textLength="82.4824" x="270" y="717.3613">Audit Service</text><text fill="#000000" font-family="sans-serif" font-size="14" lengthAdjust="spacing" textLength="80.1309" x="270" y="734.9707">User Service</text><text fill="#000000" font-family="sans-serif" font-size="14" lengthAdjust="spacing" textLength="116.7305" x="270" y="752.5801">Integration Service</text><line style="stroke:#181818;stroke-width:0.5;" x1="265" x2="399.4961" y1="759.6563" y2="759.6563"/></g><!--class NgRxStore--><g id="elem_NgRxStore"><rect codeLine="38" fill="#F1F1F1" height="65.6094" id="NgRxStore" rx="2.5" ry="2.5" style="stroke:#181818;stroke-width:0.5;" width="130.2959" x="453" y="871.6094"/><ellipse cx="481.4222" cy="887.6094" fill="#ADD1B2" rx="11" ry="11" style="stroke:#181818;stroke-width:1.0;"/><path d="M484.1878,883.4844 Q484.3441,883.2656 484.5316,883.1563 Q484.7191,883.0469 484.9378,883.0469 Q485.3128,883.0469 485.5472,883.3125 Q485.7816,883.5625 485.7816,884.1719 L485.7816,885.625 Q485.7816,886.2344 485.5472,886.5 Q485.3128,886.7656 484.9378,886.7656 Q484.5941,886.7656 484.391,886.5625 Q484.1878,886.375 484.0785,885.8594 Q484.0316,885.5 483.8441,885.3125 Q483.516,884.9375 482.9066,884.7188 Q482.2972,884.5 481.6722,884.5 Q480.9066,884.5 480.266,884.8281 Q479.641,885.1563 479.141,885.9063 Q478.6566,886.6563 478.6566,887.6875 L478.6566,888.7813 Q478.6566,890.0156 479.5472,890.8438 Q480.4378,891.6563 482.0316,891.6563 Q482.9691,891.6563 483.6253,891.4063 Q484.016,891.25 484.4378,890.8125 Q484.7035,890.5469 484.8441,890.4688 Q485.0003,890.3906 485.2035,890.3906 Q485.5316,890.3906 485.7816,890.6563 Q486.0472,890.9063 486.0472,891.25 Q486.0472,891.5938 485.7035,892 Q485.2035,892.5781 484.4066,892.9063 Q483.3285,893.3594 482.0316,893.3594 Q480.516,893.3594 479.3128,892.7344 Q478.3285,892.2344 477.641,891.1719 Q476.9535,890.0938 476.9535,888.8125 L476.9535,887.6563 Q476.9535,886.3281 477.5628,885.1875 Q478.1878,884.0313 479.2816,883.4219 Q480.3753,882.7969 481.6097,882.7969 Q482.3441,882.7969 482.9847,882.9688 Q483.641,883.125 484.1878,883.4844 Z " fill="#000000"/><text fill="#000000" font-family="sans-serif" font-size="14" lengthAdjust="spacing" textLength="68.4688" x="498.4049" y="893.3379">NgRxStore</text><line style="stroke:#181818;stroke-width:0.5;" x1="454" x2="582.2959" y1="903.6094" y2="903.6094"/><text fill="#000000" font-family="sans-serif" font-size="14" lengthAdjust="spacing" textLength="118.2959" x="459" y="922.1426">State Management</text><line style="stroke:#181818;stroke-width:0.5;" x1="454" x2="582.2959" y1="929.2188" y2="929.2188"/></g><!--class Entities--><g id="elem_Entities"><rect codeLine="42" fill="#F1F1F1" height="118.4375" id="Entities" rx="2.5" ry="2.5" style="stroke:#181818;stroke-width:0.5;" width="85.9238" x="7" y="845.6094"/><ellipse cx="25.6062" cy="861.6094" fill="#ADD1B2" rx="11" ry="11" style="stroke:#181818;stroke-width:1.0;"/><path d="M28.3718,857.4844 Q28.528,857.2656 28.7155,857.1563 Q28.903,857.0469 29.1218,857.0469 Q29.4968,857.0469 29.7312,857.3125 Q29.9655,857.5625 29.9655,858.1719 L29.9655,859.625 Q29.9655,860.2344 29.7312,860.5 Q29.4968,860.7656 29.1218,860.7656 Q28.778,860.7656 28.5749,860.5625 Q28.3718,860.375 28.2624,859.8594 Q28.2155,859.5 28.028,859.3125 Q27.6999,858.9375 27.0905,858.7188 Q26.4812,858.5 25.8562,858.5 Q25.0905,858.5 24.4499,858.8281 Q23.8249,859.1563 23.3249,859.9063 Q22.8405,860.6563 22.8405,861.6875 L22.8405,862.7813 Q22.8405,864.0156 23.7312,864.8438 Q24.6218,865.6563 26.2155,865.6563 Q27.153,865.6563 27.8093,865.4063 Q28.1999,865.25 28.6218,864.8125 Q28.8874,864.5469 29.028,864.4688 Q29.1843,864.3906 29.3874,864.3906 Q29.7155,864.3906 29.9655,864.6563 Q30.2312,864.9063 30.2312,865.25 Q30.2312,865.5938 29.8874,866 Q29.3874,866.5781 28.5905,866.9063 Q27.5124,867.3594 26.2155,867.3594 Q24.6999,867.3594 23.4968,866.7344 Q22.5124,866.2344 21.8249,865.1719 Q21.1374,864.0938 21.1374,862.8125 L21.1374,861.6563 Q21.1374,860.3281 21.7468,859.1875 Q22.3718,858.0313 23.4655,857.4219 Q24.5593,856.7969 25.7937,856.7969 Q26.528,856.7969 27.1687,856.9688 Q27.8249,857.125 28.3718,857.4844 Z " fill="#000000"/><text fill="#000000" font-family="sans-serif" font-size="14" lengthAdjust="spacing" textLength="45.9102" x="40.4075" y="867.3379">Entities</text><line style="stroke:#181818;stroke-width:0.5;" x1="8" x2="91.9238" y1="877.6094" y2="877.6094"/><text fill="#000000" font-family="sans-serif" font-size="14" lengthAdjust="spacing" textLength="73.9238" x="13" y="896.1426">Compliance</text><text fill="#000000" font-family="sans-serif" font-size="14" lengthAdjust="spacing" textLength="42.0205" x="13" y="913.752">Report</text><text fill="#000000" font-family="sans-serif" font-size="14" lengthAdjust="spacing" textLength="31.9102" x="13" y="931.3613">Audit</text><text fill="#000000" font-family="sans-serif" font-size="14" lengthAdjust="spacing" textLength="29.5586" x="13" y="948.9707">User</text><line style="stroke:#181818;stroke-width:0.5;" x1="8" x2="91.9238" y1="956.0469" y2="956.0469"/></g><!--class Kafka--><g id="elem_Kafka"><rect codeLine="49" fill="#F1F1F1" height="118.4375" id="Kafka" rx="2.5" ry="2.5" style="stroke:#181818;stroke-width:0.5;" width="138.0479" x="224" y="845.6094"/><ellipse cx="270.874" cy="861.6094" fill="#ADD1B2" rx="11" ry="11" style="stroke:#181818;stroke-width:1.0;"/><path d="M273.6396,857.4844 Q273.7959,857.2656 273.9834,857.1563 Q274.1709,857.0469 274.3896,857.0469 Q274.7646,857.0469 274.999,857.3125 Q275.2334,857.5625 275.2334,858.1719 L275.2334,859.625 Q275.2334,860.2344 274.999,860.5 Q274.7646,860.7656 274.3896,860.7656 Q274.0459,860.7656 273.8428,860.5625 Q273.6396,860.375 273.5303,859.8594 Q273.4834,859.5 273.2959,859.3125 Q272.9678,858.9375 272.3584,858.7188 Q271.749,858.5 271.124,858.5 Q270.3584,858.5 269.7178,858.8281 Q269.0928,859.1563 268.5928,859.9063 Q268.1084,860.6563 268.1084,861.6875 L268.1084,862.7813 Q268.1084,864.0156 268.999,864.8438 Q269.8896,865.6563 271.4834,865.6563 Q272.4209,865.6563 273.0771,865.4063 Q273.4678,865.25 273.8896,864.8125 Q274.1553,864.5469 274.2959,864.4688 Q274.4521,864.3906 274.6553,864.3906 Q274.9834,864.3906 275.2334,864.6563 Q275.499,864.9063 275.499,865.25 Q275.499,865.5938 275.1553,866 Q274.6553,866.5781 273.8584,866.9063 Q272.7803,867.3594 271.4834,867.3594 Q269.9678,867.3594 268.7646,866.7344 Q267.7803,866.2344 267.0928,865.1719 Q266.4053,864.0938 266.4053,862.8125 L266.4053,861.6563 Q266.4053,860.3281 267.0146,859.1875 Q267.6396,858.0313 268.7334,857.4219 Q269.8271,856.7969 271.0615,856.7969 Q271.7959,856.7969 272.4365,856.9688 Q273.0928,857.125 273.6396,857.4844 Z " fill="#000000"/><text fill="#000000" font-family="sans-serif" font-size="14" lengthAdjust="spacing" textLength="35.7998" x="291.374" y="867.3379">Kafka</text><line style="stroke:#181818;stroke-width:0.5;" x1="225" x2="361.0479" y1="877.6094" y2="877.6094"/><rect fill="none" height="6" style="stroke:#C82930;stroke-width:1.0;" width="6" x="232" y="888.9141"/><text fill="#000000" font-family="sans-serif" font-size="14" lengthAdjust="spacing" textLength="112.0479" x="244" y="896.1426">Compliance Topic</text><rect fill="none" height="6" style="stroke:#C82930;stroke-width:1.0;" width="6" x="232" y="906.5234"/><text fill="#000000" font-family="sans-serif" font-size="14" lengthAdjust="spacing" textLength="80.1445" x="244" y="913.752">Report Topic</text><rect fill="none" height="6" style="stroke:#C82930;stroke-width:1.0;" width="6" x="232" y="924.1328"/><text fill="#000000" font-family="sans-serif" font-size="14" lengthAdjust="spacing" textLength="70.0342" x="244" y="931.3613">Audit Topic</text><rect fill="none" height="6" style="stroke:#C82930;stroke-width:1.0;" width="6" x="232" y="941.7422"/><text fill="#000000" font-family="sans-serif" font-size="14" lengthAdjust="spacing" textLength="67.6826" x="244" y="948.9707">User Topic</text><line style="stroke:#181818;stroke-width:0.5;" x1="225" x2="361.0479" y1="956.0469" y2="956.0469"/></g><!--link ComplianceAndReportingApp to APIGateway--><g id="link_ComplianceAndReportingApp_APIGateway"><path codeLine="56" d="M365.44,392.7194 C361.5,402.6594 357.97,412.6594 355,422.6094 C350.46,437.8094 348.8359,449.104 348.2359,464.354 " fill="none" id="ComplianceAndReportingApp-to-APIGateway" style="stroke:#181818;stroke-width:1.0;"/><polygon fill="#181818" points="348,470.3494,352.3507,461.5136,348.1966,465.3532,344.3569,461.1991,348,470.3494" style="stroke:#181818;stroke-width:1.0;"/><text fill="#000000" font-family="sans-serif" font-size="13" lengthAdjust="spacing" textLength="203.0488" x="356" y="437.1045">Sends GraphQL Queries/Mutations</text></g><!--link APIGateway to Services--><g id="link_APIGateway_Services"><path codeLine="57" d="M345.27,553.8194 C343.19,576.5394 341.0874,599.4344 338.7074,625.4144 " fill="none" id="APIGateway-to-Services" style="stroke:#181818;stroke-width:1.0;"/><polygon fill="#181818" points="338.16,631.3894,342.9644,622.7918,338.6161,626.4102,334.9977,622.062,338.16,631.3894" style="stroke:#181818;stroke-width:1.0;"/><text fill="#000000" font-family="sans-serif" font-size="13" lengthAdjust="spacing" textLength="99.7217" x="343" y="598.1045">Routes Requests</text></g><!--link ComplianceAndReportingApp to NgRxStore--><g id="link_ComplianceAndReportingApp_NgRxStore"><path codeLine="58" d="M555.85,392.6194 C559.02,402.6194 561.78,412.6594 564,422.6094 C601.01,588.6194 552.2091,787.6162 529.6191,865.6162 " fill="none" id="ComplianceAndReportingApp-to-NgRxStore" style="stroke:#181818;stroke-width:1.0;"/><polygon fill="#181818" points="527.95,871.3794,534.2958,863.8474,529.3409,866.5767,526.6115,861.6219,527.95,871.3794" style="stroke:#181818;stroke-width:1.0;"/><text fill="#000000" font-family="sans-serif" font-size="13" lengthAdjust="spacing" textLength="109.8462" x="577" y="598.1045">State Management</text></g><!--link Services to NgRxStore--><g id="link_Services_NgRxStore"><path codeLine="59" d="M398.76,767.6394 C408.34,777.5894 418,787.7894 427,797.6094 C449.3,821.9194 469.7202,845.7257 487.6002,867.0057 " fill="none" id="Services-to-NgRxStore" style="stroke:#181818;stroke-width:1.0;"/><polygon fill="#181818" points="491.46,871.5994,488.7328,862.1356,488.2435,867.7713,482.6079,867.282,491.46,871.5994" style="stroke:#181818;stroke-width:1.0;"/><text fill="#000000" font-family="sans-serif" font-size="13" lengthAdjust="spacing" textLength="82.3862" x="443" y="812.1045">State Updates</text></g><!--link Services to Entities--><g id="link_Services_Entities"><path codeLine="60" d="M263.96,708.2294 C205.14,718.4694 122.19,742.3294 74,797.6094 C62.47,810.8394 57.3128,822.5531 53.9428,839.6131 " fill="none" id="Services-to-Entities" style="stroke:#181818;stroke-width:1.0;"/><polygon fill="#181818" points="52.78,845.4994,58.4483,837.4452,53.749,840.5942,50.6,835.8948,52.78,845.4994" style="stroke:#181818;stroke-width:1.0;"/><text fill="#000000" font-family="sans-serif" font-size="13" lengthAdjust="spacing" textLength="99.7217" x="75" y="812.1045">Manages Entities</text></g><!--link Services to Kafka--><g id="link_Services_Kafka"><path codeLine="61" d="M263.89,728.6194 C235,744.3294 204.28,767.0094 188,797.6094 C173.28,825.2794 190.9564,847.1133 218.9364,865.9933 " fill="none" id="Services-to-Kafka" style="stroke:#181818;stroke-width:1.0;"/><polygon fill="#181818" points="223.91,869.3494,218.6869,860.9996,219.7653,866.5527,214.2122,867.6311,223.91,869.3494" style="stroke:#181818;stroke-width:1.0;"/><text fill="#000000" font-family="sans-serif" font-size="13" lengthAdjust="spacing" textLength="99.7217" x="189" y="812.1045">Publishes Events</text></g><!--link Kafka to Services--><g id="link_Kafka_Services"><path codeLine="62" d="M304.16,845.4994 C308.83,821.2094 313.1597,798.7119 317.9897,773.5319 " fill="none" id="Kafka-to-Services" style="stroke:#181818;stroke-width:1.0;"/><polygon fill="#181818" points="319.12,767.6394,313.4962,775.7247,318.1781,772.5499,321.3529,777.2318,319.12,767.6394" style="stroke:#181818;stroke-width:1.0;"/><text fill="#000000" font-family="sans-serif" font-size="13" lengthAdjust="spacing" textLength="105.4917" x="313" y="812.1045">Consumes Events</text></g><!--SRC=[VLDDRvj04BtpAwQtz61LpgKIXqeKY6lLYGWukOzXmAlWNRgx9B6g_lVkiXYM9AraoJjltioy-U1JHJNZ17aQxwExpIw5iaMbWa0ptHB4ujIr37b9WBo2d9g-HIta6QAkWuHX8_44jP3mFOsB89ZJp94HhtBgXDICDpRgTm3moEX5XM1UgvMVrQjdASuVzHNJi1EDyi0ffOVT9D4b6HFSiU7gUWtnJGuPIWthww_hpuxyOvj5qSS5DqcMl_N05Qi1EmELU6Z99Z4_InASkFQQiRgKCwnczqfG8wIlrWTx8TeHzeeag8u7WR8QNVSzjaoVuHOvDdGoDVnfx2MoIv87HHAsN9EiiQIHbMq7oEp7pYBuu-_6E3UewGNFmp8s4hlZ_SwyyaAKJwINx8BaCoj93LnFy8ZRi6aNC-PaplOWSZOzRHEwg7hNvA-5kGaQoXRQwFL7iU2ct5mhUwTmKdQHCyfO1l_4-Wc7oCKwzg9ZvG2w71umRc2oXzQSQJB_-_1Ngs_-w4FJEA_KPVncuIHD4rzkU-tkD_38DdPQH0YvwBLvvFIh9sMkxVz5vrc6xoSvPVsO-T1LvayjQTF0mp6Jcg0bqGqtXAm_j4mTBU_PVYs1SxpfAZPDzwUPz1S0]--></g></svg>