<svg xmlns="http://www.w3.org/2000/svg" xmlns:xlink="http://www.w3.org/1999/xlink" contentStyleType="text/css" height="777px" preserveAspectRatio="none" style="width:702px;height:777px;background:#FFFFFF;" version="1.1" viewBox="0 0 702 777" width="702px" zoomAndPan="magnify"><title>Blood Establishment (BCES) Donor Management Angular Application</title><defs/><g><text fill="#000000" font-family="sans-serif" font-size="14" font-weight="bold" lengthAdjust="spacing" textLength="462.7998" x="112.7732" y="24.5332">Blood Establishment (BCES) Donor Management Angular Application</text><!--class ClientLayer--><g id="elem_ClientLayer"><rect codeLine="5" fill="#F1F1F1" height="171.2656" id="ClientLayer" rx="2.5" ry="2.5" style="stroke:#181818;stroke-width:0.5;" width="213.5098" x="359.5" y="45.6094"/><ellipse cx="426.5981" cy="61.6094" fill="#ADD1B2" rx="11" ry="11" style="stroke:#181818;stroke-width:1.0;"/><path d="M429.3638,57.4844 Q429.52,57.2656 429.7075,57.1563 Q429.895,57.0469 430.1138,57.0469 Q430.4888,57.0469 430.7231,57.3125 Q430.9575,57.5625 430.9575,58.1719 L430.9575,59.625 Q430.9575,60.2344 430.7231,60.5 Q430.4888,60.7656 430.1138,60.7656 Q429.77,60.7656 429.5669,60.5625 Q429.3638,60.375 429.2544,59.8594 Q429.2075,59.5 429.02,59.3125 Q428.6919,58.9375 428.0825,58.7188 Q427.4731,58.5 426.8481,58.5 Q426.0825,58.5 425.4419,58.8281 Q424.8169,59.1563 424.3169,59.9063 Q423.8325,60.6563 423.8325,61.6875 L423.8325,62.7813 Q423.8325,64.0156 424.7231,64.8438 Q425.6138,65.6563 427.2075,65.6563 Q428.145,65.6563 428.8013,65.4063 Q429.1919,65.25 429.6138,64.8125 Q429.8794,64.5469 430.02,64.4688 Q430.1763,64.3906 430.3794,64.3906 Q430.7075,64.3906 430.9575,64.6563 Q431.2231,64.9063 431.2231,65.25 Q431.2231,65.5938 430.8794,66 Q430.3794,66.5781 429.5825,66.9063 Q428.5044,67.3594 427.2075,67.3594 Q425.6919,67.3594 424.4888,66.7344 Q423.5044,66.2344 422.8169,65.1719 Q422.1294,64.0938 422.1294,62.8125 L422.1294,61.6563 Q422.1294,60.3281 422.7388,59.1875 Q423.3638,58.0313 424.4575,57.4219 Q425.5513,56.7969 426.7856,56.7969 Q427.52,56.7969 428.1606,56.9688 Q428.8169,57.125 429.3638,57.4844 Z " fill="#000000"/><text fill="#000000" font-family="sans-serif" font-size="14" lengthAdjust="spacing" textLength="70.8135" x="447.0981" y="67.3379">ClientLayer</text><line style="stroke:#181818;stroke-width:0.5;" x1="360.5" x2="572.0098" y1="77.6094" y2="77.6094"/><text fill="#000000" font-family="sans-serif" font-size="14" lengthAdjust="spacing" textLength="127.6338" x="379.5" y="96.1426">Angular Applications</text><rect fill="none" height="6" style="stroke:#C82930;stroke-width:1.0;" width="6" x="367.5" y="106.5234"/><text fill="#000000" font-family="sans-serif" font-size="14" lengthAdjust="spacing" textLength="98.041" x="379.5" y="113.752">Donor List View</text><rect fill="none" height="6" style="stroke:#C82930;stroke-width:1.0;" width="6" x="367.5" y="124.1328"/><text fill="#000000" font-family="sans-serif" font-size="14" lengthAdjust="spacing" textLength="119.0479" x="379.5" y="131.3613">Donor Details View</text><rect fill="none" height="6" style="stroke:#C82930;stroke-width:1.0;" width="6" x="367.5" y="141.7422"/><text fill="#000000" font-family="sans-serif" font-size="14" lengthAdjust="spacing" textLength="187.5098" x="379.5" y="148.9707">Donor Registration Form View</text><rect fill="none" height="6" style="stroke:#C82930;stroke-width:1.0;" width="6" x="367.5" y="159.3516"/><text fill="#000000" font-family="sans-serif" font-size="14" lengthAdjust="spacing" textLength="137.7236" x="379.5" y="166.5801">Donation History View</text><rect fill="none" height="6" style="stroke:#C82930;stroke-width:1.0;" width="6" x="367.5" y="176.9609"/><text fill="#000000" font-family="sans-serif" font-size="14" lengthAdjust="spacing" textLength="129.165" x="379.5" y="184.1895">Notification List View</text><rect fill="none" height="6" style="stroke:#C82930;stroke-width:1.0;" width="6" x="367.5" y="194.5703"/><text fill="#000000" font-family="sans-serif" font-size="14" lengthAdjust="spacing" textLength="107.3652" x="379.5" y="201.7988">User Profile View</text><line style="stroke:#181818;stroke-width:0.5;" x1="360.5" x2="572.0098" y1="208.875" y2="208.875"/></g><!--class APIGateway--><g id="elem_APIGateway"><rect codeLine="15" fill="#F1F1F1" height="83.2188" id="APIGateway" rx="2.5" ry="2.5" style="stroke:#181818;stroke-width:0.5;" width="109.8135" x="291.5" y="294.6094"/><ellipse cx="306.5" cy="310.6094" fill="#ADD1B2" rx="11" ry="11" style="stroke:#181818;stroke-width:1.0;"/><path d="M309.2656,306.4844 Q309.4219,306.2656 309.6094,306.1563 Q309.7969,306.0469 310.0156,306.0469 Q310.3906,306.0469 310.625,306.3125 Q310.8594,306.5625 310.8594,307.1719 L310.8594,308.625 Q310.8594,309.2344 310.625,309.5 Q310.3906,309.7656 310.0156,309.7656 Q309.6719,309.7656 309.4688,309.5625 Q309.2656,309.375 309.1563,308.8594 Q309.1094,308.5 308.9219,308.3125 Q308.5938,307.9375 307.9844,307.7188 Q307.375,307.5 306.75,307.5 Q305.9844,307.5 305.3438,307.8281 Q304.7188,308.1563 304.2188,308.9063 Q303.7344,309.6563 303.7344,310.6875 L303.7344,311.7813 Q303.7344,313.0156 304.625,313.8438 Q305.5156,314.6563 307.1094,314.6563 Q308.0469,314.6563 308.7031,314.4063 Q309.0938,314.25 309.5156,313.8125 Q309.7813,313.5469 309.9219,313.4688 Q310.0781,313.3906 310.2813,313.3906 Q310.6094,313.3906 310.8594,313.6563 Q311.125,313.9063 311.125,314.25 Q311.125,314.5938 310.7813,315 Q310.2813,315.5781 309.4844,315.9063 Q308.4063,316.3594 307.1094,316.3594 Q305.5938,316.3594 304.3906,315.7344 Q303.4063,315.2344 302.7188,314.1719 Q302.0313,313.0938 302.0313,311.8125 L302.0313,310.6563 Q302.0313,309.3281 302.6406,308.1875 Q303.2656,307.0313 304.3594,306.4219 Q305.4531,305.7969 306.6875,305.7969 Q307.4219,305.7969 308.0625,305.9688 Q308.7188,306.125 309.2656,306.4844 Z " fill="#000000"/><text fill="#000000" font-family="sans-serif" font-size="14" lengthAdjust="spacing" textLength="77.8135" x="320.5" y="316.3379">APIGateway</text><line style="stroke:#181818;stroke-width:0.5;" x1="292.5" x2="400.3135" y1="326.6094" y2="326.6094"/><text fill="#000000" font-family="sans-serif" font-size="14" lengthAdjust="spacing" textLength="57.5859" x="297.5" y="345.1426">GraphQL</text><text fill="#000000" font-family="sans-serif" font-size="14" lengthAdjust="spacing" textLength="52.9102" x="297.5" y="362.752">RSocket</text><line style="stroke:#181818;stroke-width:0.5;" x1="292.5" x2="400.3135" y1="369.8281" y2="369.8281"/></g><!--class Services--><g id="elem_Services"><rect codeLine="20" fill="#F1F1F1" height="118.4375" id="Services" rx="2.5" ry="2.5" style="stroke:#181818;stroke-width:0.5;" width="166.0615" x="246.5" y="455.6094"/><ellipse cx="298.4395" cy="471.6094" fill="#ADD1B2" rx="11" ry="11" style="stroke:#181818;stroke-width:1.0;"/><path d="M301.2051,467.4844 Q301.3613,467.2656 301.5488,467.1563 Q301.7363,467.0469 301.9551,467.0469 Q302.3301,467.0469 302.5645,467.3125 Q302.7988,467.5625 302.7988,468.1719 L302.7988,469.625 Q302.7988,470.2344 302.5645,470.5 Q302.3301,470.7656 301.9551,470.7656 Q301.6113,470.7656 301.4082,470.5625 Q301.2051,470.375 301.0957,469.8594 Q301.0488,469.5 300.8613,469.3125 Q300.5332,468.9375 299.9238,468.7188 Q299.3145,468.5 298.6895,468.5 Q297.9238,468.5 297.2832,468.8281 Q296.6582,469.1563 296.1582,469.9063 Q295.6738,470.6563 295.6738,471.6875 L295.6738,472.7813 Q295.6738,474.0156 296.5645,474.8438 Q297.4551,475.6563 299.0488,475.6563 Q299.9863,475.6563 300.6426,475.4063 Q301.0332,475.25 301.4551,474.8125 Q301.7207,474.5469 301.8613,474.4688 Q302.0176,474.3906 302.2207,474.3906 Q302.5488,474.3906 302.7988,474.6563 Q303.0645,474.9063 303.0645,475.25 Q303.0645,475.5938 302.7207,476 Q302.2207,476.5781 301.4238,476.9063 Q300.3457,477.3594 299.0488,477.3594 Q297.5332,477.3594 296.3301,476.7344 Q295.3457,476.2344 294.6582,475.1719 Q293.9707,474.0938 293.9707,472.8125 L293.9707,471.6563 Q293.9707,470.3281 294.5801,469.1875 Q295.2051,468.0313 296.2988,467.4219 Q297.3926,466.7969 298.627,466.7969 Q299.3613,466.7969 300.002,466.9688 Q300.6582,467.125 301.2051,467.4844 Z " fill="#000000"/><text fill="#000000" font-family="sans-serif" font-size="14" lengthAdjust="spacing" textLength="53.6826" x="318.9395" y="477.3379">Services</text><line style="stroke:#181818;stroke-width:0.5;" x1="247.5" x2="411.5615" y1="487.6094" y2="487.6094"/><text fill="#000000" font-family="sans-serif" font-size="14" lengthAdjust="spacing" textLength="88.7031" x="252.5" y="506.1426">Donor Service</text><text fill="#000000" font-family="sans-serif" font-size="14" lengthAdjust="spacing" textLength="119.8271" x="252.5" y="523.752">Notification Service</text><text fill="#000000" font-family="sans-serif" font-size="14" lengthAdjust="spacing" textLength="80.1309" x="252.5" y="541.3613">User Service</text><text fill="#000000" font-family="sans-serif" font-size="14" lengthAdjust="spacing" textLength="154.0615" x="252.5" y="558.9707">Donation History Service</text><line style="stroke:#181818;stroke-width:0.5;" x1="247.5" x2="411.5615" y1="566.0469" y2="566.0469"/></g><!--class NgRxStore--><g id="elem_NgRxStore"><rect codeLine="27" fill="#F1F1F1" height="65.6094" id="NgRxStore" rx="2.5" ry="2.5" style="stroke:#181818;stroke-width:0.5;" width="130.2959" x="451.5" y="677.6094"/><ellipse cx="479.9222" cy="693.6094" fill="#ADD1B2" rx="11" ry="11" style="stroke:#181818;stroke-width:1.0;"/><path d="M482.6878,689.4844 Q482.8441,689.2656 483.0316,689.1563 Q483.2191,689.0469 483.4378,689.0469 Q483.8128,689.0469 484.0472,689.3125 Q484.2816,689.5625 484.2816,690.1719 L484.2816,691.625 Q484.2816,692.2344 484.0472,692.5 Q483.8128,692.7656 483.4378,692.7656 Q483.0941,692.7656 482.891,692.5625 Q482.6878,692.375 482.5785,691.8594 Q482.5316,691.5 482.3441,691.3125 Q482.016,690.9375 481.4066,690.7188 Q480.7972,690.5 480.1722,690.5 Q479.4066,690.5 478.766,690.8281 Q478.141,691.1563 477.641,691.9063 Q477.1566,692.6563 477.1566,693.6875 L477.1566,694.7813 Q477.1566,696.0156 478.0472,696.8438 Q478.9378,697.6563 480.5316,697.6563 Q481.4691,697.6563 482.1253,697.4063 Q482.516,697.25 482.9378,696.8125 Q483.2035,696.5469 483.3441,696.4688 Q483.5003,696.3906 483.7035,696.3906 Q484.0316,696.3906 484.2816,696.6563 Q484.5472,696.9063 484.5472,697.25 Q484.5472,697.5938 484.2035,698 Q483.7035,698.5781 482.9066,698.9063 Q481.8285,699.3594 480.5316,699.3594 Q479.016,699.3594 477.8128,698.7344 Q476.8285,698.2344 476.141,697.1719 Q475.4535,696.0938 475.4535,694.8125 L475.4535,693.6563 Q475.4535,692.3281 476.0628,691.1875 Q476.6878,690.0313 477.7816,689.4219 Q478.8753,688.7969 480.1097,688.7969 Q480.8441,688.7969 481.4847,688.9688 Q482.141,689.125 482.6878,689.4844 Z " fill="#000000"/><text fill="#000000" font-family="sans-serif" font-size="14" lengthAdjust="spacing" textLength="68.4688" x="496.9049" y="699.3379">NgRxStore</text><line style="stroke:#181818;stroke-width:0.5;" x1="452.5" x2="580.7959" y1="709.6094" y2="709.6094"/><text fill="#000000" font-family="sans-serif" font-size="14" lengthAdjust="spacing" textLength="118.2959" x="457.5" y="728.1426">State Management</text><line style="stroke:#181818;stroke-width:0.5;" x1="452.5" x2="580.7959" y1="735.2188" y2="735.2188"/></g><!--class Entities--><g id="elem_Entities"><rect codeLine="31" fill="#F1F1F1" height="118.4375" id="Entities" rx="2.5" ry="2.5" style="stroke:#181818;stroke-width:0.5;" width="81.2549" x="7" y="651.6094"/><ellipse cx="23.5051" cy="667.6094" fill="#ADD1B2" rx="11" ry="11" style="stroke:#181818;stroke-width:1.0;"/><path d="M26.2708,663.4844 Q26.427,663.2656 26.6145,663.1563 Q26.802,663.0469 27.0208,663.0469 Q27.3958,663.0469 27.6301,663.3125 Q27.8645,663.5625 27.8645,664.1719 L27.8645,665.625 Q27.8645,666.2344 27.6301,666.5 Q27.3958,666.7656 27.0208,666.7656 Q26.677,666.7656 26.4739,666.5625 Q26.2708,666.375 26.1614,665.8594 Q26.1145,665.5 25.927,665.3125 Q25.5989,664.9375 24.9895,664.7188 Q24.3801,664.5 23.7551,664.5 Q22.9895,664.5 22.3489,664.8281 Q21.7239,665.1563 21.2239,665.9063 Q20.7395,666.6563 20.7395,667.6875 L20.7395,668.7813 Q20.7395,670.0156 21.6301,670.8438 Q22.5208,671.6563 24.1145,671.6563 Q25.052,671.6563 25.7083,671.4063 Q26.0989,671.25 26.5208,670.8125 Q26.7864,670.5469 26.927,670.4688 Q27.0833,670.3906 27.2864,670.3906 Q27.6145,670.3906 27.8645,670.6563 Q28.1301,670.9063 28.1301,671.25 Q28.1301,671.5938 27.7864,672 Q27.2864,672.5781 26.4895,672.9063 Q25.4114,673.3594 24.1145,673.3594 Q22.5989,673.3594 21.3958,672.7344 Q20.4114,672.2344 19.7239,671.1719 Q19.0364,670.0938 19.0364,668.8125 L19.0364,667.6563 Q19.0364,666.3281 19.6458,665.1875 Q20.2708,664.0313 21.3645,663.4219 Q22.4583,662.7969 23.6926,662.7969 Q24.427,662.7969 25.0676,662.9688 Q25.7239,663.125 26.2708,663.4844 Z " fill="#000000"/><text fill="#000000" font-family="sans-serif" font-size="14" lengthAdjust="spacing" textLength="45.9102" x="37.8396" y="673.3379">Entities</text><line style="stroke:#181818;stroke-width:0.5;" x1="8" x2="87.2549" y1="683.6094" y2="683.6094"/><text fill="#000000" font-family="sans-serif" font-size="14" lengthAdjust="spacing" textLength="38.1309" x="13" y="702.1426">Donor</text><text fill="#000000" font-family="sans-serif" font-size="14" lengthAdjust="spacing" textLength="69.2549" x="13" y="719.752">Notification</text><text fill="#000000" font-family="sans-serif" font-size="14" lengthAdjust="spacing" textLength="29.5586" x="13" y="737.3613">User</text><text fill="#000000" font-family="sans-serif" font-size="14" lengthAdjust="spacing" textLength="56.041" x="13" y="754.9707">Donation</text><line style="stroke:#181818;stroke-width:0.5;" x1="8" x2="87.2549" y1="762.0469" y2="762.0469"/></g><!--class Kafka--><g id="elem_Kafka"><rect codeLine="38" fill="#F1F1F1" height="118.4375" id="Kafka" rx="2.5" ry="2.5" style="stroke:#181818;stroke-width:0.5;" width="160.6064" x="209" y="651.6094"/><ellipse cx="267.1533" cy="667.6094" fill="#ADD1B2" rx="11" ry="11" style="stroke:#181818;stroke-width:1.0;"/><path d="M269.9189,663.4844 Q270.0752,663.2656 270.2627,663.1563 Q270.4502,663.0469 270.6689,663.0469 Q271.0439,663.0469 271.2783,663.3125 Q271.5127,663.5625 271.5127,664.1719 L271.5127,665.625 Q271.5127,666.2344 271.2783,666.5 Q271.0439,666.7656 270.6689,666.7656 Q270.3252,666.7656 270.1221,666.5625 Q269.9189,666.375 269.8096,665.8594 Q269.7627,665.5 269.5752,665.3125 Q269.2471,664.9375 268.6377,664.7188 Q268.0283,664.5 267.4033,664.5 Q266.6377,664.5 265.9971,664.8281 Q265.3721,665.1563 264.8721,665.9063 Q264.3877,666.6563 264.3877,667.6875 L264.3877,668.7813 Q264.3877,670.0156 265.2783,670.8438 Q266.1689,671.6563 267.7627,671.6563 Q268.7002,671.6563 269.3564,671.4063 Q269.7471,671.25 270.1689,670.8125 Q270.4346,670.5469 270.5752,670.4688 Q270.7314,670.3906 270.9346,670.3906 Q271.2627,670.3906 271.5127,670.6563 Q271.7783,670.9063 271.7783,671.25 Q271.7783,671.5938 271.4346,672 Q270.9346,672.5781 270.1377,672.9063 Q269.0596,673.3594 267.7627,673.3594 Q266.2471,673.3594 265.0439,672.7344 Q264.0596,672.2344 263.3721,671.1719 Q262.6846,670.0938 262.6846,668.8125 L262.6846,667.6563 Q262.6846,666.3281 263.2939,665.1875 Q263.9189,664.0313 265.0127,663.4219 Q266.1064,662.7969 267.3408,662.7969 Q268.0752,662.7969 268.7158,662.9688 Q269.3721,663.125 269.9189,663.4844 Z " fill="#000000"/><text fill="#000000" font-family="sans-serif" font-size="14" lengthAdjust="spacing" textLength="35.7998" x="287.6533" y="673.3379">Kafka</text><line style="stroke:#181818;stroke-width:0.5;" x1="210" x2="368.6064" y1="683.6094" y2="683.6094"/><rect fill="none" height="6" style="stroke:#C82930;stroke-width:1.0;" width="6" x="217" y="694.9141"/><text fill="#000000" font-family="sans-serif" font-size="14" lengthAdjust="spacing" textLength="103.4824" x="229" y="702.1426">Topic for Donors</text><rect fill="none" height="6" style="stroke:#C82930;stroke-width:1.0;" width="6" x="217" y="712.5234"/><text fill="#000000" font-family="sans-serif" font-size="14" lengthAdjust="spacing" textLength="134.6064" x="229" y="719.752">Topic for Notifications</text><rect fill="none" height="6" style="stroke:#C82930;stroke-width:1.0;" width="6" x="217" y="730.1328"/><text fill="#000000" font-family="sans-serif" font-size="14" lengthAdjust="spacing" textLength="94.9102" x="229" y="737.3613">Topic for Users</text><rect fill="none" height="6" style="stroke:#C82930;stroke-width:1.0;" width="6" x="217" y="747.7422"/><text fill="#000000" font-family="sans-serif" font-size="14" lengthAdjust="spacing" textLength="121.3926" x="229" y="754.9707">Topic for Donations</text><line style="stroke:#181818;stroke-width:0.5;" x1="210" x2="368.6064" y1="762.0469" y2="762.0469"/></g><!--link ClientLayer to APIGateway--><g id="link_ClientLayer_APIGateway"><path codeLine="45" d="M370.12,216.9194 C363.25,226.3194 357.19,236.2594 352.5,246.6094 C345.83,261.3394 343.7318,272.8704 343.4418,288.4304 " fill="none" id="ClientLayer-to-APIGateway" style="stroke:#181818;stroke-width:1.0;"/><polygon fill="#181818" points="343.33,294.4294,347.497,285.5055,343.4232,289.4302,339.4984,285.3564,343.33,294.4294" style="stroke:#181818;stroke-width:1.0;"/><text fill="#000000" font-family="sans-serif" font-size="13" lengthAdjust="spacing" textLength="203.0488" x="353.5" y="261.1045">Sends GraphQL Queries/Mutations</text></g><!--link APIGateway to Services--><g id="link_APIGateway_Services"><path codeLine="46" d="M342.56,378.0494 C340.34,401.0594 338.1151,424.197 335.6751,449.537 " fill="none" id="APIGateway-to-Services" style="stroke:#181818;stroke-width:1.0;"/><polygon fill="#181818" points="335.1,455.5094,339.9442,446.9342,335.5792,450.5324,331.981,446.1674,335.1,455.5094" style="stroke:#181818;stroke-width:1.0;"/><text fill="#000000" font-family="sans-serif" font-size="13" lengthAdjust="spacing" textLength="99.7217" x="340.5" y="422.1045">Routes Requests</text></g><!--link ClientLayer to NgRxStore--><g id="link_ClientLayer_NgRxStore"><path codeLine="47" d="M546.74,216.6394 C552.67,226.2294 557.77,236.2794 561.5,246.6094 C617.01,400.4394 558.5718,594.9639 530.8818,671.9039 " fill="none" id="ClientLayer-to-NgRxStore" style="stroke:#181818;stroke-width:1.0;"/><polygon fill="#181818" points="528.85,677.5494,535.6613,670.4356,530.5431,672.8448,528.134,667.7266,528.85,677.5494" style="stroke:#181818;stroke-width:1.0;"/><text fill="#000000" font-family="sans-serif" font-size="13" lengthAdjust="spacing" textLength="109.8462" x="584.5" y="422.1045">State Management</text></g><!--link Services to NgRxStore--><g id="link_Services_NgRxStore"><path codeLine="48" d="M395.05,573.7494 C405.44,583.5194 415.91,593.6994 425.5,603.6094 C448.44,627.3094 468.8725,651.1205 486.5625,672.5705 " fill="none" id="Services-to-NgRxStore" style="stroke:#181818;stroke-width:1.0;"/><polygon fill="#181818" points="490.38,677.1994,487.7397,667.711,487.1988,673.342,481.5678,672.801,490.38,677.1994" style="stroke:#181818;stroke-width:1.0;"/><text fill="#000000" font-family="sans-serif" font-size="13" lengthAdjust="spacing" textLength="82.3862" x="441.5" y="618.1045">State Updates</text></g><!--link Services to Entities--><g id="link_Services_Entities"><path codeLine="49" d="M246.33,523.2994 C189.54,532.9494 116.84,554.6894 72.5,603.6094 C60.63,616.7094 55.2924,628.5011 51.7824,645.6611 " fill="none" id="Services-to-Entities" style="stroke:#181818;stroke-width:1.0;"/><polygon fill="#181818" points="50.58,651.5394,56.3024,643.5235,51.582,646.6408,48.4647,641.9204,50.58,651.5394" style="stroke:#181818;stroke-width:1.0;"/><text fill="#000000" font-family="sans-serif" font-size="13" lengthAdjust="spacing" textLength="99.7217" x="73.5" y="618.1045">Manages Entities</text></g><!--link Services to Kafka--><g id="link_Services_Kafka"><path codeLine="50" d="M246.43,547.4394 C222.46,560.9594 199.12,579.3294 185.5,603.6094 C172.45,626.8794 182.2827,644.8889 204.1927,662.5889 " fill="none" id="Services-to-Kafka" style="stroke:#181818;stroke-width:1.0;"/><polygon fill="#181818" points="208.86,666.3594,204.3727,657.5921,204.9706,663.2173,199.3454,663.8152,208.86,666.3594" style="stroke:#181818;stroke-width:1.0;"/><text fill="#000000" font-family="sans-serif" font-size="13" lengthAdjust="spacing" textLength="99.7217" x="186.5" y="618.1045">Publishes Events</text></g><!--link Kafka to Services--><g id="link_Kafka_Services"><path codeLine="51" d="M301.49,651.4394 C306.55,626.8994 311.2288,604.2459 316.2888,579.6959 " fill="none" id="Kafka-to-Services" style="stroke:#181818;stroke-width:1.0;"/><polygon fill="#181818" points="317.5,573.8194,311.7655,581.8266,316.4907,578.7164,319.6009,583.4416,317.5,573.8194" style="stroke:#181818;stroke-width:1.0;"/><text fill="#000000" font-family="sans-serif" font-size="13" lengthAdjust="spacing" textLength="105.4917" x="311.5" y="618.1045">Consumes Events</text></g><!--SRC=[RLF1Se8m4Btp5TjRUt1wvz0PH6exLKT1UqznqOn8Q3PedKx_lKj42UY9yFRblRUxyB36J1O8SHGkWzbu4a6Q2oBFCzBa2CDSgJL4PCHNBccxnyB0up2CaYSOgK9fc8f2RD3YGR6fSg4XACjSfi98LNXUgnlcabaJSK8DlnxSenF3WqPu8id0fyIZWutG29bJ7uvnmsHj9U1LwNs7S8RVcA7qgQtCb95PuzipMn57d6kLIPw0HV_SHeBv-rWOF8gJxMEiHRbTJFWK9ohTeUco4zG7cI9PxZbl0_5x9qGBsm3jwqqJbrB7QBQ9Vn8ketLA34TqjjFbHWMlLxgXUc6Q48vvL-13P3jXRmzWgKgPGbRlfrQY7kZAzckr1zsAD5nsT3-QmU35dRtFOoZMT9a_B2hKtDBpj3BDVOTStxrkmeTOLOOFCNvNI8PkRDfP-hUJlEhSPwxADJ-eIxiEt6-Kw0frYUV1-Z2lx0zNymviIjwvqEiZv3QhVKlw1m00]--></g></svg>