<svg xmlns="http://www.w3.org/2000/svg" xmlns:xlink="http://www.w3.org/1999/xlink" contentStyleType="text/css" height="1059px" preserveAspectRatio="none" style="width:694px;height:1059px;background:#FFFFFF;" version="1.1" viewBox="0 0 694 1059" width="694px" zoomAndPan="magnify"><title>Donor Management App Diagram for BECS</title><defs/><g><text fill="#000000" font-family="sans-serif" font-size="14" font-weight="bold" lengthAdjust="spacing" textLength="287.0273" x="196.6594" y="24.5332">Donor Management App Diagram for BECS</text><!--class DonorManagementApp--><g id="elem_DonorManagementApp"><rect codeLine="5" fill="#F1F1F1" height="400.1875" id="DonorManagementApp" rx="2.5" ry="2.5" style="stroke:#181818;stroke-width:0.5;" width="371.4609" x="284" y="45.6094"/><ellipse cx="393.1016" cy="61.6094" fill="#ADD1B2" rx="11" ry="11" style="stroke:#181818;stroke-width:1.0;"/><path d="M395.8672,57.4844 Q396.0234,57.2656 396.2109,57.1563 Q396.3984,57.0469 396.6172,57.0469 Q396.9922,57.0469 397.2266,57.3125 Q397.4609,57.5625 397.4609,58.1719 L397.4609,59.625 Q397.4609,60.2344 397.2266,60.5 Q396.9922,60.7656 396.6172,60.7656 Q396.2734,60.7656 396.0703,60.5625 Q395.8672,60.375 395.7578,59.8594 Q395.7109,59.5 395.5234,59.3125 Q395.1953,58.9375 394.5859,58.7188 Q393.9766,58.5 393.3516,58.5 Q392.5859,58.5 391.9453,58.8281 Q391.3203,59.1563 390.8203,59.9063 Q390.3359,60.6563 390.3359,61.6875 L390.3359,62.7813 Q390.3359,64.0156 391.2266,64.8438 Q392.1172,65.6563 393.7109,65.6563 Q394.6484,65.6563 395.3047,65.4063 Q395.6953,65.25 396.1172,64.8125 Q396.3828,64.5469 396.5234,64.4688 Q396.6797,64.3906 396.8828,64.3906 Q397.2109,64.3906 397.4609,64.6563 Q397.7266,64.9063 397.7266,65.25 Q397.7266,65.5938 397.3828,66 Q396.8828,66.5781 396.0859,66.9063 Q395.0078,67.3594 393.7109,67.3594 Q392.1953,67.3594 390.9922,66.7344 Q390.0078,66.2344 389.3203,65.1719 Q388.6328,64.0938 388.6328,62.8125 L388.6328,61.6563 Q388.6328,60.3281 389.2422,59.1875 Q389.8672,58.0313 390.9609,57.4219 Q392.0547,56.7969 393.2891,56.7969 Q394.0234,56.7969 394.6641,56.9688 Q395.3203,57.125 395.8672,57.4844 Z " fill="#000000"/><text fill="#000000" font-family="sans-serif" font-size="14" lengthAdjust="spacing" textLength="144.7578" x="413.6016" y="67.3379">DonorManagementApp</text><line style="stroke:#181818;stroke-width:0.5;" x1="285" x2="654.4609" y1="77.6094" y2="77.6094"/><text fill="#000000" font-family="sans-serif" font-size="14" lengthAdjust="spacing" textLength="41.2344" x="290" y="96.1426">Views:</text><text fill="#000000" font-family="sans-serif" font-size="14" lengthAdjust="spacing" textLength="122.1514" x="290" y="113.752">-- Registration View</text><text fill="#000000" font-family="sans-serif" font-size="14" lengthAdjust="spacing" textLength="116.7236" x="290" y="131.3613">-- Scheduling View</text><text fill="#000000" font-family="sans-serif" font-size="14" lengthAdjust="spacing" textLength="148.5791" x="290" y="148.9707">-- History Tracking View</text><text fill="#000000" font-family="sans-serif" font-size="14" lengthAdjust="spacing" textLength="123.7031" x="290" y="166.5801">-- Notifications View</text><text fill="#000000" font-family="sans-serif" font-size="14" lengthAdjust="spacing" textLength="167.2754" x="290" y="184.1895">-- HIPAA Compliance View</text><text fill="#000000" font-family="sans-serif" font-size="14" lengthAdjust="spacing" textLength="157.9648" x="290" y="201.7988">-- State Regulations View</text><text fill="#000000" font-family="sans-serif" font-size="14" lengthAdjust="spacing" textLength="3.8896" x="290" y="219.4082">&#160;</text><text fill="#000000" font-family="sans-serif" font-size="14" lengthAdjust="spacing" textLength="83.2686" x="290" y="237.0176">Components:</text><text fill="#000000" font-family="sans-serif" font-size="14" lengthAdjust="spacing" textLength="52.876" x="290" y="254.627">-- Forms</text><text fill="#000000" font-family="sans-serif" font-size="14" lengthAdjust="spacing" textLength="77.0273" x="290" y="272.2363">-- Calendars</text><text fill="#000000" font-family="sans-serif" font-size="14" lengthAdjust="spacing" textLength="88.7031" x="290" y="289.8457">-- Dashboards</text><text fill="#000000" font-family="sans-serif" font-size="14" lengthAdjust="spacing" textLength="89.4688" x="290" y="307.4551">-- Notifications</text><text fill="#000000" font-family="sans-serif" font-size="14" lengthAdjust="spacing" textLength="150.1855" x="290" y="325.0645">-- Secure Data Handling</text><text fill="#000000" font-family="sans-serif" font-size="14" lengthAdjust="spacing" textLength="150.9648" x="290" y="342.6738">-- Consent Management</text><text fill="#000000" font-family="sans-serif" font-size="14" lengthAdjust="spacing" textLength="112.8203" x="290" y="360.2832">-- Data Encryption</text><text fill="#000000" font-family="sans-serif" font-size="14" lengthAdjust="spacing" textLength="101.1377" x="290" y="377.8926">-- User Interface</text><text fill="#000000" font-family="sans-serif" font-size="14" lengthAdjust="spacing" textLength="105.8271" x="290" y="395.502">-- API Integration</text><line style="stroke:#181818;stroke-width:0.5;" x1="285" x2="654.4609" y1="402.5781" y2="402.5781"/><text fill="#000000" font-family="sans-serif" font-size="14" lengthAdjust="spacing" textLength="359.4609" x="290" y="421.1113">-- Electronic Records &amp; Signatures View (21 CFR Part 11)</text><text fill="#000000" font-family="sans-serif" font-size="14" lengthAdjust="spacing" textLength="252.8613" x="290" y="438.7207">-- GDPR Compliance View (if applicable)</text></g><!--class APIGateway--><g id="elem_APIGateway"><rect codeLine="28" fill="#F1F1F1" height="83.2188" id="APIGateway" rx="2.5" ry="2.5" style="stroke:#181818;stroke-width:0.5;" width="109.8135" x="294.5" y="523.6094"/><ellipse cx="309.5" cy="539.6094" fill="#ADD1B2" rx="11" ry="11" style="stroke:#181818;stroke-width:1.0;"/><path d="M312.2656,535.4844 Q312.4219,535.2656 312.6094,535.1563 Q312.7969,535.0469 313.0156,535.0469 Q313.3906,535.0469 313.625,535.3125 Q313.8594,535.5625 313.8594,536.1719 L313.8594,537.625 Q313.8594,538.2344 313.625,538.5 Q313.3906,538.7656 313.0156,538.7656 Q312.6719,538.7656 312.4688,538.5625 Q312.2656,538.375 312.1563,537.8594 Q312.1094,537.5 311.9219,537.3125 Q311.5938,536.9375 310.9844,536.7188 Q310.375,536.5 309.75,536.5 Q308.9844,536.5 308.3438,536.8281 Q307.7188,537.1563 307.2188,537.9063 Q306.7344,538.6563 306.7344,539.6875 L306.7344,540.7813 Q306.7344,542.0156 307.625,542.8438 Q308.5156,543.6563 310.1094,543.6563 Q311.0469,543.6563 311.7031,543.4063 Q312.0938,543.25 312.5156,542.8125 Q312.7813,542.5469 312.9219,542.4688 Q313.0781,542.3906 313.2813,542.3906 Q313.6094,542.3906 313.8594,542.6563 Q314.125,542.9063 314.125,543.25 Q314.125,543.5938 313.7813,544 Q313.2813,544.5781 312.4844,544.9063 Q311.4063,545.3594 310.1094,545.3594 Q308.5938,545.3594 307.3906,544.7344 Q306.4063,544.2344 305.7188,543.1719 Q305.0313,542.0938 305.0313,540.8125 L305.0313,539.6563 Q305.0313,538.3281 305.6406,537.1875 Q306.2656,536.0313 307.3594,535.4219 Q308.4531,534.7969 309.6875,534.7969 Q310.4219,534.7969 311.0625,534.9688 Q311.7188,535.125 312.2656,535.4844 Z " fill="#000000"/><text fill="#000000" font-family="sans-serif" font-size="14" lengthAdjust="spacing" textLength="77.8135" x="323.5" y="545.3379">APIGateway</text><line style="stroke:#181818;stroke-width:0.5;" x1="295.5" x2="403.3135" y1="555.6094" y2="555.6094"/><text fill="#000000" font-family="sans-serif" font-size="14" lengthAdjust="spacing" textLength="57.5859" x="300.5" y="574.1426">GraphQL</text><text fill="#000000" font-family="sans-serif" font-size="14" lengthAdjust="spacing" textLength="52.9102" x="300.5" y="591.752">RSocket</text><line style="stroke:#181818;stroke-width:0.5;" x1="295.5" x2="403.3135" y1="598.8281" y2="598.8281"/></g><!--class Services--><g id="elem_Services"><rect codeLine="33" fill="#F1F1F1" height="153.6563" id="Services" rx="2.5" ry="2.5" style="stroke:#181818;stroke-width:0.5;" width="163.7031" x="250.5" y="684.6094"/><ellipse cx="301.2603" cy="700.6094" fill="#ADD1B2" rx="11" ry="11" style="stroke:#181818;stroke-width:1.0;"/><path d="M304.0259,696.4844 Q304.1821,696.2656 304.3696,696.1563 Q304.5571,696.0469 304.7759,696.0469 Q305.1509,696.0469 305.3853,696.3125 Q305.6196,696.5625 305.6196,697.1719 L305.6196,698.625 Q305.6196,699.2344 305.3853,699.5 Q305.1509,699.7656 304.7759,699.7656 Q304.4321,699.7656 304.229,699.5625 Q304.0259,699.375 303.9165,698.8594 Q303.8696,698.5 303.6821,698.3125 Q303.354,697.9375 302.7446,697.7188 Q302.1353,697.5 301.5103,697.5 Q300.7446,697.5 300.104,697.8281 Q299.479,698.1563 298.979,698.9063 Q298.4946,699.6563 298.4946,700.6875 L298.4946,701.7813 Q298.4946,703.0156 299.3853,703.8438 Q300.2759,704.6563 301.8696,704.6563 Q302.8071,704.6563 303.4634,704.4063 Q303.854,704.25 304.2759,703.8125 Q304.5415,703.5469 304.6821,703.4688 Q304.8384,703.3906 305.0415,703.3906 Q305.3696,703.3906 305.6196,703.6563 Q305.8853,703.9063 305.8853,704.25 Q305.8853,704.5938 305.5415,705 Q305.0415,705.5781 304.2446,705.9063 Q303.1665,706.3594 301.8696,706.3594 Q300.354,706.3594 299.1509,705.7344 Q298.1665,705.2344 297.479,704.1719 Q296.7915,703.0938 296.7915,701.8125 L296.7915,700.6563 Q296.7915,699.3281 297.4009,698.1875 Q298.0259,697.0313 299.1196,696.4219 Q300.2134,695.7969 301.4478,695.7969 Q302.1821,695.7969 302.8228,695.9688 Q303.479,696.125 304.0259,696.4844 Z " fill="#000000"/><text fill="#000000" font-family="sans-serif" font-size="14" lengthAdjust="spacing" textLength="53.6826" x="321.7603" y="706.3379">Services</text><line style="stroke:#181818;stroke-width:0.5;" x1="251.5" x2="413.2031" y1="716.6094" y2="716.6094"/><text fill="#000000" font-family="sans-serif" font-size="14" lengthAdjust="spacing" textLength="125.2754" x="256.5" y="735.1426">Registration Service</text><text fill="#000000" font-family="sans-serif" font-size="14" lengthAdjust="spacing" textLength="119.8477" x="256.5" y="752.752">Scheduling Service</text><text fill="#000000" font-family="sans-serif" font-size="14" lengthAdjust="spacing" textLength="151.7031" x="256.5" y="770.3613">History Tracking Service</text><text fill="#000000" font-family="sans-serif" font-size="14" lengthAdjust="spacing" textLength="119.8271" x="256.5" y="787.9707">Notification Service</text><text fill="#000000" font-family="sans-serif" font-size="14" lengthAdjust="spacing" textLength="80.1309" x="256.5" y="805.5801">User Service</text><text fill="#000000" font-family="sans-serif" font-size="14" lengthAdjust="spacing" textLength="116.7305" x="256.5" y="823.1895">Integration Service</text><line style="stroke:#181818;stroke-width:0.5;" x1="251.5" x2="413.2031" y1="830.2656" y2="830.2656"/></g><!--class NgRxStore--><g id="elem_NgRxStore"><rect codeLine="42" fill="#F1F1F1" height="65.6094" id="NgRxStore" rx="2.5" ry="2.5" style="stroke:#181818;stroke-width:0.5;" width="130.2959" x="453.5" y="951.6094"/><ellipse cx="481.9222" cy="967.6094" fill="#ADD1B2" rx="11" ry="11" style="stroke:#181818;stroke-width:1.0;"/><path d="M484.6878,963.4844 Q484.8441,963.2656 485.0316,963.1563 Q485.2191,963.0469 485.4378,963.0469 Q485.8128,963.0469 486.0472,963.3125 Q486.2816,963.5625 486.2816,964.1719 L486.2816,965.625 Q486.2816,966.2344 486.0472,966.5 Q485.8128,966.7656 485.4378,966.7656 Q485.0941,966.7656 484.891,966.5625 Q484.6878,966.375 484.5785,965.8594 Q484.5316,965.5 484.3441,965.3125 Q484.016,964.9375 483.4066,964.7188 Q482.7972,964.5 482.1722,964.5 Q481.4066,964.5 480.766,964.8281 Q480.141,965.1563 479.641,965.9063 Q479.1566,966.6563 479.1566,967.6875 L479.1566,968.7813 Q479.1566,970.0156 480.0472,970.8438 Q480.9378,971.6563 482.5316,971.6563 Q483.4691,971.6563 484.1253,971.4063 Q484.516,971.25 484.9378,970.8125 Q485.2035,970.5469 485.3441,970.4688 Q485.5003,970.3906 485.7035,970.3906 Q486.0316,970.3906 486.2816,970.6563 Q486.5472,970.9063 486.5472,971.25 Q486.5472,971.5938 486.2035,972 Q485.7035,972.5781 484.9066,972.9063 Q483.8285,973.3594 482.5316,973.3594 Q481.016,973.3594 479.8128,972.7344 Q478.8285,972.2344 478.141,971.1719 Q477.4535,970.0938 477.4535,968.8125 L477.4535,967.6563 Q477.4535,966.3281 478.0628,965.1875 Q478.6878,964.0313 479.7816,963.4219 Q480.8753,962.7969 482.1097,962.7969 Q482.8441,962.7969 483.4847,962.9688 Q484.141,963.125 484.6878,963.4844 Z " fill="#000000"/><text fill="#000000" font-family="sans-serif" font-size="14" lengthAdjust="spacing" textLength="68.4688" x="498.9049" y="973.3379">NgRxStore</text><line style="stroke:#181818;stroke-width:0.5;" x1="454.5" x2="582.7959" y1="983.6094" y2="983.6094"/><text fill="#000000" font-family="sans-serif" font-size="14" lengthAdjust="spacing" textLength="118.2959" x="459.5" y="1002.1426">State Management</text><line style="stroke:#181818;stroke-width:0.5;" x1="454.5" x2="582.7959" y1="1009.2188" y2="1009.2188"/></g><!--class Entities--><g id="elem_Entities"><rect codeLine="46" fill="#F1F1F1" height="136.0469" id="Entities" rx="2.5" ry="2.5" style="stroke:#181818;stroke-width:0.5;" width="86.7031" x="7" y="916.6094"/><ellipse cx="25.9568" cy="932.6094" fill="#ADD1B2" rx="11" ry="11" style="stroke:#181818;stroke-width:1.0;"/><path d="M28.7225,928.4844 Q28.8787,928.2656 29.0662,928.1563 Q29.2537,928.0469 29.4725,928.0469 Q29.8475,928.0469 30.0818,928.3125 Q30.3162,928.5625 30.3162,929.1719 L30.3162,930.625 Q30.3162,931.2344 30.0818,931.5 Q29.8475,931.7656 29.4725,931.7656 Q29.1287,931.7656 28.9256,931.5625 Q28.7225,931.375 28.6131,930.8594 Q28.5662,930.5 28.3787,930.3125 Q28.0506,929.9375 27.4412,929.7188 Q26.8318,929.5 26.2068,929.5 Q25.4412,929.5 24.8006,929.8281 Q24.1756,930.1563 23.6756,930.9063 Q23.1912,931.6563 23.1912,932.6875 L23.1912,933.7813 Q23.1912,935.0156 24.0818,935.8438 Q24.9725,936.6563 26.5662,936.6563 Q27.5037,936.6563 28.16,936.4063 Q28.5506,936.25 28.9725,935.8125 Q29.2381,935.5469 29.3787,935.4688 Q29.535,935.3906 29.7381,935.3906 Q30.0662,935.3906 30.3162,935.6563 Q30.5818,935.9063 30.5818,936.25 Q30.5818,936.5938 30.2381,937 Q29.7381,937.5781 28.9412,937.9063 Q27.8631,938.3594 26.5662,938.3594 Q25.0506,938.3594 23.8475,937.7344 Q22.8631,937.2344 22.1756,936.1719 Q21.4881,935.0938 21.4881,933.8125 L21.4881,932.6563 Q21.4881,931.3281 22.0975,930.1875 Q22.7225,929.0313 23.8162,928.4219 Q24.91,927.7969 26.1443,927.7969 Q26.8787,927.7969 27.5193,927.9688 Q28.1756,928.125 28.7225,928.4844 Z " fill="#000000"/><text fill="#000000" font-family="sans-serif" font-size="14" lengthAdjust="spacing" textLength="45.9102" x="40.8361" y="938.3379">Entities</text><line style="stroke:#181818;stroke-width:0.5;" x1="8" x2="92.7031" y1="948.6094" y2="948.6094"/><text fill="#000000" font-family="sans-serif" font-size="14" lengthAdjust="spacing" textLength="74.7031" x="13" y="967.1426">Registration</text><text fill="#000000" font-family="sans-serif" font-size="14" lengthAdjust="spacing" textLength="58.3789" x="13" y="984.752">Schedule</text><text fill="#000000" font-family="sans-serif" font-size="14" lengthAdjust="spacing" textLength="43.5586" x="13" y="1002.3613">History</text><text fill="#000000" font-family="sans-serif" font-size="14" lengthAdjust="spacing" textLength="69.2549" x="13" y="1019.9707">Notification</text><text fill="#000000" font-family="sans-serif" font-size="14" lengthAdjust="spacing" textLength="29.5586" x="13" y="1037.5801">User</text><line style="stroke:#181818;stroke-width:0.5;" x1="8" x2="92.7031" y1="1044.6563" y2="1044.6563"/></g><!--class Kafka--><g id="elem_Kafka"><rect codeLine="54" fill="#F1F1F1" height="136.0469" id="Kafka" rx="2.5" ry="2.5" style="stroke:#181818;stroke-width:0.5;" width="138.8271" x="224" y="916.6094"/><ellipse cx="271.2637" cy="932.6094" fill="#ADD1B2" rx="11" ry="11" style="stroke:#181818;stroke-width:1.0;"/><path d="M274.0293,928.4844 Q274.1855,928.2656 274.373,928.1563 Q274.5605,928.0469 274.7793,928.0469 Q275.1543,928.0469 275.3887,928.3125 Q275.623,928.5625 275.623,929.1719 L275.623,930.625 Q275.623,931.2344 275.3887,931.5 Q275.1543,931.7656 274.7793,931.7656 Q274.4355,931.7656 274.2324,931.5625 Q274.0293,931.375 273.9199,930.8594 Q273.873,930.5 273.6855,930.3125 Q273.3574,929.9375 272.748,929.7188 Q272.1387,929.5 271.5137,929.5 Q270.748,929.5 270.1074,929.8281 Q269.4824,930.1563 268.9824,930.9063 Q268.498,931.6563 268.498,932.6875 L268.498,933.7813 Q268.498,935.0156 269.3887,935.8438 Q270.2793,936.6563 271.873,936.6563 Q272.8105,936.6563 273.4668,936.4063 Q273.8574,936.25 274.2793,935.8125 Q274.5449,935.5469 274.6855,935.4688 Q274.8418,935.3906 275.0449,935.3906 Q275.373,935.3906 275.623,935.6563 Q275.8887,935.9063 275.8887,936.25 Q275.8887,936.5938 275.5449,937 Q275.0449,937.5781 274.248,937.9063 Q273.1699,938.3594 271.873,938.3594 Q270.3574,938.3594 269.1543,937.7344 Q268.1699,937.2344 267.4824,936.1719 Q266.7949,935.0938 266.7949,933.8125 L266.7949,932.6563 Q266.7949,931.3281 267.4043,930.1875 Q268.0293,929.0313 269.123,928.4219 Q270.2168,927.7969 271.4512,927.7969 Q272.1855,927.7969 272.8262,927.9688 Q273.4824,928.125 274.0293,928.4844 Z " fill="#000000"/><text fill="#000000" font-family="sans-serif" font-size="14" lengthAdjust="spacing" textLength="35.7998" x="291.7637" y="938.3379">Kafka</text><line style="stroke:#181818;stroke-width:0.5;" x1="225" x2="361.8271" y1="948.6094" y2="948.6094"/><rect fill="none" height="6" style="stroke:#C82930;stroke-width:1.0;" width="6" x="232" y="959.9141"/><text fill="#000000" font-family="sans-serif" font-size="14" lengthAdjust="spacing" textLength="112.8271" x="244" y="967.1426">Registration Topic</text><rect fill="none" height="6" style="stroke:#C82930;stroke-width:1.0;" width="6" x="232" y="977.5234"/><text fill="#000000" font-family="sans-serif" font-size="14" lengthAdjust="spacing" textLength="96.5029" x="244" y="984.752">Schedule Topic</text><rect fill="none" height="6" style="stroke:#C82930;stroke-width:1.0;" width="6" x="232" y="995.1328"/><text fill="#000000" font-family="sans-serif" font-size="14" lengthAdjust="spacing" textLength="81.6826" x="244" y="1002.3613">History Topic</text><rect fill="none" height="6" style="stroke:#C82930;stroke-width:1.0;" width="6" x="232" y="1012.7422"/><text fill="#000000" font-family="sans-serif" font-size="14" lengthAdjust="spacing" textLength="107.3789" x="244" y="1019.9707">Notification Topic</text><rect fill="none" height="6" style="stroke:#C82930;stroke-width:1.0;" width="6" x="232" y="1030.3516"/><text fill="#000000" font-family="sans-serif" font-size="14" lengthAdjust="spacing" textLength="67.6826" x="244" y="1037.5801">User Topic</text><line style="stroke:#181818;stroke-width:0.5;" x1="225" x2="361.8271" y1="1044.6563" y2="1044.6563"/></g><!--link DonorManagementApp to APIGateway--><g id="link_DonorManagementApp_APIGateway"><path codeLine="62" d="M364.74,445.8994 C361.29,455.8194 358.17,465.7494 355.5,475.6094 C351.35,490.9194 349.8258,502.2448 349.1758,517.4748 " fill="none" id="DonorManagementApp-to-APIGateway" style="stroke:#181818;stroke-width:1.0;"/><polygon fill="#181818" points="348.92,523.4694,353.3001,514.6481,349.1332,518.4739,345.3074,514.307,348.92,523.4694" style="stroke:#181818;stroke-width:1.0;"/><text fill="#000000" font-family="sans-serif" font-size="13" lengthAdjust="spacing" textLength="203.0488" x="356.5" y="490.1045">Sends GraphQL Queries/Mutations</text></g><!--link APIGateway to Services--><g id="link_APIGateway_Services"><path codeLine="63" d="M345.94,606.8794 C343.97,629.3894 341.9816,652.0821 339.6716,678.5521 " fill="none" id="APIGateway-to-Services" style="stroke:#181818;stroke-width:1.0;"/><polygon fill="#181818" points="339.15,684.5294,343.9173,675.9112,339.5847,679.5483,335.9476,675.2157,339.15,684.5294" style="stroke:#181818;stroke-width:1.0;"/><text fill="#000000" font-family="sans-serif" font-size="13" lengthAdjust="spacing" textLength="99.7217" x="343.5" y="651.1045">Routes Requests</text></g><!--link DonorManagementApp to NgRxStore--><g id="link_DonorManagementApp_NgRxStore"><path codeLine="64" d="M557.36,445.6294 C560.11,455.6594 562.52,465.6894 564.5,475.6094 C599.83,652.9994 551.0628,864.9065 529.2728,945.6765 " fill="none" id="DonorManagementApp-to-NgRxStore" style="stroke:#181818;stroke-width:1.0;"/><polygon fill="#181818" points="527.71,951.4694,533.9161,943.8219,529.0123,946.642,526.1923,941.7382,527.71,951.4694" style="stroke:#181818;stroke-width:1.0;"/><text fill="#000000" font-family="sans-serif" font-size="13" lengthAdjust="spacing" textLength="109.8462" x="576.5" y="651.1045">State Management</text></g><!--link Services to NgRxStore--><g id="link_Services_NgRxStore"><path codeLine="65" d="M401.82,838.8294 C410.56,848.7694 419.3,858.8794 427.5,868.6094 C450.63,896.0694 472.2193,923.4132 490.2393,946.7132 " fill="none" id="Services-to-NgRxStore" style="stroke:#181818;stroke-width:1.0;"/><polygon fill="#181818" points="493.91,951.4594,491.5681,941.893,490.8511,947.5042,485.2399,946.7872,493.91,951.4594" style="stroke:#181818;stroke-width:1.0;"/><text fill="#000000" font-family="sans-serif" font-size="13" lengthAdjust="spacing" textLength="82.3862" x="440.5" y="883.1045">State Updates</text></g><!--link Services to Entities--><g id="link_Services_Entities"><path codeLine="66" d="M250.25,775.8994 C192.96,789.4694 119.25,816.3294 75.5,868.6094 C64.29,882.0094 59.051,893.4155 55.351,910.4855 " fill="none" id="Services-to-Entities" style="stroke:#181818;stroke-width:1.0;"/><polygon fill="#181818" points="54.08,916.3494,59.8957,908.401,55.1392,911.4628,52.0773,906.7063,54.08,916.3494" style="stroke:#181818;stroke-width:1.0;"/><text fill="#000000" font-family="sans-serif" font-size="13" lengthAdjust="spacing" textLength="99.7217" x="76.5" y="883.1045">Manages Entities</text></g><!--link Services to Kafka--><g id="link_Services_Kafka"><path codeLine="67" d="M250.2,803.6494 C225.8,820.2394 202.02,841.8794 188.5,868.6094 C173.86,897.5594 191.2073,921.0564 218.8773,941.6564 " fill="none" id="Services-to-Kafka" style="stroke:#181818;stroke-width:1.0;"/><polygon fill="#181818" points="223.69,945.2394,218.8596,936.6564,219.6794,942.2535,214.0823,943.0733,223.69,945.2394" style="stroke:#181818;stroke-width:1.0;"/><text fill="#000000" font-family="sans-serif" font-size="13" lengthAdjust="spacing" textLength="99.7217" x="189.5" y="883.1045">Publishes Events</text></g><!--link Kafka to Services--><g id="link_Kafka_Services"><path codeLine="68" d="M305.38,916.2894 C309.71,891.7694 313.5874,869.7981 318.0374,844.5781 " fill="none" id="Kafka-to-Services" style="stroke:#181818;stroke-width:1.0;"/><polygon fill="#181818" points="319.08,838.6694,313.577,846.8374,318.2112,843.5933,321.4553,848.2275,319.08,838.6694" style="stroke:#181818;stroke-width:1.0;"/><text fill="#000000" font-family="sans-serif" font-size="13" lengthAdjust="spacing" textLength="105.4917" x="313.5" y="883.1045">Consumes Events</text></g><!--SRC=[TLFBRjim4BphAxQN8ZqOXNlKeO1hAuxHn72a9FSrjP89owHAKacDel_UfQH8bEC21aJE3lSnu_sKKo4LGPeidnRRzNq2ea9heyX9Ln6ijD867b1XIITI3XPr3Ik9fS4J51pwaIopA1fVjmz6lgV_YG1U9BtP6FWqcq5AfRJEe9DQjP4EpiI1ygQIgWp0EsPgSuOdW-8u3MsrauKKRHeRu4b5mXcjfE1AGflSmcV8PAdGDOOw9jnycyFoDeKT6WVp-PU-scQtMC1Id-fAeX8KP5slTkbb16va0LWp971VKPyaS-Z83zbKqzxuvnDenS8COjngSxBTSOaLgHnDVrsXFUmrSlzNvkrBaU2HcEaGxb3bNhm-5tEyNwCLxqcPcYXXphNFqu7FbWnib2DJeA0EM-msBLHsFaL_GvSvkEOXt_3SkhisM1yUx_cKPbeSoKtP6PbNALXvpvsOtqSO3imVmG_cZw5GZ01k9nclmG03EcbjMwQ_Cwv1RM-TSu5a4swYU2VabJ76zeEcBthiUvjc_8d54Tjq5qlnf6ifMlWzSG0DgWp8H8mHRiNehbpsocREPjz3AsFMIF6sz7R2OqE6v_twqBZ-JnUG_Tl1s1XItJW-fFIh8Uli_wgDUiSVrHxINMS-rpb_x9Gsc1BtcUm0JOcTrZ7icdqbxS7pNlqUHbtWOXo_Firf9Fq3]--></g></svg>