<svg xmlns="http://www.w3.org/2000/svg" xmlns:xlink="http://www.w3.org/1999/xlink" contentStyleType="text/css" height="1059px" preserveAspectRatio="none" style="width:691px;height:1059px;background:#FFFFFF;" version="1.1" viewBox="0 0 691 1059" width="691px" zoomAndPan="magnify"><title>Inventory Management App Diagram for BECS</title><defs/><g><text fill="#000000" font-family="sans-serif" font-size="14" font-weight="bold" lengthAdjust="spacing" textLength="308.8271" x="184.5095" y="24.5332">Inventory Management App Diagram for BECS</text><!--class InventoryManagementApp--><g id="elem_InventoryManagementApp"><rect codeLine="5" fill="#F1F1F1" height="400.1875" id="InventoryManagementApp" rx="2.5" ry="2.5" style="stroke:#181818;stroke-width:0.5;" width="359.0264" x="285.5" y="45.6094"/><ellipse cx="378.6567" cy="61.6094" fill="#ADD1B2" rx="11" ry="11" style="stroke:#181818;stroke-width:1.0;"/><path d="M381.4224,57.4844 Q381.5786,57.2656 381.7661,57.1563 Q381.9536,57.0469 382.1724,57.0469 Q382.5474,57.0469 382.7817,57.3125 Q383.0161,57.5625 383.0161,58.1719 L383.0161,59.625 Q383.0161,60.2344 382.7817,60.5 Q382.5474,60.7656 382.1724,60.7656 Q381.8286,60.7656 381.6255,60.5625 Q381.4224,60.375 381.313,59.8594 Q381.2661,59.5 381.0786,59.3125 Q380.7505,58.9375 380.1411,58.7188 Q379.5317,58.5 378.9067,58.5 Q378.1411,58.5 377.5005,58.8281 Q376.8755,59.1563 376.3755,59.9063 Q375.8911,60.6563 375.8911,61.6875 L375.8911,62.7813 Q375.8911,64.0156 376.7817,64.8438 Q377.6724,65.6563 379.2661,65.6563 Q380.2036,65.6563 380.8599,65.4063 Q381.2505,65.25 381.6724,64.8125 Q381.938,64.5469 382.0786,64.4688 Q382.2349,64.3906 382.438,64.3906 Q382.7661,64.3906 383.0161,64.6563 Q383.2817,64.9063 383.2817,65.25 Q383.2817,65.5938 382.938,66 Q382.438,66.5781 381.6411,66.9063 Q380.563,67.3594 379.2661,67.3594 Q377.7505,67.3594 376.5474,66.7344 Q375.563,66.2344 374.8755,65.1719 Q374.188,64.0938 374.188,62.8125 L374.188,61.6563 Q374.188,60.3281 374.7974,59.1875 Q375.4224,58.0313 376.5161,57.4219 Q377.6099,56.7969 378.8442,56.7969 Q379.5786,56.7969 380.2192,56.9688 Q380.8755,57.125 381.4224,57.4844 Z " fill="#000000"/><text fill="#000000" font-family="sans-serif" font-size="14" lengthAdjust="spacing" textLength="164.2129" x="399.1567" y="67.3379">InventoryManagementApp</text><line style="stroke:#181818;stroke-width:0.5;" x1="286.5" x2="643.5264" y1="77.6094" y2="77.6094"/><text fill="#000000" font-family="sans-serif" font-size="14" lengthAdjust="spacing" textLength="41.2344" x="291.5" y="96.1426">Views:</text><text fill="#000000" font-family="sans-serif" font-size="14" lengthAdjust="spacing" textLength="162.6064" x="291.5" y="113.752">-- Inventory Tracking View</text><text fill="#000000" font-family="sans-serif" font-size="14" lengthAdjust="spacing" textLength="166.5234" x="291.5" y="131.3613">-- Storage Conditions View</text><text fill="#000000" font-family="sans-serif" font-size="14" lengthAdjust="spacing" textLength="150.165" x="291.5" y="148.9707">-- Expiration Dates View</text><text fill="#000000" font-family="sans-serif" font-size="14" lengthAdjust="spacing" textLength="147.8203" x="291.5" y="166.5801">-- CDC Guidelines View</text><text fill="#000000" font-family="sans-serif" font-size="14" lengthAdjust="spacing" textLength="153.2891" x="291.5" y="184.1895">-- EPA Regulations View</text><text fill="#000000" font-family="sans-serif" font-size="14" lengthAdjust="spacing" textLength="158.7168" x="291.5" y="201.7988">-- GAMP Guidelines View</text><text fill="#000000" font-family="sans-serif" font-size="14" lengthAdjust="spacing" textLength="3.8896" x="291.5" y="219.4082">&#160;</text><text fill="#000000" font-family="sans-serif" font-size="14" lengthAdjust="spacing" textLength="83.2686" x="291.5" y="237.0176">Components:</text><text fill="#000000" font-family="sans-serif" font-size="14" lengthAdjust="spacing" textLength="55.2344" x="291.5" y="254.627">-- Tables</text><text fill="#000000" font-family="sans-serif" font-size="14" lengthAdjust="spacing" textLength="54.4482" x="291.5" y="272.2363">-- Charts</text><text fill="#000000" font-family="sans-serif" font-size="14" lengthAdjust="spacing" textLength="49" x="291.5" y="289.8457">-- Alerts</text><text fill="#000000" font-family="sans-serif" font-size="14" lengthAdjust="spacing" textLength="51.3242" x="291.5" y="307.4551">-- Filters</text><text fill="#000000" font-family="sans-serif" font-size="14" lengthAdjust="spacing" textLength="115.1514" x="291.5" y="325.0645">-- Safety Protocols</text><text fill="#000000" font-family="sans-serif" font-size="14" lengthAdjust="spacing" textLength="138.4961" x="291.5" y="342.6738">-- Waste Management</text><text fill="#000000" font-family="sans-serif" font-size="14" lengthAdjust="spacing" textLength="158.7236" x="291.5" y="360.2832">-- Environmental Controls</text><text fill="#000000" font-family="sans-serif" font-size="14" lengthAdjust="spacing" textLength="101.1377" x="291.5" y="377.8926">-- User Interface</text><text fill="#000000" font-family="sans-serif" font-size="14" lengthAdjust="spacing" textLength="105.8271" x="291.5" y="395.502">-- API Integration</text><line style="stroke:#181818;stroke-width:0.5;" x1="286.5" x2="643.5264" y1="402.5781" y2="402.5781"/><text fill="#000000" font-family="sans-serif" font-size="14" lengthAdjust="spacing" textLength="347.0264" x="291.5" y="421.1113">-- Good Manufacturing Practice View (21 CFR Part 606)</text><text fill="#000000" font-family="sans-serif" font-size="14" lengthAdjust="spacing" textLength="286.3643" x="291.5" y="438.7207">-- Bloodborne Pathogens Safety View (OSHA)</text></g><!--class APIGateway--><g id="elem_APIGateway"><rect codeLine="28" fill="#F1F1F1" height="83.2188" id="APIGateway" rx="2.5" ry="2.5" style="stroke:#181818;stroke-width:0.5;" width="109.8135" x="290" y="523.6094"/><ellipse cx="305" cy="539.6094" fill="#ADD1B2" rx="11" ry="11" style="stroke:#181818;stroke-width:1.0;"/><path d="M307.7656,535.4844 Q307.9219,535.2656 308.1094,535.1563 Q308.2969,535.0469 308.5156,535.0469 Q308.8906,535.0469 309.125,535.3125 Q309.3594,535.5625 309.3594,536.1719 L309.3594,537.625 Q309.3594,538.2344 309.125,538.5 Q308.8906,538.7656 308.5156,538.7656 Q308.1719,538.7656 307.9688,538.5625 Q307.7656,538.375 307.6563,537.8594 Q307.6094,537.5 307.4219,537.3125 Q307.0938,536.9375 306.4844,536.7188 Q305.875,536.5 305.25,536.5 Q304.4844,536.5 303.8438,536.8281 Q303.2188,537.1563 302.7188,537.9063 Q302.2344,538.6563 302.2344,539.6875 L302.2344,540.7813 Q302.2344,542.0156 303.125,542.8438 Q304.0156,543.6563 305.6094,543.6563 Q306.5469,543.6563 307.2031,543.4063 Q307.5938,543.25 308.0156,542.8125 Q308.2813,542.5469 308.4219,542.4688 Q308.5781,542.3906 308.7813,542.3906 Q309.1094,542.3906 309.3594,542.6563 Q309.625,542.9063 309.625,543.25 Q309.625,543.5938 309.2813,544 Q308.7813,544.5781 307.9844,544.9063 Q306.9063,545.3594 305.6094,545.3594 Q304.0938,545.3594 302.8906,544.7344 Q301.9063,544.2344 301.2188,543.1719 Q300.5313,542.0938 300.5313,540.8125 L300.5313,539.6563 Q300.5313,538.3281 301.1406,537.1875 Q301.7656,536.0313 302.8594,535.4219 Q303.9531,534.7969 305.1875,534.7969 Q305.9219,534.7969 306.5625,534.9688 Q307.2188,535.125 307.7656,535.4844 Z " fill="#000000"/><text fill="#000000" font-family="sans-serif" font-size="14" lengthAdjust="spacing" textLength="77.8135" x="319" y="545.3379">APIGateway</text><line style="stroke:#181818;stroke-width:0.5;" x1="291" x2="398.8135" y1="555.6094" y2="555.6094"/><text fill="#000000" font-family="sans-serif" font-size="14" lengthAdjust="spacing" textLength="57.5859" x="296" y="574.1426">GraphQL</text><text fill="#000000" font-family="sans-serif" font-size="14" lengthAdjust="spacing" textLength="52.9102" x="296" y="591.752">RSocket</text><line style="stroke:#181818;stroke-width:0.5;" x1="291" x2="398.8135" y1="598.8281" y2="598.8281"/></g><!--class Services--><g id="elem_Services"><rect codeLine="33" fill="#F1F1F1" height="153.6563" id="Services" rx="2.5" ry="2.5" style="stroke:#181818;stroke-width:0.5;" width="128.7305" x="263.5" y="684.6094"/><ellipse cx="297.8715" cy="700.6094" fill="#ADD1B2" rx="11" ry="11" style="stroke:#181818;stroke-width:1.0;"/><path d="M300.6372,696.4844 Q300.7934,696.2656 300.9809,696.1563 Q301.1684,696.0469 301.3872,696.0469 Q301.7622,696.0469 301.9965,696.3125 Q302.2309,696.5625 302.2309,697.1719 L302.2309,698.625 Q302.2309,699.2344 301.9965,699.5 Q301.7622,699.7656 301.3872,699.7656 Q301.0434,699.7656 300.8403,699.5625 Q300.6372,699.375 300.5278,698.8594 Q300.4809,698.5 300.2934,698.3125 Q299.9653,697.9375 299.3559,697.7188 Q298.7465,697.5 298.1215,697.5 Q297.3559,697.5 296.7153,697.8281 Q296.0903,698.1563 295.5903,698.9063 Q295.1059,699.6563 295.1059,700.6875 L295.1059,701.7813 Q295.1059,703.0156 295.9965,703.8438 Q296.8872,704.6563 298.4809,704.6563 Q299.4184,704.6563 300.0747,704.4063 Q300.4653,704.25 300.8872,703.8125 Q301.1528,703.5469 301.2934,703.4688 Q301.4497,703.3906 301.6528,703.3906 Q301.9809,703.3906 302.2309,703.6563 Q302.4965,703.9063 302.4965,704.25 Q302.4965,704.5938 302.1528,705 Q301.6528,705.5781 300.8559,705.9063 Q299.7778,706.3594 298.4809,706.3594 Q296.9653,706.3594 295.7622,705.7344 Q294.7778,705.2344 294.0903,704.1719 Q293.4028,703.0938 293.4028,701.8125 L293.4028,700.6563 Q293.4028,699.3281 294.0122,698.1875 Q294.6372,697.0313 295.7309,696.4219 Q296.8247,695.7969 298.059,695.7969 Q298.7934,695.7969 299.434,695.9688 Q300.0903,696.125 300.6372,696.4844 Z " fill="#000000"/><text fill="#000000" font-family="sans-serif" font-size="14" lengthAdjust="spacing" textLength="53.6826" x="316.1763" y="706.3379">Services</text><line style="stroke:#181818;stroke-width:0.5;" x1="264.5" x2="391.2305" y1="716.6094" y2="716.6094"/><text fill="#000000" font-family="sans-serif" font-size="14" lengthAdjust="spacing" textLength="108.1582" x="269.5" y="735.1426">Inventory Service</text><text fill="#000000" font-family="sans-serif" font-size="14" lengthAdjust="spacing" textLength="99.6064" x="269.5" y="752.752">Storage Service</text><text fill="#000000" font-family="sans-serif" font-size="14" lengthAdjust="spacing" textLength="112.8271" x="269.5" y="770.3613">Expiration Service</text><text fill="#000000" font-family="sans-serif" font-size="14" lengthAdjust="spacing" textLength="90.2617" x="269.5" y="787.9707">Safety Service</text><text fill="#000000" font-family="sans-serif" font-size="14" lengthAdjust="spacing" textLength="80.1309" x="269.5" y="805.5801">User Service</text><text fill="#000000" font-family="sans-serif" font-size="14" lengthAdjust="spacing" textLength="116.7305" x="269.5" y="823.1895">Integration Service</text><line style="stroke:#181818;stroke-width:0.5;" x1="264.5" x2="391.2305" y1="830.2656" y2="830.2656"/></g><!--class NgRxStore--><g id="elem_NgRxStore"><rect codeLine="42" fill="#F1F1F1" height="65.6094" id="NgRxStore" rx="2.5" ry="2.5" style="stroke:#181818;stroke-width:0.5;" width="130.2959" x="463" y="951.6094"/><ellipse cx="491.4222" cy="967.6094" fill="#ADD1B2" rx="11" ry="11" style="stroke:#181818;stroke-width:1.0;"/><path d="M494.1878,963.4844 Q494.3441,963.2656 494.5316,963.1563 Q494.7191,963.0469 494.9378,963.0469 Q495.3128,963.0469 495.5472,963.3125 Q495.7816,963.5625 495.7816,964.1719 L495.7816,965.625 Q495.7816,966.2344 495.5472,966.5 Q495.3128,966.7656 494.9378,966.7656 Q494.5941,966.7656 494.391,966.5625 Q494.1878,966.375 494.0785,965.8594 Q494.0316,965.5 493.8441,965.3125 Q493.516,964.9375 492.9066,964.7188 Q492.2972,964.5 491.6722,964.5 Q490.9066,964.5 490.266,964.8281 Q489.641,965.1563 489.141,965.9063 Q488.6566,966.6563 488.6566,967.6875 L488.6566,968.7813 Q488.6566,970.0156 489.5472,970.8438 Q490.4378,971.6563 492.0316,971.6563 Q492.9691,971.6563 493.6253,971.4063 Q494.016,971.25 494.4378,970.8125 Q494.7035,970.5469 494.8441,970.4688 Q495.0003,970.3906 495.2035,970.3906 Q495.5316,970.3906 495.7816,970.6563 Q496.0472,970.9063 496.0472,971.25 Q496.0472,971.5938 495.7035,972 Q495.2035,972.5781 494.4066,972.9063 Q493.3285,973.3594 492.0316,973.3594 Q490.516,973.3594 489.3128,972.7344 Q488.3285,972.2344 487.641,971.1719 Q486.9535,970.0938 486.9535,968.8125 L486.9535,967.6563 Q486.9535,966.3281 487.5628,965.1875 Q488.1878,964.0313 489.2816,963.4219 Q490.3753,962.7969 491.6097,962.7969 Q492.3441,962.7969 492.9847,962.9688 Q493.641,963.125 494.1878,963.4844 Z " fill="#000000"/><text fill="#000000" font-family="sans-serif" font-size="14" lengthAdjust="spacing" textLength="68.4688" x="508.4049" y="973.3379">NgRxStore</text><line style="stroke:#181818;stroke-width:0.5;" x1="464" x2="592.2959" y1="983.6094" y2="983.6094"/><text fill="#000000" font-family="sans-serif" font-size="14" lengthAdjust="spacing" textLength="118.2959" x="469" y="1002.1426">State Management</text><line style="stroke:#181818;stroke-width:0.5;" x1="464" x2="592.2959" y1="1009.2188" y2="1009.2188"/></g><!--class Entities--><g id="elem_Entities"><rect codeLine="46" fill="#F1F1F1" height="136.0469" id="Entities" rx="2.5" ry="2.5" style="stroke:#181818;stroke-width:0.5;" width="77.9102" x="7" y="916.6094"/><ellipse cx="22" cy="932.6094" fill="#ADD1B2" rx="11" ry="11" style="stroke:#181818;stroke-width:1.0;"/><path d="M24.7656,928.4844 Q24.9219,928.2656 25.1094,928.1563 Q25.2969,928.0469 25.5156,928.0469 Q25.8906,928.0469 26.125,928.3125 Q26.3594,928.5625 26.3594,929.1719 L26.3594,930.625 Q26.3594,931.2344 26.125,931.5 Q25.8906,931.7656 25.5156,931.7656 Q25.1719,931.7656 24.9688,931.5625 Q24.7656,931.375 24.6563,930.8594 Q24.6094,930.5 24.4219,930.3125 Q24.0938,929.9375 23.4844,929.7188 Q22.875,929.5 22.25,929.5 Q21.4844,929.5 20.8438,929.8281 Q20.2188,930.1563 19.7188,930.9063 Q19.2344,931.6563 19.2344,932.6875 L19.2344,933.7813 Q19.2344,935.0156 20.125,935.8438 Q21.0156,936.6563 22.6094,936.6563 Q23.5469,936.6563 24.2031,936.4063 Q24.5938,936.25 25.0156,935.8125 Q25.2813,935.5469 25.4219,935.4688 Q25.5781,935.3906 25.7813,935.3906 Q26.1094,935.3906 26.3594,935.6563 Q26.625,935.9063 26.625,936.25 Q26.625,936.5938 26.2813,937 Q25.7813,937.5781 24.9844,937.9063 Q23.9063,938.3594 22.6094,938.3594 Q21.0938,938.3594 19.8906,937.7344 Q18.9063,937.2344 18.2188,936.1719 Q17.5313,935.0938 17.5313,933.8125 L17.5313,932.6563 Q17.5313,931.3281 18.1406,930.1875 Q18.7656,929.0313 19.8594,928.4219 Q20.9531,927.7969 22.1875,927.7969 Q22.9219,927.7969 23.5625,927.9688 Q24.2188,928.125 24.7656,928.4844 Z " fill="#000000"/><text fill="#000000" font-family="sans-serif" font-size="14" lengthAdjust="spacing" textLength="45.9102" x="36" y="938.3379">Entities</text><line style="stroke:#181818;stroke-width:0.5;" x1="8" x2="83.9102" y1="948.6094" y2="948.6094"/><text fill="#000000" font-family="sans-serif" font-size="14" lengthAdjust="spacing" textLength="57.5859" x="13" y="967.1426">Inventory</text><text fill="#000000" font-family="sans-serif" font-size="14" lengthAdjust="spacing" textLength="49.0342" x="13" y="984.752">Storage</text><text fill="#000000" font-family="sans-serif" font-size="14" lengthAdjust="spacing" textLength="62.2549" x="13" y="1002.3613">Expiration</text><text fill="#000000" font-family="sans-serif" font-size="14" lengthAdjust="spacing" textLength="39.6895" x="13" y="1019.9707">Safety</text><text fill="#000000" font-family="sans-serif" font-size="14" lengthAdjust="spacing" textLength="29.5586" x="13" y="1037.5801">User</text><line style="stroke:#181818;stroke-width:0.5;" x1="8" x2="83.9102" y1="1044.6563" y2="1044.6563"/></g><!--class Kafka--><g id="elem_Kafka"><rect codeLine="54" fill="#F1F1F1" height="136.0469" id="Kafka" rx="2.5" ry="2.5" style="stroke:#181818;stroke-width:0.5;" width="126.3789" x="194" y="916.6094"/><ellipse cx="235.3606" cy="932.6094" fill="#ADD1B2" rx="11" ry="11" style="stroke:#181818;stroke-width:1.0;"/><path d="M238.1262,928.4844 Q238.2825,928.2656 238.47,928.1563 Q238.6575,928.0469 238.8762,928.0469 Q239.2512,928.0469 239.4856,928.3125 Q239.72,928.5625 239.72,929.1719 L239.72,930.625 Q239.72,931.2344 239.4856,931.5 Q239.2512,931.7656 238.8762,931.7656 Q238.5325,931.7656 238.3293,931.5625 Q238.1262,931.375 238.0168,930.8594 Q237.97,930.5 237.7825,930.3125 Q237.4543,929.9375 236.845,929.7188 Q236.2356,929.5 235.6106,929.5 Q234.845,929.5 234.2043,929.8281 Q233.5793,930.1563 233.0793,930.9063 Q232.595,931.6563 232.595,932.6875 L232.595,933.7813 Q232.595,935.0156 233.4856,935.8438 Q234.3762,936.6563 235.97,936.6563 Q236.9075,936.6563 237.5637,936.4063 Q237.9543,936.25 238.3762,935.8125 Q238.6418,935.5469 238.7825,935.4688 Q238.9387,935.3906 239.1418,935.3906 Q239.47,935.3906 239.72,935.6563 Q239.9856,935.9063 239.9856,936.25 Q239.9856,936.5938 239.6418,937 Q239.1418,937.5781 238.345,937.9063 Q237.2668,938.3594 235.97,938.3594 Q234.4543,938.3594 233.2512,937.7344 Q232.2668,937.2344 231.5793,936.1719 Q230.8918,935.0938 230.8918,933.8125 L230.8918,932.6563 Q230.8918,931.3281 231.5012,930.1875 Q232.1262,929.0313 233.22,928.4219 Q234.3137,927.7969 235.5481,927.7969 Q236.2825,927.7969 236.9231,927.9688 Q237.5793,928.125 238.1262,928.4844 Z " fill="#000000"/><text fill="#000000" font-family="sans-serif" font-size="14" lengthAdjust="spacing" textLength="35.7998" x="255.2185" y="938.3379">Kafka</text><line style="stroke:#181818;stroke-width:0.5;" x1="195" x2="319.3789" y1="948.6094" y2="948.6094"/><rect fill="none" height="6" style="stroke:#C82930;stroke-width:1.0;" width="6" x="202" y="959.9141"/><text fill="#000000" font-family="sans-serif" font-size="14" lengthAdjust="spacing" textLength="95.71" x="214" y="967.1426">Inventory Topic</text><rect fill="none" height="6" style="stroke:#C82930;stroke-width:1.0;" width="6" x="202" y="977.5234"/><text fill="#000000" font-family="sans-serif" font-size="14" lengthAdjust="spacing" textLength="87.1582" x="214" y="984.752">Storage Topic</text><rect fill="none" height="6" style="stroke:#C82930;stroke-width:1.0;" width="6" x="202" y="995.1328"/><text fill="#000000" font-family="sans-serif" font-size="14" lengthAdjust="spacing" textLength="100.3789" x="214" y="1002.3613">Expiration Topic</text><rect fill="none" height="6" style="stroke:#C82930;stroke-width:1.0;" width="6" x="202" y="1012.7422"/><text fill="#000000" font-family="sans-serif" font-size="14" lengthAdjust="spacing" textLength="77.8135" x="214" y="1019.9707">Safety Topic</text><rect fill="none" height="6" style="stroke:#C82930;stroke-width:1.0;" width="6" x="202" y="1030.3516"/><text fill="#000000" font-family="sans-serif" font-size="14" lengthAdjust="spacing" textLength="67.6826" x="214" y="1037.5801">User Topic</text><line style="stroke:#181818;stroke-width:0.5;" x1="195" x2="319.3789" y1="1044.6563" y2="1044.6563"/></g><!--link InventoryManagementApp to APIGateway--><g id="link_InventoryManagementApp_APIGateway"><path codeLine="62" d="M360.24,445.8994 C356.79,455.8194 353.67,465.7494 351,475.6094 C346.85,490.9194 345.3258,502.2448 344.6758,517.4748 " fill="none" id="InventoryManagementApp-to-APIGateway" style="stroke:#181818;stroke-width:1.0;"/><polygon fill="#181818" points="344.42,523.4694,348.8001,514.6481,344.6332,518.4739,340.8074,514.307,344.42,523.4694" style="stroke:#181818;stroke-width:1.0;"/><text fill="#000000" font-family="sans-serif" font-size="13" lengthAdjust="spacing" textLength="203.0488" x="352" y="490.1045">Sends GraphQL Queries/Mutations</text></g><!--link APIGateway to Services--><g id="link_APIGateway_Services"><path codeLine="63" d="M341.44,606.8794 C339.47,629.3894 337.4816,652.0821 335.1716,678.5521 " fill="none" id="APIGateway-to-Services" style="stroke:#181818;stroke-width:1.0;"/><polygon fill="#181818" points="334.65,684.5294,339.4173,675.9112,335.0847,679.5483,331.4476,675.2157,334.65,684.5294" style="stroke:#181818;stroke-width:1.0;"/><text fill="#000000" font-family="sans-serif" font-size="13" lengthAdjust="spacing" textLength="99.7217" x="339" y="651.1045">Routes Requests</text></g><!--link InventoryManagementApp to NgRxStore--><g id="link_InventoryManagementApp_NgRxStore"><path codeLine="64" d="M552.86,445.6294 C555.61,455.6594 558.02,465.6894 560,475.6094 C595.26,652.6294 555.2051,864.6953 537.0351,945.5753 " fill="none" id="InventoryManagementApp-to-NgRxStore" style="stroke:#181818;stroke-width:1.0;"/><polygon fill="#181818" points="535.72,951.4294,541.5954,943.525,536.816,946.551,533.79,941.7715,535.72,951.4294" style="stroke:#181818;stroke-width:1.0;"/><text fill="#000000" font-family="sans-serif" font-size="13" lengthAdjust="spacing" textLength="109.8462" x="574" y="651.1045">State Management</text></g><!--link Services to NgRxStore--><g id="link_Services_NgRxStore"><path codeLine="65" d="M392.66,834.0594 C428.49,873.6594 467.2546,916.4801 494.9846,947.1301 " fill="none" id="Services-to-NgRxStore" style="stroke:#181818;stroke-width:1.0;"/><polygon fill="#181818" points="499.01,951.5794,495.9381,942.2218,495.6555,947.8716,490.0057,947.5891,499.01,951.5794" style="stroke:#181818;stroke-width:1.0;"/><text fill="#000000" font-family="sans-serif" font-size="13" lengthAdjust="spacing" textLength="82.3862" x="440" y="883.1045">State Updates</text></g><!--link Services to Entities--><g id="link_Services_Entities"><path codeLine="66" d="M263.39,772.0094 C204.46,784.0494 119.4,810.7794 71,868.6094 C59.79,882.0094 54.551,893.4155 50.851,910.4855 " fill="none" id="Services-to-Entities" style="stroke:#181818;stroke-width:1.0;"/><polygon fill="#181818" points="49.58,916.3494,55.3957,908.401,50.6392,911.4628,47.5773,906.7063,49.58,916.3494" style="stroke:#181818;stroke-width:1.0;"/><text fill="#000000" font-family="sans-serif" font-size="13" lengthAdjust="spacing" textLength="99.7217" x="72" y="883.1045">Manages Entities</text></g><!--link Services to Kafka--><g id="link_Services_Kafka"><path codeLine="67" d="M263.49,792.4294 C233.5,809.9994 200.81,835.3694 184,868.6094 C174.08,888.2394 177.543,903.8754 190.373,922.0754 " fill="none" id="Services-to-Kafka" style="stroke:#181818;stroke-width:1.0;"/><polygon fill="#181818" points="193.83,926.9794,191.9138,917.3187,190.9491,922.8927,185.3751,921.9281,193.83,926.9794" style="stroke:#181818;stroke-width:1.0;"/><text fill="#000000" font-family="sans-serif" font-size="13" lengthAdjust="spacing" textLength="99.7217" x="185" y="883.1045">Publishes Events</text></g><!--link Kafka to Services--><g id="link_Kafka_Services"><path codeLine="68" d="M279.24,916.5994 C282.54,906.5494 285.87,896.3194 289,886.6094 C293.98,871.1394 297.4472,860.2921 302.4372,844.4521 " fill="none" id="Kafka-to-Services" style="stroke:#181818;stroke-width:1.0;"/><polygon fill="#181818" points="304.24,838.7294,297.7206,846.1116,302.7377,843.4983,305.351,848.5154,304.24,838.7294" style="stroke:#181818;stroke-width:1.0;"/><text fill="#000000" font-family="sans-serif" font-size="13" lengthAdjust="spacing" textLength="105.4917" x="295" y="883.1045">Consumes Events</text></g><!--SRC=[VLDDSvim4BtpAxQtzk3fno473fqXsA6PnYa1fpqhiCOQOubAmecdq__U5SX8k6bdE4Xlt-w-tOVUrBZb0g5OfPlaFhjRGTKohQF8SDCYt8eZ2YFL2TPCi0OFT8Eaws39MQFO0RPImVKgBQF8LvYIV8vD-HK1VEVuh6EWqs8H5DyeLksvQ8Ru62mfGCcGIb5pmwNGGN3rqd75B0fBPZ0CPLBMLco_PPNfbIsQKtN3AnnOyFRJHqXl2iYPCd3ruUhTc7VTKkAJLBIBd9cTR90wbcoBvkJolfLV4aTEbobaFQ-nfTtDXEK95DZqBRkKd2Nh_9KS-b9vwAIWJKoBsR2d5hLhjIETxfoqE9rlU6jGkOlJcIjfP2LRX_vWsc1Wd9CeZbn9OG7MslKQDMKyQbHa2nMcxQ5hcjyEK3CkFFeTMat1Z0nuPgV1taonRlTmHwUYbDKUpPnTeZgI3thWUlSTJDZPT8y4JWUqSLmF3BhzDP0xeJCXzqtnOdlXeAGqRBwd6NSbw2dmIz5Ux4pa9Cw9cfVwohPxDjIP_VoouzM0dSVtI31-G1l7zy0m_dYbVlzuVel5vz2kc3OZQdss31vwL3Jb-tLlndyt2iWsTp8lXaBszj4L-BD7JJ_aVphwJST_xtag-JhpiQljuvxJ9ZjYLqbFq9muBZk6l7zgkTvPdbMfep5mCHAz0zqVFEaF]--></g></svg>