<svg xmlns="http://www.w3.org/2000/svg" xmlns:xlink="http://www.w3.org/1999/xlink" contentStyleType="text/css" height="1306px" preserveAspectRatio="none" style="width:718px;height:1306px;background:#FFFFFF;" version="1.1" viewBox="0 0 718 1306" width="718px" zoomAndPan="magnify"><title>Blood Establishment (BECS) Inventory Management Angular Application</title><defs/><g><text fill="#000000" font-family="sans-serif" font-size="14" font-weight="bold" lengthAdjust="spacing" textLength="484.5996" x="109.8733" y="24.5332">Blood Establishment (BECS) Inventory Management Angular Application</text><!--class ClientLayer--><g id="elem_ClientLayer"><rect codeLine="5" fill="#F1F1F1" height="347.3594" id="ClientLayer" rx="2.5" ry="2.5" style="stroke:#181818;stroke-width:0.5;" width="215.8682" x="375.5" y="45.6094"/><ellipse cx="443.7773" cy="61.6094" fill="#ADD1B2" rx="11" ry="11" style="stroke:#181818;stroke-width:1.0;"/><path d="M446.543,57.4844 Q446.6992,57.2656 446.8867,57.1563 Q447.0742,57.0469 447.293,57.0469 Q447.668,57.0469 447.9023,57.3125 Q448.1367,57.5625 448.1367,58.1719 L448.1367,59.625 Q448.1367,60.2344 447.9023,60.5 Q447.668,60.7656 447.293,60.7656 Q446.9492,60.7656 446.7461,60.5625 Q446.543,60.375 446.4336,59.8594 Q446.3867,59.5 446.1992,59.3125 Q445.8711,58.9375 445.2617,58.7188 Q444.6523,58.5 444.0273,58.5 Q443.2617,58.5 442.6211,58.8281 Q441.9961,59.1563 441.4961,59.9063 Q441.0117,60.6563 441.0117,61.6875 L441.0117,62.7813 Q441.0117,64.0156 441.9023,64.8438 Q442.793,65.6563 444.3867,65.6563 Q445.3242,65.6563 445.9805,65.4063 Q446.3711,65.25 446.793,64.8125 Q447.0586,64.5469 447.1992,64.4688 Q447.3555,64.3906 447.5586,64.3906 Q447.8867,64.3906 448.1367,64.6563 Q448.4023,64.9063 448.4023,65.25 Q448.4023,65.5938 448.0586,66 Q447.5586,66.5781 446.7617,66.9063 Q445.6836,67.3594 444.3867,67.3594 Q442.8711,67.3594 441.668,66.7344 Q440.6836,66.2344 439.9961,65.1719 Q439.3086,64.0938 439.3086,62.8125 L439.3086,61.6563 Q439.3086,60.3281 439.918,59.1875 Q440.543,58.0313 441.6367,57.4219 Q442.7305,56.7969 443.9648,56.7969 Q444.6992,56.7969 445.3398,56.9688 Q445.9961,57.125 446.543,57.4844 Z " fill="#000000"/><text fill="#000000" font-family="sans-serif" font-size="14" lengthAdjust="spacing" textLength="70.8135" x="464.2773" y="67.3379">ClientLayer</text><line style="stroke:#181818;stroke-width:0.5;" x1="376.5" x2="590.3682" y1="77.6094" y2="77.6094"/><text fill="#000000" font-family="sans-serif" font-size="14" lengthAdjust="spacing" textLength="127.6338" x="395.5" y="96.1426">Angular Applications</text><rect fill="none" height="6" style="stroke:#C82930;stroke-width:1.0;" width="6" x="383.5" y="106.5234"/><text fill="#000000" font-family="sans-serif" font-size="14" lengthAdjust="spacing" textLength="117.4961" x="395.5" y="113.752">Inventory List View</text><rect fill="none" height="6" style="stroke:#C82930;stroke-width:1.0;" width="6" x="383.5" y="124.1328"/><text fill="#000000" font-family="sans-serif" font-size="14" lengthAdjust="spacing" textLength="138.5029" x="395.5" y="131.3613">Inventory Details View</text><rect fill="none" height="6" style="stroke:#C82930;stroke-width:1.0;" width="6" x="383.5" y="141.7422"/><text fill="#000000" font-family="sans-serif" font-size="14" lengthAdjust="spacing" textLength="128.3721" x="395.5" y="148.9707">Inventory Form View</text><rect fill="none" height="6" style="stroke:#C82930;stroke-width:1.0;" width="6" x="383.5" y="159.3516"/><text fill="#000000" font-family="sans-serif" font-size="14" lengthAdjust="spacing" textLength="154.8545" x="395.5" y="166.5801">Stock Management View</text><rect fill="none" height="6" style="stroke:#C82930;stroke-width:1.0;" width="6" x="383.5" y="176.9609"/><text fill="#000000" font-family="sans-serif" font-size="14" lengthAdjust="spacing" textLength="172.7715" x="395.5" y="184.1895">Location Management View</text><rect fill="none" height="6" style="stroke:#C82930;stroke-width:1.0;" width="6" x="383.5" y="194.5703"/><text fill="#000000" font-family="sans-serif" font-size="14" lengthAdjust="spacing" textLength="163.3994" x="395.5" y="201.7988">Facility Management View</text><rect fill="none" height="6" style="stroke:#C82930;stroke-width:1.0;" width="6" x="383.5" y="212.1797"/><text fill="#000000" font-family="sans-serif" font-size="14" lengthAdjust="spacing" textLength="141.627" x="395.5" y="219.4082">Chain of Custody View</text><rect fill="none" height="6" style="stroke:#C82930;stroke-width:1.0;" width="6" x="383.5" y="229.7891"/><text fill="#000000" font-family="sans-serif" font-size="14" lengthAdjust="spacing" textLength="129.165" x="395.5" y="237.0176">Notification List View</text><rect fill="none" height="6" style="stroke:#C82930;stroke-width:1.0;" width="6" x="383.5" y="247.3984"/><text fill="#000000" font-family="sans-serif" font-size="14" lengthAdjust="spacing" textLength="107.3652" x="395.5" y="254.627">User Profile View</text><rect fill="none" height="6" style="stroke:#C82930;stroke-width:1.0;" width="6" x="383.5" y="265.0078"/><text fill="#000000" font-family="sans-serif" font-size="14" lengthAdjust="spacing" textLength="157.9717" x="395.5" y="272.2363">Donor Management View</text><rect fill="none" height="6" style="stroke:#C82930;stroke-width:1.0;" width="6" x="383.5" y="282.6172"/><text fill="#000000" font-family="sans-serif" font-size="14" lengthAdjust="spacing" textLength="175.8818" x="395.5" y="289.8457">Donation Management View</text><rect fill="none" height="6" style="stroke:#C82930;stroke-width:1.0;" width="6" x="383.5" y="300.2266"/><text fill="#000000" font-family="sans-serif" font-size="14" lengthAdjust="spacing" textLength="189.8682" x="395.5" y="307.4551">Distribution Management View</text><rect fill="none" height="6" style="stroke:#C82930;stroke-width:1.0;" width="6" x="383.5" y="317.8359"/><text fill="#000000" font-family="sans-serif" font-size="14" lengthAdjust="spacing" textLength="172.751" x="395.5" y="325.0645">Compliance Reporting View</text><rect fill="none" height="6" style="stroke:#C82930;stroke-width:1.0;" width="6" x="383.5" y="335.4453"/><text fill="#000000" font-family="sans-serif" font-size="14" lengthAdjust="spacing" textLength="126.8271" x="395.5" y="342.6738">Quality Control View</text><rect fill="none" height="6" style="stroke:#C82930;stroke-width:1.0;" width="6" x="383.5" y="353.0547"/><text fill="#000000" font-family="sans-serif" font-size="14" lengthAdjust="spacing" textLength="162.6338" x="395.5" y="360.2832">Analytics Dashboard View</text><rect fill="none" height="6" style="stroke:#C82930;stroke-width:1.0;" width="6" x="383.5" y="370.6641"/><text fill="#000000" font-family="sans-serif" font-size="14" lengthAdjust="spacing" textLength="163.4268" x="395.5" y="377.8926">Patient Management View</text><line style="stroke:#181818;stroke-width:0.5;" x1="376.5" x2="590.3682" y1="384.9688" y2="384.9688"/></g><!--class APIGateway--><g id="elem_APIGateway"><rect codeLine="25" fill="#F1F1F1" height="83.2188" id="APIGateway" rx="2.5" ry="2.5" style="stroke:#181818;stroke-width:0.5;" width="109.8135" x="308.5" y="470.6094"/><ellipse cx="323.5" cy="486.6094" fill="#ADD1B2" rx="11" ry="11" style="stroke:#181818;stroke-width:1.0;"/><path d="M326.2656,482.4844 Q326.4219,482.2656 326.6094,482.1563 Q326.7969,482.0469 327.0156,482.0469 Q327.3906,482.0469 327.625,482.3125 Q327.8594,482.5625 327.8594,483.1719 L327.8594,484.625 Q327.8594,485.2344 327.625,485.5 Q327.3906,485.7656 327.0156,485.7656 Q326.6719,485.7656 326.4688,485.5625 Q326.2656,485.375 326.1563,484.8594 Q326.1094,484.5 325.9219,484.3125 Q325.5938,483.9375 324.9844,483.7188 Q324.375,483.5 323.75,483.5 Q322.9844,483.5 322.3438,483.8281 Q321.7188,484.1563 321.2188,484.9063 Q320.7344,485.6563 320.7344,486.6875 L320.7344,487.7813 Q320.7344,489.0156 321.625,489.8438 Q322.5156,490.6563 324.1094,490.6563 Q325.0469,490.6563 325.7031,490.4063 Q326.0938,490.25 326.5156,489.8125 Q326.7813,489.5469 326.9219,489.4688 Q327.0781,489.3906 327.2813,489.3906 Q327.6094,489.3906 327.8594,489.6563 Q328.125,489.9063 328.125,490.25 Q328.125,490.5938 327.7813,491 Q327.2813,491.5781 326.4844,491.9063 Q325.4063,492.3594 324.1094,492.3594 Q322.5938,492.3594 321.3906,491.7344 Q320.4063,491.2344 319.7188,490.1719 Q319.0313,489.0938 319.0313,487.8125 L319.0313,486.6563 Q319.0313,485.3281 319.6406,484.1875 Q320.2656,483.0313 321.3594,482.4219 Q322.4531,481.7969 323.6875,481.7969 Q324.4219,481.7969 325.0625,481.9688 Q325.7188,482.125 326.2656,482.4844 Z " fill="#000000"/><text fill="#000000" font-family="sans-serif" font-size="14" lengthAdjust="spacing" textLength="77.8135" x="337.5" y="492.3379">APIGateway</text><line style="stroke:#181818;stroke-width:0.5;" x1="309.5" x2="417.3135" y1="502.6094" y2="502.6094"/><text fill="#000000" font-family="sans-serif" font-size="14" lengthAdjust="spacing" textLength="57.5859" x="314.5" y="521.1426">GraphQL</text><text fill="#000000" font-family="sans-serif" font-size="14" lengthAdjust="spacing" textLength="52.9102" x="314.5" y="538.752">RSocket</text><line style="stroke:#181818;stroke-width:0.5;" x1="309.5" x2="417.3135" y1="545.8281" y2="545.8281"/></g><!--class Services--><g id="elem_Services"><rect codeLine="30" fill="#F1F1F1" height="294.5313" id="Services" rx="2.5" ry="2.5" style="stroke:#181818;stroke-width:0.5;" width="183.1924" x="255" y="631.6094"/><ellipse cx="315.5049" cy="647.6094" fill="#ADD1B2" rx="11" ry="11" style="stroke:#181818;stroke-width:1.0;"/><path d="M318.2705,643.4844 Q318.4268,643.2656 318.6143,643.1563 Q318.8018,643.0469 319.0205,643.0469 Q319.3955,643.0469 319.6299,643.3125 Q319.8643,643.5625 319.8643,644.1719 L319.8643,645.625 Q319.8643,646.2344 319.6299,646.5 Q319.3955,646.7656 319.0205,646.7656 Q318.6768,646.7656 318.4736,646.5625 Q318.2705,646.375 318.1611,645.8594 Q318.1143,645.5 317.9268,645.3125 Q317.5986,644.9375 316.9893,644.7188 Q316.3799,644.5 315.7549,644.5 Q314.9893,644.5 314.3486,644.8281 Q313.7236,645.1563 313.2236,645.9063 Q312.7393,646.6563 312.7393,647.6875 L312.7393,648.7813 Q312.7393,650.0156 313.6299,650.8438 Q314.5205,651.6563 316.1143,651.6563 Q317.0518,651.6563 317.708,651.4063 Q318.0986,651.25 318.5205,650.8125 Q318.7861,650.5469 318.9268,650.4688 Q319.083,650.3906 319.2861,650.3906 Q319.6143,650.3906 319.8643,650.6563 Q320.1299,650.9063 320.1299,651.25 Q320.1299,651.5938 319.7861,652 Q319.2861,652.5781 318.4893,652.9063 Q317.4111,653.3594 316.1143,653.3594 Q314.5986,653.3594 313.3955,652.7344 Q312.4111,652.2344 311.7236,651.1719 Q311.0361,650.0938 311.0361,648.8125 L311.0361,647.6563 Q311.0361,646.3281 311.6455,645.1875 Q312.2705,644.0313 313.3643,643.4219 Q314.458,642.7969 315.6924,642.7969 Q316.4268,642.7969 317.0674,642.9688 Q317.7236,643.125 318.2705,643.4844 Z " fill="#000000"/><text fill="#000000" font-family="sans-serif" font-size="14" lengthAdjust="spacing" textLength="53.6826" x="336.0049" y="653.3379">Services</text><line style="stroke:#181818;stroke-width:0.5;" x1="256" x2="437.1924" y1="663.6094" y2="663.6094"/><text fill="#000000" font-family="sans-serif" font-size="14" lengthAdjust="spacing" textLength="108.1582" x="261" y="682.1426">Inventory Service</text><text fill="#000000" font-family="sans-serif" font-size="14" lengthAdjust="spacing" textLength="119.8271" x="261" y="699.752">Notification Service</text><text fill="#000000" font-family="sans-serif" font-size="14" lengthAdjust="spacing" textLength="80.1309" x="261" y="717.3613">User Service</text><text fill="#000000" font-family="sans-serif" font-size="14" lengthAdjust="spacing" textLength="171.1924" x="261" y="734.9707">Stock Management Service</text><text fill="#000000" font-family="sans-serif" font-size="14" lengthAdjust="spacing" textLength="103.5029" x="261" y="752.5801">Location Service</text><text fill="#000000" font-family="sans-serif" font-size="14" lengthAdjust="spacing" textLength="94.1309" x="261" y="770.1895">Facility Service</text><text fill="#000000" font-family="sans-serif" font-size="14" lengthAdjust="spacing" textLength="157.9648" x="261" y="787.7988">Chain of Custody Service</text><text fill="#000000" font-family="sans-serif" font-size="14" lengthAdjust="spacing" textLength="88.7031" x="261" y="805.4082">Donor Service</text><text fill="#000000" font-family="sans-serif" font-size="14" lengthAdjust="spacing" textLength="106.6133" x="261" y="823.0176">Donation Service</text><text fill="#000000" font-family="sans-serif" font-size="14" lengthAdjust="spacing" textLength="120.5996" x="261" y="840.627">Distribution Service</text><text fill="#000000" font-family="sans-serif" font-size="14" lengthAdjust="spacing" textLength="124.4961" x="261" y="858.2363">Compliance Service</text><text fill="#000000" font-family="sans-serif" font-size="14" lengthAdjust="spacing" textLength="143.165" x="261" y="875.8457">Quality Control Service</text><text fill="#000000" font-family="sans-serif" font-size="14" lengthAdjust="spacing" textLength="106.5928" x="261" y="893.4551">Analytics Service</text><text fill="#000000" font-family="sans-serif" font-size="14" lengthAdjust="spacing" textLength="94.1582" x="261" y="911.0645">Patient Service</text><line style="stroke:#181818;stroke-width:0.5;" x1="256" x2="437.1924" y1="918.1406" y2="918.1406"/></g><!--class NgRxStore--><g id="elem_NgRxStore"><rect codeLine="47" fill="#F1F1F1" height="65.6094" id="NgRxStore" rx="2.5" ry="2.5" style="stroke:#181818;stroke-width:0.5;" width="130.2959" x="463.5" y="1119.1094"/><ellipse cx="491.9222" cy="1135.1094" fill="#ADD1B2" rx="11" ry="11" style="stroke:#181818;stroke-width:1.0;"/><path d="M494.6878,1130.9844 Q494.8441,1130.7656 495.0316,1130.6563 Q495.2191,1130.5469 495.4378,1130.5469 Q495.8128,1130.5469 496.0472,1130.8125 Q496.2816,1131.0625 496.2816,1131.6719 L496.2816,1133.125 Q496.2816,1133.7344 496.0472,1134 Q495.8128,1134.2656 495.4378,1134.2656 Q495.0941,1134.2656 494.891,1134.0625 Q494.6878,1133.875 494.5785,1133.3594 Q494.5316,1133 494.3441,1132.8125 Q494.016,1132.4375 493.4066,1132.2188 Q492.7972,1132 492.1722,1132 Q491.4066,1132 490.766,1132.3281 Q490.141,1132.6563 489.641,1133.4063 Q489.1566,1134.1563 489.1566,1135.1875 L489.1566,1136.2813 Q489.1566,1137.5156 490.0472,1138.3438 Q490.9378,1139.1563 492.5316,1139.1563 Q493.4691,1139.1563 494.1253,1138.9063 Q494.516,1138.75 494.9378,1138.3125 Q495.2035,1138.0469 495.3441,1137.9688 Q495.5003,1137.8906 495.7035,1137.8906 Q496.0316,1137.8906 496.2816,1138.1563 Q496.5472,1138.4063 496.5472,1138.75 Q496.5472,1139.0938 496.2035,1139.5 Q495.7035,1140.0781 494.9066,1140.4063 Q493.8285,1140.8594 492.5316,1140.8594 Q491.016,1140.8594 489.8128,1140.2344 Q488.8285,1139.7344 488.141,1138.6719 Q487.4535,1137.5938 487.4535,1136.3125 L487.4535,1135.1563 Q487.4535,1133.8281 488.0628,1132.6875 Q488.6878,1131.5313 489.7816,1130.9219 Q490.8753,1130.2969 492.1097,1130.2969 Q492.8441,1130.2969 493.4847,1130.4688 Q494.141,1130.625 494.6878,1130.9844 Z " fill="#000000"/><text fill="#000000" font-family="sans-serif" font-size="14" lengthAdjust="spacing" textLength="68.4688" x="508.9049" y="1140.8379">NgRxStore</text><line style="stroke:#181818;stroke-width:0.5;" x1="464.5" x2="592.7959" y1="1151.1094" y2="1151.1094"/><text fill="#000000" font-family="sans-serif" font-size="14" lengthAdjust="spacing" textLength="118.2959" x="469.5" y="1169.6426">State Management</text><line style="stroke:#181818;stroke-width:0.5;" x1="464.5" x2="592.7959" y1="1176.7188" y2="1176.7188"/></g><!--class Entities--><g id="elem_Entities"><rect codeLine="51" fill="#F1F1F1" height="294.5313" id="Entities" rx="2.5" ry="2.5" style="stroke:#181818;stroke-width:0.5;" width="114.7168" x="7" y="1004.6094"/><ellipse cx="38.563" cy="1020.6094" fill="#ADD1B2" rx="11" ry="11" style="stroke:#181818;stroke-width:1.0;"/><path d="M41.3286,1016.4844 Q41.4849,1016.2656 41.6724,1016.1563 Q41.8599,1016.0469 42.0786,1016.0469 Q42.4536,1016.0469 42.688,1016.3125 Q42.9224,1016.5625 42.9224,1017.1719 L42.9224,1018.625 Q42.9224,1019.2344 42.688,1019.5 Q42.4536,1019.7656 42.0786,1019.7656 Q41.7349,1019.7656 41.5317,1019.5625 Q41.3286,1019.375 41.2192,1018.8594 Q41.1724,1018.5 40.9849,1018.3125 Q40.6567,1017.9375 40.0474,1017.7188 Q39.438,1017.5 38.813,1017.5 Q38.0474,1017.5 37.4067,1017.8281 Q36.7817,1018.1563 36.2817,1018.9063 Q35.7974,1019.6563 35.7974,1020.6875 L35.7974,1021.7813 Q35.7974,1023.0156 36.688,1023.8438 Q37.5786,1024.6563 39.1724,1024.6563 Q40.1099,1024.6563 40.7661,1024.4063 Q41.1567,1024.25 41.5786,1023.8125 Q41.8442,1023.5469 41.9849,1023.4688 Q42.1411,1023.3906 42.3442,1023.3906 Q42.6724,1023.3906 42.9224,1023.6563 Q43.188,1023.9063 43.188,1024.25 Q43.188,1024.5938 42.8442,1025 Q42.3442,1025.5781 41.5474,1025.9063 Q40.4692,1026.3594 39.1724,1026.3594 Q37.6567,1026.3594 36.4536,1025.7344 Q35.4692,1025.2344 34.7817,1024.1719 Q34.0942,1023.0938 34.0942,1021.8125 L34.0942,1020.6563 Q34.0942,1019.3281 34.7036,1018.1875 Q35.3286,1017.0313 36.4224,1016.4219 Q37.5161,1015.7969 38.7505,1015.7969 Q39.4849,1015.7969 40.1255,1015.9688 Q40.7817,1016.125 41.3286,1016.4844 Z " fill="#000000"/><text fill="#000000" font-family="sans-serif" font-size="14" lengthAdjust="spacing" textLength="45.9102" x="56.2437" y="1026.3379">Entities</text><line style="stroke:#181818;stroke-width:0.5;" x1="8" x2="120.7168" y1="1036.6094" y2="1036.6094"/><text fill="#000000" font-family="sans-serif" font-size="14" lengthAdjust="spacing" textLength="57.5859" x="13" y="1055.1426">Inventory</text><text fill="#000000" font-family="sans-serif" font-size="14" lengthAdjust="spacing" textLength="69.2549" x="13" y="1072.752">Notification</text><text fill="#000000" font-family="sans-serif" font-size="14" lengthAdjust="spacing" textLength="29.5586" x="13" y="1090.3613">User</text><text fill="#000000" font-family="sans-serif" font-size="14" lengthAdjust="spacing" textLength="35.0137" x="13" y="1107.9707">Stock</text><text fill="#000000" font-family="sans-serif" font-size="14" lengthAdjust="spacing" textLength="52.9307" x="13" y="1125.5801">Location</text><text fill="#000000" font-family="sans-serif" font-size="14" lengthAdjust="spacing" textLength="43.5586" x="13" y="1143.1895">Facility</text><text fill="#000000" font-family="sans-serif" font-size="14" lengthAdjust="spacing" textLength="102.7168" x="13" y="1160.7988">ChainOfCustody</text><text fill="#000000" font-family="sans-serif" font-size="14" lengthAdjust="spacing" textLength="38.1309" x="13" y="1178.4082">Donor</text><text fill="#000000" font-family="sans-serif" font-size="14" lengthAdjust="spacing" textLength="56.041" x="13" y="1196.0176">Donation</text><text fill="#000000" font-family="sans-serif" font-size="14" lengthAdjust="spacing" textLength="70.0273" x="13" y="1213.627">Distribution</text><text fill="#000000" font-family="sans-serif" font-size="14" lengthAdjust="spacing" textLength="73.9238" x="13" y="1231.2363">Compliance</text><text fill="#000000" font-family="sans-serif" font-size="14" lengthAdjust="spacing" textLength="88.7031" x="13" y="1248.8457">QualityControl</text><text fill="#000000" font-family="sans-serif" font-size="14" lengthAdjust="spacing" textLength="56.0205" x="13" y="1266.4551">Analytics</text><text fill="#000000" font-family="sans-serif" font-size="14" lengthAdjust="spacing" textLength="43.5859" x="13" y="1284.0645">Patient</text><line style="stroke:#181818;stroke-width:0.5;" x1="8" x2="120.7168" y1="1291.1406" y2="1291.1406"/></g><!--class Kafka--><g id="elem_Kafka"><rect codeLine="68" fill="#F1F1F1" height="294.5313" id="Kafka" rx="2.5" ry="2.5" style="stroke:#181818;stroke-width:0.5;" width="191.7441" x="214.5" y="1004.6094"/><ellipse cx="288.2222" cy="1020.6094" fill="#ADD1B2" rx="11" ry="11" style="stroke:#181818;stroke-width:1.0;"/><path d="M290.9878,1016.4844 Q291.144,1016.2656 291.3315,1016.1563 Q291.519,1016.0469 291.7378,1016.0469 Q292.1128,1016.0469 292.3472,1016.3125 Q292.5815,1016.5625 292.5815,1017.1719 L292.5815,1018.625 Q292.5815,1019.2344 292.3472,1019.5 Q292.1128,1019.7656 291.7378,1019.7656 Q291.394,1019.7656 291.1909,1019.5625 Q290.9878,1019.375 290.8784,1018.8594 Q290.8315,1018.5 290.644,1018.3125 Q290.3159,1017.9375 289.7065,1017.7188 Q289.0972,1017.5 288.4722,1017.5 Q287.7065,1017.5 287.0659,1017.8281 Q286.4409,1018.1563 285.9409,1018.9063 Q285.4565,1019.6563 285.4565,1020.6875 L285.4565,1021.7813 Q285.4565,1023.0156 286.3472,1023.8438 Q287.2378,1024.6563 288.8315,1024.6563 Q289.769,1024.6563 290.4253,1024.4063 Q290.8159,1024.25 291.2378,1023.8125 Q291.5034,1023.5469 291.644,1023.4688 Q291.8003,1023.3906 292.0034,1023.3906 Q292.3315,1023.3906 292.5815,1023.6563 Q292.8472,1023.9063 292.8472,1024.25 Q292.8472,1024.5938 292.5034,1025 Q292.0034,1025.5781 291.2065,1025.9063 Q290.1284,1026.3594 288.8315,1026.3594 Q287.3159,1026.3594 286.1128,1025.7344 Q285.1284,1025.2344 284.4409,1024.1719 Q283.7534,1023.0938 283.7534,1021.8125 L283.7534,1020.6563 Q283.7534,1019.3281 284.3628,1018.1875 Q284.9878,1017.0313 286.0815,1016.4219 Q287.1753,1015.7969 288.4097,1015.7969 Q289.144,1015.7969 289.7847,1015.9688 Q290.4409,1016.125 290.9878,1016.4844 Z " fill="#000000"/><text fill="#000000" font-family="sans-serif" font-size="14" lengthAdjust="spacing" textLength="35.7998" x="308.7222" y="1026.3379">Kafka</text><line style="stroke:#181818;stroke-width:0.5;" x1="215.5" x2="405.2441" y1="1036.6094" y2="1036.6094"/><rect fill="none" height="6" style="stroke:#C82930;stroke-width:1.0;" width="6" x="222.5" y="1047.9141"/><text fill="#000000" font-family="sans-serif" font-size="14" lengthAdjust="spacing" textLength="115.9375" x="234.5" y="1055.1426">Topic for Inventory</text><rect fill="none" height="6" style="stroke:#C82930;stroke-width:1.0;" width="6" x="222.5" y="1065.5234"/><text fill="#000000" font-family="sans-serif" font-size="14" lengthAdjust="spacing" textLength="134.6064" x="234.5" y="1072.752">Topic for Notifications</text><rect fill="none" height="6" style="stroke:#C82930;stroke-width:1.0;" width="6" x="222.5" y="1083.1328"/><text fill="#000000" font-family="sans-serif" font-size="14" lengthAdjust="spacing" textLength="94.9102" x="234.5" y="1090.3613">Topic for Users</text><rect fill="none" height="6" style="stroke:#C82930;stroke-width:1.0;" width="6" x="222.5" y="1100.7422"/><text fill="#000000" font-family="sans-serif" font-size="14" lengthAdjust="spacing" textLength="93.3652" x="234.5" y="1107.9707">Topic for Stock</text><rect fill="none" height="6" style="stroke:#C82930;stroke-width:1.0;" width="6" x="222.5" y="1118.3516"/><text fill="#000000" font-family="sans-serif" font-size="14" lengthAdjust="spacing" textLength="118.2822" x="234.5" y="1125.5801">Topic for Locations</text><rect fill="none" height="6" style="stroke:#C82930;stroke-width:1.0;" width="6" x="222.5" y="1135.9609"/><text fill="#000000" font-family="sans-serif" font-size="14" lengthAdjust="spacing" textLength="112.8066" x="234.5" y="1143.1895">Topic for Facilities</text><rect fill="none" height="6" style="stroke:#C82930;stroke-width:1.0;" width="6" x="222.5" y="1153.5703"/><text fill="#000000" font-family="sans-serif" font-size="14" lengthAdjust="spacing" textLength="165.7441" x="234.5" y="1160.7988">Topic for Chain of Custody</text><rect fill="none" height="6" style="stroke:#C82930;stroke-width:1.0;" width="6" x="222.5" y="1171.1797"/><text fill="#000000" font-family="sans-serif" font-size="14" lengthAdjust="spacing" textLength="103.4824" x="234.5" y="1178.4082">Topic for Donors</text><rect fill="none" height="6" style="stroke:#C82930;stroke-width:1.0;" width="6" x="222.5" y="1188.7891"/><text fill="#000000" font-family="sans-serif" font-size="14" lengthAdjust="spacing" textLength="121.3926" x="234.5" y="1196.0176">Topic for Donations</text><rect fill="none" height="6" style="stroke:#C82930;stroke-width:1.0;" width="6" x="222.5" y="1206.3984"/><text fill="#000000" font-family="sans-serif" font-size="14" lengthAdjust="spacing" textLength="128.3789" x="234.5" y="1213.627">Topic for Distribution</text><rect fill="none" height="6" style="stroke:#C82930;stroke-width:1.0;" width="6" x="222.5" y="1224.0078"/><text fill="#000000" font-family="sans-serif" font-size="14" lengthAdjust="spacing" textLength="132.2754" x="234.5" y="1231.2363">Topic for Compliance</text><rect fill="none" height="6" style="stroke:#C82930;stroke-width:1.0;" width="6" x="222.5" y="1241.6172"/><text fill="#000000" font-family="sans-serif" font-size="14" lengthAdjust="spacing" textLength="150.9443" x="234.5" y="1248.8457">Topic for Quality Control</text><rect fill="none" height="6" style="stroke:#C82930;stroke-width:1.0;" width="6" x="222.5" y="1259.2266"/><text fill="#000000" font-family="sans-serif" font-size="14" lengthAdjust="spacing" textLength="114.3721" x="234.5" y="1266.4551">Topic for Analytics</text><rect fill="none" height="6" style="stroke:#C82930;stroke-width:1.0;" width="6" x="222.5" y="1276.8359"/><text fill="#000000" font-family="sans-serif" font-size="14" lengthAdjust="spacing" textLength="108.9375" x="234.5" y="1284.0645">Topic for Patients</text><line style="stroke:#181818;stroke-width:0.5;" x1="215.5" x2="405.2441" y1="1291.1406" y2="1291.1406"/></g><!--link ClientLayer to APIGateway--><g id="link_ClientLayer_APIGateway"><path codeLine="85" d="M379.94,392.7194 C376,402.6594 372.47,412.6594 369.5,422.6094 C364.96,437.8094 363.3359,449.104 362.7359,464.354 " fill="none" id="ClientLayer-to-APIGateway" style="stroke:#181818;stroke-width:1.0;"/><polygon fill="#181818" points="362.5,470.3494,366.8507,461.5136,362.6966,465.3532,358.8569,461.1991,362.5,470.3494" style="stroke:#181818;stroke-width:1.0;"/><text fill="#000000" font-family="sans-serif" font-size="13" lengthAdjust="spacing" textLength="203.0488" x="370.5" y="437.1045">Sends GraphQL Queries/Mutations</text></g><!--link APIGateway to Services--><g id="link_APIGateway_Services"><path codeLine="86" d="M360.9,553.6494 C359.52,575.0994 358.1239,596.9217 356.2839,625.6217 " fill="none" id="APIGateway-to-Services" style="stroke:#181818;stroke-width:1.0;"/><polygon fill="#181818" points="355.9,631.6094,360.4676,622.8837,356.2199,626.6196,352.484,622.3719,355.9,631.6094" style="stroke:#181818;stroke-width:1.0;"/><text fill="#000000" font-family="sans-serif" font-size="13" lengthAdjust="spacing" textLength="99.7217" x="359.5" y="598.1045">Routes Requests</text></g><!--link ClientLayer to NgRxStore--><g id="link_ClientLayer_NgRxStore"><path codeLine="87" d="M570.35,392.6194 C573.52,402.6194 576.28,412.6594 578.5,422.6094 C637.32,686.4794 564.9381,1010.4368 538.6281,1113.2068 " fill="none" id="ClientLayer-to-NgRxStore" style="stroke:#181818;stroke-width:1.0;"/><polygon fill="#181818" points="537.14,1119.0194,543.2471,1111.2926,538.3801,1114.1756,535.4971,1109.3085,537.14,1119.0194" style="stroke:#181818;stroke-width:1.0;"/><text fill="#000000" font-family="sans-serif" font-size="13" lengthAdjust="spacing" textLength="109.8462" x="600.5" y="598.1045">State Management</text></g><!--link Services to NgRxStore--><g id="link_Services_NgRxStore"><path codeLine="88" d="M428.49,926.9294 C433.67,936.9294 438.71,946.8794 443.5,956.6094 C471.16,1012.8194 497.292,1074.5986 513.252,1113.4886 " fill="none" id="Services-to-NgRxStore" style="stroke:#181818;stroke-width:1.0;"/><polygon fill="#181818" points="515.53,1119.0394,515.8136,1109.1946,513.6317,1114.4137,508.4125,1112.2319,515.53,1119.0394" style="stroke:#181818;stroke-width:1.0;"/><text fill="#000000" font-family="sans-serif" font-size="13" lengthAdjust="spacing" textLength="82.3862" x="451.5" y="971.1045">State Updates</text></g><!--link Services to Entities--><g id="link_Services_Entities"><path codeLine="89" d="M254.7,819.0094 C197.5,848.2394 127.74,894.0194 89.5,956.6094 C80.58,971.2094 75.7464,981.7721 71.2464,998.6421 " fill="none" id="Services-to-Entities" style="stroke:#181818;stroke-width:1.0;"/><polygon fill="#181818" points="69.7,1004.4394,75.8845,996.7744,70.9887,999.6083,68.1547,994.7125,69.7,1004.4394" style="stroke:#181818;stroke-width:1.0;"/><text fill="#000000" font-family="sans-serif" font-size="13" lengthAdjust="spacing" textLength="99.7217" x="90.5" y="971.1045">Manages Entities</text></g><!--link Services to Kafka--><g id="link_Services_Kafka"><path codeLine="90" d="M254.68,868.7694 C233.44,894.8494 213.78,924.9394 202.5,956.6094 C191.74,986.8094 196.4697,1012.5843 211.6197,1040.7743 " fill="none" id="Services-to-Kafka" style="stroke:#181818;stroke-width:1.0;"/><polygon fill="#181818" points="214.46,1046.0594,213.7229,1036.2381,212.093,1041.6551,206.6761,1040.0253,214.46,1046.0594" style="stroke:#181818;stroke-width:1.0;"/><text fill="#000000" font-family="sans-serif" font-size="13" lengthAdjust="spacing" textLength="99.7217" x="203.5" y="971.1045">Publishes Events</text></g><!--link Kafka to Services--><g id="link_Kafka_Services"><path codeLine="91" d="M324.74,1004.3294 C327.22,978.8094 329.222,958.2315 331.692,932.7115 " fill="none" id="Kafka-to-Services" style="stroke:#181818;stroke-width:1.0;"/><polygon fill="#181818" points="332.27,926.7394,327.4216,935.3122,331.7883,931.7161,335.3844,936.0829,332.27,926.7394" style="stroke:#181818;stroke-width:1.0;"/><text fill="#000000" font-family="sans-serif" font-size="13" lengthAdjust="spacing" textLength="105.4917" x="329.5" y="971.1045">Consumes Events</text></g><!--SRC=[TPN1Sfim48RlF8LwQm-UtZbqXc37ambn74Xwbq7OciWIaOHJfjDtxuA1bMHoClp_UbVxxSh-Lh6QIqRoJVgQxBRPXfI26XD5bbl1o9rGgY8RO-b1S7CwCsd9zxjDMlmW3_82Rqftv8bAUcI3byXZAwWcITC8NbBBbOmYp9qA3b4PxPWcVoEo56v0NZd9Csui-StPPw2lcQLSc2NhNkapweLLvRjxnjd9rBNaedbFIowuxHRDz4Iv9AecQMkigZfqTihoUcmbEFkRWQxtMjKSmCxgMacb5uk0y_Nnrf1QyqFxPK2gpi2KoX9congbBPT7T5zQEZINAccr4cWaaehEyjAGDJMdWwAwGdCFv-cBXFN-kJDEzWzRQjadxOOHRpLjJYyPFEK5389PFxfW-i9BPePO7E4eW-O1HNc0YQytGqPhdZ9AysnHkfaeMjS9UUzXGcyQJbAS0OeXUdIGFMeJyadnuEsE-H_eNBE1Nc41kyF0Zzr8kD4y11q07i5EG1rw3hM9rdCzifeOEMm29XuBP30YS5l7bltZFzBwdGvdNv5NrV2Ir30KjmzNTtioWTSt66fJjwusTHx6ZXW0PM24AnJO0o9pAouM2U1vPLoGhX4iLk2wX5rzf6rwtExFyshroxtACMoWhCnqdQ4Oqu3WvrDhnmQSuFwxyyMEIQvQ2myv-sYPWKfX6LpZ-7Q9vppBaMzD1H_63vjtFHupcLdo0wzR5PDzE_ozzN6N0SRL2Fe0iAOzOz1_]--></g></svg>