<svg xmlns="http://www.w3.org/2000/svg" xmlns:xlink="http://www.w3.org/1999/xlink" contentStyleType="text/css" height="797px" preserveAspectRatio="none" style="width:600px;height:797px;background:#FFFFFF;" version="1.1" viewBox="0 0 600 797" width="600px" zoomAndPan="magnify"><title>High-Level Architectural Diagram</title><defs/><g><text fill="#000000" font-family="sans-serif" font-size="14" font-weight="bold" lengthAdjust="spacing" textLength="221.7236" x="182.4136" y="24.5332">High-Level Architectural Diagram</text><!--class ClientLayer--><g id="elem_ClientLayer"><rect codeLine="5" fill="#F1F1F1" height="65.6094" id="ClientLayer" rx="2.5" ry="2.5" style="stroke:#181818;stroke-width:0.5;" width="139.6338" x="31" y="63.1094"/><ellipse cx="62.5691" cy="79.1094" fill="#ADD1B2" rx="11" ry="11" style="stroke:#181818;stroke-width:1.0;"/><path d="M65.3348,74.9844 Q65.491,74.7656 65.6785,74.6563 Q65.866,74.5469 66.0848,74.5469 Q66.4598,74.5469 66.6941,74.8125 Q66.9285,75.0625 66.9285,75.6719 L66.9285,77.125 Q66.9285,77.7344 66.6941,78 Q66.4598,78.2656 66.0848,78.2656 Q65.741,78.2656 65.5379,78.0625 Q65.3348,77.875 65.2254,77.3594 Q65.1785,77 64.991,76.8125 Q64.6629,76.4375 64.0535,76.2188 Q63.4441,76 62.8191,76 Q62.0535,76 61.4129,76.3281 Q60.7879,76.6563 60.2879,77.4063 Q59.8035,78.1563 59.8035,79.1875 L59.8035,80.2813 Q59.8035,81.5156 60.6941,82.3438 Q61.5848,83.1563 63.1785,83.1563 Q64.116,83.1563 64.7723,82.9063 Q65.1629,82.75 65.5848,82.3125 Q65.8504,82.0469 65.991,81.9688 Q66.1473,81.8906 66.3504,81.8906 Q66.6785,81.8906 66.9285,82.1563 Q67.1941,82.4063 67.1941,82.75 Q67.1941,83.0938 66.8504,83.5 Q66.3504,84.0781 65.5535,84.4063 Q64.4754,84.8594 63.1785,84.8594 Q61.6629,84.8594 60.4598,84.2344 Q59.4754,83.7344 58.7879,82.6719 Q58.1004,81.5938 58.1004,80.3125 L58.1004,79.1563 Q58.1004,77.8281 58.7098,76.6875 Q59.3348,75.5313 60.4285,74.9219 Q61.5223,74.2969 62.7566,74.2969 Q63.491,74.2969 64.1316,74.4688 Q64.7879,74.625 65.3348,74.9844 Z " fill="#000000"/><text fill="#000000" font-family="sans-serif" font-size="14" lengthAdjust="spacing" textLength="70.8135" x="80.2512" y="84.8379">ClientLayer</text><line style="stroke:#181818;stroke-width:0.5;" x1="32" x2="169.6338" y1="95.1094" y2="95.1094"/><text fill="#000000" font-family="sans-serif" font-size="14" lengthAdjust="spacing" textLength="127.6338" x="37" y="113.6426">Angular Applications</text><line style="stroke:#181818;stroke-width:0.5;" x1="32" x2="169.6338" y1="120.7188" y2="120.7188"/></g><!--class APIGateway--><g id="elem_APIGateway"><rect codeLine="9" fill="#F1F1F1" height="83.2188" id="APIGateway" rx="2.5" ry="2.5" style="stroke:#181818;stroke-width:0.5;" width="109.8135" x="46" y="224.6094"/><ellipse cx="61" cy="240.6094" fill="#ADD1B2" rx="11" ry="11" style="stroke:#181818;stroke-width:1.0;"/><path d="M63.7656,236.4844 Q63.9219,236.2656 64.1094,236.1563 Q64.2969,236.0469 64.5156,236.0469 Q64.8906,236.0469 65.125,236.3125 Q65.3594,236.5625 65.3594,237.1719 L65.3594,238.625 Q65.3594,239.2344 65.125,239.5 Q64.8906,239.7656 64.5156,239.7656 Q64.1719,239.7656 63.9688,239.5625 Q63.7656,239.375 63.6563,238.8594 Q63.6094,238.5 63.4219,238.3125 Q63.0938,237.9375 62.4844,237.7188 Q61.875,237.5 61.25,237.5 Q60.4844,237.5 59.8438,237.8281 Q59.2188,238.1563 58.7188,238.9063 Q58.2344,239.6563 58.2344,240.6875 L58.2344,241.7813 Q58.2344,243.0156 59.125,243.8438 Q60.0156,244.6563 61.6094,244.6563 Q62.5469,244.6563 63.2031,244.4063 Q63.5938,244.25 64.0156,243.8125 Q64.2813,243.5469 64.4219,243.4688 Q64.5781,243.3906 64.7813,243.3906 Q65.1094,243.3906 65.3594,243.6563 Q65.625,243.9063 65.625,244.25 Q65.625,244.5938 65.2813,245 Q64.7813,245.5781 63.9844,245.9063 Q62.9063,246.3594 61.6094,246.3594 Q60.0938,246.3594 58.8906,245.7344 Q57.9063,245.2344 57.2188,244.1719 Q56.5313,243.0938 56.5313,241.8125 L56.5313,240.6563 Q56.5313,239.3281 57.1406,238.1875 Q57.7656,237.0313 58.8594,236.4219 Q59.9531,235.7969 61.1875,235.7969 Q61.9219,235.7969 62.5625,235.9688 Q63.2188,236.125 63.7656,236.4844 Z " fill="#000000"/><text fill="#000000" font-family="sans-serif" font-size="14" lengthAdjust="spacing" textLength="77.8135" x="75" y="246.3379">APIGateway</text><line style="stroke:#181818;stroke-width:0.5;" x1="47" x2="154.8135" y1="256.6094" y2="256.6094"/><text fill="#000000" font-family="sans-serif" font-size="14" lengthAdjust="spacing" textLength="57.5859" x="52" y="275.1426">GraphQL</text><text fill="#000000" font-family="sans-serif" font-size="14" lengthAdjust="spacing" textLength="52.9102" x="52" y="292.752">RSocket</text><line style="stroke:#181818;stroke-width:0.5;" x1="47" x2="154.8135" y1="299.8281" y2="299.8281"/></g><!--class MicroservicesLayer--><g id="elem_MicroservicesLayer"><rect codeLine="14" fill="#F1F1F1" height="83.2188" id="MicroservicesLayer" rx="2.5" ry="2.5" style="stroke:#181818;stroke-width:0.5;" width="164.5098" x="18.5" y="385.6094"/><ellipse cx="38.8657" cy="401.6094" fill="#ADD1B2" rx="11" ry="11" style="stroke:#181818;stroke-width:1.0;"/><path d="M41.6313,397.4844 Q41.7876,397.2656 41.9751,397.1563 Q42.1626,397.0469 42.3813,397.0469 Q42.7563,397.0469 42.9907,397.3125 Q43.2251,397.5625 43.2251,398.1719 L43.2251,399.625 Q43.2251,400.2344 42.9907,400.5 Q42.7563,400.7656 42.3813,400.7656 Q42.0376,400.7656 41.8345,400.5625 Q41.6313,400.375 41.522,399.8594 Q41.4751,399.5 41.2876,399.3125 Q40.9595,398.9375 40.3501,398.7188 Q39.7407,398.5 39.1157,398.5 Q38.3501,398.5 37.7095,398.8281 Q37.0845,399.1563 36.5845,399.9063 Q36.1001,400.6563 36.1001,401.6875 L36.1001,402.7813 Q36.1001,404.0156 36.9907,404.8438 Q37.8813,405.6563 39.4751,405.6563 Q40.4126,405.6563 41.0688,405.4063 Q41.4595,405.25 41.8813,404.8125 Q42.147,404.5469 42.2876,404.4688 Q42.4438,404.3906 42.647,404.3906 Q42.9751,404.3906 43.2251,404.6563 Q43.4907,404.9063 43.4907,405.25 Q43.4907,405.5938 43.147,406 Q42.647,406.5781 41.8501,406.9063 Q40.772,407.3594 39.4751,407.3594 Q37.9595,407.3594 36.7563,406.7344 Q35.772,406.2344 35.0845,405.1719 Q34.397,404.0938 34.397,402.8125 L34.397,401.6563 Q34.397,400.3281 35.0063,399.1875 Q35.6313,398.0313 36.7251,397.4219 Q37.8188,396.7969 39.0532,396.7969 Q39.7876,396.7969 40.4282,396.9688 Q41.0845,397.125 41.6313,397.4844 Z " fill="#000000"/><text fill="#000000" font-family="sans-serif" font-size="14" lengthAdjust="spacing" textLength="120.5859" x="54.0581" y="407.3379">MicroservicesLayer</text><line style="stroke:#181818;stroke-width:0.5;" x1="19.5" x2="182.0098" y1="417.6094" y2="417.6094"/><text fill="#000000" font-family="sans-serif" font-size="14" lengthAdjust="spacing" textLength="85.5654" x="24.5" y="436.1426">Microservices</text><line style="stroke:#181818;stroke-width:0.5;" x1="19.5" x2="182.0098" y1="443.2188" y2="443.2188"/><text fill="#000000" font-family="sans-serif" font-size="14" lengthAdjust="spacing" textLength="152.5098" x="24.5" y="461.752">Event Streaming (Kafka)</text></g><!--class Containerization--><g id="elem_Containerization"><rect codeLine="19" fill="#F1F1F1" height="83.2188" id="Containerization" rx="2.5" ry="2.5" style="stroke:#181818;stroke-width:0.5;" width="133.1719" x="124.5" y="546.6094"/><ellipse cx="139.5" cy="562.6094" fill="#ADD1B2" rx="11" ry="11" style="stroke:#181818;stroke-width:1.0;"/><path d="M142.2656,558.4844 Q142.4219,558.2656 142.6094,558.1563 Q142.7969,558.0469 143.0156,558.0469 Q143.3906,558.0469 143.625,558.3125 Q143.8594,558.5625 143.8594,559.1719 L143.8594,560.625 Q143.8594,561.2344 143.625,561.5 Q143.3906,561.7656 143.0156,561.7656 Q142.6719,561.7656 142.4688,561.5625 Q142.2656,561.375 142.1563,560.8594 Q142.1094,560.5 141.9219,560.3125 Q141.5938,559.9375 140.9844,559.7188 Q140.375,559.5 139.75,559.5 Q138.9844,559.5 138.3438,559.8281 Q137.7188,560.1563 137.2188,560.9063 Q136.7344,561.6563 136.7344,562.6875 L136.7344,563.7813 Q136.7344,565.0156 137.625,565.8438 Q138.5156,566.6563 140.1094,566.6563 Q141.0469,566.6563 141.7031,566.4063 Q142.0938,566.25 142.5156,565.8125 Q142.7813,565.5469 142.9219,565.4688 Q143.0781,565.3906 143.2813,565.3906 Q143.6094,565.3906 143.8594,565.6563 Q144.125,565.9063 144.125,566.25 Q144.125,566.5938 143.7813,567 Q143.2813,567.5781 142.4844,567.9063 Q141.4063,568.3594 140.1094,568.3594 Q138.5938,568.3594 137.3906,567.7344 Q136.4063,567.2344 135.7188,566.1719 Q135.0313,565.0938 135.0313,563.8125 L135.0313,562.6563 Q135.0313,561.3281 135.6406,560.1875 Q136.2656,559.0313 137.3594,558.4219 Q138.4531,557.7969 139.6875,557.7969 Q140.4219,557.7969 141.0625,557.9688 Q141.7188,558.125 142.2656,558.4844 Z " fill="#000000"/><text fill="#000000" font-family="sans-serif" font-size="14" lengthAdjust="spacing" textLength="101.1719" x="153.5" y="568.3379">Containerization</text><line style="stroke:#181818;stroke-width:0.5;" x1="125.5" x2="256.6719" y1="578.6094" y2="578.6094"/><text fill="#000000" font-family="sans-serif" font-size="14" lengthAdjust="spacing" textLength="44.3447" x="130.5" y="597.1426">Docker</text><text fill="#000000" font-family="sans-serif" font-size="14" lengthAdjust="spacing" textLength="71.6064" x="130.5" y="614.752">Kubernetes</text><line style="stroke:#181818;stroke-width:0.5;" x1="125.5" x2="256.6719" y1="621.8281" y2="621.8281"/></g><!--class CloudInfrastructure--><g id="elem_CloudInfrastructure"><rect codeLine="24" fill="#F1F1F1" height="83.2188" id="CloudInfrastructure" rx="2.5" ry="2.5" style="stroke:#181818;stroke-width:0.5;" width="368.3301" x="7" y="707.6094"/><ellipse cx="127.3877" cy="723.6094" fill="#ADD1B2" rx="11" ry="11" style="stroke:#181818;stroke-width:1.0;"/><path d="M130.1533,719.4844 Q130.3096,719.2656 130.4971,719.1563 Q130.6846,719.0469 130.9033,719.0469 Q131.2783,719.0469 131.5127,719.3125 Q131.7471,719.5625 131.7471,720.1719 L131.7471,721.625 Q131.7471,722.2344 131.5127,722.5 Q131.2783,722.7656 130.9033,722.7656 Q130.5596,722.7656 130.3564,722.5625 Q130.1533,722.375 130.0439,721.8594 Q129.9971,721.5 129.8096,721.3125 Q129.4814,720.9375 128.8721,720.7188 Q128.2627,720.5 127.6377,720.5 Q126.8721,720.5 126.2314,720.8281 Q125.6064,721.1563 125.1064,721.9063 Q124.6221,722.6563 124.6221,723.6875 L124.6221,724.7813 Q124.6221,726.0156 125.5127,726.8438 Q126.4033,727.6563 127.9971,727.6563 Q128.9346,727.6563 129.5908,727.4063 Q129.9814,727.25 130.4033,726.8125 Q130.6689,726.5469 130.8096,726.4688 Q130.9658,726.3906 131.1689,726.3906 Q131.4971,726.3906 131.7471,726.6563 Q132.0127,726.9063 132.0127,727.25 Q132.0127,727.5938 131.6689,728 Q131.1689,728.5781 130.3721,728.9063 Q129.2939,729.3594 127.9971,729.3594 Q126.4814,729.3594 125.2783,728.7344 Q124.2939,728.2344 123.6064,727.1719 Q122.9189,726.0938 122.9189,724.8125 L122.9189,723.6563 Q122.9189,722.3281 123.5283,721.1875 Q124.1533,720.0313 125.2471,719.4219 Q126.3408,718.7969 127.5752,718.7969 Q128.3096,718.7969 128.9502,718.9688 Q129.6064,719.125 130.1533,719.4844 Z " fill="#000000"/><text fill="#000000" font-family="sans-serif" font-size="14" lengthAdjust="spacing" textLength="119.0547" x="147.8877" y="729.3379">CloudInfrastructure</text><line style="stroke:#181818;stroke-width:0.5;" x1="8" x2="374.3301" y1="739.6094" y2="739.6094"/><line style="stroke:#181818;stroke-width:0.5;" x1="8" x2="374.3301" y1="747.6094" y2="747.6094"/><text fill="#000000" font-family="sans-serif" font-size="14" lengthAdjust="spacing" textLength="250.5234" x="13" y="766.1426">AWS Services (EC2, S3, RDS, Lambda)</text><text fill="#000000" font-family="sans-serif" font-size="14" lengthAdjust="spacing" textLength="356.3301" x="13" y="783.752">Infrastructure as Code (Terraform, AWS CloudFormation)</text></g><!--class CICDPipeline--><g id="elem_CICDPipeline"><rect codeLine="29" fill="#F1F1F1" height="65.6094" id="CICDPipeline" rx="2.5" ry="2.5" style="stroke:#181818;stroke-width:0.5;" width="116.0342" x="223" y="394.1094"/><ellipse cx="238" cy="410.1094" fill="#ADD1B2" rx="11" ry="11" style="stroke:#181818;stroke-width:1.0;"/><path d="M240.7656,405.9844 Q240.9219,405.7656 241.1094,405.6563 Q241.2969,405.5469 241.5156,405.5469 Q241.8906,405.5469 242.125,405.8125 Q242.3594,406.0625 242.3594,406.6719 L242.3594,408.125 Q242.3594,408.7344 242.125,409 Q241.8906,409.2656 241.5156,409.2656 Q241.1719,409.2656 240.9688,409.0625 Q240.7656,408.875 240.6563,408.3594 Q240.6094,408 240.4219,407.8125 Q240.0938,407.4375 239.4844,407.2188 Q238.875,407 238.25,407 Q237.4844,407 236.8438,407.3281 Q236.2188,407.6563 235.7188,408.4063 Q235.2344,409.1563 235.2344,410.1875 L235.2344,411.2813 Q235.2344,412.5156 236.125,413.3438 Q237.0156,414.1563 238.6094,414.1563 Q239.5469,414.1563 240.2031,413.9063 Q240.5938,413.75 241.0156,413.3125 Q241.2813,413.0469 241.4219,412.9688 Q241.5781,412.8906 241.7813,412.8906 Q242.1094,412.8906 242.3594,413.1563 Q242.625,413.4063 242.625,413.75 Q242.625,414.0938 242.2813,414.5 Q241.7813,415.0781 240.9844,415.4063 Q239.9063,415.8594 238.6094,415.8594 Q237.0938,415.8594 235.8906,415.2344 Q234.9063,414.7344 234.2188,413.6719 Q233.5313,412.5938 233.5313,411.3125 L233.5313,410.1563 Q233.5313,408.8281 234.1406,407.6875 Q234.7656,406.5313 235.8594,405.9219 Q236.9531,405.2969 238.1875,405.2969 Q238.9219,405.2969 239.5625,405.4688 Q240.2188,405.625 240.7656,405.9844 Z " fill="#000000"/><text fill="#000000" font-family="sans-serif" font-size="14" lengthAdjust="spacing" textLength="84.0342" x="252" y="415.8379">CICDPipeline</text><line style="stroke:#181818;stroke-width:0.5;" x1="224" x2="338.0342" y1="426.1094" y2="426.1094"/><text fill="#000000" font-family="sans-serif" font-size="14" lengthAdjust="spacing" textLength="83.248" x="229" y="444.6426">GitLab CI/CD</text><line style="stroke:#181818;stroke-width:0.5;" x1="224" x2="338.0342" y1="451.7188" y2="451.7188"/></g><!--class SecurityCompliance--><g id="elem_SecurityCompliance"><rect codeLine="33" fill="#F1F1F1" height="100.8281" id="SecurityCompliance" rx="2.5" ry="2.5" style="stroke:#181818;stroke-width:0.5;" width="156.4961" x="206" y="45.6094"/><ellipse cx="221" cy="61.6094" fill="#ADD1B2" rx="11" ry="11" style="stroke:#181818;stroke-width:1.0;"/><path d="M223.7656,57.4844 Q223.9219,57.2656 224.1094,57.1563 Q224.2969,57.0469 224.5156,57.0469 Q224.8906,57.0469 225.125,57.3125 Q225.3594,57.5625 225.3594,58.1719 L225.3594,59.625 Q225.3594,60.2344 225.125,60.5 Q224.8906,60.7656 224.5156,60.7656 Q224.1719,60.7656 223.9688,60.5625 Q223.7656,60.375 223.6563,59.8594 Q223.6094,59.5 223.4219,59.3125 Q223.0938,58.9375 222.4844,58.7188 Q221.875,58.5 221.25,58.5 Q220.4844,58.5 219.8438,58.8281 Q219.2188,59.1563 218.7188,59.9063 Q218.2344,60.6563 218.2344,61.6875 L218.2344,62.7813 Q218.2344,64.0156 219.125,64.8438 Q220.0156,65.6563 221.6094,65.6563 Q222.5469,65.6563 223.2031,65.4063 Q223.5938,65.25 224.0156,64.8125 Q224.2813,64.5469 224.4219,64.4688 Q224.5781,64.3906 224.7813,64.3906 Q225.1094,64.3906 225.3594,64.6563 Q225.625,64.9063 225.625,65.25 Q225.625,65.5938 225.2813,66 Q224.7813,66.5781 223.9844,66.9063 Q222.9063,67.3594 221.6094,67.3594 Q220.0938,67.3594 218.8906,66.7344 Q217.9063,66.2344 217.2188,65.1719 Q216.5313,64.0938 216.5313,62.8125 L216.5313,61.6563 Q216.5313,60.3281 217.1406,59.1875 Q217.7656,58.0313 218.8594,57.4219 Q219.9531,56.7969 221.1875,56.7969 Q221.9219,56.7969 222.5625,56.9688 Q223.2188,57.125 223.7656,57.4844 Z " fill="#000000"/><text fill="#000000" font-family="sans-serif" font-size="14" lengthAdjust="spacing" textLength="124.4961" x="235" y="67.3379">SecurityCompliance</text><line style="stroke:#181818;stroke-width:0.5;" x1="207" x2="361.4961" y1="77.6094" y2="77.6094"/><text fill="#000000" font-family="sans-serif" font-size="14" lengthAdjust="spacing" textLength="99.6064" x="212" y="96.1426">Data Encryption</text><text fill="#000000" font-family="sans-serif" font-size="14" lengthAdjust="spacing" textLength="101.1445" x="212" y="113.752">Access Controls</text><text fill="#000000" font-family="sans-serif" font-size="14" lengthAdjust="spacing" textLength="138.5234" x="212" y="131.3613">Secure Configurations</text><line style="stroke:#181818;stroke-width:0.5;" x1="207" x2="361.4961" y1="138.4375" y2="138.4375"/></g><!--class MonitoringOptimization--><g id="elem_MonitoringOptimization"><rect codeLine="39" fill="#F1F1F1" height="83.2188" id="MonitoringOptimization" rx="2.5" ry="2.5" style="stroke:#181818;stroke-width:0.5;" width="175.1719" x="397.5" y="54.6094"/><ellipse cx="412.5" cy="70.6094" fill="#ADD1B2" rx="11" ry="11" style="stroke:#181818;stroke-width:1.0;"/><path d="M415.2656,66.4844 Q415.4219,66.2656 415.6094,66.1563 Q415.7969,66.0469 416.0156,66.0469 Q416.3906,66.0469 416.625,66.3125 Q416.8594,66.5625 416.8594,67.1719 L416.8594,68.625 Q416.8594,69.2344 416.625,69.5 Q416.3906,69.7656 416.0156,69.7656 Q415.6719,69.7656 415.4688,69.5625 Q415.2656,69.375 415.1563,68.8594 Q415.1094,68.5 414.9219,68.3125 Q414.5938,67.9375 413.9844,67.7188 Q413.375,67.5 412.75,67.5 Q411.9844,67.5 411.3438,67.8281 Q410.7188,68.1563 410.2188,68.9063 Q409.7344,69.6563 409.7344,70.6875 L409.7344,71.7813 Q409.7344,73.0156 410.625,73.8438 Q411.5156,74.6563 413.1094,74.6563 Q414.0469,74.6563 414.7031,74.4063 Q415.0938,74.25 415.5156,73.8125 Q415.7813,73.5469 415.9219,73.4688 Q416.0781,73.3906 416.2813,73.3906 Q416.6094,73.3906 416.8594,73.6563 Q417.125,73.9063 417.125,74.25 Q417.125,74.5938 416.7813,75 Q416.2813,75.5781 415.4844,75.9063 Q414.4063,76.3594 413.1094,76.3594 Q411.5938,76.3594 410.3906,75.7344 Q409.4063,75.2344 408.7188,74.1719 Q408.0313,73.0938 408.0313,71.8125 L408.0313,70.6563 Q408.0313,69.3281 408.6406,68.1875 Q409.2656,67.0313 410.3594,66.4219 Q411.4531,65.7969 412.6875,65.7969 Q413.4219,65.7969 414.0625,65.9688 Q414.7188,66.125 415.2656,66.4844 Z " fill="#000000"/><text fill="#000000" font-family="sans-serif" font-size="14" lengthAdjust="spacing" textLength="143.1719" x="426.5" y="76.3379">MonitoringOptimization</text><line style="stroke:#181818;stroke-width:0.5;" x1="398.5" x2="571.6719" y1="86.6094" y2="86.6094"/><text fill="#000000" font-family="sans-serif" font-size="14" lengthAdjust="spacing" textLength="103.4893" x="403.5" y="105.1426">Monitoring Tools</text><text fill="#000000" font-family="sans-serif" font-size="14" lengthAdjust="spacing" textLength="161.8408" x="403.5" y="122.752">Performance Optimization</text><line style="stroke:#181818;stroke-width:0.5;" x1="398.5" x2="571.6719" y1="129.8281" y2="129.8281"/></g><!--class All--><g id="elem_All"><rect fill="#F1F1F1" height="48" id="All" rx="2.5" ry="2.5" style="stroke:#181818;stroke-width:0.5;" width="47.5586" x="360" y="242.1094"/><ellipse cx="375" cy="258.1094" fill="#ADD1B2" rx="11" ry="11" style="stroke:#181818;stroke-width:1.0;"/><path d="M377.7656,253.9844 Q377.9219,253.7656 378.1094,253.6563 Q378.2969,253.5469 378.5156,253.5469 Q378.8906,253.5469 379.125,253.8125 Q379.3594,254.0625 379.3594,254.6719 L379.3594,256.125 Q379.3594,256.7344 379.125,257 Q378.8906,257.2656 378.5156,257.2656 Q378.1719,257.2656 377.9688,257.0625 Q377.7656,256.875 377.6563,256.3594 Q377.6094,256 377.4219,255.8125 Q377.0938,255.4375 376.4844,255.2188 Q375.875,255 375.25,255 Q374.4844,255 373.8438,255.3281 Q373.2188,255.6563 372.7188,256.4063 Q372.2344,257.1563 372.2344,258.1875 L372.2344,259.2813 Q372.2344,260.5156 373.125,261.3438 Q374.0156,262.1563 375.6094,262.1563 Q376.5469,262.1563 377.2031,261.9063 Q377.5938,261.75 378.0156,261.3125 Q378.2813,261.0469 378.4219,260.9688 Q378.5781,260.8906 378.7813,260.8906 Q379.1094,260.8906 379.3594,261.1563 Q379.625,261.4063 379.625,261.75 Q379.625,262.0938 379.2813,262.5 Q378.7813,263.0781 377.9844,263.4063 Q376.9063,263.8594 375.6094,263.8594 Q374.0938,263.8594 372.8906,263.2344 Q371.9063,262.7344 371.2188,261.6719 Q370.5313,260.5938 370.5313,259.3125 L370.5313,258.1563 Q370.5313,256.8281 371.1406,255.6875 Q371.7656,254.5313 372.8594,253.9219 Q373.9531,253.2969 375.1875,253.2969 Q375.9219,253.2969 376.5625,253.4688 Q377.2188,253.625 377.7656,253.9844 Z " fill="#000000"/><text fill="#000000" font-family="sans-serif" font-size="14" lengthAdjust="spacing" textLength="15.5586" x="389" y="263.8379">All</text><line style="stroke:#181818;stroke-width:0.5;" x1="361" x2="406.5586" y1="274.1094" y2="274.1094"/><line style="stroke:#181818;stroke-width:0.5;" x1="361" x2="406.5586" y1="282.1094" y2="282.1094"/></g><!--link ClientLayer to APIGateway--><g id="link_ClientLayer_APIGateway"><path codeLine="44" d="M101,129.4994 C101,156.5794 101,189.3394 101,218.4994 " fill="none" id="ClientLayer-to-APIGateway" style="stroke:#181818;stroke-width:1.0;"/><polygon fill="#181818" points="101,224.4994,105,215.4994,101,219.4994,97,215.4994,101,224.4994" style="stroke:#181818;stroke-width:1.0;"/><text fill="#000000" font-family="sans-serif" font-size="13" lengthAdjust="spacing" textLength="95.3926" x="102" y="191.1045">Sends Requests</text></g><!--link APIGateway to MicroservicesLayer--><g id="link_APIGateway_MicroservicesLayer"><path codeLine="45" d="M101,307.6394 C101,331.4694 101,355.5094 101,379.3694 " fill="none" id="APIGateway-to-MicroservicesLayer" style="stroke:#181818;stroke-width:1.0;"/><polygon fill="#181818" points="101,385.3694,105,376.3694,101,380.3694,97,376.3694,101,385.3694" style="stroke:#181818;stroke-width:1.0;"/><text fill="#000000" font-family="sans-serif" font-size="13" lengthAdjust="spacing" textLength="99.7217" x="102" y="352.1045">Routes Requests</text></g><!--link MicroservicesLayer to Containerization--><g id="link_MicroservicesLayer_Containerization"><path codeLine="46" d="M91.65,468.6194 C90.02,484.3294 90.75,502.0194 98,516.6094 C104.13,528.9494 109.0233,535.7827 119.5833,544.9227 " fill="none" id="MicroservicesLayer-to-Containerization" style="stroke:#181818;stroke-width:1.0;"/><polygon fill="#181818" points="124.12,548.8494,119.9327,539.935,120.3394,545.5772,114.6972,545.9839,124.12,548.8494" style="stroke:#181818;stroke-width:1.0;"/><text fill="#000000" font-family="sans-serif" font-size="13" lengthAdjust="spacing" textLength="138.7471" x="99" y="513.1045">Deployed as Containers</text></g><!--link Containerization to CloudInfrastructure--><g id="link_Containerization_CloudInfrastructure"><path codeLine="47" d="M191,629.6394 C191,653.4694 191,677.5094 191,701.3694 " fill="none" id="Containerization-to-CloudInfrastructure" style="stroke:#181818;stroke-width:1.0;"/><polygon fill="#181818" points="191,707.3694,195,698.3694,191,702.3694,187,698.3694,191,707.3694" style="stroke:#181818;stroke-width:1.0;"/><text fill="#000000" font-family="sans-serif" font-size="13" lengthAdjust="spacing" textLength="48.4199" x="192" y="674.1045">Runs on</text></g><!--link CICDPipeline to Containerization--><g id="link_CICDPipeline_Containerization"><path codeLine="48" d="M268.68,460.4394 C261.68,477.5594 252.27,498.6894 242,516.6094 C236.29,526.5694 232.9487,531.9407 226.1887,541.4407 " fill="none" id="CICDPipeline-to-Containerization" style="stroke:#181818;stroke-width:1.0;"/><polygon fill="#181818" points="222.71,546.3294,231.1871,541.3155,225.6089,542.2555,224.6689,536.6773,222.71,546.3294" style="stroke:#181818;stroke-width:1.0;"/><text fill="#000000" font-family="sans-serif" font-size="13" lengthAdjust="spacing" textLength="135.1226" x="252" y="513.1045">Automates Deployment</text></g><!--link SecurityCompliance to All--><g id="link_SecurityCompliance_All"><path codeLine="49" d="M313.5,146.7094 C322.63,162.0694 332.73,179.0394 342,194.6094 C351.4,210.3994 358.9168,223.0262 367.1168,236.7762 " fill="none" id="SecurityCompliance-to-All" style="stroke:#181818;stroke-width:1.0;"/><polygon fill="#181818" points="370.19,241.9294,369.0157,232.1508,367.629,237.635,362.1448,236.2484,370.19,241.9294" style="stroke:#181818;stroke-width:1.0;"/><text fill="#000000" font-family="sans-serif" font-size="13" lengthAdjust="spacing" textLength="98.2617" x="343" y="191.1045">Ensures Security</text></g><!--link MonitoringOptimization to All--><g id="link_MonitoringOptimization_All"><path codeLine="50" d="M472.18,137.9594 C465.65,155.9994 456.78,177.0594 446,194.6094 C435.42,211.8294 424.6989,224.5846 412.1689,237.6146 " fill="none" id="MonitoringOptimization-to-All" style="stroke:#181818;stroke-width:1.0;"/><polygon fill="#181818" points="408.01,241.9394,417.1315,238.2247,411.4757,238.3354,411.3651,232.6796,408.01,241.9394" style="stroke:#181818;stroke-width:1.0;"/><text fill="#000000" font-family="sans-serif" font-size="13" lengthAdjust="spacing" textLength="136.5508" x="456" y="191.1045">Monitors and Optimizes</text></g><!--SRC=[TL9DZzem4BtdLqnlL09LsjuuL8gIb4NBjfGWzJmu0rZhsEdOeQ9L_tl7XfR0iZT_p9ltvhrvrz1MMu9LLQppBxD51SgWzraMT304ZtgtdopeG0PoLdiTI8MUqK2fSSVOPja5M1XDDYpmI0o_Cu3Sxdg337dN6QqmQ6TzzcU8o9Vp6GRwYSS4c35s-syBEQrgfrueN5S_QyNE4n-q8d-XkNgMUtKG5L079cortS7e2RSl-FwwL-5iG9cRzQyaB7Kg8odBuQdV45iATAEtCAvlvdRBw0FtqGawJVgzXlgi04PLyJ26-kCOLcKzXWMscqRe0Mw0w4L5Gp1Q4pDk7RVZr2YHV9Ph4dQhUrwKIzsHYPabpxGulf7t3qLvNLgJwbc7O-5QyH-jEW5A30YLLNpiOl-eNebidonXPwA52KhnPQjt4lUTw9wTrS6n6FnL-hH36ozVi7QdXalYE60ICQoFFOThCvby6Yx5L9JOniEAVlJaWyy6Vx7qpaPCOULw2Uw2kLCKiQysO0ebTSOTgJb5S_xssQlA1B-p2iBTMmyorbLCRx3bVN2IiKWzyRRYGdOdjEI9COAeh1SQ_p_Px8qGBeXpWGUqpJ_ZPQd_0W00]--></g></svg>