<svg xmlns="http://www.w3.org/2000/svg" xmlns:xlink="http://www.w3.org/1999/xlink" contentStyleType="text/css" height="529px" preserveAspectRatio="none" style="width:384px;height:529px;background:#FFFFFF;" version="1.1" viewBox="0 0 384 529" width="384px" zoomAndPan="magnify"><title>API Gateway Layer</title><defs/><g><text fill="#000000" font-family="sans-serif" font-size="14" font-weight="bold" lengthAdjust="spacing" textLength="126.0615" x="122.3027" y="24.5332">API Gateway Layer</text><!--class API_Gateway--><g id="elem_API_Gateway"><rect codeLine="5" fill="#F1F1F1" height="136.0469" id="API_Gateway" rx="2.5" ry="2.5" style="stroke:#181818;stroke-width:0.5;" width="117.5996" x="116.5" y="189.6094"/><ellipse cx="131.5" cy="205.6094" fill="#ADD1B2" rx="11" ry="11" style="stroke:#181818;stroke-width:1.0;"/><path d="M134.2656,201.4844 Q134.4219,201.2656 134.6094,201.1563 Q134.7969,201.0469 135.0156,201.0469 Q135.3906,201.0469 135.625,201.3125 Q135.8594,201.5625 135.8594,202.1719 L135.8594,203.625 Q135.8594,204.2344 135.625,204.5 Q135.3906,204.7656 135.0156,204.7656 Q134.6719,204.7656 134.4688,204.5625 Q134.2656,204.375 134.1563,203.8594 Q134.1094,203.5 133.9219,203.3125 Q133.5938,202.9375 132.9844,202.7188 Q132.375,202.5 131.75,202.5 Q130.9844,202.5 130.3438,202.8281 Q129.7188,203.1563 129.2188,203.9063 Q128.7344,204.6563 128.7344,205.6875 L128.7344,206.7813 Q128.7344,208.0156 129.625,208.8438 Q130.5156,209.6563 132.1094,209.6563 Q133.0469,209.6563 133.7031,209.4063 Q134.0938,209.25 134.5156,208.8125 Q134.7813,208.5469 134.9219,208.4688 Q135.0781,208.3906 135.2813,208.3906 Q135.6094,208.3906 135.8594,208.6563 Q136.125,208.9063 136.125,209.25 Q136.125,209.5938 135.7813,210 Q135.2813,210.5781 134.4844,210.9063 Q133.4063,211.3594 132.1094,211.3594 Q130.5938,211.3594 129.3906,210.7344 Q128.4063,210.2344 127.7188,209.1719 Q127.0313,208.0938 127.0313,206.8125 L127.0313,205.6563 Q127.0313,204.3281 127.6406,203.1875 Q128.2656,202.0313 129.3594,201.4219 Q130.4531,200.7969 131.6875,200.7969 Q132.4219,200.7969 133.0625,200.9688 Q133.7188,201.125 134.2656,201.4844 Z " fill="#000000"/><text fill="#000000" font-family="sans-serif" font-size="14" lengthAdjust="spacing" textLength="85.5996" x="145.5" y="211.3379">API_Gateway</text><line style="stroke:#181818;stroke-width:0.5;" x1="117.5" x2="233.0996" y1="221.6094" y2="221.6094"/><ellipse cx="127.5" cy="235.9141" fill="none" rx="3" ry="3" style="stroke:#038048;stroke-width:1.0;"/><text fill="#000000" font-family="sans-serif" font-size="14" lengthAdjust="spacing" textLength="57.5859" x="136.5" y="240.1426">GraphQL</text><ellipse cx="127.5" cy="253.5234" fill="none" rx="3" ry="3" style="stroke:#038048;stroke-width:1.0;"/><text fill="#000000" font-family="sans-serif" font-size="14" lengthAdjust="spacing" textLength="52.9102" x="136.5" y="257.752">RSocket</text><ellipse cx="127.5" cy="271.1328" fill="none" rx="3" ry="3" style="stroke:#038048;stroke-width:1.0;"/><text fill="#000000" font-family="sans-serif" font-size="14" lengthAdjust="spacing" textLength="88.7305" x="136.5" y="275.3613">Authentication</text><ellipse cx="127.5" cy="288.7422" fill="none" rx="3" ry="3" style="stroke:#038048;stroke-width:1.0;"/><text fill="#000000" font-family="sans-serif" font-size="14" lengthAdjust="spacing" textLength="81.7168" x="136.5" y="292.9707">Authorization</text><ellipse cx="127.5" cy="306.3516" fill="none" rx="3" ry="3" style="stroke:#038048;stroke-width:1.0;"/><text fill="#000000" font-family="sans-serif" font-size="14" lengthAdjust="spacing" textLength="81.7031" x="136.5" y="310.5801">Rate Limiting</text><line style="stroke:#181818;stroke-width:0.5;" x1="117.5" x2="233.0996" y1="317.6563" y2="317.6563"/></g><!--class Client_Layer--><g id="elem_Client_Layer"><rect codeLine="13" fill="#F1F1F1" height="65.6094" id="Client_Layer" rx="2.5" ry="2.5" style="stroke:#181818;stroke-width:0.5;" width="143.5303" x="103.5" y="45.6094"/><ellipse cx="133.3188" cy="61.6094" fill="#ADD1B2" rx="11" ry="11" style="stroke:#181818;stroke-width:1.0;"/><path d="M136.0844,57.4844 Q136.2407,57.2656 136.4282,57.1563 Q136.6157,57.0469 136.8344,57.0469 Q137.2094,57.0469 137.4438,57.3125 Q137.6782,57.5625 137.6782,58.1719 L137.6782,59.625 Q137.6782,60.2344 137.4438,60.5 Q137.2094,60.7656 136.8344,60.7656 Q136.4907,60.7656 136.2875,60.5625 Q136.0844,60.375 135.975,59.8594 Q135.9282,59.5 135.7407,59.3125 Q135.4125,58.9375 134.8032,58.7188 Q134.1938,58.5 133.5688,58.5 Q132.8032,58.5 132.1625,58.8281 Q131.5375,59.1563 131.0375,59.9063 Q130.5532,60.6563 130.5532,61.6875 L130.5532,62.7813 Q130.5532,64.0156 131.4438,64.8438 Q132.3344,65.6563 133.9282,65.6563 Q134.8657,65.6563 135.5219,65.4063 Q135.9125,65.25 136.3344,64.8125 Q136.6,64.5469 136.7407,64.4688 Q136.8969,64.3906 137.1,64.3906 Q137.4282,64.3906 137.6782,64.6563 Q137.9438,64.9063 137.9438,65.25 Q137.9438,65.5938 137.6,66 Q137.1,66.5781 136.3032,66.9063 Q135.225,67.3594 133.9282,67.3594 Q132.4125,67.3594 131.2094,66.7344 Q130.225,66.2344 129.5375,65.1719 Q128.85,64.0938 128.85,62.8125 L128.85,61.6563 Q128.85,60.3281 129.4594,59.1875 Q130.0844,58.0313 131.1782,57.4219 Q132.2719,56.7969 133.5063,56.7969 Q134.2407,56.7969 134.8813,56.9688 Q135.5375,57.125 136.0844,57.4844 Z " fill="#000000"/><text fill="#000000" font-family="sans-serif" font-size="14" lengthAdjust="spacing" textLength="78.5996" x="150.6119" y="67.3379">Client_Layer</text><line style="stroke:#181818;stroke-width:0.5;" x1="104.5" x2="246.0303" y1="77.6094" y2="77.6094"/><text fill="#000000" font-family="sans-serif" font-size="14" lengthAdjust="spacing" textLength="131.5303" x="109.5" y="96.1426">Angular_Applications</text><line style="stroke:#181818;stroke-width:0.5;" x1="104.5" x2="246.0303" y1="103.2188" y2="103.2188"/></g><!--class Microservices_Layer--><g id="elem_Microservices_Layer"><rect codeLine="17" fill="#F1F1F1" height="118.4375" id="Microservices_Layer" rx="2.5" ry="2.5" style="stroke:#181818;stroke-width:0.5;" width="337.2402" x="7" y="403.6094"/><ellipse cx="107.1841" cy="419.6094" fill="#ADD1B2" rx="11" ry="11" style="stroke:#181818;stroke-width:1.0;"/><path d="M109.9497,415.4844 Q110.106,415.2656 110.2935,415.1563 Q110.481,415.0469 110.6997,415.0469 Q111.0747,415.0469 111.3091,415.3125 Q111.5435,415.5625 111.5435,416.1719 L111.5435,417.625 Q111.5435,418.2344 111.3091,418.5 Q111.0747,418.7656 110.6997,418.7656 Q110.356,418.7656 110.1528,418.5625 Q109.9497,418.375 109.8403,417.8594 Q109.7935,417.5 109.606,417.3125 Q109.2778,416.9375 108.6685,416.7188 Q108.0591,416.5 107.4341,416.5 Q106.6685,416.5 106.0278,416.8281 Q105.4028,417.1563 104.9028,417.9063 Q104.4185,418.6563 104.4185,419.6875 L104.4185,420.7813 Q104.4185,422.0156 105.3091,422.8438 Q106.1997,423.6563 107.7935,423.6563 Q108.731,423.6563 109.3872,423.4063 Q109.7778,423.25 110.1997,422.8125 Q110.4653,422.5469 110.606,422.4688 Q110.7622,422.3906 110.9653,422.3906 Q111.2935,422.3906 111.5435,422.6563 Q111.8091,422.9063 111.8091,423.25 Q111.8091,423.5938 111.4653,424 Q110.9653,424.5781 110.1685,424.9063 Q109.0903,425.3594 107.7935,425.3594 Q106.2778,425.3594 105.0747,424.7344 Q104.0903,424.2344 103.4028,423.1719 Q102.7153,422.0938 102.7153,420.8125 L102.7153,419.6563 Q102.7153,418.3281 103.3247,417.1875 Q103.9497,416.0313 105.0435,415.4219 Q106.1372,414.7969 107.3716,414.7969 Q108.106,414.7969 108.7466,414.9688 Q109.4028,415.125 109.9497,415.4844 Z " fill="#000000"/><text fill="#000000" font-family="sans-serif" font-size="14" lengthAdjust="spacing" textLength="128.3721" x="127.6841" y="425.3379">Microservices_Layer</text><line style="stroke:#181818;stroke-width:0.5;" x1="8" x2="343.2402" y1="435.6094" y2="435.6094"/><ellipse cx="18" cy="449.9141" fill="none" rx="3" ry="3" style="stroke:#038048;stroke-width:1.0;"/><text fill="#000000" font-family="sans-serif" font-size="14" lengthAdjust="spacing" textLength="293.3574" x="27" y="454.1426">Appointment Scheduling Domain Microservices</text><ellipse cx="18" cy="467.5234" fill="none" rx="3" ry="3" style="stroke:#038048;stroke-width:1.0;"/><text fill="#000000" font-family="sans-serif" font-size="14" lengthAdjust="spacing" textLength="311.2402" x="27" y="471.752">Compiance and Regulatory Domain Microservices</text><ellipse cx="18" cy="485.1328" fill="none" rx="3" ry="3" style="stroke:#038048;stroke-width:1.0;"/><text fill="#000000" font-family="sans-serif" font-size="14" lengthAdjust="spacing" textLength="265.3232" x="27" y="489.3613">Donor Management Domain Microservices</text><ellipse cx="18" cy="502.7422" fill="none" rx="3" ry="3" style="stroke:#038048;stroke-width:1.0;"/><text fill="#000000" font-family="sans-serif" font-size="14" lengthAdjust="spacing" textLength="284.7783" x="27" y="506.9707">Inventory Management Domain Microservices</text><line style="stroke:#181818;stroke-width:0.5;" x1="8" x2="343.2402" y1="514.0469" y2="514.0469"/></g><!--link Client_Layer to API_Gateway--><g id="link_Client_Layer_API_Gateway"><path codeLine="24" d="M175.5,111.6594 C175.5,133.3794 175.5,156.8794 175.5,183.5994 " fill="none" id="Client_Layer-to-API_Gateway" style="stroke:#181818;stroke-width:1.0;"/><polygon fill="#181818" points="175.5,189.5994,179.5,180.5994,175.5,184.5994,171.5,180.5994,175.5,189.5994" style="stroke:#181818;stroke-width:1.0;"/><text fill="#000000" font-family="sans-serif" font-size="13" lengthAdjust="spacing" textLength="200.167" x="176.5" y="156.1045">Sends GraphQL queries/mutations</text></g><!--link API_Gateway to Microservices_Layer--><g id="link_API_Gateway_Microservices_Layer"><path codeLine="25" d="M175.5,325.6394 C175.5,350.8194 175.5,373.2094 175.5,397.4994 " fill="none" id="API_Gateway-to-Microservices_Layer" style="stroke:#181818;stroke-width:1.0;"/><polygon fill="#181818" points="175.5,403.4994,179.5,394.4994,175.5,398.4994,171.5,394.4994,175.5,403.4994" style="stroke:#181818;stroke-width:1.0;"/><text fill="#000000" font-family="sans-serif" font-size="13" lengthAdjust="spacing" textLength="94.6626" x="176.5" y="370.1045">Routes requests</text></g><!--SRC=[XP11QuD048Nl-okcvn1wpw4W9aZ0b5PxbsMTwX2TjRjZYYtzxrt5j0eDlGqpxtkFUNSblX8ZP8Vu9NfCqWEOHdklb90q2D7J4H8j-Au7IFM0JgbVPJWMr-Ed0jWaJdVrSpgEMMxD6MKServgP26ZXInVDzRHnyyY2owGKaj2NAclPKZSK82BANnAYRZg6-sAgEkQsTElaHCPPpsw2ndq2t8J44iiRJ24tDHOzat8WxrjDV4Q6-MnRJlIR10qbv3Xc2lM3JU1lMNhuAHPLpY5t18U-HBEezL_ul3Oge7jzc7L-mvovDB3N3syzUW8_NtRorpDKZtIVxMpWypsWXuS1WClNdq3]--></g></svg>