<svg xmlns="http://www.w3.org/2000/svg" xmlns:xlink="http://www.w3.org/1999/xlink" contentStyleType="text/css" height="1193px" preserveAspectRatio="none" style="width:788px;height:1193px;background:#FFFFFF;" version="1.1" viewBox="0 0 788 1193" width="788px" zoomAndPan="magnify"><title>CI/CD Pipeline for BECS Platform</title><defs/><g><text fill="#000000" font-family="sans-serif" font-size="14" font-weight="bold" lengthAdjust="spacing" textLength="221.6963" x="276.418" y="24.5332">CI/CD Pipeline for BECS Platform</text><!--class SCM--><g id="elem_SCM"><rect codeLine="5" fill="#F1F1F1" height="65.6094" id="SCM" rx="2.5" ry="2.5" style="stroke:#181818;stroke-width:0.5;" width="184.5234" x="109" y="80.6094"/><ellipse cx="124" cy="96.6094" fill="#ADD1B2" rx="11" ry="11" style="stroke:#181818;stroke-width:1.0;"/><path d="M126.7656,92.4844 Q126.9219,92.2656 127.1094,92.1563 Q127.2969,92.0469 127.5156,92.0469 Q127.8906,92.0469 128.125,92.3125 Q128.3594,92.5625 128.3594,93.1719 L128.3594,94.625 Q128.3594,95.2344 128.125,95.5 Q127.8906,95.7656 127.5156,95.7656 Q127.1719,95.7656 126.9688,95.5625 Q126.7656,95.375 126.6563,94.8594 Q126.6094,94.5 126.4219,94.3125 Q126.0938,93.9375 125.4844,93.7188 Q124.875,93.5 124.25,93.5 Q123.4844,93.5 122.8438,93.8281 Q122.2188,94.1563 121.7188,94.9063 Q121.2344,95.6563 121.2344,96.6875 L121.2344,97.7813 Q121.2344,99.0156 122.125,99.8438 Q123.0156,100.6563 124.6094,100.6563 Q125.5469,100.6563 126.2031,100.4063 Q126.5938,100.25 127.0156,99.8125 Q127.2813,99.5469 127.4219,99.4688 Q127.5781,99.3906 127.7813,99.3906 Q128.1094,99.3906 128.3594,99.6563 Q128.625,99.9063 128.625,100.25 Q128.625,100.5938 128.2813,101 Q127.7813,101.5781 126.9844,101.9063 Q125.9063,102.3594 124.6094,102.3594 Q123.0938,102.3594 121.8906,101.7344 Q120.9063,101.2344 120.2188,100.1719 Q119.5313,99.0938 119.5313,97.8125 L119.5313,96.6563 Q119.5313,95.3281 120.1406,94.1875 Q120.7656,93.0313 121.8594,92.4219 Q122.9531,91.7969 124.1875,91.7969 Q124.9219,91.7969 125.5625,91.9688 Q126.2188,92.125 126.7656,92.4844 Z " fill="#000000"/><text fill="#000000" font-family="sans-serif" font-size="14" lengthAdjust="spacing" textLength="152.5234" x="138" y="102.3379">Source Code Repository</text><line style="stroke:#181818;stroke-width:0.5;" x1="110" x2="292.5234" y1="112.6094" y2="112.6094"/><text fill="#000000" font-family="sans-serif" font-size="14" lengthAdjust="spacing" textLength="41.248" x="115" y="131.1426">GitLab</text><line style="stroke:#181818;stroke-width:0.5;" x1="110" x2="292.5234" y1="138.2188" y2="138.2188"/></g><!--class CICD--><g id="elem_CICD"><rect codeLine="9" fill="#F1F1F1" height="224.0938" id="CICD" rx="2.5" ry="2.5" style="stroke:#181818;stroke-width:0.5;" width="389.1934" x="7" y="242.6094"/><ellipse cx="151.4399" cy="258.6094" fill="#ADD1B2" rx="11" ry="11" style="stroke:#181818;stroke-width:1.0;"/><path d="M154.2056,254.4844 Q154.3618,254.2656 154.5493,254.1563 Q154.7368,254.0469 154.9556,254.0469 Q155.3306,254.0469 155.5649,254.3125 Q155.7993,254.5625 155.7993,255.1719 L155.7993,256.625 Q155.7993,257.2344 155.5649,257.5 Q155.3306,257.7656 154.9556,257.7656 Q154.6118,257.7656 154.4087,257.5625 Q154.2056,257.375 154.0962,256.8594 Q154.0493,256.5 153.8618,256.3125 Q153.5337,255.9375 152.9243,255.7188 Q152.3149,255.5 151.6899,255.5 Q150.9243,255.5 150.2837,255.8281 Q149.6587,256.1563 149.1587,256.9063 Q148.6743,257.6563 148.6743,258.6875 L148.6743,259.7813 Q148.6743,261.0156 149.5649,261.8438 Q150.4556,262.6563 152.0493,262.6563 Q152.9868,262.6563 153.6431,262.4063 Q154.0337,262.25 154.4556,261.8125 Q154.7212,261.5469 154.8618,261.4688 Q155.0181,261.3906 155.2212,261.3906 Q155.5493,261.3906 155.7993,261.6563 Q156.0649,261.9063 156.0649,262.25 Q156.0649,262.5938 155.7212,263 Q155.2212,263.5781 154.4243,263.9063 Q153.3462,264.3594 152.0493,264.3594 Q150.5337,264.3594 149.3306,263.7344 Q148.3462,263.2344 147.6587,262.1719 Q146.9712,261.0938 146.9712,259.8125 L146.9712,258.6563 Q146.9712,257.3281 147.5806,256.1875 Q148.2056,255.0313 149.2993,254.4219 Q150.3931,253.7969 151.6274,253.7969 Q152.3618,253.7969 153.0024,253.9688 Q153.6587,254.125 154.2056,254.4844 Z " fill="#000000"/><text fill="#000000" font-family="sans-serif" font-size="14" lengthAdjust="spacing" textLength="91.8135" x="171.9399" y="264.3379">CI/CD Pipeline</text><line style="stroke:#181818;stroke-width:0.5;" x1="8" x2="395.1934" y1="274.6094" y2="274.6094"/><text fill="#000000" font-family="sans-serif" font-size="14" lengthAdjust="spacing" textLength="31.1309" x="13" y="293.1426">Build</text><text fill="#000000" font-family="sans-serif" font-size="14" lengthAdjust="spacing" textLength="27.2275" x="13" y="310.752">Test</text><text fill="#000000" font-family="sans-serif" font-size="14" lengthAdjust="spacing" textLength="86.3721" x="13" y="328.3613">Security Scan</text><text fill="#000000" font-family="sans-serif" font-size="14" lengthAdjust="spacing" textLength="62.2617" x="13" y="345.9707">:Package;</text><text fill="#000000" font-family="sans-serif" font-size="14" lengthAdjust="spacing" textLength="51.3584" x="13" y="363.5801">:Deploy;</text><text fill="#000000" font-family="sans-serif" font-size="14" lengthAdjust="spacing" textLength="255.0967" x="13" y="381.1895">"Build: Compile and build the application"</text><text fill="#000000" font-family="sans-serif" font-size="14" lengthAdjust="spacing" textLength="227.0625" x="13" y="398.7988">"Test: Run unit and integration tests"</text><text fill="#000000" font-family="sans-serif" font-size="14" lengthAdjust="spacing" textLength="377.1934" x="13" y="416.4082">"Security Scan: Perform security scans using tools like Snyk"</text><text fill="#000000" font-family="sans-serif" font-size="14" lengthAdjust="spacing" textLength="211.4766" x="13" y="434.0176">"Package: Create Docker images"</text><text fill="#000000" font-family="sans-serif" font-size="14" lengthAdjust="spacing" textLength="276.0693" x="13" y="451.627">"Deploy: Deploy to respective environments"</text><line style="stroke:#181818;stroke-width:0.5;" x1="8" x2="395.1934" y1="458.7031" y2="458.7031"/></g><!--class ENVS--><g id="elem_ENVS"><rect codeLine="17" fill="#F1F1F1" height="136.0469" id="ENVS" rx="2.5" ry="2.5" style="stroke:#181818;stroke-width:0.5;" width="191.5664" x="329.5" y="45.6094"/><ellipse cx="378.2368" cy="61.6094" fill="#ADD1B2" rx="11" ry="11" style="stroke:#181818;stroke-width:1.0;"/><path d="M381.0024,57.4844 Q381.1587,57.2656 381.3462,57.1563 Q381.5337,57.0469 381.7524,57.0469 Q382.1274,57.0469 382.3618,57.3125 Q382.5962,57.5625 382.5962,58.1719 L382.5962,59.625 Q382.5962,60.2344 382.3618,60.5 Q382.1274,60.7656 381.7524,60.7656 Q381.4087,60.7656 381.2056,60.5625 Q381.0024,60.375 380.8931,59.8594 Q380.8462,59.5 380.6587,59.3125 Q380.3306,58.9375 379.7212,58.7188 Q379.1118,58.5 378.4868,58.5 Q377.7212,58.5 377.0806,58.8281 Q376.4556,59.1563 375.9556,59.9063 Q375.4712,60.6563 375.4712,61.6875 L375.4712,62.7813 Q375.4712,64.0156 376.3618,64.8438 Q377.2524,65.6563 378.8462,65.6563 Q379.7837,65.6563 380.4399,65.4063 Q380.8306,65.25 381.2524,64.8125 Q381.5181,64.5469 381.6587,64.4688 Q381.8149,64.3906 382.0181,64.3906 Q382.3462,64.3906 382.5962,64.6563 Q382.8618,64.9063 382.8618,65.25 Q382.8618,65.5938 382.5181,66 Q382.0181,66.5781 381.2212,66.9063 Q380.1431,67.3594 378.8462,67.3594 Q377.3306,67.3594 376.1274,66.7344 Q375.1431,66.2344 374.4556,65.1719 Q373.7681,64.0938 373.7681,62.8125 L373.7681,61.6563 Q373.7681,60.3281 374.3774,59.1875 Q375.0024,58.0313 376.0962,57.4219 Q377.1899,56.7969 378.4243,56.7969 Q379.1587,56.7969 379.7993,56.9688 Q380.4556,57.125 381.0024,57.4844 Z " fill="#000000"/><text fill="#000000" font-family="sans-serif" font-size="14" lengthAdjust="spacing" textLength="85.5928" x="398.7368" y="67.3379">Environments</text><line style="stroke:#181818;stroke-width:0.5;" x1="330.5" x2="520.0664" y1="77.6094" y2="77.6094"/><text fill="#000000" font-family="sans-serif" font-size="14" lengthAdjust="spacing" textLength="179.5664" x="335.5" y="96.1426">class "Development" as DEV</text><text fill="#000000" font-family="sans-serif" font-size="14" lengthAdjust="spacing" textLength="149.9805" x="335.5" y="113.752">class "Testing" as TEST</text><text fill="#000000" font-family="sans-serif" font-size="14" lengthAdjust="spacing" textLength="163.2285" x="335.5" y="131.3613">class "Staging" as STAGE</text><text fill="#000000" font-family="sans-serif" font-size="14" lengthAdjust="spacing" textLength="124.291" x="335.5" y="148.9707">class "UAT" as UAT</text><text fill="#000000" font-family="sans-serif" font-size="14" lengthAdjust="spacing" textLength="175.6699" x="335.5" y="166.5801">class "Production" as PROD</text><line style="stroke:#181818;stroke-width:0.5;" x1="330.5" x2="520.0664" y1="173.6563" y2="173.6563"/></g><!--class DEV--><g id="elem_DEV"><rect fill="#F1F1F1" height="65.6094" id="DEV" rx="2.5" ry="2.5" style="stroke:#181818;stroke-width:0.5;" width="186.9111" x="108" y="544.6094"/><ellipse cx="182.8125" cy="560.6094" fill="#ADD1B2" rx="11" ry="11" style="stroke:#181818;stroke-width:1.0;"/><path d="M185.5781,556.4844 Q185.7344,556.2656 185.9219,556.1563 Q186.1094,556.0469 186.3281,556.0469 Q186.7031,556.0469 186.9375,556.3125 Q187.1719,556.5625 187.1719,557.1719 L187.1719,558.625 Q187.1719,559.2344 186.9375,559.5 Q186.7031,559.7656 186.3281,559.7656 Q185.9844,559.7656 185.7813,559.5625 Q185.5781,559.375 185.4688,558.8594 Q185.4219,558.5 185.2344,558.3125 Q184.9063,557.9375 184.2969,557.7188 Q183.6875,557.5 183.0625,557.5 Q182.2969,557.5 181.6563,557.8281 Q181.0313,558.1563 180.5313,558.9063 Q180.0469,559.6563 180.0469,560.6875 L180.0469,561.7813 Q180.0469,563.0156 180.9375,563.8438 Q181.8281,564.6563 183.4219,564.6563 Q184.3594,564.6563 185.0156,564.4063 Q185.4063,564.25 185.8281,563.8125 Q186.0938,563.5469 186.2344,563.4688 Q186.3906,563.3906 186.5938,563.3906 Q186.9219,563.3906 187.1719,563.6563 Q187.4375,563.9063 187.4375,564.25 Q187.4375,564.5938 187.0938,565 Q186.5938,565.5781 185.7969,565.9063 Q184.7188,566.3594 183.4219,566.3594 Q181.9063,566.3594 180.7031,565.7344 Q179.7188,565.2344 179.0313,564.1719 Q178.3438,563.0938 178.3438,561.8125 L178.3438,560.6563 Q178.3438,559.3281 178.9531,558.1875 Q179.5781,557.0313 180.6719,556.4219 Q181.7656,555.7969 183,555.7969 Q183.7344,555.7969 184.375,555.9688 Q185.0313,556.125 185.5781,556.4844 Z " fill="#000000"/><text fill="#000000" font-family="sans-serif" font-size="14" lengthAdjust="spacing" textLength="28.7861" x="203.3125" y="566.3379">DEV</text><line style="stroke:#181818;stroke-width:0.5;" x1="109" x2="293.9111" y1="576.6094" y2="576.6094"/><text fill="#000000" font-family="sans-serif" font-size="14" lengthAdjust="spacing" textLength="174.9111" x="114" y="595.1426">"Development Environment"</text><line style="stroke:#181818;stroke-width:0.5;" x1="109" x2="293.9111" y1="602.2188" y2="602.2188"/></g><!--class TEST--><g id="elem_TEST"><rect fill="#F1F1F1" height="65.6094" id="TEST" rx="2.5" ry="2.5" style="stroke:#181818;stroke-width:0.5;" width="150.332" x="126.5" y="688.6094"/><ellipse cx="179.5264" cy="704.6094" fill="#ADD1B2" rx="11" ry="11" style="stroke:#181818;stroke-width:1.0;"/><path d="M182.292,700.4844 Q182.4482,700.2656 182.6357,700.1563 Q182.8232,700.0469 183.042,700.0469 Q183.417,700.0469 183.6514,700.3125 Q183.8857,700.5625 183.8857,701.1719 L183.8857,702.625 Q183.8857,703.2344 183.6514,703.5 Q183.417,703.7656 183.042,703.7656 Q182.6982,703.7656 182.4951,703.5625 Q182.292,703.375 182.1826,702.8594 Q182.1357,702.5 181.9482,702.3125 Q181.6201,701.9375 181.0107,701.7188 Q180.4014,701.5 179.7764,701.5 Q179.0107,701.5 178.3701,701.8281 Q177.7451,702.1563 177.2451,702.9063 Q176.7607,703.6563 176.7607,704.6875 L176.7607,705.7813 Q176.7607,707.0156 177.6514,707.8438 Q178.542,708.6563 180.1357,708.6563 Q181.0732,708.6563 181.7295,708.4063 Q182.1201,708.25 182.542,707.8125 Q182.8076,707.5469 182.9482,707.4688 Q183.1045,707.3906 183.3076,707.3906 Q183.6357,707.3906 183.8857,707.6563 Q184.1514,707.9063 184.1514,708.25 Q184.1514,708.5938 183.8076,709 Q183.3076,709.5781 182.5107,709.9063 Q181.4326,710.3594 180.1357,710.3594 Q178.6201,710.3594 177.417,709.7344 Q176.4326,709.2344 175.7451,708.1719 Q175.0576,707.0938 175.0576,705.8125 L175.0576,704.6563 Q175.0576,703.3281 175.667,702.1875 Q176.292,701.0313 177.3857,700.4219 Q178.4795,699.7969 179.7139,699.7969 Q180.4482,699.7969 181.0889,699.9688 Q181.7451,700.125 182.292,700.4844 Z " fill="#000000"/><text fill="#000000" font-family="sans-serif" font-size="14" lengthAdjust="spacing" textLength="35.7793" x="200.0264" y="710.3379">TEST</text><line style="stroke:#181818;stroke-width:0.5;" x1="127.5" x2="275.832" y1="720.6094" y2="720.6094"/><text fill="#000000" font-family="sans-serif" font-size="14" lengthAdjust="spacing" textLength="138.332" x="132.5" y="739.1426">"Testing Environment"</text><line style="stroke:#181818;stroke-width:0.5;" x1="127.5" x2="275.832" y1="746.2188" y2="746.2188"/></g><!--class STAGE--><g id="elem_STAGE"><rect fill="#F1F1F1" height="65.6094" id="STAGE" rx="2.5" ry="2.5" style="stroke:#181818;stroke-width:0.5;" width="151.9043" x="125.5" y="832.6094"/><ellipse cx="173.4746" cy="848.6094" fill="#ADD1B2" rx="11" ry="11" style="stroke:#181818;stroke-width:1.0;"/><path d="M176.2402,844.4844 Q176.3965,844.2656 176.584,844.1563 Q176.7715,844.0469 176.9902,844.0469 Q177.3652,844.0469 177.5996,844.3125 Q177.834,844.5625 177.834,845.1719 L177.834,846.625 Q177.834,847.2344 177.5996,847.5 Q177.3652,847.7656 176.9902,847.7656 Q176.6465,847.7656 176.4434,847.5625 Q176.2402,847.375 176.1309,846.8594 Q176.084,846.5 175.8965,846.3125 Q175.5684,845.9375 174.959,845.7188 Q174.3496,845.5 173.7246,845.5 Q172.959,845.5 172.3184,845.8281 Q171.6934,846.1563 171.1934,846.9063 Q170.709,847.6563 170.709,848.6875 L170.709,849.7813 Q170.709,851.0156 171.5996,851.8438 Q172.4902,852.6563 174.084,852.6563 Q175.0215,852.6563 175.6777,852.4063 Q176.0684,852.25 176.4902,851.8125 Q176.7559,851.5469 176.8965,851.4688 Q177.0527,851.3906 177.2559,851.3906 Q177.584,851.3906 177.834,851.6563 Q178.0996,851.9063 178.0996,852.25 Q178.0996,852.5938 177.7559,853 Q177.2559,853.5781 176.459,853.9063 Q175.3809,854.3594 174.084,854.3594 Q172.5684,854.3594 171.3652,853.7344 Q170.3809,853.2344 169.6934,852.1719 Q169.0059,851.0938 169.0059,849.8125 L169.0059,848.6563 Q169.0059,847.3281 169.6152,846.1875 Q170.2402,845.0313 171.334,844.4219 Q172.4277,843.7969 173.6621,843.7969 Q174.3965,843.7969 175.0371,843.9688 Q175.6934,844.125 176.2402,844.4844 Z " fill="#000000"/><text fill="#000000" font-family="sans-serif" font-size="14" lengthAdjust="spacing" textLength="47.4551" x="193.9746" y="854.3379">STAGE</text><line style="stroke:#181818;stroke-width:0.5;" x1="126.5" x2="276.4043" y1="864.6094" y2="864.6094"/><text fill="#000000" font-family="sans-serif" font-size="14" lengthAdjust="spacing" textLength="139.9043" x="131.5" y="883.1426">"Staging Environment"</text><line style="stroke:#181818;stroke-width:0.5;" x1="126.5" x2="276.4043" y1="890.2188" y2="890.2188"/></g><!--class UAT--><g id="elem_UAT"><rect fill="#F1F1F1" height="65.6094" id="UAT" rx="2.5" ry="2.5" style="stroke:#181818;stroke-width:0.5;" width="260.8281" x="71" y="976.6094"/><ellipse cx="183.1641" cy="992.6094" fill="#ADD1B2" rx="11" ry="11" style="stroke:#181818;stroke-width:1.0;"/><path d="M185.9297,988.4844 Q186.0859,988.2656 186.2734,988.1563 Q186.4609,988.0469 186.6797,988.0469 Q187.0547,988.0469 187.2891,988.3125 Q187.5234,988.5625 187.5234,989.1719 L187.5234,990.625 Q187.5234,991.2344 187.2891,991.5 Q187.0547,991.7656 186.6797,991.7656 Q186.3359,991.7656 186.1328,991.5625 Q185.9297,991.375 185.8203,990.8594 Q185.7734,990.5 185.5859,990.3125 Q185.2578,989.9375 184.6484,989.7188 Q184.0391,989.5 183.4141,989.5 Q182.6484,989.5 182.0078,989.8281 Q181.3828,990.1563 180.8828,990.9063 Q180.3984,991.6563 180.3984,992.6875 L180.3984,993.7813 Q180.3984,995.0156 181.2891,995.8438 Q182.1797,996.6563 183.7734,996.6563 Q184.7109,996.6563 185.3672,996.4063 Q185.7578,996.25 186.1797,995.8125 Q186.4453,995.5469 186.5859,995.4688 Q186.7422,995.3906 186.9453,995.3906 Q187.2734,995.3906 187.5234,995.6563 Q187.7891,995.9063 187.7891,996.25 Q187.7891,996.5938 187.4453,997 Q186.9453,997.5781 186.1484,997.9063 Q185.0703,998.3594 183.7734,998.3594 Q182.2578,998.3594 181.0547,997.7344 Q180.0703,997.2344 179.3828,996.1719 Q178.6953,995.0938 178.6953,993.8125 L178.6953,992.6563 Q178.6953,991.3281 179.3047,990.1875 Q179.9297,989.0313 181.0234,988.4219 Q182.1172,987.7969 183.3516,987.7969 Q184.0859,987.7969 184.7266,987.9688 Q185.3828,988.125 185.9297,988.4844 Z " fill="#000000"/><text fill="#000000" font-family="sans-serif" font-size="14" lengthAdjust="spacing" textLength="28" x="203.6641" y="998.3379">UAT</text><line style="stroke:#181818;stroke-width:0.5;" x1="72" x2="330.8281" y1="1008.6094" y2="1008.6094"/><text fill="#000000" font-family="sans-serif" font-size="14" lengthAdjust="spacing" textLength="248.8281" x="77" y="1027.1426">"User Acceptance Testing Environment"</text><line style="stroke:#181818;stroke-width:0.5;" x1="72" x2="330.8281" y1="1034.2188" y2="1034.2188"/></g><!--class PROD--><g id="elem_PROD"><rect fill="#F1F1F1" height="65.6094" id="PROD" rx="2.5" ry="2.5" style="stroke:#181818;stroke-width:0.5;" width="171.3525" x="116" y="1120.6094"/><ellipse cx="177.2021" cy="1136.6094" fill="#ADD1B2" rx="11" ry="11" style="stroke:#181818;stroke-width:1.0;"/><path d="M179.9678,1132.4844 Q180.124,1132.2656 180.3115,1132.1563 Q180.499,1132.0469 180.7178,1132.0469 Q181.0928,1132.0469 181.3271,1132.3125 Q181.5615,1132.5625 181.5615,1133.1719 L181.5615,1134.625 Q181.5615,1135.2344 181.3271,1135.5 Q181.0928,1135.7656 180.7178,1135.7656 Q180.374,1135.7656 180.1709,1135.5625 Q179.9678,1135.375 179.8584,1134.8594 Q179.8115,1134.5 179.624,1134.3125 Q179.2959,1133.9375 178.6865,1133.7188 Q178.0771,1133.5 177.4521,1133.5 Q176.6865,1133.5 176.0459,1133.8281 Q175.4209,1134.1563 174.9209,1134.9063 Q174.4365,1135.6563 174.4365,1136.6875 L174.4365,1137.7813 Q174.4365,1139.0156 175.3271,1139.8438 Q176.2178,1140.6563 177.8115,1140.6563 Q178.749,1140.6563 179.4053,1140.4063 Q179.7959,1140.25 180.2178,1139.8125 Q180.4834,1139.5469 180.624,1139.4688 Q180.7803,1139.3906 180.9834,1139.3906 Q181.3115,1139.3906 181.5615,1139.6563 Q181.8271,1139.9063 181.8271,1140.25 Q181.8271,1140.5938 181.4834,1141 Q180.9834,1141.5781 180.1865,1141.9063 Q179.1084,1142.3594 177.8115,1142.3594 Q176.2959,1142.3594 175.0928,1141.7344 Q174.1084,1141.2344 173.4209,1140.1719 Q172.7334,1139.0938 172.7334,1137.8125 L172.7334,1136.6563 Q172.7334,1135.3281 173.3428,1134.1875 Q173.9678,1133.0313 175.0615,1132.4219 Q176.1553,1131.7969 177.3896,1131.7969 Q178.124,1131.7969 178.7646,1131.9688 Q179.4209,1132.125 179.9678,1132.4844 Z " fill="#000000"/><text fill="#000000" font-family="sans-serif" font-size="14" lengthAdjust="spacing" textLength="40.4482" x="197.7021" y="1142.3379">PROD</text><line style="stroke:#181818;stroke-width:0.5;" x1="117" x2="286.3525" y1="1152.6094" y2="1152.6094"/><text fill="#000000" font-family="sans-serif" font-size="14" lengthAdjust="spacing" textLength="159.3525" x="122" y="1171.1426">"Production Environment"</text><line style="stroke:#181818;stroke-width:0.5;" x1="117" x2="286.3525" y1="1178.2188" y2="1178.2188"/></g><g id="elem_GMN16"><path d="M431,300.6094 L431,350.6094 L396.09,354.6094 L431,358.6094 L431,408.7188 A0,0 0 0 0 431,408.7188 L781.5322,408.7188 A0,0 0 0 0 781.5322,408.7188 L781.5322,310.6094 L771.5322,300.6094 L431,300.6094 A0,0 0 0 0 431,300.6094 " fill="#FEFFDD" style="stroke:#181818;stroke-width:0.5;"/><path d="M771.5322,300.6094 L771.5322,310.6094 L781.5322,310.6094 L771.5322,300.6094 " fill="#FEFFDD" style="stroke:#181818;stroke-width:0.5;"/><text fill="#000000" font-family="sans-serif" font-size="13" lengthAdjust="spacing" textLength="214.6206" x="437" y="319.1045">- Automated build and test processes</text><text fill="#000000" font-family="sans-serif" font-size="13" lengthAdjust="spacing" textLength="248.5869" x="437" y="335.4561">- Security scans integrated into the pipeline</text><text fill="#000000" font-family="sans-serif" font-size="13" lengthAdjust="spacing" textLength="247.8125" x="437" y="351.8076">- Docker images stored in a secure registry</text><text fill="#000000" font-family="sans-serif" font-size="13" lengthAdjust="spacing" textLength="260.8696" x="437" y="368.1592">- Kubernetes used for container orchestration</text><text fill="#000000" font-family="sans-serif" font-size="13" lengthAdjust="spacing" textLength="212.3989" x="437" y="384.5107">- Terraform for infrastructure as code</text><text fill="#000000" font-family="sans-serif" font-size="13" lengthAdjust="spacing" textLength="329.5322" x="437" y="400.8623">- Approval gates before deploying to UAT and Production</text></g><g id="elem_GMN19"><path d="M330,548.1094 L330,573.6094 L295.07,577.6094 L330,581.6094 L330,607.1641 A0,0 0 0 0 330,607.1641 L544.667,607.1641 A0,0 0 0 0 544.667,607.1641 L544.667,558.1094 L534.667,548.1094 L330,548.1094 A0,0 0 0 0 330,548.1094 " fill="#FEFFDD" style="stroke:#181818;stroke-width:0.5;"/><path d="M534.667,548.1094 L534.667,558.1094 L544.667,558.1094 L534.667,548.1094 " fill="#FEFFDD" style="stroke:#181818;stroke-width:0.5;"/><text fill="#000000" font-family="sans-serif" font-size="13" lengthAdjust="spacing" textLength="138.0298" x="336" y="566.6045">- Continuous integration</text><text fill="#000000" font-family="sans-serif" font-size="13" lengthAdjust="spacing" textLength="193.667" x="336" y="582.9561">- Developers push code to GitLab</text><text fill="#000000" font-family="sans-serif" font-size="13" lengthAdjust="spacing" textLength="164.7598" x="336" y="599.3076">- Automated builds and tests</text></g><g id="elem_GMN22"><path d="M311.5,700.1094 L311.5,717.6094 L276.74,721.6094 L311.5,725.6094 L311.5,742.8125 A0,0 0 0 0 311.5,742.8125 L503.0234,742.8125 A0,0 0 0 0 503.0234,742.8125 L503.0234,710.1094 L493.0234,700.1094 L311.5,700.1094 A0,0 0 0 0 311.5,700.1094 " fill="#FEFFDD" style="stroke:#181818;stroke-width:0.5;"/><path d="M493.0234,700.1094 L493.0234,710.1094 L503.0234,710.1094 L493.0234,700.1094 " fill="#FEFFDD" style="stroke:#181818;stroke-width:0.5;"/><text fill="#000000" font-family="sans-serif" font-size="13" lengthAdjust="spacing" textLength="112.728" x="317.5" y="718.6045">- Automated testing</text><text fill="#000000" font-family="sans-serif" font-size="13" lengthAdjust="spacing" textLength="170.5234" x="317.5" y="734.9561">- Integration and system tests</text></g><g id="elem_GMN25"><path d="M313,844.1094 L313,861.6094 L277.74,865.6094 L313,869.6094 L313,886.8125 A0,0 0 0 0 313,886.8125 L511.7661,886.8125 A0,0 0 0 0 511.7661,886.8125 L511.7661,854.1094 L501.7661,844.1094 L313,844.1094 A0,0 0 0 0 313,844.1094 " fill="#FEFFDD" style="stroke:#181818;stroke-width:0.5;"/><path d="M501.7661,844.1094 L501.7661,854.1094 L511.7661,854.1094 L501.7661,844.1094 " fill="#FEFFDD" style="stroke:#181818;stroke-width:0.5;"/><text fill="#000000" font-family="sans-serif" font-size="13" lengthAdjust="spacing" textLength="168.3589" x="319" y="862.6045">- Pre-production environment</text><text fill="#000000" font-family="sans-serif" font-size="13" lengthAdjust="spacing" textLength="177.7661" x="319" y="878.9561">- Performance and load testing</text></g><g id="elem_GMN28"><path d="M367.5,988.1094 L367.5,1005.6094 L332.31,1009.6094 L367.5,1013.6094 L367.5,1030.8125 A0,0 0 0 0 367.5,1030.8125 L679.0132,1030.8125 A0,0 0 0 0 679.0132,1030.8125 L679.0132,998.1094 L669.0132,988.1094 L367.5,988.1094 A0,0 0 0 0 367.5,988.1094 " fill="#FEFFDD" style="stroke:#181818;stroke-width:0.5;"/><path d="M669.0132,988.1094 L669.0132,998.1094 L679.0132,998.1094 L669.0132,988.1094 " fill="#FEFFDD" style="stroke:#181818;stroke-width:0.5;"/><text fill="#000000" font-family="sans-serif" font-size="13" lengthAdjust="spacing" textLength="147.4053" x="373.5" y="1006.6045">- User acceptance testing</text><text fill="#000000" font-family="sans-serif" font-size="13" lengthAdjust="spacing" textLength="290.5132" x="373.5" y="1022.9561">- Approval required before deploying to Production</text></g><g id="elem_GMN31"><path d="M322,1124.1094 L322,1149.6094 L287.23,1153.6094 L322,1157.6094 L322,1183.1641 A0,0 0 0 0 322,1183.1641 L552.5679,1183.1641 A0,0 0 0 0 552.5679,1183.1641 L552.5679,1134.1094 L542.5679,1124.1094 L322,1124.1094 A0,0 0 0 0 322,1124.1094 " fill="#FEFFDD" style="stroke:#181818;stroke-width:0.5;"/><path d="M542.5679,1124.1094 L542.5679,1134.1094 L552.5679,1134.1094 L542.5679,1124.1094 " fill="#FEFFDD" style="stroke:#181818;stroke-width:0.5;"/><text fill="#000000" font-family="sans-serif" font-size="13" lengthAdjust="spacing" textLength="145.2407" x="328" y="1142.6045">- Production environment</text><text fill="#000000" font-family="sans-serif" font-size="13" lengthAdjust="spacing" textLength="183.5298" x="328" y="1158.9561">- High availability and scalability</text><text fill="#000000" font-family="sans-serif" font-size="13" lengthAdjust="spacing" textLength="209.5679" x="328" y="1175.3076">- Continuous monitoring and alerting</text></g><!--link SCM to CICD--><g id="link_SCM_CICD"><path codeLine="25" d="M201.5,146.8394 C201.5,171.6894 201.5,201.5994 201.5,236.5494 " fill="none" id="SCM-to-CICD" style="stroke:#181818;stroke-width:1.0;"/><polygon fill="#181818" points="201.5,242.5494,205.5,233.5494,201.5,237.5494,197.5,233.5494,201.5,242.5494" style="stroke:#181818;stroke-width:1.0;"/></g><!--link CICD to DEV--><g id="link_CICD_DEV"><path codeLine="26" d="M201.5,466.7594 C201.5,495.1294 201.5,517.4494 201.5,538.2294 " fill="none" id="CICD-to-DEV" style="stroke:#181818;stroke-width:1.0;"/><polygon fill="#181818" points="201.5,544.2294,205.5,535.2294,201.5,539.2294,197.5,535.2294,201.5,544.2294" style="stroke:#181818;stroke-width:1.0;"/><text fill="#000000" font-family="sans-serif" font-size="13" lengthAdjust="spacing" textLength="40.4663" x="202.5" y="511.1045">Deploy</text></g><!--link DEV to TEST--><g id="link_DEV_TEST"><path codeLine="27" d="M201.5,610.8294 C201.5,634.0694 201.5,659.3094 201.5,682.5194 " fill="none" id="DEV-to-TEST" style="stroke:#181818;stroke-width:1.0;"/><polygon fill="#181818" points="201.5,688.5194,205.5,679.5194,201.5,683.5194,197.5,679.5194,201.5,688.5194" style="stroke:#181818;stroke-width:1.0;"/><text fill="#000000" font-family="sans-serif" font-size="13" lengthAdjust="spacing" textLength="40.4663" x="202.5" y="655.1045">Deploy</text></g><!--link TEST to STAGE--><g id="link_TEST_STAGE"><path codeLine="28" d="M201.5,754.8294 C201.5,778.0694 201.5,803.3094 201.5,826.5194 " fill="none" id="TEST-to-STAGE" style="stroke:#181818;stroke-width:1.0;"/><polygon fill="#181818" points="201.5,832.5194,205.5,823.5194,201.5,827.5194,197.5,823.5194,201.5,832.5194" style="stroke:#181818;stroke-width:1.0;"/><text fill="#000000" font-family="sans-serif" font-size="13" lengthAdjust="spacing" textLength="40.4663" x="202.5" y="799.1045">Deploy</text></g><!--link STAGE to UAT--><g id="link_STAGE_UAT"><path codeLine="29" d="M201.5,898.8294 C201.5,922.0694 201.5,947.3094 201.5,970.5194 " fill="none" id="STAGE-to-UAT" style="stroke:#181818;stroke-width:1.0;"/><polygon fill="#181818" points="201.5,976.5194,205.5,967.5194,201.5,971.5194,197.5,967.5194,201.5,976.5194" style="stroke:#181818;stroke-width:1.0;"/><text fill="#000000" font-family="sans-serif" font-size="13" lengthAdjust="spacing" textLength="40.4663" x="202.5" y="943.1045">Deploy</text></g><!--link UAT to PROD--><g id="link_UAT_PROD"><path codeLine="30" d="M201.5,1042.8294 C201.5,1066.0694 201.5,1091.3094 201.5,1114.5194 " fill="none" id="UAT-to-PROD" style="stroke:#181818;stroke-width:1.0;"/><polygon fill="#181818" points="201.5,1120.5194,205.5,1111.5194,201.5,1115.5194,197.5,1111.5194,201.5,1120.5194" style="stroke:#181818;stroke-width:1.0;"/><text fill="#000000" font-family="sans-serif" font-size="13" lengthAdjust="spacing" textLength="40.4663" x="202.5" y="1087.1045">Deploy</text></g><!--SRC=[ZLN1RXen4BtlLqovezw9L8d0AesQfYXBSZTc00jZRsql5QhwxvqPu-nkbAWzBUFtF9wPzsm-RN5d7C9JlLZF7-yUQj1MnLXLoIIBiBZ_l5Z2ohHecRNp0MxhHGChgn85fwhgDquQtmLDU_oMyc7heqa-N2QW8ZIBx_2x0hWpwK5jgZ-ZVUD3XB-ufnNUSDiPkwNl6cEYJuEw2oPTeD7AKJnRANrKUxpXtqjihR_SlCbUkxC9tftGfIYvwyUNHd8FI4iye_KjauIph5_613xVkBs0wxfPZz4cgNr1c_NyhXx3p_ErGFGT0wlWjvrEnZl1Lqy_bbmzJskwzR_Sz8jCef9nb1Mg3MQGcwquA03NrICI5KYAwh4S5f3AwY4E2i3rz4YkOWOJqMH6EfzQGnvHRWiRNe9qeAXjhT5AUdhTmTERmLFde7CcoGxZ4kw3y20H77lsIEGPh32mrI2MvKZB4Rf84uValOrWpH6XSPTZd-Hg32epe4e8Iw-F6C2SQ75mLkwjz4Zf861iaJGv8-3GEbML1p_q2WpCDQckyozU6OD5WUALCPebc3n7Ad6kDRP9ERfAxsQwgZ8mpnYldAT-WzaV4lXTDX305EPTyYSQHL6BLU39GnkynXWn2gqPZxdeX2AP5utRwrKL_cYm4EdA2nLK5emgmRs9ALo4_QtRO718vvA0HEGNHNkN5AKBu8C-K4NP5i9VOmXAv6UcSRkW2AUsEJDT6KsFJUwkfJREoi9USV8D4XzXAx9ceuZFkUb-S1LIoEDwExHy_wVaSKS2TBwBGyFclhCDC4HektYGIlYKwnFtpiJZwyZZXmTVtvRXtfHD8AltWrl3oU8b9Zpz8sTvaQRKEKxRtZO3VsSutpIn7cUtNlN7VvGzFsfJ4E-gthl3ib_52VYpCsoGz_Jv3rtaXSoTVDZ5LoA3EYjZrSPOTh9CIgiIlrNsv1t_Kt4Lp5GMmxZZlm00]--></g></svg>