<svg xmlns="http://www.w3.org/2000/svg" xmlns:xlink="http://www.w3.org/1999/xlink" contentStyleType="text/css" height="1641px" preserveAspectRatio="none" style="width:421px;height:1641px;background:#FFFFFF;" version="1.1" viewBox="0 0 421 1641" width="421px" zoomAndPan="magnify"><title>BECS Client Applications with Comprehensive Compliance</title><defs/><g><text fill="#000000" font-family="sans-serif" font-size="14" font-weight="bold" lengthAdjust="spacing" textLength="393.6201" x="10" y="24.5332">BECS Client Applications with Comprehensive Compliance</text><!--class DonorManagementApp--><g id="elem_DonorManagementApp"><rect codeLine="5" fill="#F1F1F1" height="382.5781" id="DonorManagementApp" rx="2.5" ry="2.5" style="stroke:#181818;stroke-width:0.5;" width="337.2266" x="45.1968" y="418.6094"/><ellipse cx="137.1812" cy="434.6094" fill="#ADD1B2" rx="11" ry="11" style="stroke:#181818;stroke-width:1.0;"/><path d="M139.9468,430.4844 Q140.103,430.2656 140.2905,430.1563 Q140.478,430.0469 140.6968,430.0469 Q141.0718,430.0469 141.3062,430.3125 Q141.5405,430.5625 141.5405,431.1719 L141.5405,432.625 Q141.5405,433.2344 141.3062,433.5 Q141.0718,433.7656 140.6968,433.7656 Q140.353,433.7656 140.1499,433.5625 Q139.9468,433.375 139.8374,432.8594 Q139.7905,432.5 139.603,432.3125 Q139.2749,431.9375 138.6655,431.7188 Q138.0562,431.5 137.4312,431.5 Q136.6655,431.5 136.0249,431.8281 Q135.3999,432.1563 134.8999,432.9063 Q134.4155,433.6563 134.4155,434.6875 L134.4155,435.7813 Q134.4155,437.0156 135.3062,437.8438 Q136.1968,438.6563 137.7905,438.6563 Q138.728,438.6563 139.3843,438.4063 Q139.7749,438.25 140.1968,437.8125 Q140.4624,437.5469 140.603,437.4688 Q140.7593,437.3906 140.9624,437.3906 Q141.2905,437.3906 141.5405,437.6563 Q141.8062,437.9063 141.8062,438.25 Q141.8062,438.5938 141.4624,439 Q140.9624,439.5781 140.1655,439.9063 Q139.0874,440.3594 137.7905,440.3594 Q136.2749,440.3594 135.0718,439.7344 Q134.0874,439.2344 133.3999,438.1719 Q132.7124,437.0938 132.7124,435.8125 L132.7124,434.6563 Q132.7124,433.3281 133.3218,432.1875 Q133.9468,431.0313 135.0405,430.4219 Q136.1343,429.7969 137.3687,429.7969 Q138.103,429.7969 138.7437,429.9688 Q139.3999,430.125 139.9468,430.4844 Z " fill="#000000"/><text fill="#000000" font-family="sans-serif" font-size="14" lengthAdjust="spacing" textLength="144.7578" x="157.6812" y="440.3379">DonorManagementApp</text><line style="stroke:#181818;stroke-width:0.5;" x1="46.1968" x2="381.4233" y1="450.6094" y2="450.6094"/><text fill="#000000" font-family="sans-serif" font-size="14" lengthAdjust="spacing" textLength="59.1377" x="51.1968" y="469.1426">Features:</text><text fill="#000000" font-family="sans-serif" font-size="14" lengthAdjust="spacing" textLength="87.917" x="51.1968" y="486.752">-- Registration</text><text fill="#000000" font-family="sans-serif" font-size="14" lengthAdjust="spacing" textLength="82.4893" x="51.1968" y="504.3613">-- Scheduling</text><text fill="#000000" font-family="sans-serif" font-size="14" lengthAdjust="spacing" textLength="114.3447" x="51.1968" y="521.9707">-- History Tracking</text><text fill="#000000" font-family="sans-serif" font-size="14" lengthAdjust="spacing" textLength="89.4688" x="51.1968" y="539.5801">-- Notifications</text><text fill="#000000" font-family="sans-serif" font-size="14" lengthAdjust="spacing" textLength="133.041" x="51.1968" y="557.1895">-- HIPAA Compliance</text><text fill="#000000" font-family="sans-serif" font-size="14" lengthAdjust="spacing" textLength="107.3652" x="51.1968" y="574.7988">-- NIH Guidelines</text><text fill="#000000" font-family="sans-serif" font-size="14" lengthAdjust="spacing" textLength="123.7305" x="51.1968" y="592.4082">-- State Regulations</text><text fill="#000000" font-family="sans-serif" font-size="14" lengthAdjust="spacing" textLength="3.8896" x="51.1968" y="610.0176">&#160;</text><text fill="#000000" font-family="sans-serif" font-size="14" lengthAdjust="spacing" textLength="83.2686" x="51.1968" y="627.627">Components:</text><text fill="#000000" font-family="sans-serif" font-size="14" lengthAdjust="spacing" textLength="52.876" x="51.1968" y="645.2363">-- Forms</text><text fill="#000000" font-family="sans-serif" font-size="14" lengthAdjust="spacing" textLength="77.0273" x="51.1968" y="662.8457">-- Calendars</text><text fill="#000000" font-family="sans-serif" font-size="14" lengthAdjust="spacing" textLength="88.7031" x="51.1968" y="680.4551">-- Dashboards</text><text fill="#000000" font-family="sans-serif" font-size="14" lengthAdjust="spacing" textLength="89.4688" x="51.1968" y="698.0645">-- Notifications</text><text fill="#000000" font-family="sans-serif" font-size="14" lengthAdjust="spacing" textLength="150.1855" x="51.1968" y="715.6738">-- Secure Data Handling</text><text fill="#000000" font-family="sans-serif" font-size="14" lengthAdjust="spacing" textLength="150.9648" x="51.1968" y="733.2832">-- Consent Management</text><text fill="#000000" font-family="sans-serif" font-size="14" lengthAdjust="spacing" textLength="112.8203" x="51.1968" y="750.8926">-- Data Encryption</text><line style="stroke:#181818;stroke-width:0.5;" x1="46.1968" x2="381.4233" y1="757.9688" y2="757.9688"/><text fill="#000000" font-family="sans-serif" font-size="14" lengthAdjust="spacing" textLength="325.2266" x="51.1968" y="776.502">-- Electronic Records &amp; Signatures (21 CFR Part 11)</text><text fill="#000000" font-family="sans-serif" font-size="14" lengthAdjust="spacing" textLength="218.627" x="51.1968" y="794.1113">-- GDPR Compliance (if applicable)</text></g><!--class InventoryManagementApp--><g id="elem_InventoryManagementApp"><rect codeLine="27" fill="#F1F1F1" height="364.9688" id="InventoryManagementApp" rx="2.5" ry="2.5" style="stroke:#181818;stroke-width:0.5;" width="324.792" x="51.1968" y="879.6094"/><ellipse cx="127.2363" cy="895.6094" fill="#ADD1B2" rx="11" ry="11" style="stroke:#181818;stroke-width:1.0;"/><path d="M130.002,891.4844 Q130.1582,891.2656 130.3457,891.1563 Q130.5332,891.0469 130.752,891.0469 Q131.127,891.0469 131.3613,891.3125 Q131.5957,891.5625 131.5957,892.1719 L131.5957,893.625 Q131.5957,894.2344 131.3613,894.5 Q131.127,894.7656 130.752,894.7656 Q130.4082,894.7656 130.2051,894.5625 Q130.002,894.375 129.8926,893.8594 Q129.8457,893.5 129.6582,893.3125 Q129.3301,892.9375 128.7207,892.7188 Q128.1113,892.5 127.4863,892.5 Q126.7207,892.5 126.0801,892.8281 Q125.4551,893.1563 124.9551,893.9063 Q124.4707,894.6563 124.4707,895.6875 L124.4707,896.7813 Q124.4707,898.0156 125.3613,898.8438 Q126.252,899.6563 127.8457,899.6563 Q128.7832,899.6563 129.4395,899.4063 Q129.8301,899.25 130.252,898.8125 Q130.5176,898.5469 130.6582,898.4688 Q130.8145,898.3906 131.0176,898.3906 Q131.3457,898.3906 131.5957,898.6563 Q131.8613,898.9063 131.8613,899.25 Q131.8613,899.5938 131.5176,900 Q131.0176,900.5781 130.2207,900.9063 Q129.1426,901.3594 127.8457,901.3594 Q126.3301,901.3594 125.127,900.7344 Q124.1426,900.2344 123.4551,899.1719 Q122.7676,898.0938 122.7676,896.8125 L122.7676,895.6563 Q122.7676,894.3281 123.377,893.1875 Q124.002,892.0313 125.0957,891.4219 Q126.1895,890.7969 127.4238,890.7969 Q128.1582,890.7969 128.7988,890.9688 Q129.4551,891.125 130.002,891.4844 Z " fill="#000000"/><text fill="#000000" font-family="sans-serif" font-size="14" lengthAdjust="spacing" textLength="164.2129" x="147.7363" y="901.3379">InventoryManagementApp</text><line style="stroke:#181818;stroke-width:0.5;" x1="52.1968" x2="374.9888" y1="911.6094" y2="911.6094"/><text fill="#000000" font-family="sans-serif" font-size="14" lengthAdjust="spacing" textLength="59.1377" x="57.1968" y="930.1426">Features:</text><text fill="#000000" font-family="sans-serif" font-size="14" lengthAdjust="spacing" textLength="142.3789" x="57.1968" y="947.752">-- Tracking Blood Units</text><text fill="#000000" font-family="sans-serif" font-size="14" lengthAdjust="spacing" textLength="132.2891" x="57.1968" y="965.3613">-- Storage Conditions</text><text fill="#000000" font-family="sans-serif" font-size="14" lengthAdjust="spacing" textLength="115.9307" x="57.1968" y="982.9707">-- Expiration Dates</text><text fill="#000000" font-family="sans-serif" font-size="14" lengthAdjust="spacing" textLength="113.5859" x="57.1968" y="1000.5801">-- CDC Guidelines</text><text fill="#000000" font-family="sans-serif" font-size="14" lengthAdjust="spacing" textLength="119.0547" x="57.1968" y="1018.1895">-- EPA Regulations</text><text fill="#000000" font-family="sans-serif" font-size="14" lengthAdjust="spacing" textLength="124.4824" x="57.1968" y="1035.7988">-- GAMP Guidelines</text><text fill="#000000" font-family="sans-serif" font-size="14" lengthAdjust="spacing" textLength="3.8896" x="57.1968" y="1053.4082">&#160;</text><text fill="#000000" font-family="sans-serif" font-size="14" lengthAdjust="spacing" textLength="83.2686" x="57.1968" y="1071.0176">Components:</text><text fill="#000000" font-family="sans-serif" font-size="14" lengthAdjust="spacing" textLength="55.2344" x="57.1968" y="1088.627">-- Tables</text><text fill="#000000" font-family="sans-serif" font-size="14" lengthAdjust="spacing" textLength="54.4482" x="57.1968" y="1106.2363">-- Charts</text><text fill="#000000" font-family="sans-serif" font-size="14" lengthAdjust="spacing" textLength="49" x="57.1968" y="1123.8457">-- Alerts</text><text fill="#000000" font-family="sans-serif" font-size="14" lengthAdjust="spacing" textLength="51.3242" x="57.1968" y="1141.4551">-- Filters</text><text fill="#000000" font-family="sans-serif" font-size="14" lengthAdjust="spacing" textLength="115.1514" x="57.1968" y="1159.0645">-- Safety Protocols</text><text fill="#000000" font-family="sans-serif" font-size="14" lengthAdjust="spacing" textLength="138.4961" x="57.1968" y="1176.6738">-- Waste Management</text><text fill="#000000" font-family="sans-serif" font-size="14" lengthAdjust="spacing" textLength="158.7236" x="57.1968" y="1194.2832">-- Environmental Controls</text><line style="stroke:#181818;stroke-width:0.5;" x1="52.1968" x2="374.9888" y1="1201.3594" y2="1201.3594"/><text fill="#000000" font-family="sans-serif" font-size="14" lengthAdjust="spacing" textLength="312.792" x="57.1968" y="1219.8926">-- Good Manufacturing Practice (21 CFR Part 606)</text><text fill="#000000" font-family="sans-serif" font-size="14" lengthAdjust="spacing" textLength="252.1299" x="57.1968" y="1237.502">-- Bloodborne Pathogens Safety (OSHA)</text></g><!--class ComplianceAndReportingApp--><g id="elem_ComplianceAndReportingApp"><rect codeLine="48" fill="#F1F1F1" height="312.1406" id="ComplianceAndReportingApp" rx="2.5" ry="2.5" style="stroke:#181818;stroke-width:0.5;" width="257.0889" x="85.1968" y="1322.6094"/><ellipse cx="118.4855" cy="1338.6094" fill="#ADD1B2" rx="11" ry="11" style="stroke:#181818;stroke-width:1.0;"/><path d="M121.2511,1334.4844 Q121.4074,1334.2656 121.5949,1334.1563 Q121.7824,1334.0469 122.0011,1334.0469 Q122.3761,1334.0469 122.6105,1334.3125 Q122.8449,1334.5625 122.8449,1335.1719 L122.8449,1336.625 Q122.8449,1337.2344 122.6105,1337.5 Q122.3761,1337.7656 122.0011,1337.7656 Q121.6574,1337.7656 121.4542,1337.5625 Q121.2511,1337.375 121.1417,1336.8594 Q121.0949,1336.5 120.9074,1336.3125 Q120.5792,1335.9375 119.9699,1335.7188 Q119.3605,1335.5 118.7355,1335.5 Q117.9699,1335.5 117.3292,1335.8281 Q116.7042,1336.1563 116.2042,1336.9063 Q115.7199,1337.6563 115.7199,1338.6875 L115.7199,1339.7813 Q115.7199,1341.0156 116.6105,1341.8438 Q117.5011,1342.6563 119.0949,1342.6563 Q120.0324,1342.6563 120.6886,1342.4063 Q121.0792,1342.25 121.5011,1341.8125 Q121.7667,1341.5469 121.9074,1341.4688 Q122.0636,1341.3906 122.2667,1341.3906 Q122.5949,1341.3906 122.8449,1341.6563 Q123.1105,1341.9063 123.1105,1342.25 Q123.1105,1342.5938 122.7667,1343 Q122.2667,1343.5781 121.4699,1343.9063 Q120.3917,1344.3594 119.0949,1344.3594 Q117.5792,1344.3594 116.3761,1343.7344 Q115.3917,1343.2344 114.7042,1342.1719 Q114.0167,1341.0938 114.0167,1339.8125 L114.0167,1338.6563 Q114.0167,1337.3281 114.6261,1336.1875 Q115.2511,1335.0313 116.3449,1334.4219 Q117.4386,1333.7969 118.673,1333.7969 Q119.4074,1333.7969 120.048,1333.9688 Q120.7042,1334.125 121.2511,1334.4844 Z " fill="#000000"/><text fill="#000000" font-family="sans-serif" font-size="14" lengthAdjust="spacing" textLength="184.4473" x="136.5497" y="1344.3379">ComplianceAndReportingApp</text><line style="stroke:#181818;stroke-width:0.5;" x1="86.1968" x2="341.2856" y1="1354.6094" y2="1354.6094"/><text fill="#000000" font-family="sans-serif" font-size="14" lengthAdjust="spacing" textLength="59.1377" x="91.1968" y="1373.1426">Features:</text><text fill="#000000" font-family="sans-serif" font-size="14" lengthAdjust="spacing" textLength="216.3027" x="91.1968" y="1390.752">-- Regulatory Compliance Tracking</text><text fill="#000000" font-family="sans-serif" font-size="14" lengthAdjust="spacing" textLength="79.3721" x="91.1968" y="1408.3613">-- Audit Logs</text><text fill="#000000" font-family="sans-serif" font-size="14" lengthAdjust="spacing" textLength="73.917" x="91.1968" y="1425.9707">-- Reporting</text><text fill="#000000" font-family="sans-serif" font-size="14" lengthAdjust="spacing" textLength="133.041" x="91.1968" y="1443.5801">-- HIPAA Compliance</text><text fill="#000000" font-family="sans-serif" font-size="14" lengthAdjust="spacing" textLength="3.8896" x="91.1968" y="1461.1895">&#160;</text><text fill="#000000" font-family="sans-serif" font-size="14" lengthAdjust="spacing" textLength="83.2686" x="91.1968" y="1478.7988">Components:</text><text fill="#000000" font-family="sans-serif" font-size="14" lengthAdjust="spacing" textLength="62.2344" x="91.1968" y="1496.4082">-- Reports</text><text fill="#000000" font-family="sans-serif" font-size="14" lengthAdjust="spacing" textLength="43.5723" x="91.1968" y="1514.0176">-- Logs</text><text fill="#000000" font-family="sans-serif" font-size="14" lengthAdjust="spacing" textLength="125.2617" x="91.1968" y="1531.627">-- Data Export Tools</text><text fill="#000000" font-family="sans-serif" font-size="14" lengthAdjust="spacing" textLength="166.5166" x="91.1968" y="1549.2363">-- Compliance Dashboards</text><text fill="#000000" font-family="sans-serif" font-size="14" lengthAdjust="spacing" textLength="142.3926" x="91.1968" y="1566.8457">-- Quality Management</text><text fill="#000000" font-family="sans-serif" font-size="14" lengthAdjust="spacing" textLength="83.2344" x="91.1968" y="1584.4551">-- Audit Trails</text><line style="stroke:#181818;stroke-width:0.5;" x1="86.1968" x2="341.2856" y1="1591.5313" y2="1591.5313"/><text fill="#000000" font-family="sans-serif" font-size="14" lengthAdjust="spacing" textLength="245.0889" x="91.1968" y="1610.0645">-- FDA Regulations (21 CFR Part 1271)</text><text fill="#000000" font-family="sans-serif" font-size="14" lengthAdjust="spacing" textLength="218.627" x="91.1968" y="1627.6738">-- GDPR Compliance (if applicable)</text></g><!--class AppointmentSchedulingApp--><g id="elem_AppointmentSchedulingApp"><rect codeLine="66" fill="#F1F1F1" height="294.5313" id="AppointmentSchedulingApp" rx="2.5" ry="2.5" style="stroke:#181818;stroke-width:0.5;" width="204.792" x="111.1968" y="45.6094"/><ellipse cx="126.1968" cy="61.6094" fill="#ADD1B2" rx="11" ry="11" style="stroke:#181818;stroke-width:1.0;"/><path d="M128.9624,57.4844 Q129.1187,57.2656 129.3062,57.1563 Q129.4937,57.0469 129.7124,57.0469 Q130.0874,57.0469 130.3218,57.3125 Q130.5562,57.5625 130.5562,58.1719 L130.5562,59.625 Q130.5562,60.2344 130.3218,60.5 Q130.0874,60.7656 129.7124,60.7656 Q129.3687,60.7656 129.1655,60.5625 Q128.9624,60.375 128.853,59.8594 Q128.8062,59.5 128.6187,59.3125 Q128.2905,58.9375 127.6812,58.7188 Q127.0718,58.5 126.4468,58.5 Q125.6812,58.5 125.0405,58.8281 Q124.4155,59.1563 123.9155,59.9063 Q123.4312,60.6563 123.4312,61.6875 L123.4312,62.7813 Q123.4312,64.0156 124.3218,64.8438 Q125.2124,65.6563 126.8062,65.6563 Q127.7437,65.6563 128.3999,65.4063 Q128.7905,65.25 129.2124,64.8125 Q129.478,64.5469 129.6187,64.4688 Q129.7749,64.3906 129.978,64.3906 Q130.3062,64.3906 130.5562,64.6563 Q130.8218,64.9063 130.8218,65.25 Q130.8218,65.5938 130.478,66 Q129.978,66.5781 129.1812,66.9063 Q128.103,67.3594 126.8062,67.3594 Q125.2905,67.3594 124.0874,66.7344 Q123.103,66.2344 122.4155,65.1719 Q121.728,64.0938 121.728,62.8125 L121.728,61.6563 Q121.728,60.3281 122.3374,59.1875 Q122.9624,58.0313 124.0562,57.4219 Q125.1499,56.7969 126.3843,56.7969 Q127.1187,56.7969 127.7593,56.9688 Q128.4155,57.125 128.9624,57.4844 Z " fill="#000000"/><text fill="#000000" font-family="sans-serif" font-size="14" lengthAdjust="spacing" textLength="172.792" x="140.1968" y="67.3379">AppointmentSchedulingApp</text><line style="stroke:#181818;stroke-width:0.5;" x1="112.1968" x2="314.9888" y1="77.6094" y2="77.6094"/><text fill="#000000" font-family="sans-serif" font-size="14" lengthAdjust="spacing" textLength="59.1377" x="117.1968" y="96.1426">Features:</text><text fill="#000000" font-family="sans-serif" font-size="14" lengthAdjust="spacing" textLength="82.4893" x="117.1968" y="113.752">-- Scheduling</text><text fill="#000000" font-family="sans-serif" font-size="14" lengthAdjust="spacing" textLength="80.9033" x="117.1968" y="131.3613">-- Reminders</text><text fill="#000000" font-family="sans-serif" font-size="14" lengthAdjust="spacing" textLength="97.2617" x="117.1968" y="148.9707">-- Cancellations</text><text fill="#000000" font-family="sans-serif" font-size="14" lengthAdjust="spacing" textLength="133.041" x="117.1968" y="166.5801">-- HIPAA Compliance</text><text fill="#000000" font-family="sans-serif" font-size="14" lengthAdjust="spacing" textLength="107.3652" x="117.1968" y="184.1895">-- NIH Guidelines</text><text fill="#000000" font-family="sans-serif" font-size="14" lengthAdjust="spacing" textLength="3.8896" x="117.1968" y="201.7988">&#160;</text><text fill="#000000" font-family="sans-serif" font-size="14" lengthAdjust="spacing" textLength="83.2686" x="117.1968" y="219.4082">Components:</text><text fill="#000000" font-family="sans-serif" font-size="14" lengthAdjust="spacing" textLength="77.0273" x="117.1968" y="237.0176">-- Calendars</text><text fill="#000000" font-family="sans-serif" font-size="14" lengthAdjust="spacing" textLength="89.4688" x="117.1968" y="254.627">-- Notifications</text><text fill="#000000" font-family="sans-serif" font-size="14" lengthAdjust="spacing" textLength="52.876" x="117.1968" y="272.2363">-- Forms</text><text fill="#000000" font-family="sans-serif" font-size="14" lengthAdjust="spacing" textLength="150.1855" x="117.1968" y="289.8457">-- Secure Data Handling</text><text fill="#000000" font-family="sans-serif" font-size="14" lengthAdjust="spacing" textLength="150.9648" x="117.1968" y="307.4551">-- Consent Management</text><text fill="#000000" font-family="sans-serif" font-size="14" lengthAdjust="spacing" textLength="112.8203" x="117.1968" y="325.0645">-- Data Encryption</text><line style="stroke:#181818;stroke-width:0.5;" x1="112.1968" x2="314.9888" y1="332.1406" y2="332.1406"/></g><!--link DonorManagementApp to InventoryManagementApp--><g id="link_DonorManagementApp_InventoryManagementApp"><path codeLine="83" d="M213.6968,801.6194 C213.6968,827.3894 213.6968,847.7794 213.6968,873.3894 " fill="none" id="DonorManagementApp-to-InventoryManagementApp" style="stroke:#181818;stroke-width:1.0;"/><polygon fill="#181818" points="213.6968,879.3894,217.6968,870.3894,213.6968,874.3894,209.6968,870.3894,213.6968,879.3894" style="stroke:#181818;stroke-width:1.0;"/><text fill="#000000" font-family="sans-serif" font-size="13" lengthAdjust="spacing" textLength="110.5635" x="214.6968" y="846.1045">Manages Inventory</text></g><!--link InventoryManagementApp to ComplianceAndReportingApp--><g id="link_InventoryManagementApp_ComplianceAndReportingApp"><path codeLine="84" d="M213.6968,1244.6094 C213.6968,1270.5194 213.6968,1290.9694 213.6968,1316.3094 " fill="none" id="InventoryManagementApp-to-ComplianceAndReportingApp" style="stroke:#181818;stroke-width:1.0;"/><polygon fill="#181818" points="213.6968,1322.3094,217.6968,1313.3094,213.6968,1317.3094,209.6968,1313.3094,213.6968,1322.3094" style="stroke:#181818;stroke-width:1.0;"/><text fill="#000000" font-family="sans-serif" font-size="13" lengthAdjust="spacing" textLength="76.5908" x="214.6968" y="1289.1045">Reports Data</text></g><!--link AppointmentSchedulingApp to DonorManagementApp--><g id="link_AppointmentSchedulingApp_DonorManagementApp"><path codeLine="85" d="M213.6968,340.7194 C213.6968,365.9094 213.6968,386.4094 213.6968,412.5594 " fill="none" id="AppointmentSchedulingApp-to-DonorManagementApp" style="stroke:#181818;stroke-width:1.0;"/><polygon fill="#181818" points="213.6968,418.5594,217.6968,409.5594,213.6968,413.5594,209.6968,409.5594,213.6968,418.5594" style="stroke:#181818;stroke-width:1.0;"/><text fill="#000000" font-family="sans-serif" font-size="13" lengthAdjust="spacing" textLength="143.8125" x="214.6968" y="385.1045">Schedules Appointments</text></g><!--SRC=[hLHDZzem4BtdLqml5JqWbJri9GwLiY5yIBlRb53rR981HZKsSXowgEf_xvWu7wImsqCb3jYPUNxptioyot532c4PHwlmUVOOGoP5KGI19IiH7k8eXKWIAWlXuI0f4vQqAk0dsHr4Udymk4DLq17F9qb2PHW4BTn4AssUX19Rt3CAWy2l062AmfO6Yp7mOJY49MwfiEQCNjsasGxpKfBQLkSvVzVc12iZiX_DxREsjAbPLLUnnCmQhIXZr4oRl83taD9MLI_2u6u4qNG9YJ0MHgCF7dwHX66tXWf-COTPIJao3_Juiqcox0J2W3OWActM4ZrSQeL5LrKf6sxySsbQiGvDuLDjzXuu4X9LBem_JaInMsl1_6-MccB69N6a5J0NAc_LYZZ6cTOgNuDoQAmoSpgSfVxTzMgXZXp88h_jL-q2F4YjS_YcoDQS682J7OESkhQy7AZorv5en7JP_5ov4Ha_u10JXhRaXEqQTV_ntajxVd6j3NTj8knERxd_81KRj2SOV4ddeO-B9j5VtiL9s3F5SGYVail8gqwjdBsrLJlcvF-74fl_Kv8MQmCzfyHegpCj_UrtKN1dz7s9rP6uPzs5a4uxxc3EkB2dxRbGvKiyQ6DPhrScofNfHgRJh9VJ4vPi4JpgRL7dU51VpUH2hTxat7rwVNRUdfEhCbSSFA6MMjMuB-uRh7IZPWU_FozVIo69zUzBNHNDGb1VO9PIax8kjDq-j_JjxwSbxadbZVcHuoGl-kmVLynLLNgxuSekw2oI_x8MhYpkuV3phHqnzf156n3S27KejrjvN3V0cLDmqnA7SeNYkFQ5cNHoY-0F]--></g></svg>