<svg xmlns="http://www.w3.org/2000/svg" xmlns:xlink="http://www.w3.org/1999/xlink" contentStyleType="text/css" height="1165px" preserveAspectRatio="none" style="width:304px;height:1165px;background:#FFFFFF;" version="1.1" viewBox="0 0 304 1165" width="304px" zoomAndPan="magnify"><title>BECS Client Layer - Angular Applications</title><defs/><g><text fill="#000000" font-family="sans-serif" font-size="14" font-weight="bold" lengthAdjust="spacing" textLength="276.1514" x="10" y="24.5332">BECS Client Layer - Angular Applications</text><!--class DonorManagementSystem--><g id="elem_DonorManagementSystem"><rect codeLine="5" fill="#F1F1F1" height="241.7031" id="DonorManagementSystem" rx="2.5" ry="2.5" style="stroke:#181818;stroke-width:0.5;" width="198.5234" x="42.1694" y="329.6094"/><ellipse cx="57.1694" cy="345.6094" fill="#ADD1B2" rx="11" ry="11" style="stroke:#181818;stroke-width:1.0;"/><path d="M59.9351,341.4844 Q60.0913,341.2656 60.2788,341.1563 Q60.4663,341.0469 60.6851,341.0469 Q61.0601,341.0469 61.2944,341.3125 Q61.5288,341.5625 61.5288,342.1719 L61.5288,343.625 Q61.5288,344.2344 61.2944,344.5 Q61.0601,344.7656 60.6851,344.7656 Q60.3413,344.7656 60.1382,344.5625 Q59.9351,344.375 59.8257,343.8594 Q59.7788,343.5 59.5913,343.3125 Q59.2632,342.9375 58.6538,342.7188 Q58.0444,342.5 57.4194,342.5 Q56.6538,342.5 56.0132,342.8281 Q55.3882,343.1563 54.8882,343.9063 Q54.4038,344.6563 54.4038,345.6875 L54.4038,346.7813 Q54.4038,348.0156 55.2944,348.8438 Q56.1851,349.6563 57.7788,349.6563 Q58.7163,349.6563 59.3726,349.4063 Q59.7632,349.25 60.1851,348.8125 Q60.4507,348.5469 60.5913,348.4688 Q60.7476,348.3906 60.9507,348.3906 Q61.2788,348.3906 61.5288,348.6563 Q61.7944,348.9063 61.7944,349.25 Q61.7944,349.5938 61.4507,350 Q60.9507,350.5781 60.1538,350.9063 Q59.0757,351.3594 57.7788,351.3594 Q56.2632,351.3594 55.0601,350.7344 Q54.0757,350.2344 53.3882,349.1719 Q52.7007,348.0938 52.7007,346.8125 L52.7007,345.6563 Q52.7007,344.3281 53.3101,343.1875 Q53.9351,342.0313 55.0288,341.4219 Q56.1226,340.7969 57.3569,340.7969 Q58.0913,340.7969 58.7319,340.9688 Q59.3882,341.125 59.9351,341.4844 Z " fill="#000000"/><text fill="#000000" font-family="sans-serif" font-size="14" lengthAdjust="spacing" textLength="166.5234" x="71.1694" y="351.3379">DonorManagementSystem</text><line style="stroke:#181818;stroke-width:0.5;" x1="43.1694" x2="239.6929" y1="361.6094" y2="361.6094"/><text fill="#000000" font-family="sans-serif" font-size="14" lengthAdjust="spacing" textLength="59.1377" x="48.1694" y="380.1426">Features:</text><text fill="#000000" font-family="sans-serif" font-size="14" lengthAdjust="spacing" textLength="87.917" x="48.1694" y="397.752">-- Registration</text><text fill="#000000" font-family="sans-serif" font-size="14" lengthAdjust="spacing" textLength="82.4893" x="48.1694" y="415.3613">-- Scheduling</text><text fill="#000000" font-family="sans-serif" font-size="14" lengthAdjust="spacing" textLength="114.3447" x="48.1694" y="432.9707">-- History Tracking</text><text fill="#000000" font-family="sans-serif" font-size="14" lengthAdjust="spacing" textLength="89.4688" x="48.1694" y="450.5801">-- Notifications</text><text fill="#000000" font-family="sans-serif" font-size="14" lengthAdjust="spacing" textLength="3.8896" x="48.1694" y="468.1895">&#160;</text><text fill="#000000" font-family="sans-serif" font-size="14" lengthAdjust="spacing" textLength="83.2686" x="48.1694" y="485.7988">Components:</text><text fill="#000000" font-family="sans-serif" font-size="14" lengthAdjust="spacing" textLength="52.876" x="48.1694" y="503.4082">-- Forms</text><text fill="#000000" font-family="sans-serif" font-size="14" lengthAdjust="spacing" textLength="77.0273" x="48.1694" y="521.0176">-- Calendars</text><text fill="#000000" font-family="sans-serif" font-size="14" lengthAdjust="spacing" textLength="88.7031" x="48.1694" y="538.627">-- Dashboards</text><text fill="#000000" font-family="sans-serif" font-size="14" lengthAdjust="spacing" textLength="89.4688" x="48.1694" y="556.2363">-- Notifications</text><line style="stroke:#181818;stroke-width:0.5;" x1="43.1694" x2="239.6929" y1="563.3125" y2="563.3125"/></g><!--class InventoryManagementSystem--><g id="elem_InventoryManagementSystem"><rect codeLine="19" fill="#F1F1F1" height="224.0938" id="InventoryManagementSystem" rx="2.5" ry="2.5" style="stroke:#181818;stroke-width:0.5;" width="217.9785" x="32.6694" y="649.6094"/><ellipse cx="47.6694" cy="665.6094" fill="#ADD1B2" rx="11" ry="11" style="stroke:#181818;stroke-width:1.0;"/><path d="M50.4351,661.4844 Q50.5913,661.2656 50.7788,661.1563 Q50.9663,661.0469 51.1851,661.0469 Q51.5601,661.0469 51.7944,661.3125 Q52.0288,661.5625 52.0288,662.1719 L52.0288,663.625 Q52.0288,664.2344 51.7944,664.5 Q51.5601,664.7656 51.1851,664.7656 Q50.8413,664.7656 50.6382,664.5625 Q50.4351,664.375 50.3257,663.8594 Q50.2788,663.5 50.0913,663.3125 Q49.7632,662.9375 49.1538,662.7188 Q48.5444,662.5 47.9194,662.5 Q47.1538,662.5 46.5132,662.8281 Q45.8882,663.1563 45.3882,663.9063 Q44.9038,664.6563 44.9038,665.6875 L44.9038,666.7813 Q44.9038,668.0156 45.7944,668.8438 Q46.6851,669.6563 48.2788,669.6563 Q49.2163,669.6563 49.8726,669.4063 Q50.2632,669.25 50.6851,668.8125 Q50.9507,668.5469 51.0913,668.4688 Q51.2476,668.3906 51.4507,668.3906 Q51.7788,668.3906 52.0288,668.6563 Q52.2944,668.9063 52.2944,669.25 Q52.2944,669.5938 51.9507,670 Q51.4507,670.5781 50.6538,670.9063 Q49.5757,671.3594 48.2788,671.3594 Q46.7632,671.3594 45.5601,670.7344 Q44.5757,670.2344 43.8882,669.1719 Q43.2007,668.0938 43.2007,666.8125 L43.2007,665.6563 Q43.2007,664.3281 43.8101,663.1875 Q44.4351,662.0313 45.5288,661.4219 Q46.6226,660.7969 47.8569,660.7969 Q48.5913,660.7969 49.2319,660.9688 Q49.8882,661.125 50.4351,661.4844 Z " fill="#000000"/><text fill="#000000" font-family="sans-serif" font-size="14" lengthAdjust="spacing" textLength="185.9785" x="61.6694" y="671.3379">InventoryManagementSystem</text><line style="stroke:#181818;stroke-width:0.5;" x1="33.6694" x2="249.6479" y1="681.6094" y2="681.6094"/><text fill="#000000" font-family="sans-serif" font-size="14" lengthAdjust="spacing" textLength="59.1377" x="38.6694" y="700.1426">Features:</text><text fill="#000000" font-family="sans-serif" font-size="14" lengthAdjust="spacing" textLength="142.3789" x="38.6694" y="717.752">-- Tracking Blood Units</text><text fill="#000000" font-family="sans-serif" font-size="14" lengthAdjust="spacing" textLength="132.2891" x="38.6694" y="735.3613">-- Storage Conditions</text><text fill="#000000" font-family="sans-serif" font-size="14" lengthAdjust="spacing" textLength="115.9307" x="38.6694" y="752.9707">-- Expiration Dates</text><text fill="#000000" font-family="sans-serif" font-size="14" lengthAdjust="spacing" textLength="3.8896" x="38.6694" y="770.5801">&#160;</text><text fill="#000000" font-family="sans-serif" font-size="14" lengthAdjust="spacing" textLength="83.2686" x="38.6694" y="788.1895">Components:</text><text fill="#000000" font-family="sans-serif" font-size="14" lengthAdjust="spacing" textLength="55.2344" x="38.6694" y="805.7988">-- Tables</text><text fill="#000000" font-family="sans-serif" font-size="14" lengthAdjust="spacing" textLength="54.4482" x="38.6694" y="823.4082">-- Charts</text><text fill="#000000" font-family="sans-serif" font-size="14" lengthAdjust="spacing" textLength="49" x="38.6694" y="841.0176">-- Alerts</text><text fill="#000000" font-family="sans-serif" font-size="14" lengthAdjust="spacing" textLength="51.3242" x="38.6694" y="858.627">-- Filters</text><line style="stroke:#181818;stroke-width:0.5;" x1="33.6694" x2="249.6479" y1="865.7031" y2="865.7031"/></g><!--class ComplianceAndReportingSystem--><g id="elem_ComplianceAndReportingSystem"><rect codeLine="32" fill="#F1F1F1" height="206.4844" id="ComplianceAndReportingSystem" rx="2.5" ry="2.5" style="stroke:#181818;stroke-width:0.5;" width="238.2129" x="22.6694" y="951.6094"/><ellipse cx="37.6694" cy="967.6094" fill="#ADD1B2" rx="11" ry="11" style="stroke:#181818;stroke-width:1.0;"/><path d="M40.4351,963.4844 Q40.5913,963.2656 40.7788,963.1563 Q40.9663,963.0469 41.1851,963.0469 Q41.5601,963.0469 41.7944,963.3125 Q42.0288,963.5625 42.0288,964.1719 L42.0288,965.625 Q42.0288,966.2344 41.7944,966.5 Q41.5601,966.7656 41.1851,966.7656 Q40.8413,966.7656 40.6382,966.5625 Q40.4351,966.375 40.3257,965.8594 Q40.2788,965.5 40.0913,965.3125 Q39.7632,964.9375 39.1538,964.7188 Q38.5444,964.5 37.9194,964.5 Q37.1538,964.5 36.5132,964.8281 Q35.8882,965.1563 35.3882,965.9063 Q34.9038,966.6563 34.9038,967.6875 L34.9038,968.7813 Q34.9038,970.0156 35.7944,970.8438 Q36.6851,971.6563 38.2788,971.6563 Q39.2163,971.6563 39.8726,971.4063 Q40.2632,971.25 40.6851,970.8125 Q40.9507,970.5469 41.0913,970.4688 Q41.2476,970.3906 41.4507,970.3906 Q41.7788,970.3906 42.0288,970.6563 Q42.2944,970.9063 42.2944,971.25 Q42.2944,971.5938 41.9507,972 Q41.4507,972.5781 40.6538,972.9063 Q39.5757,973.3594 38.2788,973.3594 Q36.7632,973.3594 35.5601,972.7344 Q34.5757,972.2344 33.8882,971.1719 Q33.2007,970.0938 33.2007,968.8125 L33.2007,967.6563 Q33.2007,966.3281 33.8101,965.1875 Q34.4351,964.0313 35.5288,963.4219 Q36.6226,962.7969 37.8569,962.7969 Q38.5913,962.7969 39.2319,962.9688 Q39.8882,963.125 40.4351,963.4844 Z " fill="#000000"/><text fill="#000000" font-family="sans-serif" font-size="14" lengthAdjust="spacing" textLength="206.2129" x="51.6694" y="973.3379">ComplianceAndReportingSystem</text><line style="stroke:#181818;stroke-width:0.5;" x1="23.6694" x2="259.8823" y1="983.6094" y2="983.6094"/><text fill="#000000" font-family="sans-serif" font-size="14" lengthAdjust="spacing" textLength="59.1377" x="28.6694" y="1002.1426">Features:</text><text fill="#000000" font-family="sans-serif" font-size="14" lengthAdjust="spacing" textLength="216.3027" x="28.6694" y="1019.752">-- Regulatory Compliance Tracking</text><text fill="#000000" font-family="sans-serif" font-size="14" lengthAdjust="spacing" textLength="79.3721" x="28.6694" y="1037.3613">-- Audit Logs</text><text fill="#000000" font-family="sans-serif" font-size="14" lengthAdjust="spacing" textLength="73.917" x="28.6694" y="1054.9707">-- Reporting</text><text fill="#000000" font-family="sans-serif" font-size="14" lengthAdjust="spacing" textLength="3.8896" x="28.6694" y="1072.5801">&#160;</text><text fill="#000000" font-family="sans-serif" font-size="14" lengthAdjust="spacing" textLength="83.2686" x="28.6694" y="1090.1895">Components:</text><text fill="#000000" font-family="sans-serif" font-size="14" lengthAdjust="spacing" textLength="62.2344" x="28.6694" y="1107.7988">-- Reports</text><text fill="#000000" font-family="sans-serif" font-size="14" lengthAdjust="spacing" textLength="43.5723" x="28.6694" y="1125.4082">-- Logs</text><text fill="#000000" font-family="sans-serif" font-size="14" lengthAdjust="spacing" textLength="125.2617" x="28.6694" y="1143.0176">-- Data Export Tools</text><line style="stroke:#181818;stroke-width:0.5;" x1="23.6694" x2="259.8823" y1="1150.0938" y2="1150.0938"/></g><!--class AppointmentSchedulingSystem--><g id="elem_AppointmentSchedulingSystem"><rect codeLine="44" fill="#F1F1F1" height="206.4844" id="AppointmentSchedulingSystem" rx="2.5" ry="2.5" style="stroke:#181818;stroke-width:0.5;" width="226.5576" x="28.1694" y="45.6094"/><ellipse cx="43.1694" cy="61.6094" fill="#ADD1B2" rx="11" ry="11" style="stroke:#181818;stroke-width:1.0;"/><path d="M45.9351,57.4844 Q46.0913,57.2656 46.2788,57.1563 Q46.4663,57.0469 46.6851,57.0469 Q47.0601,57.0469 47.2944,57.3125 Q47.5288,57.5625 47.5288,58.1719 L47.5288,59.625 Q47.5288,60.2344 47.2944,60.5 Q47.0601,60.7656 46.6851,60.7656 Q46.3413,60.7656 46.1382,60.5625 Q45.9351,60.375 45.8257,59.8594 Q45.7788,59.5 45.5913,59.3125 Q45.2632,58.9375 44.6538,58.7188 Q44.0444,58.5 43.4194,58.5 Q42.6538,58.5 42.0132,58.8281 Q41.3882,59.1563 40.8882,59.9063 Q40.4038,60.6563 40.4038,61.6875 L40.4038,62.7813 Q40.4038,64.0156 41.2944,64.8438 Q42.1851,65.6563 43.7788,65.6563 Q44.7163,65.6563 45.3726,65.4063 Q45.7632,65.25 46.1851,64.8125 Q46.4507,64.5469 46.5913,64.4688 Q46.7476,64.3906 46.9507,64.3906 Q47.2788,64.3906 47.5288,64.6563 Q47.7944,64.9063 47.7944,65.25 Q47.7944,65.5938 47.4507,66 Q46.9507,66.5781 46.1538,66.9063 Q45.0757,67.3594 43.7788,67.3594 Q42.2632,67.3594 41.0601,66.7344 Q40.0757,66.2344 39.3882,65.1719 Q38.7007,64.0938 38.7007,62.8125 L38.7007,61.6563 Q38.7007,60.3281 39.3101,59.1875 Q39.9351,58.0313 41.0288,57.4219 Q42.1226,56.7969 43.3569,56.7969 Q44.0913,56.7969 44.7319,56.9688 Q45.3882,57.125 45.9351,57.4844 Z " fill="#000000"/><text fill="#000000" font-family="sans-serif" font-size="14" lengthAdjust="spacing" textLength="194.5576" x="57.1694" y="67.3379">AppointmentSchedulingSystem</text><line style="stroke:#181818;stroke-width:0.5;" x1="29.1694" x2="253.7271" y1="77.6094" y2="77.6094"/><text fill="#000000" font-family="sans-serif" font-size="14" lengthAdjust="spacing" textLength="59.1377" x="34.1694" y="96.1426">Features:</text><text fill="#000000" font-family="sans-serif" font-size="14" lengthAdjust="spacing" textLength="82.4893" x="34.1694" y="113.752">-- Scheduling</text><text fill="#000000" font-family="sans-serif" font-size="14" lengthAdjust="spacing" textLength="80.9033" x="34.1694" y="131.3613">-- Reminders</text><text fill="#000000" font-family="sans-serif" font-size="14" lengthAdjust="spacing" textLength="97.2617" x="34.1694" y="148.9707">-- Cancellations</text><text fill="#000000" font-family="sans-serif" font-size="14" lengthAdjust="spacing" textLength="3.8896" x="34.1694" y="166.5801">&#160;</text><text fill="#000000" font-family="sans-serif" font-size="14" lengthAdjust="spacing" textLength="83.2686" x="34.1694" y="184.1895">Components:</text><text fill="#000000" font-family="sans-serif" font-size="14" lengthAdjust="spacing" textLength="77.0273" x="34.1694" y="201.7988">-- Calendars</text><text fill="#000000" font-family="sans-serif" font-size="14" lengthAdjust="spacing" textLength="89.4688" x="34.1694" y="219.4082">-- Notifications</text><text fill="#000000" font-family="sans-serif" font-size="14" lengthAdjust="spacing" textLength="52.876" x="34.1694" y="237.0176">-- Forms</text><line style="stroke:#181818;stroke-width:0.5;" x1="29.1694" x2="253.7271" y1="244.0938" y2="244.0938"/></g><!--link DonorManagementSystem to InventoryManagementSystem--><g id="link_DonorManagementSystem_InventoryManagementSystem"><path codeLine="56" d="M141.6694,571.9594 C141.6694,597.4694 141.6694,618.2794 141.6694,643.4194 " fill="none" id="DonorManagementSystem-to-InventoryManagementSystem" style="stroke:#181818;stroke-width:1.0;"/><polygon fill="#181818" points="141.6694,649.4194,145.6694,640.4194,141.6694,644.4194,137.6694,640.4194,141.6694,649.4194" style="stroke:#181818;stroke-width:1.0;"/><text fill="#000000" font-family="sans-serif" font-size="13" lengthAdjust="spacing" textLength="110.5635" x="142.6694" y="616.1045">Manages Inventory</text></g><!--link InventoryManagementSystem to ComplianceAndReportingSystem--><g id="link_InventoryManagementSystem_ComplianceAndReportingSystem"><path codeLine="57" d="M141.6694,873.8694 C141.6694,899.3794 141.6694,920.3794 141.6694,945.4894 " fill="none" id="InventoryManagementSystem-to-ComplianceAndReportingSystem" style="stroke:#181818;stroke-width:1.0;"/><polygon fill="#181818" points="141.6694,951.4894,145.6694,942.4894,141.6694,946.4894,137.6694,942.4894,141.6694,951.4894" style="stroke:#181818;stroke-width:1.0;"/><text fill="#000000" font-family="sans-serif" font-size="13" lengthAdjust="spacing" textLength="76.5908" x="142.6694" y="918.1045">Reports Data</text></g><!--link AppointmentSchedulingSystem to DonorManagementSystem--><g id="link_AppointmentSchedulingSystem_DonorManagementSystem"><path codeLine="58" d="M141.6694,252.0094 C141.6694,276.9694 141.6694,297.8794 141.6694,323.5694 " fill="none" id="AppointmentSchedulingSystem-to-DonorManagementSystem" style="stroke:#181818;stroke-width:1.0;"/><polygon fill="#181818" points="141.6694,329.5694,145.6694,320.5694,141.6694,324.5694,137.6694,320.5694,141.6694,329.5694" style="stroke:#181818;stroke-width:1.0;"/><text fill="#000000" font-family="sans-serif" font-size="13" lengthAdjust="spacing" textLength="143.8125" x="142.6694" y="296.1045">Schedules Appointments</text></g><!--SRC=[ZL9RReCm4Fpd5Di3S04-AX52saffFe0UmC4ROjLuaMsgHbNltkMP22MeV_PwTtPcF4yIJyeWP6bIn8UNVGgb5iu5WLTU8spI98T4ApGUzkA25aA8JTLgOI5k6grAuHKPxhy2RCcGVHT6L5ZpN7vn7clu2G1sA7nhqKN0bp2432lblEqXXafUdb6sMfbgkB_oEzaB55QKdtFrG5wTvjNGeILKDsHutGo-8rkxuPW8ZKOAErwtmfsF9Anqz-1-RxMycI_6P0R_qZEnX8qcal1Xb1zNv8p1yqpJI3NHvdhwtQX1FxFo-51C8OuQ9pLdOIVSMEDytYdjqIu4T51Q2LDYR6I63LdF1DV_X7-tD_qwk_0_Rba4xAboqyo8-uZ-q31sN-TOikWiu3SeYFI2EmUCbF6zwNCkLgWlmvDXhOn4EwU0bMYzdff5L9P9ctF5HE_dF0oVLr8JmL1orvxWSNU7jVg1qUHiRsMmPbY7TPznD1d7h6uGNF07]--></g></svg>