<svg xmlns="http://www.w3.org/2000/svg" xmlns:xlink="http://www.w3.org/1999/xlink" contentStyleType="text/css" height="349px" preserveAspectRatio="none" style="width:374px;height:349px;background:#FFFFFF;" version="1.1" viewBox="0 0 374 349" width="374px" zoomAndPan="magnify"><title>Cloud Infrastructure Layer for BECS</title><defs/><g><text fill="#000000" font-family="sans-serif" font-size="14" font-weight="bold" lengthAdjust="spacing" textLength="241.1514" x="59.686" y="24.5332">Cloud Infrastructure Layer for BECS</text><!--class AWS--><g id="elem_AWS"><rect codeLine="5" fill="#F1F1F1" height="118.4375" id="AWS" rx="2.5" ry="2.5" style="stroke:#181818;stroke-width:0.5;" width="76.5928" x="148" y="45.6094"/><ellipse cx="168.7164" cy="61.6094" fill="#ADD1B2" rx="11" ry="11" style="stroke:#181818;stroke-width:1.0;"/><path d="M171.482,57.4844 Q171.6383,57.2656 171.8258,57.1563 Q172.0133,57.0469 172.232,57.0469 Q172.607,57.0469 172.8414,57.3125 Q173.0758,57.5625 173.0758,58.1719 L173.0758,59.625 Q173.0758,60.2344 172.8414,60.5 Q172.607,60.7656 172.232,60.7656 Q171.8883,60.7656 171.6852,60.5625 Q171.482,60.375 171.3727,59.8594 Q171.3258,59.5 171.1383,59.3125 Q170.8102,58.9375 170.2008,58.7188 Q169.5914,58.5 168.9664,58.5 Q168.2008,58.5 167.5602,58.8281 Q166.9352,59.1563 166.4352,59.9063 Q165.9508,60.6563 165.9508,61.6875 L165.9508,62.7813 Q165.9508,64.0156 166.8414,64.8438 Q167.732,65.6563 169.3258,65.6563 Q170.2633,65.6563 170.9195,65.4063 Q171.3102,65.25 171.732,64.8125 Q171.9977,64.5469 172.1383,64.4688 Q172.2945,64.3906 172.4977,64.3906 Q172.8258,64.3906 173.0758,64.6563 Q173.3414,64.9063 173.3414,65.25 Q173.3414,65.5938 172.9977,66 Q172.4977,66.5781 171.7008,66.9063 Q170.6227,67.3594 169.3258,67.3594 Q167.8102,67.3594 166.607,66.7344 Q165.6227,66.2344 164.9352,65.1719 Q164.2477,64.0938 164.2477,62.8125 L164.2477,61.6563 Q164.2477,60.3281 164.857,59.1875 Q165.482,58.0313 166.5758,57.4219 Q167.6695,56.7969 168.9039,56.7969 Q169.6383,56.7969 170.2789,56.9688 Q170.9352,57.125 171.482,57.4844 Z " fill="#000000"/><text fill="#000000" font-family="sans-serif" font-size="14" lengthAdjust="spacing" textLength="31.8896" x="183.9867" y="67.3379">AWS</text><line style="stroke:#181818;stroke-width:0.5;" x1="149" x2="223.5928" y1="77.6094" y2="77.6094"/><ellipse cx="159" cy="91.9141" fill="none" rx="3" ry="3" style="stroke:#038048;stroke-width:1.0;"/><text fill="#000000" font-family="sans-serif" font-size="14" lengthAdjust="spacing" textLength="27.2344" x="168" y="96.1426">EC2</text><ellipse cx="159" cy="109.5234" fill="none" rx="3" ry="3" style="stroke:#038048;stroke-width:1.0;"/><text fill="#000000" font-family="sans-serif" font-size="14" lengthAdjust="spacing" textLength="17.124" x="168" y="113.752">S3</text><ellipse cx="159" cy="127.1328" fill="none" rx="3" ry="3" style="stroke:#038048;stroke-width:1.0;"/><text fill="#000000" font-family="sans-serif" font-size="14" lengthAdjust="spacing" textLength="29.5586" x="168" y="131.3613">RDS</text><ellipse cx="159" cy="144.7422" fill="none" rx="3" ry="3" style="stroke:#038048;stroke-width:1.0;"/><text fill="#000000" font-family="sans-serif" font-size="14" lengthAdjust="spacing" textLength="50.5928" x="168" y="148.9707">Lambda</text><line style="stroke:#181818;stroke-width:0.5;" x1="149" x2="223.5928" y1="156.0469" y2="156.0469"/></g><!--class IaC_Tools--><g id="elem_IaC_Tools"><rect codeLine="12" fill="#F1F1F1" height="83.2188" id="IaC_Tools" rx="2.5" ry="2.5" style="stroke:#181818;stroke-width:0.5;" width="161.3789" x="7" y="250.6094"/><ellipse cx="51.5361" cy="266.6094" fill="#ADD1B2" rx="11" ry="11" style="stroke:#181818;stroke-width:1.0;"/><path d="M54.3018,262.4844 Q54.458,262.2656 54.6455,262.1563 Q54.833,262.0469 55.0518,262.0469 Q55.4268,262.0469 55.6611,262.3125 Q55.8955,262.5625 55.8955,263.1719 L55.8955,264.625 Q55.8955,265.2344 55.6611,265.5 Q55.4268,265.7656 55.0518,265.7656 Q54.708,265.7656 54.5049,265.5625 Q54.3018,265.375 54.1924,264.8594 Q54.1455,264.5 53.958,264.3125 Q53.6299,263.9375 53.0205,263.7188 Q52.4111,263.5 51.7861,263.5 Q51.0205,263.5 50.3799,263.8281 Q49.7549,264.1563 49.2549,264.9063 Q48.7705,265.6563 48.7705,266.6875 L48.7705,267.7813 Q48.7705,269.0156 49.6611,269.8438 Q50.5518,270.6563 52.1455,270.6563 Q53.083,270.6563 53.7393,270.4063 Q54.1299,270.25 54.5518,269.8125 Q54.8174,269.5469 54.958,269.4688 Q55.1143,269.3906 55.3174,269.3906 Q55.6455,269.3906 55.8955,269.6563 Q56.1611,269.9063 56.1611,270.25 Q56.1611,270.5938 55.8174,271 Q55.3174,271.5781 54.5205,271.9063 Q53.4424,272.3594 52.1455,272.3594 Q50.6299,272.3594 49.4268,271.7344 Q48.4424,271.2344 47.7549,270.1719 Q47.0674,269.0938 47.0674,267.8125 L47.0674,266.6563 Q47.0674,265.3281 47.6768,264.1875 Q48.3018,263.0313 49.3955,262.4219 Q50.4893,261.7969 51.7236,261.7969 Q52.458,261.7969 53.0986,261.9688 Q53.7549,262.125 54.3018,262.4844 Z " fill="#000000"/><text fill="#000000" font-family="sans-serif" font-size="14" lengthAdjust="spacing" textLength="63.8066" x="72.0361" y="272.3379">IaC_Tools</text><line style="stroke:#181818;stroke-width:0.5;" x1="8" x2="167.3789" y1="282.6094" y2="282.6094"/><ellipse cx="18" cy="296.9141" fill="none" rx="3" ry="3" style="stroke:#038048;stroke-width:1.0;"/><text fill="#000000" font-family="sans-serif" font-size="14" lengthAdjust="spacing" textLength="61.4482" x="27" y="301.1426">Terraform</text><ellipse cx="18" cy="314.5234" fill="none" rx="3" ry="3" style="stroke:#038048;stroke-width:1.0;"/><text fill="#000000" font-family="sans-serif" font-size="14" lengthAdjust="spacing" textLength="135.3789" x="27" y="318.752">AWS CloudFormation</text><line style="stroke:#181818;stroke-width:0.5;" x1="8" x2="167.3789" y1="325.8281" y2="325.8281"/></g><!--class Security--><g id="elem_Security"><rect codeLine="17" fill="#F1F1F1" height="100.8281" id="Security" rx="2.5" ry="2.5" style="stroke:#181818;stroke-width:0.5;" width="164.5234" x="203" y="241.6094"/><ellipse cx="255.7256" cy="257.6094" fill="#ADD1B2" rx="11" ry="11" style="stroke:#181818;stroke-width:1.0;"/><path d="M258.4912,253.4844 Q258.6475,253.2656 258.835,253.1563 Q259.0225,253.0469 259.2412,253.0469 Q259.6162,253.0469 259.8506,253.3125 Q260.085,253.5625 260.085,254.1719 L260.085,255.625 Q260.085,256.2344 259.8506,256.5 Q259.6162,256.7656 259.2412,256.7656 Q258.8975,256.7656 258.6943,256.5625 Q258.4912,256.375 258.3818,255.8594 Q258.335,255.5 258.1475,255.3125 Q257.8193,254.9375 257.21,254.7188 Q256.6006,254.5 255.9756,254.5 Q255.21,254.5 254.5693,254.8281 Q253.9443,255.1563 253.4443,255.9063 Q252.96,256.6563 252.96,257.6875 L252.96,258.7813 Q252.96,260.0156 253.8506,260.8438 Q254.7412,261.6563 256.335,261.6563 Q257.2725,261.6563 257.9287,261.4063 Q258.3193,261.25 258.7412,260.8125 Q259.0068,260.5469 259.1475,260.4688 Q259.3037,260.3906 259.5068,260.3906 Q259.835,260.3906 260.085,260.6563 Q260.3506,260.9063 260.3506,261.25 Q260.3506,261.5938 260.0068,262 Q259.5068,262.5781 258.71,262.9063 Q257.6318,263.3594 256.335,263.3594 Q254.8193,263.3594 253.6162,262.7344 Q252.6318,262.2344 251.9443,261.1719 Q251.2568,260.0938 251.2568,258.8125 L251.2568,257.6563 Q251.2568,256.3281 251.8662,255.1875 Q252.4912,254.0313 253.585,253.4219 Q254.6787,252.7969 255.9131,252.7969 Q256.6475,252.7969 257.2881,252.9688 Q257.9443,253.125 258.4912,253.4844 Z " fill="#000000"/><text fill="#000000" font-family="sans-serif" font-size="14" lengthAdjust="spacing" textLength="50.5723" x="276.2256" y="263.3379">Security</text><line style="stroke:#181818;stroke-width:0.5;" x1="204" x2="366.5234" y1="273.6094" y2="273.6094"/><ellipse cx="214" cy="287.9141" fill="none" rx="3" ry="3" style="stroke:#038048;stroke-width:1.0;"/><text fill="#000000" font-family="sans-serif" font-size="14" lengthAdjust="spacing" textLength="99.6064" x="223" y="292.1426">Data Encryption</text><ellipse cx="214" cy="305.5234" fill="none" rx="3" ry="3" style="stroke:#038048;stroke-width:1.0;"/><text fill="#000000" font-family="sans-serif" font-size="14" lengthAdjust="spacing" textLength="101.1445" x="223" y="309.752">Access Controls</text><ellipse cx="214" cy="323.1328" fill="none" rx="3" ry="3" style="stroke:#038048;stroke-width:1.0;"/><text fill="#000000" font-family="sans-serif" font-size="14" lengthAdjust="spacing" textLength="138.5234" x="223" y="327.3613">Secure Configurations</text><line style="stroke:#181818;stroke-width:0.5;" x1="204" x2="366.5234" y1="334.4375" y2="334.4375"/></g><!--link AWS to IaC_Tools--><g id="link_AWS_IaC_Tools"><path codeLine="23" d="M155.45,163.7894 C140.42,191.9494 125.5757,219.7764 112.0157,245.1764 " fill="none" id="AWS-to-IaC_Tools" style="stroke:#181818;stroke-width:1.0;"/><polygon fill="#181818" points="109.19,250.4694,116.9572,244.4137,111.5447,246.0586,109.8999,240.6461,109.19,250.4694" style="stroke:#181818;stroke-width:1.0;"/><text fill="#000000" font-family="sans-serif" font-size="13" lengthAdjust="spacing" textLength="71.5508" x="138.5" y="208.1045">Managed by</text></g><!--link AWS to Security--><g id="link_AWS_Security"><path codeLine="24" d="M217.55,163.7894 C230.88,188.7594 243.4652,212.3359 256.2352,236.2659 " fill="none" id="AWS-to-Security" style="stroke:#181818;stroke-width:1.0;"/><polygon fill="#181818" points="259.06,241.5594,258.3518,231.736,256.706,237.1482,251.2938,235.5024,259.06,241.5594" style="stroke:#181818;stroke-width:1.0;"/><text fill="#000000" font-family="sans-serif" font-size="13" lengthAdjust="spacing" textLength="47.6899" x="242.5" y="208.1045">Ensures</text></g><!--SRC=[LOwnQWCn38PtFuKwbopjbY6GEcu9N3h41nsBujC5myKkaZqSfUzUwm9fkaX8zlVzUXXeZ8dWw6o_VN_h78G9HOmfiKm4TifrW7qQ6QLm3QKoGOSpCOoPuSLPRymVk_tmy6q07frzqkQVjHvtNbk7bzE0vkSUsAFzx7EUv8hrn8nDVD51PKl-QrjWYJdzPps5oh7CLtI71S6bmFFNybK58P08s9mAjuZb86L8LsCyLrwiebeDMwqsTmUjuO09ppJ0QRuztpBNBKkQIiml]--></g></svg>