<svg xmlns="http://www.w3.org/2000/svg" xmlns:xlink="http://www.w3.org/1999/xlink" contentStyleType="text/css" height="1225px" preserveAspectRatio="none" style="width:1336px;height:1225px;background:#FFFFFF;" version="1.1" viewBox="0 0 1336 1225" width="1336px" zoomAndPan="magnify"><title>Compliance Considerations in Architecture</title><defs/><g><text fill="#000000" font-family="sans-serif" font-size="14" font-weight="bold" lengthAdjust="spacing" textLength="287.834" x="523.5173" y="29.5332">Compliance Considerations in Architecture</text><line style="stroke:#181818;stroke-width:0.5;stroke-dasharray:5.0,5.0;" x1="72" x2="72" y1="76.2188" y2="1188.875"/><line style="stroke:#181818;stroke-width:0.5;stroke-dasharray:5.0,5.0;" x1="239.8931" x2="239.8931" y1="76.2188" y2="1188.875"/><line style="stroke:#181818;stroke-width:0.5;stroke-dasharray:5.0,5.0;" x1="381.313" x2="381.313" y1="76.2188" y2="1188.875"/><line style="stroke:#181818;stroke-width:0.5;stroke-dasharray:5.0,5.0;" x1="542.6987" x2="542.6987" y1="76.2188" y2="1188.875"/><line style="stroke:#181818;stroke-width:0.5;stroke-dasharray:5.0,5.0;" x1="721.1948" x2="721.1948" y1="76.2188" y2="1188.875"/><line style="stroke:#181818;stroke-width:0.5;stroke-dasharray:5.0,5.0;" x1="844.5942" x2="844.5942" y1="76.2188" y2="1188.875"/><line style="stroke:#181818;stroke-width:0.5;stroke-dasharray:5.0,5.0;" x1="924.1802" x2="924.1802" y1="76.2188" y2="1188.875"/><line style="stroke:#181818;stroke-width:0.5;stroke-dasharray:5.0,5.0;" x1="1009.0903" x2="1009.0903" y1="76.2188" y2="1188.875"/><line style="stroke:#181818;stroke-width:0.5;stroke-dasharray:5.0,5.0;" x1="1084.5591" x2="1084.5591" y1="76.2188" y2="1188.875"/><line style="stroke:#181818;stroke-width:0.5;stroke-dasharray:5.0,5.0;" x1="1140.3589" x2="1140.3589" y1="76.2188" y2="1188.875"/><line style="stroke:#181818;stroke-width:0.5;stroke-dasharray:5.0,5.0;" x1="1186.5933" x2="1186.5933" y1="76.2188" y2="1188.875"/><line style="stroke:#181818;stroke-width:0.5;stroke-dasharray:5.0,5.0;" x1="1233.7173" x2="1233.7173" y1="76.2188" y2="1188.875"/><line style="stroke:#181818;stroke-width:0.5;stroke-dasharray:5.0,5.0;" x1="1298.2759" x2="1298.2759" y1="76.2188" y2="1188.875"/><rect fill="#E2E2F0" height="31.6094" rx="2.5" ry="2.5" style="stroke:#181818;stroke-width:0.5;" width="134.6064" x="5" y="43.6094"/><text fill="#000000" font-family="sans-serif" font-size="14" lengthAdjust="spacing" textLength="120.6064" x="12" y="65.1426">ComplianceService</text><rect fill="#E2E2F0" height="31.6094" rx="2.5" ry="2.5" style="stroke:#181818;stroke-width:0.5;" width="134.6064" x="5" y="1187.875"/><text fill="#000000" font-family="sans-serif" font-size="14" lengthAdjust="spacing" textLength="120.6064" x="12" y="1209.4082">ComplianceService</text><rect fill="#E2E2F0" height="31.6094" rx="2.5" ry="2.5" style="stroke:#181818;stroke-width:0.5;" width="142.4199" x="168.8931" y="43.6094"/><text fill="#000000" font-family="sans-serif" font-size="14" lengthAdjust="spacing" textLength="128.4199" x="175.8931" y="65.1426">AuditLoggingService</text><rect fill="#E2E2F0" height="31.6094" rx="2.5" ry="2.5" style="stroke:#181818;stroke-width:0.5;" width="142.4199" x="168.8931" y="1187.875"/><text fill="#000000" font-family="sans-serif" font-size="14" lengthAdjust="spacing" textLength="128.4199" x="175.8931" y="1209.4082">AuditLoggingService</text><rect fill="#E2E2F0" height="31.6094" rx="2.5" ry="2.5" style="stroke:#181818;stroke-width:0.5;" width="121.3857" x="321.313" y="43.6094"/><text fill="#000000" font-family="sans-serif" font-size="14" lengthAdjust="spacing" textLength="107.3857" x="328.313" y="65.1426">ReportingService</text><rect fill="#E2E2F0" height="31.6094" rx="2.5" ry="2.5" style="stroke:#181818;stroke-width:0.5;" width="121.3857" x="321.313" y="1187.875"/><text fill="#000000" font-family="sans-serif" font-size="14" lengthAdjust="spacing" textLength="107.3857" x="328.313" y="1209.4082">ReportingService</text><rect fill="#E2E2F0" height="31.6094" rx="2.5" ry="2.5" style="stroke:#181818;stroke-width:0.5;" width="180.4961" x="452.6987" y="43.6094"/><text fill="#000000" font-family="sans-serif" font-size="14" lengthAdjust="spacing" textLength="166.4961" x="459.6987" y="65.1426">UserAccessControlService</text><rect fill="#E2E2F0" height="31.6094" rx="2.5" ry="2.5" style="stroke:#181818;stroke-width:0.5;" width="180.4961" x="452.6987" y="1187.875"/><text fill="#000000" font-family="sans-serif" font-size="14" lengthAdjust="spacing" textLength="166.4961" x="459.6987" y="1209.4082">UserAccessControlService</text><rect fill="#E2E2F0" height="31.6094" rx="2.5" ry="2.5" style="stroke:#181818;stroke-width:0.5;" width="156.3994" x="643.1948" y="43.6094"/><text fill="#000000" font-family="sans-serif" font-size="14" lengthAdjust="spacing" textLength="142.3994" x="650.1948" y="65.1426">DataEncryptionService</text><rect fill="#E2E2F0" height="31.6094" rx="2.5" ry="2.5" style="stroke:#181818;stroke-width:0.5;" width="156.3994" x="643.1948" y="1187.875"/><text fill="#000000" font-family="sans-serif" font-size="14" lengthAdjust="spacing" textLength="142.3994" x="650.1948" y="1209.4082">DataEncryptionService</text><rect fill="#E2E2F0" height="31.6094" rx="2.5" ry="2.5" style="stroke:#181818;stroke-width:0.5;" width="71.5859" x="809.5942" y="43.6094"/><text fill="#000000" font-family="sans-serif" font-size="14" lengthAdjust="spacing" textLength="57.5859" x="816.5942" y="65.1426">GraphQL</text><rect fill="#E2E2F0" height="31.6094" rx="2.5" ry="2.5" style="stroke:#181818;stroke-width:0.5;" width="71.5859" x="809.5942" y="1187.875"/><text fill="#000000" font-family="sans-serif" font-size="14" lengthAdjust="spacing" textLength="57.5859" x="816.5942" y="1209.4082">GraphQL</text><rect fill="#E2E2F0" height="31.6094" rx="2.5" ry="2.5" style="stroke:#181818;stroke-width:0.5;" width="66.9102" x="891.1802" y="43.6094"/><text fill="#000000" font-family="sans-serif" font-size="14" lengthAdjust="spacing" textLength="52.9102" x="898.1802" y="65.1426">RSocket</text><rect fill="#E2E2F0" height="31.6094" rx="2.5" ry="2.5" style="stroke:#181818;stroke-width:0.5;" width="66.9102" x="891.1802" y="1187.875"/><text fill="#000000" font-family="sans-serif" font-size="14" lengthAdjust="spacing" textLength="52.9102" x="898.1802" y="1209.4082">RSocket</text><rect fill="#E2E2F0" height="31.6094" rx="2.5" ry="2.5" style="stroke:#181818;stroke-width:0.5;" width="82.4688" x="968.0903" y="43.6094"/><text fill="#000000" font-family="sans-serif" font-size="14" lengthAdjust="spacing" textLength="68.4688" x="975.0903" y="65.1426">NgRxStore</text><rect fill="#E2E2F0" height="31.6094" rx="2.5" ry="2.5" style="stroke:#181818;stroke-width:0.5;" width="82.4688" x="968.0903" y="1187.875"/><text fill="#000000" font-family="sans-serif" font-size="14" lengthAdjust="spacing" textLength="68.4688" x="975.0903" y="1209.4082">NgRxStore</text><rect fill="#E2E2F0" height="31.6094" rx="2.5" ry="2.5" style="stroke:#181818;stroke-width:0.5;" width="49.7998" x="1060.5591" y="43.6094"/><text fill="#000000" font-family="sans-serif" font-size="14" lengthAdjust="spacing" textLength="35.7998" x="1067.5591" y="65.1426">Kafka</text><rect fill="#E2E2F0" height="31.6094" rx="2.5" ry="2.5" style="stroke:#181818;stroke-width:0.5;" width="49.7998" x="1060.5591" y="1187.875"/><text fill="#000000" font-family="sans-serif" font-size="14" lengthAdjust="spacing" textLength="35.7998" x="1067.5591" y="1209.4082">Kafka</text><rect fill="#E2E2F0" height="31.6094" rx="2.5" ry="2.5" style="stroke:#181818;stroke-width:0.5;" width="41.2344" x="1120.3589" y="43.6094"/><text fill="#000000" font-family="sans-serif" font-size="14" lengthAdjust="spacing" textLength="27.2344" x="1127.3589" y="65.1426">EC2</text><rect fill="#E2E2F0" height="31.6094" rx="2.5" ry="2.5" style="stroke:#181818;stroke-width:0.5;" width="41.2344" x="1120.3589" y="1187.875"/><text fill="#000000" font-family="sans-serif" font-size="14" lengthAdjust="spacing" textLength="27.2344" x="1127.3589" y="1209.4082">EC2</text><rect fill="#E2E2F0" height="31.6094" rx="2.5" ry="2.5" style="stroke:#181818;stroke-width:0.5;" width="31.124" x="1171.5933" y="43.6094"/><text fill="#000000" font-family="sans-serif" font-size="14" lengthAdjust="spacing" textLength="17.124" x="1178.5933" y="65.1426">S3</text><rect fill="#E2E2F0" height="31.6094" rx="2.5" ry="2.5" style="stroke:#181818;stroke-width:0.5;" width="31.124" x="1171.5933" y="1187.875"/><text fill="#000000" font-family="sans-serif" font-size="14" lengthAdjust="spacing" textLength="17.124" x="1178.5933" y="1209.4082">S3</text><rect fill="#E2E2F0" height="31.6094" rx="2.5" ry="2.5" style="stroke:#181818;stroke-width:0.5;" width="43.5586" x="1212.7173" y="43.6094"/><text fill="#000000" font-family="sans-serif" font-size="14" lengthAdjust="spacing" textLength="29.5586" x="1219.7173" y="65.1426">RDS</text><rect fill="#E2E2F0" height="31.6094" rx="2.5" ry="2.5" style="stroke:#181818;stroke-width:0.5;" width="43.5586" x="1212.7173" y="1187.875"/><text fill="#000000" font-family="sans-serif" font-size="14" lengthAdjust="spacing" textLength="29.5586" x="1219.7173" y="1209.4082">RDS</text><rect fill="#E2E2F0" height="31.6094" rx="2.5" ry="2.5" style="stroke:#181818;stroke-width:0.5;" width="64.5928" x="1266.2759" y="43.6094"/><text fill="#000000" font-family="sans-serif" font-size="14" lengthAdjust="spacing" textLength="50.5928" x="1273.2759" y="65.1426">Lambda</text><rect fill="#E2E2F0" height="31.6094" rx="2.5" ry="2.5" style="stroke:#181818;stroke-width:0.5;" width="64.5928" x="1266.2759" y="1187.875"/><text fill="#000000" font-family="sans-serif" font-size="14" lengthAdjust="spacing" textLength="50.5928" x="1273.2759" y="1209.4082">Lambda</text><polygon fill="#181818" points="228.103,104.5703,238.103,108.5703,228.103,112.5703,232.103,108.5703" style="stroke:#181818;stroke-width:1.0;"/><line style="stroke:#181818;stroke-width:1.0;stroke-dasharray:2.0,2.0;" x1="72.3032" x2="234.103" y1="108.5703" y2="108.5703"/><text fill="#000000" font-family="sans-serif" font-size="13" lengthAdjust="spacing" textLength="143.7998" x="79.3032" y="103.7139">Logs Compliance Events</text><polygon fill="#181818" points="370.0059,134.9219,380.0059,138.9219,370.0059,142.9219,374.0059,138.9219" style="stroke:#181818;stroke-width:1.0;"/><line style="stroke:#181818;stroke-width:1.0;stroke-dasharray:2.0,2.0;" x1="72.3032" x2="376.0059" y1="138.9219" y2="138.9219"/><text fill="#000000" font-family="sans-serif" font-size="13" lengthAdjust="spacing" textLength="182.0889" x="79.3032" y="134.0654">Generates Compliance Reports</text><polygon fill="#181818" points="530.9468,165.2734,540.9468,169.2734,530.9468,173.2734,534.9468,169.2734" style="stroke:#181818;stroke-width:1.0;"/><line style="stroke:#181818;stroke-width:1.0;stroke-dasharray:2.0,2.0;" x1="72.3032" x2="536.9468" y1="169.2734" y2="169.2734"/><text fill="#000000" font-family="sans-serif" font-size="13" lengthAdjust="spacing" textLength="148.8335" x="79.3032" y="164.417">Enforces Access Controls</text><polygon fill="#181818" points="709.3945,195.625,719.3945,199.625,709.3945,203.625,713.3945,199.625" style="stroke:#181818;stroke-width:1.0;"/><line style="stroke:#181818;stroke-width:1.0;stroke-dasharray:2.0,2.0;" x1="72.3032" x2="715.3945" y1="199.625" y2="199.625"/><text fill="#000000" font-family="sans-serif" font-size="13" lengthAdjust="spacing" textLength="143.7935" x="79.3032" y="194.7686">Ensures Data Encryption</text><polygon fill="#181818" points="833.3872,225.9766,843.3872,229.9766,833.3872,233.9766,837.3872,229.9766" style="stroke:#181818;stroke-width:1.0;"/><line style="stroke:#181818;stroke-width:1.0;stroke-dasharray:2.0,2.0;" x1="240.103" x2="839.3872" y1="229.9766" y2="229.9766"/><text fill="#000000" font-family="sans-serif" font-size="13" lengthAdjust="spacing" textLength="29.6182" x="247.103" y="225.1201">Uses</text><polygon fill="#181818" points="833.3872,256.3281,843.3872,260.3281,833.3872,264.3281,837.3872,260.3281" style="stroke:#181818;stroke-width:1.0;"/><line style="stroke:#181818;stroke-width:1.0;stroke-dasharray:2.0,2.0;" x1="382.0059" x2="839.3872" y1="260.3281" y2="260.3281"/><text fill="#000000" font-family="sans-serif" font-size="13" lengthAdjust="spacing" textLength="29.6182" x="389.0059" y="255.4717">Uses</text><polygon fill="#181818" points="833.3872,286.6797,843.3872,290.6797,833.3872,294.6797,837.3872,290.6797" style="stroke:#181818;stroke-width:1.0;"/><line style="stroke:#181818;stroke-width:1.0;stroke-dasharray:2.0,2.0;" x1="542.9468" x2="839.3872" y1="290.6797" y2="290.6797"/><text fill="#000000" font-family="sans-serif" font-size="13" lengthAdjust="spacing" textLength="29.6182" x="549.9468" y="285.8232">Uses</text><polygon fill="#181818" points="833.3872,317.0313,843.3872,321.0313,833.3872,325.0313,837.3872,321.0313" style="stroke:#181818;stroke-width:1.0;"/><line style="stroke:#181818;stroke-width:1.0;stroke-dasharray:2.0,2.0;" x1="721.3945" x2="839.3872" y1="321.0313" y2="321.0313"/><text fill="#000000" font-family="sans-serif" font-size="13" lengthAdjust="spacing" textLength="29.6182" x="728.3945" y="316.1748">Uses</text><polygon fill="#181818" points="912.6353,347.3828,922.6353,351.3828,912.6353,355.3828,916.6353,351.3828" style="stroke:#181818;stroke-width:1.0;"/><line style="stroke:#181818;stroke-width:1.0;stroke-dasharray:2.0,2.0;" x1="240.103" x2="918.6353" y1="351.3828" y2="351.3828"/><text fill="#000000" font-family="sans-serif" font-size="13" lengthAdjust="spacing" textLength="29.6182" x="247.103" y="346.5264">Uses</text><polygon fill="#181818" points="912.6353,377.7344,922.6353,381.7344,912.6353,385.7344,916.6353,381.7344" style="stroke:#181818;stroke-width:1.0;"/><line style="stroke:#181818;stroke-width:1.0;stroke-dasharray:2.0,2.0;" x1="382.0059" x2="918.6353" y1="381.7344" y2="381.7344"/><text fill="#000000" font-family="sans-serif" font-size="13" lengthAdjust="spacing" textLength="29.6182" x="389.0059" y="376.8779">Uses</text><polygon fill="#181818" points="912.6353,408.0859,922.6353,412.0859,912.6353,416.0859,916.6353,412.0859" style="stroke:#181818;stroke-width:1.0;"/><line style="stroke:#181818;stroke-width:1.0;stroke-dasharray:2.0,2.0;" x1="542.9468" x2="918.6353" y1="412.0859" y2="412.0859"/><text fill="#000000" font-family="sans-serif" font-size="13" lengthAdjust="spacing" textLength="29.6182" x="549.9468" y="407.2295">Uses</text><polygon fill="#181818" points="912.6353,438.4375,922.6353,442.4375,912.6353,446.4375,916.6353,442.4375" style="stroke:#181818;stroke-width:1.0;"/><line style="stroke:#181818;stroke-width:1.0;stroke-dasharray:2.0,2.0;" x1="721.3945" x2="918.6353" y1="442.4375" y2="442.4375"/><text fill="#000000" font-family="sans-serif" font-size="13" lengthAdjust="spacing" textLength="29.6182" x="728.3945" y="437.5811">Uses</text><polygon fill="#181818" points="997.3247,468.7891,1007.3247,472.7891,997.3247,476.7891,1001.3247,472.7891" style="stroke:#181818;stroke-width:1.0;"/><line style="stroke:#181818;stroke-width:1.0;stroke-dasharray:2.0,2.0;" x1="240.103" x2="1003.3247" y1="472.7891" y2="472.7891"/><text fill="#000000" font-family="sans-serif" font-size="13" lengthAdjust="spacing" textLength="87.4453" x="247.103" y="467.9326">Manages State</text><polygon fill="#181818" points="997.3247,499.1406,1007.3247,503.1406,997.3247,507.1406,1001.3247,503.1406" style="stroke:#181818;stroke-width:1.0;"/><line style="stroke:#181818;stroke-width:1.0;stroke-dasharray:2.0,2.0;" x1="382.0059" x2="1003.3247" y1="503.1406" y2="503.1406"/><text fill="#000000" font-family="sans-serif" font-size="13" lengthAdjust="spacing" textLength="87.4453" x="389.0059" y="498.2842">Manages State</text><polygon fill="#181818" points="997.3247,529.4922,1007.3247,533.4922,997.3247,537.4922,1001.3247,533.4922" style="stroke:#181818;stroke-width:1.0;"/><line style="stroke:#181818;stroke-width:1.0;stroke-dasharray:2.0,2.0;" x1="542.9468" x2="1003.3247" y1="533.4922" y2="533.4922"/><text fill="#000000" font-family="sans-serif" font-size="13" lengthAdjust="spacing" textLength="87.4453" x="549.9468" y="528.6357">Manages State</text><polygon fill="#181818" points="997.3247,559.8438,1007.3247,563.8438,997.3247,567.8438,1001.3247,563.8438" style="stroke:#181818;stroke-width:1.0;"/><line style="stroke:#181818;stroke-width:1.0;stroke-dasharray:2.0,2.0;" x1="721.3945" x2="1003.3247" y1="563.8438" y2="563.8438"/><text fill="#000000" font-family="sans-serif" font-size="13" lengthAdjust="spacing" textLength="87.4453" x="728.3945" y="558.9873">Manages State</text><polygon fill="#181818" points="1073.459,590.1953,1083.459,594.1953,1073.459,598.1953,1077.459,594.1953" style="stroke:#181818;stroke-width:1.0;"/><line style="stroke:#181818;stroke-width:1.0;stroke-dasharray:2.0,2.0;" x1="240.103" x2="1079.459" y1="594.1953" y2="594.1953"/><text fill="#000000" font-family="sans-serif" font-size="13" lengthAdjust="spacing" textLength="165.4707" x="247.103" y="589.3389">Publishes/Consumes Events</text><polygon fill="#181818" points="1073.459,620.5469,1083.459,624.5469,1073.459,628.5469,1077.459,624.5469" style="stroke:#181818;stroke-width:1.0;"/><line style="stroke:#181818;stroke-width:1.0;stroke-dasharray:2.0,2.0;" x1="382.0059" x2="1079.459" y1="624.5469" y2="624.5469"/><text fill="#000000" font-family="sans-serif" font-size="13" lengthAdjust="spacing" textLength="165.4707" x="389.0059" y="619.6904">Publishes/Consumes Events</text><polygon fill="#181818" points="1073.459,650.8984,1083.459,654.8984,1073.459,658.8984,1077.459,654.8984" style="stroke:#181818;stroke-width:1.0;"/><line style="stroke:#181818;stroke-width:1.0;stroke-dasharray:2.0,2.0;" x1="542.9468" x2="1079.459" y1="654.8984" y2="654.8984"/><text fill="#000000" font-family="sans-serif" font-size="13" lengthAdjust="spacing" textLength="165.4707" x="549.9468" y="650.042">Publishes/Consumes Events</text><polygon fill="#181818" points="1073.459,681.25,1083.459,685.25,1073.459,689.25,1077.459,685.25" style="stroke:#181818;stroke-width:1.0;"/><line style="stroke:#181818;stroke-width:1.0;stroke-dasharray:2.0,2.0;" x1="721.3945" x2="1079.459" y1="685.25" y2="685.25"/><text fill="#000000" font-family="sans-serif" font-size="13" lengthAdjust="spacing" textLength="165.4707" x="728.3945" y="680.3936">Publishes/Consumes Events</text><polygon fill="#181818" points="1128.9761,711.6016,1138.9761,715.6016,1128.9761,719.6016,1132.9761,715.6016" style="stroke:#181818;stroke-width:1.0;"/><line style="stroke:#181818;stroke-width:1.0;stroke-dasharray:2.0,2.0;" x1="240.103" x2="1134.9761" y1="715.6016" y2="715.6016"/><text fill="#000000" font-family="sans-serif" font-size="13" lengthAdjust="spacing" textLength="29.6182" x="247.103" y="710.7451">Uses</text><polygon fill="#181818" points="1175.1553,741.9531,1185.1553,745.9531,1175.1553,749.9531,1179.1553,745.9531" style="stroke:#181818;stroke-width:1.0;"/><line style="stroke:#181818;stroke-width:1.0;stroke-dasharray:2.0,2.0;" x1="240.103" x2="1181.1553" y1="745.9531" y2="745.9531"/><text fill="#000000" font-family="sans-serif" font-size="13" lengthAdjust="spacing" textLength="29.6182" x="247.103" y="741.0967">Uses</text><polygon fill="#181818" points="1222.4966,772.3047,1232.4966,776.3047,1222.4966,780.3047,1226.4966,776.3047" style="stroke:#181818;stroke-width:1.0;"/><line style="stroke:#181818;stroke-width:1.0;stroke-dasharray:2.0,2.0;" x1="240.103" x2="1228.4966" y1="776.3047" y2="776.3047"/><text fill="#000000" font-family="sans-serif" font-size="13" lengthAdjust="spacing" textLength="29.6182" x="247.103" y="771.4482">Uses</text><polygon fill="#181818" points="1286.5723,802.6563,1296.5723,806.6563,1286.5723,810.6563,1290.5723,806.6563" style="stroke:#181818;stroke-width:1.0;"/><line style="stroke:#181818;stroke-width:1.0;stroke-dasharray:2.0,2.0;" x1="240.103" x2="1292.5723" y1="806.6563" y2="806.6563"/><text fill="#000000" font-family="sans-serif" font-size="13" lengthAdjust="spacing" textLength="29.6182" x="247.103" y="801.7998">Uses</text><polygon fill="#181818" points="1128.9761,833.0078,1138.9761,837.0078,1128.9761,841.0078,1132.9761,837.0078" style="stroke:#181818;stroke-width:1.0;"/><line style="stroke:#181818;stroke-width:1.0;stroke-dasharray:2.0,2.0;" x1="382.0059" x2="1134.9761" y1="837.0078" y2="837.0078"/><text fill="#000000" font-family="sans-serif" font-size="13" lengthAdjust="spacing" textLength="29.6182" x="389.0059" y="832.1514">Uses</text><polygon fill="#181818" points="1175.1553,863.3594,1185.1553,867.3594,1175.1553,871.3594,1179.1553,867.3594" style="stroke:#181818;stroke-width:1.0;"/><line style="stroke:#181818;stroke-width:1.0;stroke-dasharray:2.0,2.0;" x1="382.0059" x2="1181.1553" y1="867.3594" y2="867.3594"/><text fill="#000000" font-family="sans-serif" font-size="13" lengthAdjust="spacing" textLength="29.6182" x="389.0059" y="862.5029">Uses</text><polygon fill="#181818" points="1222.4966,893.7109,1232.4966,897.7109,1222.4966,901.7109,1226.4966,897.7109" style="stroke:#181818;stroke-width:1.0;"/><line style="stroke:#181818;stroke-width:1.0;stroke-dasharray:2.0,2.0;" x1="382.0059" x2="1228.4966" y1="897.7109" y2="897.7109"/><text fill="#000000" font-family="sans-serif" font-size="13" lengthAdjust="spacing" textLength="29.6182" x="389.0059" y="892.8545">Uses</text><polygon fill="#181818" points="1286.5723,924.0625,1296.5723,928.0625,1286.5723,932.0625,1290.5723,928.0625" style="stroke:#181818;stroke-width:1.0;"/><line style="stroke:#181818;stroke-width:1.0;stroke-dasharray:2.0,2.0;" x1="382.0059" x2="1292.5723" y1="928.0625" y2="928.0625"/><text fill="#000000" font-family="sans-serif" font-size="13" lengthAdjust="spacing" textLength="29.6182" x="389.0059" y="923.2061">Uses</text><polygon fill="#181818" points="1128.9761,954.4141,1138.9761,958.4141,1128.9761,962.4141,1132.9761,958.4141" style="stroke:#181818;stroke-width:1.0;"/><line style="stroke:#181818;stroke-width:1.0;stroke-dasharray:2.0,2.0;" x1="542.9468" x2="1134.9761" y1="958.4141" y2="958.4141"/><text fill="#000000" font-family="sans-serif" font-size="13" lengthAdjust="spacing" textLength="29.6182" x="549.9468" y="953.5576">Uses</text><polygon fill="#181818" points="1175.1553,984.7656,1185.1553,988.7656,1175.1553,992.7656,1179.1553,988.7656" style="stroke:#181818;stroke-width:1.0;"/><line style="stroke:#181818;stroke-width:1.0;stroke-dasharray:2.0,2.0;" x1="542.9468" x2="1181.1553" y1="988.7656" y2="988.7656"/><text fill="#000000" font-family="sans-serif" font-size="13" lengthAdjust="spacing" textLength="29.6182" x="549.9468" y="983.9092">Uses</text><polygon fill="#181818" points="1222.4966,1015.1172,1232.4966,1019.1172,1222.4966,1023.1172,1226.4966,1019.1172" style="stroke:#181818;stroke-width:1.0;"/><line style="stroke:#181818;stroke-width:1.0;stroke-dasharray:2.0,2.0;" x1="542.9468" x2="1228.4966" y1="1019.1172" y2="1019.1172"/><text fill="#000000" font-family="sans-serif" font-size="13" lengthAdjust="spacing" textLength="29.6182" x="549.9468" y="1014.2607">Uses</text><polygon fill="#181818" points="1286.5723,1045.4688,1296.5723,1049.4688,1286.5723,1053.4688,1290.5723,1049.4688" style="stroke:#181818;stroke-width:1.0;"/><line style="stroke:#181818;stroke-width:1.0;stroke-dasharray:2.0,2.0;" x1="542.9468" x2="1292.5723" y1="1049.4688" y2="1049.4688"/><text fill="#000000" font-family="sans-serif" font-size="13" lengthAdjust="spacing" textLength="29.6182" x="549.9468" y="1044.6123">Uses</text><polygon fill="#181818" points="1128.9761,1075.8203,1138.9761,1079.8203,1128.9761,1083.8203,1132.9761,1079.8203" style="stroke:#181818;stroke-width:1.0;"/><line style="stroke:#181818;stroke-width:1.0;stroke-dasharray:2.0,2.0;" x1="721.3945" x2="1134.9761" y1="1079.8203" y2="1079.8203"/><text fill="#000000" font-family="sans-serif" font-size="13" lengthAdjust="spacing" textLength="29.6182" x="728.3945" y="1074.9639">Uses</text><polygon fill="#181818" points="1175.1553,1106.1719,1185.1553,1110.1719,1175.1553,1114.1719,1179.1553,1110.1719" style="stroke:#181818;stroke-width:1.0;"/><line style="stroke:#181818;stroke-width:1.0;stroke-dasharray:2.0,2.0;" x1="721.3945" x2="1181.1553" y1="1110.1719" y2="1110.1719"/><text fill="#000000" font-family="sans-serif" font-size="13" lengthAdjust="spacing" textLength="29.6182" x="728.3945" y="1105.3154">Uses</text><polygon fill="#181818" points="1222.4966,1136.5234,1232.4966,1140.5234,1222.4966,1144.5234,1226.4966,1140.5234" style="stroke:#181818;stroke-width:1.0;"/><line style="stroke:#181818;stroke-width:1.0;stroke-dasharray:2.0,2.0;" x1="721.3945" x2="1228.4966" y1="1140.5234" y2="1140.5234"/><text fill="#000000" font-family="sans-serif" font-size="13" lengthAdjust="spacing" textLength="29.6182" x="728.3945" y="1135.667">Uses</text><polygon fill="#181818" points="1286.5723,1166.875,1296.5723,1170.875,1286.5723,1174.875,1290.5723,1170.875" style="stroke:#181818;stroke-width:1.0;"/><line style="stroke:#181818;stroke-width:1.0;stroke-dasharray:2.0,2.0;" x1="721.3945" x2="1292.5723" y1="1170.875" y2="1170.875"/><text fill="#000000" font-family="sans-serif" font-size="13" lengthAdjust="spacing" textLength="29.6182" x="728.3945" y="1166.0186">Uses</text><!--SRC=[XPF1Ri8m343l-Ohm0MZITjjXKWKLXvN2MlO18GqbeYHLagBjx-SEM4eNfxSgVdQVdNXMYODKWXRfOfVagoobl67MajdjVB5PRpTvckyer-TMAw4S8Kww1a9mq4YcUF-fhAo4OKx25vMA9eOVfHFSTKOGuj5Ic8k4ZFdyZIPT9Lscwrgg-dx-Ik703ckd5_YdHKeKejN6FUIlXEf5n4EHAuTL-RJ299mBQw4HPtJZgwNge0r4w3LERm1MQSaSInKttsq_YM4P2uEmlt7g0K92C-WBhGnhZnyPf8AS9V_w331e5m4sx1a0KS6YrFmaN5Hmn4G5HomkE09HmRmklagdJJ_-DLEiXl6N3Xv6s1N7ezfu6ju1deCsyyuE9mRujjitqXw5VUfNhZj3vcq_WarDfqMRcqx7cvpEHPjD5y_tsyMGycMAA9Rb59AnyxvYVmyfEC61Ip3kHS8Ru2s2yP52z3O6Ab7EAyKNpgj5kP4YVkC3FnpoSf4DzsOuzAZr0m00]--></g></svg>