<svg xmlns="http://www.w3.org/2000/svg" xmlns:xlink="http://www.w3.org/1999/xlink" contentStyleType="text/css" height="494px" preserveAspectRatio="none" style="width:244px;height:494px;background:#FFFFFF;" version="1.1" viewBox="0 0 244 494" width="244px" zoomAndPan="magnify"><title>Containerization Layer for BECS</title><defs/><g><text fill="#000000" font-family="sans-serif" font-size="14" font-weight="bold" lengthAdjust="spacing" textLength="216.2549" x="10" y="24.5332">Containerization Layer for BECS</text><!--class Docker--><g id="elem_Docker"><rect codeLine="5" fill="#F1F1F1" height="65.6094" id="Docker" rx="2.5" ry="2.5" style="stroke:#181818;stroke-width:0.5;" width="201.834" x="24.2104" y="45.6094"/><ellipse cx="98.7051" cy="61.6094" fill="#ADD1B2" rx="11" ry="11" style="stroke:#181818;stroke-width:1.0;"/><path d="M101.4707,57.4844 Q101.627,57.2656 101.8145,57.1563 Q102.002,57.0469 102.2207,57.0469 Q102.5957,57.0469 102.8301,57.3125 Q103.0645,57.5625 103.0645,58.1719 L103.0645,59.625 Q103.0645,60.2344 102.8301,60.5 Q102.5957,60.7656 102.2207,60.7656 Q101.877,60.7656 101.6738,60.5625 Q101.4707,60.375 101.3613,59.8594 Q101.3145,59.5 101.127,59.3125 Q100.7988,58.9375 100.1895,58.7188 Q99.5801,58.5 98.9551,58.5 Q98.1895,58.5 97.5488,58.8281 Q96.9238,59.1563 96.4238,59.9063 Q95.9395,60.6563 95.9395,61.6875 L95.9395,62.7813 Q95.9395,64.0156 96.8301,64.8438 Q97.7207,65.6563 99.3145,65.6563 Q100.252,65.6563 100.9082,65.4063 Q101.2988,65.25 101.7207,64.8125 Q101.9863,64.5469 102.127,64.4688 Q102.2832,64.3906 102.4863,64.3906 Q102.8145,64.3906 103.0645,64.6563 Q103.3301,64.9063 103.3301,65.25 Q103.3301,65.5938 102.9863,66 Q102.4863,66.5781 101.6895,66.9063 Q100.6113,67.3594 99.3145,67.3594 Q97.7988,67.3594 96.5957,66.7344 Q95.6113,66.2344 94.9238,65.1719 Q94.2363,64.0938 94.2363,62.8125 L94.2363,61.6563 Q94.2363,60.3281 94.8457,59.1875 Q95.4707,58.0313 96.5645,57.4219 Q97.6582,56.7969 98.8926,56.7969 Q99.627,56.7969 100.2676,56.9688 Q100.9238,57.125 101.4707,57.4844 Z " fill="#000000"/><text fill="#000000" font-family="sans-serif" font-size="14" lengthAdjust="spacing" textLength="44.3447" x="119.2051" y="67.3379">Docker</text><line style="stroke:#181818;stroke-width:0.5;" x1="25.2104" x2="225.0444" y1="77.6094" y2="77.6094"/><ellipse cx="35.2104" cy="91.9141" fill="none" rx="3" ry="3" style="stroke:#038048;stroke-width:1.0;"/><text fill="#000000" font-family="sans-serif" font-size="14" lengthAdjust="spacing" textLength="175.834" x="44.2104" y="96.1426">Microservices as Containers</text><line style="stroke:#181818;stroke-width:0.5;" x1="25.2104" x2="225.0444" y1="103.2188" y2="103.2188"/></g><!--class Kubernetes--><g id="elem_Kubernetes"><rect codeLine="9" fill="#F1F1F1" height="100.8281" id="Kubernetes" rx="2.5" ry="2.5" style="stroke:#181818;stroke-width:0.5;" width="174.627" x="37.7104" y="189.6094"/><ellipse cx="84.9707" cy="205.6094" fill="#ADD1B2" rx="11" ry="11" style="stroke:#181818;stroke-width:1.0;"/><path d="M87.7363,201.4844 Q87.8926,201.2656 88.0801,201.1563 Q88.2676,201.0469 88.4863,201.0469 Q88.8613,201.0469 89.0957,201.3125 Q89.3301,201.5625 89.3301,202.1719 L89.3301,203.625 Q89.3301,204.2344 89.0957,204.5 Q88.8613,204.7656 88.4863,204.7656 Q88.1426,204.7656 87.9395,204.5625 Q87.7363,204.375 87.627,203.8594 Q87.5801,203.5 87.3926,203.3125 Q87.0645,202.9375 86.4551,202.7188 Q85.8457,202.5 85.2207,202.5 Q84.4551,202.5 83.8145,202.8281 Q83.1895,203.1563 82.6895,203.9063 Q82.2051,204.6563 82.2051,205.6875 L82.2051,206.7813 Q82.2051,208.0156 83.0957,208.8438 Q83.9863,209.6563 85.5801,209.6563 Q86.5176,209.6563 87.1738,209.4063 Q87.5645,209.25 87.9863,208.8125 Q88.252,208.5469 88.3926,208.4688 Q88.5488,208.3906 88.752,208.3906 Q89.0801,208.3906 89.3301,208.6563 Q89.5957,208.9063 89.5957,209.25 Q89.5957,209.5938 89.252,210 Q88.752,210.5781 87.9551,210.9063 Q86.877,211.3594 85.5801,211.3594 Q84.0645,211.3594 82.8613,210.7344 Q81.877,210.2344 81.1895,209.1719 Q80.502,208.0938 80.502,206.8125 L80.502,205.6563 Q80.502,204.3281 81.1113,203.1875 Q81.7363,202.0313 82.8301,201.4219 Q83.9238,200.7969 85.1582,200.7969 Q85.8926,200.7969 86.5332,200.9688 Q87.1895,201.125 87.7363,201.4844 Z " fill="#000000"/><text fill="#000000" font-family="sans-serif" font-size="14" lengthAdjust="spacing" textLength="71.6064" x="105.4707" y="211.3379">Kubernetes</text><line style="stroke:#181818;stroke-width:0.5;" x1="38.7104" x2="211.3374" y1="221.6094" y2="221.6094"/><ellipse cx="48.7104" cy="235.9141" fill="none" rx="3" ry="3" style="stroke:#038048;stroke-width:1.0;"/><text fill="#000000" font-family="sans-serif" font-size="14" lengthAdjust="spacing" textLength="148.627" x="57.7104" y="240.1426">Container Orchestration</text><ellipse cx="48.7104" cy="253.5234" fill="none" rx="3" ry="3" style="stroke:#038048;stroke-width:1.0;"/><text fill="#000000" font-family="sans-serif" font-size="14" lengthAdjust="spacing" textLength="98.8203" x="57.7104" y="257.752">High Availability</text><ellipse cx="48.7104" cy="271.1328" fill="none" rx="3" ry="3" style="stroke:#038048;stroke-width:1.0;"/><text fill="#000000" font-family="sans-serif" font-size="14" lengthAdjust="spacing" textLength="63.0273" x="57.7104" y="275.3613">Scalability</text><line style="stroke:#181818;stroke-width:0.5;" x1="38.7104" x2="211.3374" y1="282.4375" y2="282.4375"/></g><!--class AWS--><g id="elem_AWS"><rect codeLine="15" fill="#F1F1F1" height="118.4375" id="AWS" rx="2.5" ry="2.5" style="stroke:#181818;stroke-width:0.5;" width="76.5928" x="86.7104" y="368.6094"/><ellipse cx="107.4269" cy="384.6094" fill="#ADD1B2" rx="11" ry="11" style="stroke:#181818;stroke-width:1.0;"/><path d="M110.1925,380.4844 Q110.3487,380.2656 110.5362,380.1563 Q110.7237,380.0469 110.9425,380.0469 Q111.3175,380.0469 111.5519,380.3125 Q111.7862,380.5625 111.7862,381.1719 L111.7862,382.625 Q111.7862,383.2344 111.5519,383.5 Q111.3175,383.7656 110.9425,383.7656 Q110.5987,383.7656 110.3956,383.5625 Q110.1925,383.375 110.0831,382.8594 Q110.0362,382.5 109.8487,382.3125 Q109.5206,381.9375 108.9112,381.7188 Q108.3019,381.5 107.6769,381.5 Q106.9112,381.5 106.2706,381.8281 Q105.6456,382.1563 105.1456,382.9063 Q104.6612,383.6563 104.6612,384.6875 L104.6612,385.7813 Q104.6612,387.0156 105.5519,387.8438 Q106.4425,388.6563 108.0362,388.6563 Q108.9737,388.6563 109.63,388.4063 Q110.0206,388.25 110.4425,387.8125 Q110.7081,387.5469 110.8487,387.4688 Q111.005,387.3906 111.2081,387.3906 Q111.5362,387.3906 111.7862,387.6563 Q112.0519,387.9063 112.0519,388.25 Q112.0519,388.5938 111.7081,389 Q111.2081,389.5781 110.4112,389.9063 Q109.3331,390.3594 108.0362,390.3594 Q106.5206,390.3594 105.3175,389.7344 Q104.3331,389.2344 103.6456,388.1719 Q102.9581,387.0938 102.9581,385.8125 L102.9581,384.6563 Q102.9581,383.3281 103.5675,382.1875 Q104.1925,381.0313 105.2862,380.4219 Q106.38,379.7969 107.6144,379.7969 Q108.3487,379.7969 108.9894,379.9688 Q109.6456,380.125 110.1925,380.4844 Z " fill="#000000"/><text fill="#000000" font-family="sans-serif" font-size="14" lengthAdjust="spacing" textLength="31.8896" x="122.6972" y="390.3379">AWS</text><line style="stroke:#181818;stroke-width:0.5;" x1="87.7104" x2="162.3032" y1="400.6094" y2="400.6094"/><ellipse cx="97.7104" cy="414.9141" fill="none" rx="3" ry="3" style="stroke:#038048;stroke-width:1.0;"/><text fill="#000000" font-family="sans-serif" font-size="14" lengthAdjust="spacing" textLength="27.2344" x="106.7104" y="419.1426">EC2</text><ellipse cx="97.7104" cy="432.5234" fill="none" rx="3" ry="3" style="stroke:#038048;stroke-width:1.0;"/><text fill="#000000" font-family="sans-serif" font-size="14" lengthAdjust="spacing" textLength="17.124" x="106.7104" y="436.752">S3</text><ellipse cx="97.7104" cy="450.1328" fill="none" rx="3" ry="3" style="stroke:#038048;stroke-width:1.0;"/><text fill="#000000" font-family="sans-serif" font-size="14" lengthAdjust="spacing" textLength="29.5586" x="106.7104" y="454.3613">RDS</text><ellipse cx="97.7104" cy="467.7422" fill="none" rx="3" ry="3" style="stroke:#038048;stroke-width:1.0;"/><text fill="#000000" font-family="sans-serif" font-size="14" lengthAdjust="spacing" textLength="50.5928" x="106.7104" y="471.9707">Lambda</text><line style="stroke:#181818;stroke-width:0.5;" x1="87.7104" x2="162.3032" y1="479.0469" y2="479.0469"/></g><!--link Docker to Kubernetes--><g id="link_Docker_Kubernetes"><path codeLine="22" d="M125.2104,111.8894 C125.2104,134.1894 125.2104,158.2794 125.2104,183.5994 " fill="none" id="Docker-to-Kubernetes" style="stroke:#181818;stroke-width:1.0;"/><polygon fill="#181818" points="125.2104,189.5994,129.2104,180.5994,125.2104,184.5994,121.2104,180.5994,125.2104,189.5994" style="stroke:#181818;stroke-width:1.0;"/><text fill="#000000" font-family="sans-serif" font-size="13" lengthAdjust="spacing" textLength="71.5508" x="126.2104" y="156.1045">Managed by</text></g><!--link Kubernetes to AWS--><g id="link_Kubernetes_AWS"><path codeLine="23" d="M125.2104,290.8194 C125.2104,314.7494 125.2104,337.5994 125.2104,362.5294 " fill="none" id="Kubernetes-to-AWS" style="stroke:#181818;stroke-width:1.0;"/><polygon fill="#181818" points="125.2104,368.5294,129.2104,359.5294,125.2104,363.5294,121.2104,359.5294,125.2104,368.5294" style="stroke:#181818;stroke-width:1.0;"/><text fill="#000000" font-family="sans-serif" font-size="13" lengthAdjust="spacing" textLength="72.998" x="126.2104" y="335.1045">Deployed on</text></g><!--SRC=[LOx12i8m44Jl-OhrB5xqva6eRL6mAbZ1ypPTTJ4caaIXYlzkKaNhPSFkl9bChwOzQu9DdcwJrQp8GIfqJWZFNX6aHdiCkkKxUZOQ2cp8mjvOcEPfASJFbnbv2j930FINBArnP6yioG6wNuuJpwvfSQt8QlA1QerV3jPM7ibvstuRfJaVZf3Sa1LMhDWtyLXA_Av_mSckV2VcwR05Ht5kiZ8-1Pwh6gFXKtemc7IhZ6696WzKGzM8pZrYCNWC6LsKQG8Gkhq0]--></g></svg>