<svg xmlns="http://www.w3.org/2000/svg" xmlns:xlink="http://www.w3.org/1999/xlink" contentStyleType="text/css" height="954px" preserveAspectRatio="none" style="width:1217px;height:954px;background:#FFFFFF;" version="1.1" viewBox="0 0 1217 954" width="1217px" zoomAndPan="magnify"><title>Microservices Layer for BECS</title><defs/><g><text fill="#000000" font-family="sans-serif" font-size="14" font-weight="bold" lengthAdjust="spacing" textLength="199.9785" x="501.5107" y="24.5332">Microservices Layer for BECS</text><!--cluster Microservices--><g id="cluster_Microservices"><path d="M201.5,412.6094 L295.8926,412.6094 A3.75,3.75 0 0 1 298.3926,415.1094 L305.3926,436.2188 L1207.5,436.2188 A2.5,2.5 0 0 1 1210,438.7188 L1210,945.1094 A2.5,2.5 0 0 1 1207.5,947.6094 L201.5,947.6094 A2.5,2.5 0 0 1 199,945.1094 L199,415.1094 A2.5,2.5 0 0 1 201.5,412.6094 " fill="none" style="stroke:#000000;stroke-width:1.5;"/><line style="stroke:#000000;stroke-width:1.5;" x1="199" x2="305.3926" y1="436.2188" y2="436.2188"/><text fill="#000000" font-family="sans-serif" font-size="14" font-weight="bold" lengthAdjust="spacing" textLength="93.3926" x="203" y="429.1426">Microservices</text></g><!--cluster Appointment Management--><g id="cluster_Appointment Management"><path d="M640.5,464.6094 L817.2793,464.6094 A3.75,3.75 0 0 1 819.7793,467.1094 L826.7793,488.2188 L1175.5,488.2188 A2.5,2.5 0 0 1 1178,490.7188 L1178,671.1094 A2.5,2.5 0 0 1 1175.5,673.6094 L640.5,673.6094 A2.5,2.5 0 0 1 638,671.1094 L638,467.1094 A2.5,2.5 0 0 1 640.5,464.6094 " fill="none" style="stroke:#000000;stroke-width:1.5;"/><line style="stroke:#000000;stroke-width:1.5;" x1="638" x2="826.7793" y1="488.2188" y2="488.2188"/><text fill="#000000" font-family="sans-serif" font-size="14" font-weight="bold" lengthAdjust="spacing" textLength="175.7793" x="642" y="481.1426">Appointment Management</text></g><!--cluster Compliance and Reporting--><g id="cluster_Compliance and Reporting"><path d="M241.5,464.6094 L420.624,464.6094 A3.75,3.75 0 0 1 423.124,467.1094 L430.124,488.2188 L611.5,488.2188 A2.5,2.5 0 0 1 614,490.7188 L614,671.1094 A2.5,2.5 0 0 1 611.5,673.6094 L241.5,673.6094 A2.5,2.5 0 0 1 239,671.1094 L239,467.1094 A2.5,2.5 0 0 1 241.5,464.6094 " fill="none" style="stroke:#000000;stroke-width:1.5;"/><line style="stroke:#000000;stroke-width:1.5;" x1="239" x2="430.124" y1="488.2188" y2="488.2188"/><text fill="#000000" font-family="sans-serif" font-size="14" font-weight="bold" lengthAdjust="spacing" textLength="178.124" x="243" y="481.1426">Compliance and Reporting</text></g><!--cluster Registration and Scheduling--><g id="cluster_Registration and Scheduling"><path d="M642.5,706.6094 L833.293,706.6094 A3.75,3.75 0 0 1 835.793,709.1094 L842.793,730.2188 L1022.5,730.2188 A2.5,2.5 0 0 1 1025,732.7188 L1025,913.1094 A2.5,2.5 0 0 1 1022.5,915.6094 L642.5,915.6094 A2.5,2.5 0 0 1 640,913.1094 L640,709.1094 A2.5,2.5 0 0 1 642.5,706.6094 " fill="none" style="stroke:#000000;stroke-width:1.5;"/><line style="stroke:#000000;stroke-width:1.5;" x1="640" x2="842.793" y1="730.2188" y2="730.2188"/><text fill="#000000" font-family="sans-serif" font-size="14" font-weight="bold" lengthAdjust="spacing" textLength="189.793" x="644" y="723.1426">Registration and Scheduling</text></g><!--cluster Inventory Management--><g id="cluster_Inventory Management"><path d="M271.5,706.6094 L424.9756,706.6094 A3.75,3.75 0 0 1 427.4756,709.1094 L434.4756,730.2188 L613.5,730.2188 A2.5,2.5 0 0 1 616,732.7188 L616,913.1094 A2.5,2.5 0 0 1 613.5,915.6094 L271.5,915.6094 A2.5,2.5 0 0 1 269,913.1094 L269,709.1094 A2.5,2.5 0 0 1 271.5,706.6094 " fill="none" style="stroke:#000000;stroke-width:1.5;"/><line style="stroke:#000000;stroke-width:1.5;" x1="269" x2="434.4756" y1="730.2188" y2="730.2188"/><text fill="#000000" font-family="sans-serif" font-size="14" font-weight="bold" lengthAdjust="spacing" textLength="152.4756" x="273" y="723.1426">Inventory Management</text></g><!--class Appointment_Service--><g id="elem_Appointment_Service"><rect codeLine="15" fill="#F1F1F1" height="48" id="Appointment_Service" rx="2.5" ry="2.5" style="stroke:#181818;stroke-width:0.5;" width="165.0752" x="654.5" y="500.6094"/><ellipse cx="669.5" cy="516.6094" fill="#ADD1B2" rx="11" ry="11" style="stroke:#181818;stroke-width:1.0;"/><path d="M672.2656,512.4844 Q672.4219,512.2656 672.6094,512.1563 Q672.7969,512.0469 673.0156,512.0469 Q673.3906,512.0469 673.625,512.3125 Q673.8594,512.5625 673.8594,513.1719 L673.8594,514.625 Q673.8594,515.2344 673.625,515.5 Q673.3906,515.7656 673.0156,515.7656 Q672.6719,515.7656 672.4688,515.5625 Q672.2656,515.375 672.1563,514.8594 Q672.1094,514.5 671.9219,514.3125 Q671.5938,513.9375 670.9844,513.7188 Q670.375,513.5 669.75,513.5 Q668.9844,513.5 668.3438,513.8281 Q667.7188,514.1563 667.2188,514.9063 Q666.7344,515.6563 666.7344,516.6875 L666.7344,517.7813 Q666.7344,519.0156 667.625,519.8438 Q668.5156,520.6563 670.1094,520.6563 Q671.0469,520.6563 671.7031,520.4063 Q672.0938,520.25 672.5156,519.8125 Q672.7813,519.5469 672.9219,519.4688 Q673.0781,519.3906 673.2813,519.3906 Q673.6094,519.3906 673.8594,519.6563 Q674.125,519.9063 674.125,520.25 Q674.125,520.5938 673.7813,521 Q673.2813,521.5781 672.4844,521.9063 Q671.4063,522.3594 670.1094,522.3594 Q668.5938,522.3594 667.3906,521.7344 Q666.4063,521.2344 665.7188,520.1719 Q665.0313,519.0938 665.0313,517.8125 L665.0313,516.6563 Q665.0313,515.3281 665.6406,514.1875 Q666.2656,513.0313 667.3594,512.4219 Q668.4531,511.7969 669.6875,511.7969 Q670.4219,511.7969 671.0625,511.9688 Q671.7188,512.125 672.2656,512.4844 Z " fill="#000000"/><text fill="#000000" font-family="sans-serif" font-size="14" lengthAdjust="spacing" textLength="133.0752" x="683.5" y="522.3379">Appointment_Service</text><line style="stroke:#181818;stroke-width:0.5;" x1="655.5" x2="818.5752" y1="532.6094" y2="532.6094"/><line style="stroke:#181818;stroke-width:0.5;" x1="655.5" x2="818.5752" y1="540.6094" y2="540.6094"/></g><!--class Notification_Service--><g id="elem_Notification_Service"><rect codeLine="16" fill="#F1F1F1" height="48" id="Notification_Service" rx="2.5" ry="2.5" style="stroke:#181818;stroke-width:0.5;" width="155.7236" x="855" y="500.6094"/><ellipse cx="870" cy="516.6094" fill="#ADD1B2" rx="11" ry="11" style="stroke:#181818;stroke-width:1.0;"/><path d="M872.7656,512.4844 Q872.9219,512.2656 873.1094,512.1563 Q873.2969,512.0469 873.5156,512.0469 Q873.8906,512.0469 874.125,512.3125 Q874.3594,512.5625 874.3594,513.1719 L874.3594,514.625 Q874.3594,515.2344 874.125,515.5 Q873.8906,515.7656 873.5156,515.7656 Q873.1719,515.7656 872.9688,515.5625 Q872.7656,515.375 872.6563,514.8594 Q872.6094,514.5 872.4219,514.3125 Q872.0938,513.9375 871.4844,513.7188 Q870.875,513.5 870.25,513.5 Q869.4844,513.5 868.8438,513.8281 Q868.2188,514.1563 867.7188,514.9063 Q867.2344,515.6563 867.2344,516.6875 L867.2344,517.7813 Q867.2344,519.0156 868.125,519.8438 Q869.0156,520.6563 870.6094,520.6563 Q871.5469,520.6563 872.2031,520.4063 Q872.5938,520.25 873.0156,519.8125 Q873.2813,519.5469 873.4219,519.4688 Q873.5781,519.3906 873.7813,519.3906 Q874.1094,519.3906 874.3594,519.6563 Q874.625,519.9063 874.625,520.25 Q874.625,520.5938 874.2813,521 Q873.7813,521.5781 872.9844,521.9063 Q871.9063,522.3594 870.6094,522.3594 Q869.0938,522.3594 867.8906,521.7344 Q866.9063,521.2344 866.2188,520.1719 Q865.5313,519.0938 865.5313,517.8125 L865.5313,516.6563 Q865.5313,515.3281 866.1406,514.1875 Q866.7656,513.0313 867.8594,512.4219 Q868.9531,511.7969 870.1875,511.7969 Q870.9219,511.7969 871.5625,511.9688 Q872.2188,512.125 872.7656,512.4844 Z " fill="#000000"/><text fill="#000000" font-family="sans-serif" font-size="14" lengthAdjust="spacing" textLength="123.7236" x="884" y="522.3379">Notification_Service</text><line style="stroke:#181818;stroke-width:0.5;" x1="856" x2="1009.7236" y1="532.6094" y2="532.6094"/><line style="stroke:#181818;stroke-width:0.5;" x1="856" x2="1009.7236" y1="540.6094" y2="540.6094"/></g><!--class User_Service--><g id="elem_User_Service"><rect codeLine="17" fill="#F1F1F1" height="48" id="User_Service" rx="2.5" ry="2.5" style="stroke:#181818;stroke-width:0.5;" width="116.0273" x="1046" y="500.6094"/><ellipse cx="1061" cy="516.6094" fill="#ADD1B2" rx="11" ry="11" style="stroke:#181818;stroke-width:1.0;"/><path d="M1063.7656,512.4844 Q1063.9219,512.2656 1064.1094,512.1563 Q1064.2969,512.0469 1064.5156,512.0469 Q1064.8906,512.0469 1065.125,512.3125 Q1065.3594,512.5625 1065.3594,513.1719 L1065.3594,514.625 Q1065.3594,515.2344 1065.125,515.5 Q1064.8906,515.7656 1064.5156,515.7656 Q1064.1719,515.7656 1063.9688,515.5625 Q1063.7656,515.375 1063.6563,514.8594 Q1063.6094,514.5 1063.4219,514.3125 Q1063.0938,513.9375 1062.4844,513.7188 Q1061.875,513.5 1061.25,513.5 Q1060.4844,513.5 1059.8438,513.8281 Q1059.2188,514.1563 1058.7188,514.9063 Q1058.2344,515.6563 1058.2344,516.6875 L1058.2344,517.7813 Q1058.2344,519.0156 1059.125,519.8438 Q1060.0156,520.6563 1061.6094,520.6563 Q1062.5469,520.6563 1063.2031,520.4063 Q1063.5938,520.25 1064.0156,519.8125 Q1064.2813,519.5469 1064.4219,519.4688 Q1064.5781,519.3906 1064.7813,519.3906 Q1065.1094,519.3906 1065.3594,519.6563 Q1065.625,519.9063 1065.625,520.25 Q1065.625,520.5938 1065.2813,521 Q1064.7813,521.5781 1063.9844,521.9063 Q1062.9063,522.3594 1061.6094,522.3594 Q1060.0938,522.3594 1058.8906,521.7344 Q1057.9063,521.2344 1057.2188,520.1719 Q1056.5313,519.0938 1056.5313,517.8125 L1056.5313,516.6563 Q1056.5313,515.3281 1057.1406,514.1875 Q1057.7656,513.0313 1058.8594,512.4219 Q1059.9531,511.7969 1061.1875,511.7969 Q1061.9219,511.7969 1062.5625,511.9688 Q1063.2188,512.125 1063.7656,512.4844 Z " fill="#000000"/><text fill="#000000" font-family="sans-serif" font-size="14" lengthAdjust="spacing" textLength="84.0273" x="1075" y="522.3379">User_Service</text><line style="stroke:#181818;stroke-width:0.5;" x1="1047" x2="1161.0273" y1="532.6094" y2="532.6094"/><line style="stroke:#181818;stroke-width:0.5;" x1="1047" x2="1161.0273" y1="540.6094" y2="540.6094"/></g><!--class Calendar_Service--><g id="elem_Calendar_Service"><rect codeLine="18" fill="#F1F1F1" height="48" id="Calendar_Service" rx="2.5" ry="2.5" style="stroke:#181818;stroke-width:0.5;" width="143.2822" x="665.5" y="609.6094"/><ellipse cx="680.5" cy="625.6094" fill="#ADD1B2" rx="11" ry="11" style="stroke:#181818;stroke-width:1.0;"/><path d="M683.2656,621.4844 Q683.4219,621.2656 683.6094,621.1563 Q683.7969,621.0469 684.0156,621.0469 Q684.3906,621.0469 684.625,621.3125 Q684.8594,621.5625 684.8594,622.1719 L684.8594,623.625 Q684.8594,624.2344 684.625,624.5 Q684.3906,624.7656 684.0156,624.7656 Q683.6719,624.7656 683.4688,624.5625 Q683.2656,624.375 683.1563,623.8594 Q683.1094,623.5 682.9219,623.3125 Q682.5938,622.9375 681.9844,622.7188 Q681.375,622.5 680.75,622.5 Q679.9844,622.5 679.3438,622.8281 Q678.7188,623.1563 678.2188,623.9063 Q677.7344,624.6563 677.7344,625.6875 L677.7344,626.7813 Q677.7344,628.0156 678.625,628.8438 Q679.5156,629.6563 681.1094,629.6563 Q682.0469,629.6563 682.7031,629.4063 Q683.0938,629.25 683.5156,628.8125 Q683.7813,628.5469 683.9219,628.4688 Q684.0781,628.3906 684.2813,628.3906 Q684.6094,628.3906 684.8594,628.6563 Q685.125,628.9063 685.125,629.25 Q685.125,629.5938 684.7813,630 Q684.2813,630.5781 683.4844,630.9063 Q682.4063,631.3594 681.1094,631.3594 Q679.5938,631.3594 678.3906,630.7344 Q677.4063,630.2344 676.7188,629.1719 Q676.0313,628.0938 676.0313,626.8125 L676.0313,625.6563 Q676.0313,624.3281 676.6406,623.1875 Q677.2656,622.0313 678.3594,621.4219 Q679.4531,620.7969 680.6875,620.7969 Q681.4219,620.7969 682.0625,620.9688 Q682.7188,621.125 683.2656,621.4844 Z " fill="#000000"/><text fill="#000000" font-family="sans-serif" font-size="14" lengthAdjust="spacing" textLength="111.2822" x="694.5" y="631.3379">Calendar_Service</text><line style="stroke:#181818;stroke-width:0.5;" x1="666.5" x2="807.7822" y1="641.6094" y2="641.6094"/><line style="stroke:#181818;stroke-width:0.5;" x1="666.5" x2="807.7822" y1="649.6094" y2="649.6094"/></g><!--class Integration_Service--><g id="elem_Integration_Service"><rect codeLine="19" fill="#F1F1F1" height="48" id="Integration_Service" rx="2.5" ry="2.5" style="stroke:#181818;stroke-width:0.5;" width="152.627" x="843.5" y="609.6094"/><ellipse cx="858.5" cy="625.6094" fill="#ADD1B2" rx="11" ry="11" style="stroke:#181818;stroke-width:1.0;"/><path d="M861.2656,621.4844 Q861.4219,621.2656 861.6094,621.1563 Q861.7969,621.0469 862.0156,621.0469 Q862.3906,621.0469 862.625,621.3125 Q862.8594,621.5625 862.8594,622.1719 L862.8594,623.625 Q862.8594,624.2344 862.625,624.5 Q862.3906,624.7656 862.0156,624.7656 Q861.6719,624.7656 861.4688,624.5625 Q861.2656,624.375 861.1563,623.8594 Q861.1094,623.5 860.9219,623.3125 Q860.5938,622.9375 859.9844,622.7188 Q859.375,622.5 858.75,622.5 Q857.9844,622.5 857.3438,622.8281 Q856.7188,623.1563 856.2188,623.9063 Q855.7344,624.6563 855.7344,625.6875 L855.7344,626.7813 Q855.7344,628.0156 856.625,628.8438 Q857.5156,629.6563 859.1094,629.6563 Q860.0469,629.6563 860.7031,629.4063 Q861.0938,629.25 861.5156,628.8125 Q861.7813,628.5469 861.9219,628.4688 Q862.0781,628.3906 862.2813,628.3906 Q862.6094,628.3906 862.8594,628.6563 Q863.125,628.9063 863.125,629.25 Q863.125,629.5938 862.7813,630 Q862.2813,630.5781 861.4844,630.9063 Q860.4063,631.3594 859.1094,631.3594 Q857.5938,631.3594 856.3906,630.7344 Q855.4063,630.2344 854.7188,629.1719 Q854.0313,628.0938 854.0313,626.8125 L854.0313,625.6563 Q854.0313,624.3281 854.6406,623.1875 Q855.2656,622.0313 856.3594,621.4219 Q857.4531,620.7969 858.6875,620.7969 Q859.4219,620.7969 860.0625,620.9688 Q860.7188,621.125 861.2656,621.4844 Z " fill="#000000"/><text fill="#000000" font-family="sans-serif" font-size="14" lengthAdjust="spacing" textLength="120.627" x="872.5" y="631.3379">Integration_Service</text><line style="stroke:#181818;stroke-width:0.5;" x1="844.5" x2="995.127" y1="641.6094" y2="641.6094"/><line style="stroke:#181818;stroke-width:0.5;" x1="844.5" x2="995.127" y1="649.6094" y2="649.6094"/></g><!--class Compliance_Service--><g id="elem_Compliance_Service"><rect codeLine="23" fill="#F1F1F1" height="48" id="Compliance_Service" rx="2.5" ry="2.5" style="stroke:#181818;stroke-width:0.5;" width="160.3926" x="255" y="500.6094"/><ellipse cx="270" cy="516.6094" fill="#ADD1B2" rx="11" ry="11" style="stroke:#181818;stroke-width:1.0;"/><path d="M272.7656,512.4844 Q272.9219,512.2656 273.1094,512.1563 Q273.2969,512.0469 273.5156,512.0469 Q273.8906,512.0469 274.125,512.3125 Q274.3594,512.5625 274.3594,513.1719 L274.3594,514.625 Q274.3594,515.2344 274.125,515.5 Q273.8906,515.7656 273.5156,515.7656 Q273.1719,515.7656 272.9688,515.5625 Q272.7656,515.375 272.6563,514.8594 Q272.6094,514.5 272.4219,514.3125 Q272.0938,513.9375 271.4844,513.7188 Q270.875,513.5 270.25,513.5 Q269.4844,513.5 268.8438,513.8281 Q268.2188,514.1563 267.7188,514.9063 Q267.2344,515.6563 267.2344,516.6875 L267.2344,517.7813 Q267.2344,519.0156 268.125,519.8438 Q269.0156,520.6563 270.6094,520.6563 Q271.5469,520.6563 272.2031,520.4063 Q272.5938,520.25 273.0156,519.8125 Q273.2813,519.5469 273.4219,519.4688 Q273.5781,519.3906 273.7813,519.3906 Q274.1094,519.3906 274.3594,519.6563 Q274.625,519.9063 274.625,520.25 Q274.625,520.5938 274.2813,521 Q273.7813,521.5781 272.9844,521.9063 Q271.9063,522.3594 270.6094,522.3594 Q269.0938,522.3594 267.8906,521.7344 Q266.9063,521.2344 266.2188,520.1719 Q265.5313,519.0938 265.5313,517.8125 L265.5313,516.6563 Q265.5313,515.3281 266.1406,514.1875 Q266.7656,513.0313 267.8594,512.4219 Q268.9531,511.7969 270.1875,511.7969 Q270.9219,511.7969 271.5625,511.9688 Q272.2188,512.125 272.7656,512.4844 Z " fill="#000000"/><text fill="#000000" font-family="sans-serif" font-size="14" lengthAdjust="spacing" textLength="128.3926" x="284" y="522.3379">Compliance_Service</text><line style="stroke:#181818;stroke-width:0.5;" x1="256" x2="414.3926" y1="532.6094" y2="532.6094"/><line style="stroke:#181818;stroke-width:0.5;" x1="256" x2="414.3926" y1="540.6094" y2="540.6094"/></g><!--class Reporting_Service--><g id="elem_Reporting_Service"><rect codeLine="24" fill="#F1F1F1" height="48" id="Reporting_Service" rx="2.5" ry="2.5" style="stroke:#181818;stroke-width:0.5;" width="147.1719" x="450.5" y="500.6094"/><ellipse cx="465.5" cy="516.6094" fill="#ADD1B2" rx="11" ry="11" style="stroke:#181818;stroke-width:1.0;"/><path d="M468.2656,512.4844 Q468.4219,512.2656 468.6094,512.1563 Q468.7969,512.0469 469.0156,512.0469 Q469.3906,512.0469 469.625,512.3125 Q469.8594,512.5625 469.8594,513.1719 L469.8594,514.625 Q469.8594,515.2344 469.625,515.5 Q469.3906,515.7656 469.0156,515.7656 Q468.6719,515.7656 468.4688,515.5625 Q468.2656,515.375 468.1563,514.8594 Q468.1094,514.5 467.9219,514.3125 Q467.5938,513.9375 466.9844,513.7188 Q466.375,513.5 465.75,513.5 Q464.9844,513.5 464.3438,513.8281 Q463.7188,514.1563 463.2188,514.9063 Q462.7344,515.6563 462.7344,516.6875 L462.7344,517.7813 Q462.7344,519.0156 463.625,519.8438 Q464.5156,520.6563 466.1094,520.6563 Q467.0469,520.6563 467.7031,520.4063 Q468.0938,520.25 468.5156,519.8125 Q468.7813,519.5469 468.9219,519.4688 Q469.0781,519.3906 469.2813,519.3906 Q469.6094,519.3906 469.8594,519.6563 Q470.125,519.9063 470.125,520.25 Q470.125,520.5938 469.7813,521 Q469.2813,521.5781 468.4844,521.9063 Q467.4063,522.3594 466.1094,522.3594 Q464.5938,522.3594 463.3906,521.7344 Q462.4063,521.2344 461.7188,520.1719 Q461.0313,519.0938 461.0313,517.8125 L461.0313,516.6563 Q461.0313,515.3281 461.6406,514.1875 Q462.2656,513.0313 463.3594,512.4219 Q464.4531,511.7969 465.6875,511.7969 Q466.4219,511.7969 467.0625,511.9688 Q467.7188,512.125 468.2656,512.4844 Z " fill="#000000"/><text fill="#000000" font-family="sans-serif" font-size="14" lengthAdjust="spacing" textLength="115.1719" x="479.5" y="522.3379">Reporting_Service</text><line style="stroke:#181818;stroke-width:0.5;" x1="451.5" x2="596.6719" y1="532.6094" y2="532.6094"/><line style="stroke:#181818;stroke-width:0.5;" x1="451.5" x2="596.6719" y1="540.6094" y2="540.6094"/></g><!--class Audit_Service--><g id="elem_Audit_Service"><rect codeLine="25" fill="#F1F1F1" height="48" id="Audit_Service" rx="2.5" ry="2.5" style="stroke:#181818;stroke-width:0.5;" width="118.3789" x="276" y="609.6094"/><ellipse cx="291" cy="625.6094" fill="#ADD1B2" rx="11" ry="11" style="stroke:#181818;stroke-width:1.0;"/><path d="M293.7656,621.4844 Q293.9219,621.2656 294.1094,621.1563 Q294.2969,621.0469 294.5156,621.0469 Q294.8906,621.0469 295.125,621.3125 Q295.3594,621.5625 295.3594,622.1719 L295.3594,623.625 Q295.3594,624.2344 295.125,624.5 Q294.8906,624.7656 294.5156,624.7656 Q294.1719,624.7656 293.9688,624.5625 Q293.7656,624.375 293.6563,623.8594 Q293.6094,623.5 293.4219,623.3125 Q293.0938,622.9375 292.4844,622.7188 Q291.875,622.5 291.25,622.5 Q290.4844,622.5 289.8438,622.8281 Q289.2188,623.1563 288.7188,623.9063 Q288.2344,624.6563 288.2344,625.6875 L288.2344,626.7813 Q288.2344,628.0156 289.125,628.8438 Q290.0156,629.6563 291.6094,629.6563 Q292.5469,629.6563 293.2031,629.4063 Q293.5938,629.25 294.0156,628.8125 Q294.2813,628.5469 294.4219,628.4688 Q294.5781,628.3906 294.7813,628.3906 Q295.1094,628.3906 295.3594,628.6563 Q295.625,628.9063 295.625,629.25 Q295.625,629.5938 295.2813,630 Q294.7813,630.5781 293.9844,630.9063 Q292.9063,631.3594 291.6094,631.3594 Q290.0938,631.3594 288.8906,630.7344 Q287.9063,630.2344 287.2188,629.1719 Q286.5313,628.0938 286.5313,626.8125 L286.5313,625.6563 Q286.5313,624.3281 287.1406,623.1875 Q287.7656,622.0313 288.8594,621.4219 Q289.9531,620.7969 291.1875,620.7969 Q291.9219,620.7969 292.5625,620.9688 Q293.2188,621.125 293.7656,621.4844 Z " fill="#000000"/><text fill="#000000" font-family="sans-serif" font-size="14" lengthAdjust="spacing" textLength="86.3789" x="305" y="631.3379">Audit_Service</text><line style="stroke:#181818;stroke-width:0.5;" x1="277" x2="393.3789" y1="641.6094" y2="641.6094"/><line style="stroke:#181818;stroke-width:0.5;" x1="277" x2="393.3789" y1="649.6094" y2="649.6094"/></g><!--class Registration_Service--><g id="elem_Registration_Service"><rect codeLine="29" fill="#F1F1F1" height="48" id="Registration_Service" rx="2.5" ry="2.5" style="stroke:#181818;stroke-width:0.5;" width="161.1719" x="656.5" y="742.6094"/><ellipse cx="671.5" cy="758.6094" fill="#ADD1B2" rx="11" ry="11" style="stroke:#181818;stroke-width:1.0;"/><path d="M674.2656,754.4844 Q674.4219,754.2656 674.6094,754.1563 Q674.7969,754.0469 675.0156,754.0469 Q675.3906,754.0469 675.625,754.3125 Q675.8594,754.5625 675.8594,755.1719 L675.8594,756.625 Q675.8594,757.2344 675.625,757.5 Q675.3906,757.7656 675.0156,757.7656 Q674.6719,757.7656 674.4688,757.5625 Q674.2656,757.375 674.1563,756.8594 Q674.1094,756.5 673.9219,756.3125 Q673.5938,755.9375 672.9844,755.7188 Q672.375,755.5 671.75,755.5 Q670.9844,755.5 670.3438,755.8281 Q669.7188,756.1563 669.2188,756.9063 Q668.7344,757.6563 668.7344,758.6875 L668.7344,759.7813 Q668.7344,761.0156 669.625,761.8438 Q670.5156,762.6563 672.1094,762.6563 Q673.0469,762.6563 673.7031,762.4063 Q674.0938,762.25 674.5156,761.8125 Q674.7813,761.5469 674.9219,761.4688 Q675.0781,761.3906 675.2813,761.3906 Q675.6094,761.3906 675.8594,761.6563 Q676.125,761.9063 676.125,762.25 Q676.125,762.5938 675.7813,763 Q675.2813,763.5781 674.4844,763.9063 Q673.4063,764.3594 672.1094,764.3594 Q670.5938,764.3594 669.3906,763.7344 Q668.4063,763.2344 667.7188,762.1719 Q667.0313,761.0938 667.0313,759.8125 L667.0313,758.6563 Q667.0313,757.3281 667.6406,756.1875 Q668.2656,755.0313 669.3594,754.4219 Q670.4531,753.7969 671.6875,753.7969 Q672.4219,753.7969 673.0625,753.9688 Q673.7188,754.125 674.2656,754.4844 Z " fill="#000000"/><text fill="#000000" font-family="sans-serif" font-size="14" lengthAdjust="spacing" textLength="129.1719" x="685.5" y="764.3379">Registration_Service</text><line style="stroke:#181818;stroke-width:0.5;" x1="657.5" x2="816.6719" y1="774.6094" y2="774.6094"/><line style="stroke:#181818;stroke-width:0.5;" x1="657.5" x2="816.6719" y1="782.6094" y2="782.6094"/></g><!--class Scheduling_Service--><g id="elem_Scheduling_Service"><rect codeLine="30" fill="#F1F1F1" height="48" id="Scheduling_Service" rx="2.5" ry="2.5" style="stroke:#181818;stroke-width:0.5;" width="155.7441" x="853" y="742.6094"/><ellipse cx="868" cy="758.6094" fill="#ADD1B2" rx="11" ry="11" style="stroke:#181818;stroke-width:1.0;"/><path d="M870.7656,754.4844 Q870.9219,754.2656 871.1094,754.1563 Q871.2969,754.0469 871.5156,754.0469 Q871.8906,754.0469 872.125,754.3125 Q872.3594,754.5625 872.3594,755.1719 L872.3594,756.625 Q872.3594,757.2344 872.125,757.5 Q871.8906,757.7656 871.5156,757.7656 Q871.1719,757.7656 870.9688,757.5625 Q870.7656,757.375 870.6563,756.8594 Q870.6094,756.5 870.4219,756.3125 Q870.0938,755.9375 869.4844,755.7188 Q868.875,755.5 868.25,755.5 Q867.4844,755.5 866.8438,755.8281 Q866.2188,756.1563 865.7188,756.9063 Q865.2344,757.6563 865.2344,758.6875 L865.2344,759.7813 Q865.2344,761.0156 866.125,761.8438 Q867.0156,762.6563 868.6094,762.6563 Q869.5469,762.6563 870.2031,762.4063 Q870.5938,762.25 871.0156,761.8125 Q871.2813,761.5469 871.4219,761.4688 Q871.5781,761.3906 871.7813,761.3906 Q872.1094,761.3906 872.3594,761.6563 Q872.625,761.9063 872.625,762.25 Q872.625,762.5938 872.2813,763 Q871.7813,763.5781 870.9844,763.9063 Q869.9063,764.3594 868.6094,764.3594 Q867.0938,764.3594 865.8906,763.7344 Q864.9063,763.2344 864.2188,762.1719 Q863.5313,761.0938 863.5313,759.8125 L863.5313,758.6563 Q863.5313,757.3281 864.1406,756.1875 Q864.7656,755.0313 865.8594,754.4219 Q866.9531,753.7969 868.1875,753.7969 Q868.9219,753.7969 869.5625,753.9688 Q870.2188,754.125 870.7656,754.4844 Z " fill="#000000"/><text fill="#000000" font-family="sans-serif" font-size="14" lengthAdjust="spacing" textLength="123.7441" x="882" y="764.3379">Scheduling_Service</text><line style="stroke:#181818;stroke-width:0.5;" x1="854" x2="1007.7441" y1="774.6094" y2="774.6094"/><line style="stroke:#181818;stroke-width:0.5;" x1="854" x2="1007.7441" y1="782.6094" y2="782.6094"/></g><!--class History_Tracking_Service--><g id="elem_History_Tracking_Service"><rect codeLine="31" fill="#F1F1F1" height="48" id="History_Tracking_Service" rx="2.5" ry="2.5" style="stroke:#181818;stroke-width:0.5;" width="191.4961" x="656.5" y="851.6094"/><ellipse cx="671.5" cy="867.6094" fill="#ADD1B2" rx="11" ry="11" style="stroke:#181818;stroke-width:1.0;"/><path d="M674.2656,863.4844 Q674.4219,863.2656 674.6094,863.1563 Q674.7969,863.0469 675.0156,863.0469 Q675.3906,863.0469 675.625,863.3125 Q675.8594,863.5625 675.8594,864.1719 L675.8594,865.625 Q675.8594,866.2344 675.625,866.5 Q675.3906,866.7656 675.0156,866.7656 Q674.6719,866.7656 674.4688,866.5625 Q674.2656,866.375 674.1563,865.8594 Q674.1094,865.5 673.9219,865.3125 Q673.5938,864.9375 672.9844,864.7188 Q672.375,864.5 671.75,864.5 Q670.9844,864.5 670.3438,864.8281 Q669.7188,865.1563 669.2188,865.9063 Q668.7344,866.6563 668.7344,867.6875 L668.7344,868.7813 Q668.7344,870.0156 669.625,870.8438 Q670.5156,871.6563 672.1094,871.6563 Q673.0469,871.6563 673.7031,871.4063 Q674.0938,871.25 674.5156,870.8125 Q674.7813,870.5469 674.9219,870.4688 Q675.0781,870.3906 675.2813,870.3906 Q675.6094,870.3906 675.8594,870.6563 Q676.125,870.9063 676.125,871.25 Q676.125,871.5938 675.7813,872 Q675.2813,872.5781 674.4844,872.9063 Q673.4063,873.3594 672.1094,873.3594 Q670.5938,873.3594 669.3906,872.7344 Q668.4063,872.2344 667.7188,871.1719 Q667.0313,870.0938 667.0313,868.8125 L667.0313,867.6563 Q667.0313,866.3281 667.6406,865.1875 Q668.2656,864.0313 669.3594,863.4219 Q670.4531,862.7969 671.6875,862.7969 Q672.4219,862.7969 673.0625,862.9688 Q673.7188,863.125 674.2656,863.4844 Z " fill="#000000"/><text fill="#000000" font-family="sans-serif" font-size="14" lengthAdjust="spacing" textLength="159.4961" x="685.5" y="873.3379">History_Tracking_Service</text><line style="stroke:#181818;stroke-width:0.5;" x1="657.5" x2="846.9961" y1="883.6094" y2="883.6094"/><line style="stroke:#181818;stroke-width:0.5;" x1="657.5" x2="846.9961" y1="891.6094" y2="891.6094"/></g><!--class Inventory_Service--><g id="elem_Inventory_Service"><rect codeLine="35" fill="#F1F1F1" height="48" id="Inventory_Service" rx="2.5" ry="2.5" style="stroke:#181818;stroke-width:0.5;" width="144.0547" x="285" y="742.6094"/><ellipse cx="300" cy="758.6094" fill="#ADD1B2" rx="11" ry="11" style="stroke:#181818;stroke-width:1.0;"/><path d="M302.7656,754.4844 Q302.9219,754.2656 303.1094,754.1563 Q303.2969,754.0469 303.5156,754.0469 Q303.8906,754.0469 304.125,754.3125 Q304.3594,754.5625 304.3594,755.1719 L304.3594,756.625 Q304.3594,757.2344 304.125,757.5 Q303.8906,757.7656 303.5156,757.7656 Q303.1719,757.7656 302.9688,757.5625 Q302.7656,757.375 302.6563,756.8594 Q302.6094,756.5 302.4219,756.3125 Q302.0938,755.9375 301.4844,755.7188 Q300.875,755.5 300.25,755.5 Q299.4844,755.5 298.8438,755.8281 Q298.2188,756.1563 297.7188,756.9063 Q297.2344,757.6563 297.2344,758.6875 L297.2344,759.7813 Q297.2344,761.0156 298.125,761.8438 Q299.0156,762.6563 300.6094,762.6563 Q301.5469,762.6563 302.2031,762.4063 Q302.5938,762.25 303.0156,761.8125 Q303.2813,761.5469 303.4219,761.4688 Q303.5781,761.3906 303.7813,761.3906 Q304.1094,761.3906 304.3594,761.6563 Q304.625,761.9063 304.625,762.25 Q304.625,762.5938 304.2813,763 Q303.7813,763.5781 302.9844,763.9063 Q301.9063,764.3594 300.6094,764.3594 Q299.0938,764.3594 297.8906,763.7344 Q296.9063,763.2344 296.2188,762.1719 Q295.5313,761.0938 295.5313,759.8125 L295.5313,758.6563 Q295.5313,757.3281 296.1406,756.1875 Q296.7656,755.0313 297.8594,754.4219 Q298.9531,753.7969 300.1875,753.7969 Q300.9219,753.7969 301.5625,753.9688 Q302.2188,754.125 302.7656,754.4844 Z " fill="#000000"/><text fill="#000000" font-family="sans-serif" font-size="14" lengthAdjust="spacing" textLength="112.0547" x="314" y="764.3379">Inventory_Service</text><line style="stroke:#181818;stroke-width:0.5;" x1="286" x2="428.0547" y1="774.6094" y2="774.6094"/><line style="stroke:#181818;stroke-width:0.5;" x1="286" x2="428.0547" y1="782.6094" y2="782.6094"/></g><!--class Storage_Service--><g id="elem_Storage_Service"><rect codeLine="36" fill="#F1F1F1" height="48" id="Storage_Service" rx="2.5" ry="2.5" style="stroke:#181818;stroke-width:0.5;" width="135.5029" x="464" y="742.6094"/><ellipse cx="479" cy="758.6094" fill="#ADD1B2" rx="11" ry="11" style="stroke:#181818;stroke-width:1.0;"/><path d="M481.7656,754.4844 Q481.9219,754.2656 482.1094,754.1563 Q482.2969,754.0469 482.5156,754.0469 Q482.8906,754.0469 483.125,754.3125 Q483.3594,754.5625 483.3594,755.1719 L483.3594,756.625 Q483.3594,757.2344 483.125,757.5 Q482.8906,757.7656 482.5156,757.7656 Q482.1719,757.7656 481.9688,757.5625 Q481.7656,757.375 481.6563,756.8594 Q481.6094,756.5 481.4219,756.3125 Q481.0938,755.9375 480.4844,755.7188 Q479.875,755.5 479.25,755.5 Q478.4844,755.5 477.8438,755.8281 Q477.2188,756.1563 476.7188,756.9063 Q476.2344,757.6563 476.2344,758.6875 L476.2344,759.7813 Q476.2344,761.0156 477.125,761.8438 Q478.0156,762.6563 479.6094,762.6563 Q480.5469,762.6563 481.2031,762.4063 Q481.5938,762.25 482.0156,761.8125 Q482.2813,761.5469 482.4219,761.4688 Q482.5781,761.3906 482.7813,761.3906 Q483.1094,761.3906 483.3594,761.6563 Q483.625,761.9063 483.625,762.25 Q483.625,762.5938 483.2813,763 Q482.7813,763.5781 481.9844,763.9063 Q480.9063,764.3594 479.6094,764.3594 Q478.0938,764.3594 476.8906,763.7344 Q475.9063,763.2344 475.2188,762.1719 Q474.5313,761.0938 474.5313,759.8125 L474.5313,758.6563 Q474.5313,757.3281 475.1406,756.1875 Q475.7656,755.0313 476.8594,754.4219 Q477.9531,753.7969 479.1875,753.7969 Q479.9219,753.7969 480.5625,753.9688 Q481.2188,754.125 481.7656,754.4844 Z " fill="#000000"/><text fill="#000000" font-family="sans-serif" font-size="14" lengthAdjust="spacing" textLength="103.5029" x="493" y="764.3379">Storage_Service</text><line style="stroke:#181818;stroke-width:0.5;" x1="465" x2="598.5029" y1="774.6094" y2="774.6094"/><line style="stroke:#181818;stroke-width:0.5;" x1="465" x2="598.5029" y1="782.6094" y2="782.6094"/></g><!--class Expiration_Service--><g id="elem_Expiration_Service"><rect codeLine="37" fill="#F1F1F1" height="48" id="Expiration_Service" rx="2.5" ry="2.5" style="stroke:#181818;stroke-width:0.5;" width="148.7236" x="285.5" y="851.6094"/><ellipse cx="300.5" cy="867.6094" fill="#ADD1B2" rx="11" ry="11" style="stroke:#181818;stroke-width:1.0;"/><path d="M303.2656,863.4844 Q303.4219,863.2656 303.6094,863.1563 Q303.7969,863.0469 304.0156,863.0469 Q304.3906,863.0469 304.625,863.3125 Q304.8594,863.5625 304.8594,864.1719 L304.8594,865.625 Q304.8594,866.2344 304.625,866.5 Q304.3906,866.7656 304.0156,866.7656 Q303.6719,866.7656 303.4688,866.5625 Q303.2656,866.375 303.1563,865.8594 Q303.1094,865.5 302.9219,865.3125 Q302.5938,864.9375 301.9844,864.7188 Q301.375,864.5 300.75,864.5 Q299.9844,864.5 299.3438,864.8281 Q298.7188,865.1563 298.2188,865.9063 Q297.7344,866.6563 297.7344,867.6875 L297.7344,868.7813 Q297.7344,870.0156 298.625,870.8438 Q299.5156,871.6563 301.1094,871.6563 Q302.0469,871.6563 302.7031,871.4063 Q303.0938,871.25 303.5156,870.8125 Q303.7813,870.5469 303.9219,870.4688 Q304.0781,870.3906 304.2813,870.3906 Q304.6094,870.3906 304.8594,870.6563 Q305.125,870.9063 305.125,871.25 Q305.125,871.5938 304.7813,872 Q304.2813,872.5781 303.4844,872.9063 Q302.4063,873.3594 301.1094,873.3594 Q299.5938,873.3594 298.3906,872.7344 Q297.4063,872.2344 296.7188,871.1719 Q296.0313,870.0938 296.0313,868.8125 L296.0313,867.6563 Q296.0313,866.3281 296.6406,865.1875 Q297.2656,864.0313 298.3594,863.4219 Q299.4531,862.7969 300.6875,862.7969 Q301.4219,862.7969 302.0625,862.9688 Q302.7188,863.125 303.2656,863.4844 Z " fill="#000000"/><text fill="#000000" font-family="sans-serif" font-size="14" lengthAdjust="spacing" textLength="116.7236" x="314.5" y="873.3379">Expiration_Service</text><line style="stroke:#181818;stroke-width:0.5;" x1="286.5" x2="433.2236" y1="883.6094" y2="883.6094"/><line style="stroke:#181818;stroke-width:0.5;" x1="286.5" x2="433.2236" y1="891.6094" y2="891.6094"/></g><!--class Safety_Service--><g id="elem_Safety_Service"><rect codeLine="38" fill="#F1F1F1" height="48" id="Safety_Service" rx="2.5" ry="2.5" style="stroke:#181818;stroke-width:0.5;" width="126.1582" x="470" y="851.6094"/><ellipse cx="485" cy="867.6094" fill="#ADD1B2" rx="11" ry="11" style="stroke:#181818;stroke-width:1.0;"/><path d="M487.7656,863.4844 Q487.9219,863.2656 488.1094,863.1563 Q488.2969,863.0469 488.5156,863.0469 Q488.8906,863.0469 489.125,863.3125 Q489.3594,863.5625 489.3594,864.1719 L489.3594,865.625 Q489.3594,866.2344 489.125,866.5 Q488.8906,866.7656 488.5156,866.7656 Q488.1719,866.7656 487.9688,866.5625 Q487.7656,866.375 487.6563,865.8594 Q487.6094,865.5 487.4219,865.3125 Q487.0938,864.9375 486.4844,864.7188 Q485.875,864.5 485.25,864.5 Q484.4844,864.5 483.8438,864.8281 Q483.2188,865.1563 482.7188,865.9063 Q482.2344,866.6563 482.2344,867.6875 L482.2344,868.7813 Q482.2344,870.0156 483.125,870.8438 Q484.0156,871.6563 485.6094,871.6563 Q486.5469,871.6563 487.2031,871.4063 Q487.5938,871.25 488.0156,870.8125 Q488.2813,870.5469 488.4219,870.4688 Q488.5781,870.3906 488.7813,870.3906 Q489.1094,870.3906 489.3594,870.6563 Q489.625,870.9063 489.625,871.25 Q489.625,871.5938 489.2813,872 Q488.7813,872.5781 487.9844,872.9063 Q486.9063,873.3594 485.6094,873.3594 Q484.0938,873.3594 482.8906,872.7344 Q481.9063,872.2344 481.2188,871.1719 Q480.5313,870.0938 480.5313,868.8125 L480.5313,867.6563 Q480.5313,866.3281 481.1406,865.1875 Q481.7656,864.0313 482.8594,863.4219 Q483.9531,862.7969 485.1875,862.7969 Q485.9219,862.7969 486.5625,862.9688 Q487.2188,863.125 487.7656,863.4844 Z " fill="#000000"/><text fill="#000000" font-family="sans-serif" font-size="14" lengthAdjust="spacing" textLength="94.1582" x="499" y="873.3379">Safety_Service</text><line style="stroke:#181818;stroke-width:0.5;" x1="471" x2="595.1582" y1="883.6094" y2="883.6094"/><line style="stroke:#181818;stroke-width:0.5;" x1="471" x2="595.1582" y1="891.6094" y2="891.6094"/></g><!--class API_Gateway--><g id="elem_API_Gateway"><rect codeLine="5" fill="#F1F1F1" height="136.0469" id="API_Gateway" rx="2.5" ry="2.5" style="stroke:#181818;stroke-width:0.5;" width="117.5996" x="7" y="125.1094"/><ellipse cx="22" cy="141.1094" fill="#ADD1B2" rx="11" ry="11" style="stroke:#181818;stroke-width:1.0;"/><path d="M24.7656,136.9844 Q24.9219,136.7656 25.1094,136.6563 Q25.2969,136.5469 25.5156,136.5469 Q25.8906,136.5469 26.125,136.8125 Q26.3594,137.0625 26.3594,137.6719 L26.3594,139.125 Q26.3594,139.7344 26.125,140 Q25.8906,140.2656 25.5156,140.2656 Q25.1719,140.2656 24.9688,140.0625 Q24.7656,139.875 24.6563,139.3594 Q24.6094,139 24.4219,138.8125 Q24.0938,138.4375 23.4844,138.2188 Q22.875,138 22.25,138 Q21.4844,138 20.8438,138.3281 Q20.2188,138.6563 19.7188,139.4063 Q19.2344,140.1563 19.2344,141.1875 L19.2344,142.2813 Q19.2344,143.5156 20.125,144.3438 Q21.0156,145.1563 22.6094,145.1563 Q23.5469,145.1563 24.2031,144.9063 Q24.5938,144.75 25.0156,144.3125 Q25.2813,144.0469 25.4219,143.9688 Q25.5781,143.8906 25.7813,143.8906 Q26.1094,143.8906 26.3594,144.1563 Q26.625,144.4063 26.625,144.75 Q26.625,145.0938 26.2813,145.5 Q25.7813,146.0781 24.9844,146.4063 Q23.9063,146.8594 22.6094,146.8594 Q21.0938,146.8594 19.8906,146.2344 Q18.9063,145.7344 18.2188,144.6719 Q17.5313,143.5938 17.5313,142.3125 L17.5313,141.1563 Q17.5313,139.8281 18.1406,138.6875 Q18.7656,137.5313 19.8594,136.9219 Q20.9531,136.2969 22.1875,136.2969 Q22.9219,136.2969 23.5625,136.4688 Q24.2188,136.625 24.7656,136.9844 Z " fill="#000000"/><text fill="#000000" font-family="sans-serif" font-size="14" lengthAdjust="spacing" textLength="85.5996" x="36" y="146.8379">API_Gateway</text><line style="stroke:#181818;stroke-width:0.5;" x1="8" x2="123.5996" y1="157.1094" y2="157.1094"/><ellipse cx="18" cy="171.4141" fill="none" rx="3" ry="3" style="stroke:#038048;stroke-width:1.0;"/><text fill="#000000" font-family="sans-serif" font-size="14" lengthAdjust="spacing" textLength="57.5859" x="27" y="175.6426">GraphQL</text><ellipse cx="18" cy="189.0234" fill="none" rx="3" ry="3" style="stroke:#038048;stroke-width:1.0;"/><text fill="#000000" font-family="sans-serif" font-size="14" lengthAdjust="spacing" textLength="52.9102" x="27" y="193.252">RSocket</text><ellipse cx="18" cy="206.6328" fill="none" rx="3" ry="3" style="stroke:#038048;stroke-width:1.0;"/><text fill="#000000" font-family="sans-serif" font-size="14" lengthAdjust="spacing" textLength="88.7305" x="27" y="210.8613">Authentication</text><ellipse cx="18" cy="224.2422" fill="none" rx="3" ry="3" style="stroke:#038048;stroke-width:1.0;"/><text fill="#000000" font-family="sans-serif" font-size="14" lengthAdjust="spacing" textLength="81.7168" x="27" y="228.4707">Authorization</text><ellipse cx="18" cy="241.8516" fill="none" rx="3" ry="3" style="stroke:#038048;stroke-width:1.0;"/><text fill="#000000" font-family="sans-serif" font-size="14" lengthAdjust="spacing" textLength="81.7031" x="27" y="246.0801">Rate Limiting</text><line style="stroke:#181818;stroke-width:0.5;" x1="8" x2="123.5996" y1="253.1563" y2="253.1563"/></g><!--class Kafka--><g id="elem_Kafka"><rect codeLine="42" fill="#F1F1F1" height="294.5313" id="Kafka" rx="2.5" ry="2.5" style="stroke:#181818;stroke-width:0.5;" width="142.7305" x="221.5" y="45.6094"/><ellipse cx="270.7153" cy="61.6094" fill="#ADD1B2" rx="11" ry="11" style="stroke:#181818;stroke-width:1.0;"/><path d="M273.481,57.4844 Q273.6372,57.2656 273.8247,57.1563 Q274.0122,57.0469 274.231,57.0469 Q274.606,57.0469 274.8403,57.3125 Q275.0747,57.5625 275.0747,58.1719 L275.0747,59.625 Q275.0747,60.2344 274.8403,60.5 Q274.606,60.7656 274.231,60.7656 Q273.8872,60.7656 273.6841,60.5625 Q273.481,60.375 273.3716,59.8594 Q273.3247,59.5 273.1372,59.3125 Q272.8091,58.9375 272.1997,58.7188 Q271.5903,58.5 270.9653,58.5 Q270.1997,58.5 269.5591,58.8281 Q268.9341,59.1563 268.4341,59.9063 Q267.9497,60.6563 267.9497,61.6875 L267.9497,62.7813 Q267.9497,64.0156 268.8403,64.8438 Q269.731,65.6563 271.3247,65.6563 Q272.2622,65.6563 272.9185,65.4063 Q273.3091,65.25 273.731,64.8125 Q273.9966,64.5469 274.1372,64.4688 Q274.2935,64.3906 274.4966,64.3906 Q274.8247,64.3906 275.0747,64.6563 Q275.3403,64.9063 275.3403,65.25 Q275.3403,65.5938 274.9966,66 Q274.4966,66.5781 273.6997,66.9063 Q272.6216,67.3594 271.3247,67.3594 Q269.8091,67.3594 268.606,66.7344 Q267.6216,66.2344 266.9341,65.1719 Q266.2466,64.0938 266.2466,62.8125 L266.2466,61.6563 Q266.2466,60.3281 266.856,59.1875 Q267.481,58.0313 268.5747,57.4219 Q269.6685,56.7969 270.9028,56.7969 Q271.6372,56.7969 272.2778,56.9688 Q272.9341,57.125 273.481,57.4844 Z " fill="#000000"/><text fill="#000000" font-family="sans-serif" font-size="14" lengthAdjust="spacing" textLength="35.7998" x="291.2153" y="67.3379">Kafka</text><line style="stroke:#181818;stroke-width:0.5;" x1="222.5" x2="363.2305" y1="77.6094" y2="77.6094"/><rect fill="none" height="6" style="stroke:#C82930;stroke-width:1.0;" width="6" x="229.5" y="88.9141"/><text fill="#000000" font-family="sans-serif" font-size="14" lengthAdjust="spacing" textLength="116.7305" x="241.5" y="96.1426">Appointment Topic</text><rect fill="none" height="6" style="stroke:#C82930;stroke-width:1.0;" width="6" x="229.5" y="106.5234"/><text fill="#000000" font-family="sans-serif" font-size="14" lengthAdjust="spacing" textLength="107.3789" x="241.5" y="113.752">Notification Topic</text><rect fill="none" height="6" style="stroke:#C82930;stroke-width:1.0;" width="6" x="229.5" y="124.1328"/><text fill="#000000" font-family="sans-serif" font-size="14" lengthAdjust="spacing" textLength="67.6826" x="241.5" y="131.3613">User Topic</text><rect fill="none" height="6" style="stroke:#C82930;stroke-width:1.0;" width="6" x="229.5" y="141.7422"/><text fill="#000000" font-family="sans-serif" font-size="14" lengthAdjust="spacing" textLength="94.9375" x="241.5" y="148.9707">Calendar Topic</text><rect fill="none" height="6" style="stroke:#C82930;stroke-width:1.0;" width="6" x="229.5" y="159.3516"/><text fill="#000000" font-family="sans-serif" font-size="14" lengthAdjust="spacing" textLength="112.0479" x="241.5" y="166.5801">Compliance Topic</text><rect fill="none" height="6" style="stroke:#C82930;stroke-width:1.0;" width="6" x="229.5" y="176.9609"/><text fill="#000000" font-family="sans-serif" font-size="14" lengthAdjust="spacing" textLength="80.1445" x="241.5" y="184.1895">Report Topic</text><rect fill="none" height="6" style="stroke:#C82930;stroke-width:1.0;" width="6" x="229.5" y="194.5703"/><text fill="#000000" font-family="sans-serif" font-size="14" lengthAdjust="spacing" textLength="70.0342" x="241.5" y="201.7988">Audit Topic</text><rect fill="none" height="6" style="stroke:#C82930;stroke-width:1.0;" width="6" x="229.5" y="212.1797"/><text fill="#000000" font-family="sans-serif" font-size="14" lengthAdjust="spacing" textLength="112.8271" x="241.5" y="219.4082">Registration Topic</text><rect fill="none" height="6" style="stroke:#C82930;stroke-width:1.0;" width="6" x="229.5" y="229.7891"/><text fill="#000000" font-family="sans-serif" font-size="14" lengthAdjust="spacing" textLength="96.5029" x="241.5" y="237.0176">Schedule Topic</text><rect fill="none" height="6" style="stroke:#C82930;stroke-width:1.0;" width="6" x="229.5" y="247.3984"/><text fill="#000000" font-family="sans-serif" font-size="14" lengthAdjust="spacing" textLength="81.6826" x="241.5" y="254.627">History Topic</text><rect fill="none" height="6" style="stroke:#C82930;stroke-width:1.0;" width="6" x="229.5" y="265.0078"/><text fill="#000000" font-family="sans-serif" font-size="14" lengthAdjust="spacing" textLength="95.71" x="241.5" y="272.2363">Inventory Topic</text><rect fill="none" height="6" style="stroke:#C82930;stroke-width:1.0;" width="6" x="229.5" y="282.6172"/><text fill="#000000" font-family="sans-serif" font-size="14" lengthAdjust="spacing" textLength="87.1582" x="241.5" y="289.8457">Storage Topic</text><rect fill="none" height="6" style="stroke:#C82930;stroke-width:1.0;" width="6" x="229.5" y="300.2266"/><text fill="#000000" font-family="sans-serif" font-size="14" lengthAdjust="spacing" textLength="100.3789" x="241.5" y="307.4551">Expiration Topic</text><rect fill="none" height="6" style="stroke:#C82930;stroke-width:1.0;" width="6" x="229.5" y="317.8359"/><text fill="#000000" font-family="sans-serif" font-size="14" lengthAdjust="spacing" textLength="77.8135" x="241.5" y="325.0645">Safety Topic</text><line style="stroke:#181818;stroke-width:0.5;" x1="222.5" x2="363.2305" y1="332.1406" y2="332.1406"/></g><!--link API_Gateway to Microservices--><g id="link_API_Gateway_Microservices"><path codeLine="59" d="M63.77,261.5394 C64.86,300.2194 70.36,348.8494 88,388.6094 C103.965,424.5944 133.0425,457.8594 158.4575,482.3644 C171.165,494.6169 182.9569,504.6794 191.7363,511.7969 C193.9311,513.5763 195.9377,515.1716 197.7232,516.571 C197.9464,516.7459 198.1661,516.9178 198.3823,517.0866 C198.4904,517.171 193.8645,513.5671 193.9709,513.65 " fill="none" id="API_Gateway-to-Microservices" style="stroke:#181818;stroke-width:1.0;"/><polygon fill="#181818" points="198.704,517.3375,194.0627,508.6508,194.7597,514.2646,189.146,514.9616,198.704,517.3375" style="stroke:#181818;stroke-width:1.0;"/><text fill="#000000" font-family="sans-serif" font-size="13" lengthAdjust="spacing" textLength="99.7217" x="89" y="385.1045">Routes Requests</text></g><!--link Microservices to Kafka--><g id="link_Microservices_Kafka"><path codeLine="61" d="M225.5437,412.1731 C225.6652,411.9876 225.7874,411.8026 225.9104,411.6181 C226.1562,411.2491 226.405,410.8821 226.6566,410.5172 C227.1598,409.7875 227.6745,409.0663 228.2009,408.354 C229.2538,406.9294 230.3538,405.5406 231.5027,404.1917 C233.8005,401.4939 236.2944,398.9556 239,396.6094 C251.83,385.4794 303.64,401.2294 315,388.6094 C327.28,374.9694 332.7196,364.3907 334.7296,346.7807 " fill="none" id="Microservices-to-Kafka" style="stroke:#181818;stroke-width:1.0;"/><polygon fill="#181818" points="335.41,340.8194,330.4152,349.3077,334.843,345.7871,338.3636,350.2149,335.41,340.8194" style="stroke:#181818;stroke-width:1.0;"/><text fill="#000000" font-family="sans-serif" font-size="13" lengthAdjust="spacing" textLength="99.7217" x="327" y="385.1045">Publishes Events</text></g><!--link Kafka to Microservices--><g id="link_Kafka_Microservices"><path codeLine="63" d="M221.48,311.0794 C212.62,330.3594 204.95,350.5994 200,370.6094 C191.955,403.1344 193.525,440.7069 197.1938,470.4794 C197.6523,474.2009 198.1437,477.8006 198.6532,481.2533 C198.7169,481.6849 198.7809,482.1142 198.8451,482.5412 C198.8772,482.7547 198.0087,477.0355 198.0409,477.2478 " fill="none" id="Kafka-to-Microservices" style="stroke:#181818;stroke-width:1.0;"/><polygon fill="#181818" points="198.9416,483.1798,201.5452,473.6813,198.191,478.2365,193.6359,474.8823,198.9416,483.1798" style="stroke:#181818;stroke-width:1.0;"/><text fill="#000000" font-family="sans-serif" font-size="13" lengthAdjust="spacing" textLength="105.4917" x="201" y="385.1045">Consumes Events</text></g><!--SRC=[VLHDJyCm3BttLnYkQ7zW1wHILMDY8EZ6UGgfkrdhafAcm43xxwJjjhXZuUO-FzlF7yrLZWKfX2nD5l7JP9Q2B4LTHv4bMo8yaZIwHlD14ckOYHqQABI1kpIPHv4FYf-doucm-2bsy1C1t4oCgDOlizRCvbfkqBPctDWrAajIMDBgY6X3toSWSrbWHbkof5RHFeeg8JTYXN0zq7BTbJdvughIfEpM9OT7eHpMcZq9M7ECjvptgSuOJzfISH0OeBmw4G5N8afKkGYvfyhYofpdTasoLXAzhKeIIY88bKE6bJRjBFusuvc1SgVOW3zkSh918HckgBQzsaxANAunRygBMZWvKCs71mZtBeCsk-N2E0b3sb3PL7su1Jhglxi-iK9wdCy51xpfLqN_joCAjBk1nZt_9Hv4iH6Tg14_ErZeYcI7ybDZS7jUxFDuKXpo9-B1VjaCwBOx8B1zUlYm5fxgi0Y6-8cpm7v-3F4puxHkJWV0JOW_5QFHxTaJCuPCDzOP6RutM5lt4Wq9RKW_sZ4yDsybrMk7fgqyn-qzbz8cMjNDrbD_0G00]--></g></svg>