<svg xmlns="http://www.w3.org/2000/svg" xmlns:xlink="http://www.w3.org/1999/xlink" contentStyleType="text/css" height="636px" preserveAspectRatio="none" style="width:162px;height:636px;background:#FFFFFF;" version="1.1" viewBox="0 0 162 636" width="162px" zoomAndPan="magnify"><title>Monitoring Layer</title><defs/><g><text fill="#000000" font-family="sans-serif" font-size="14" font-weight="bold" lengthAdjust="spacing" textLength="113.5586" x="17.6895" y="24.5332">Monitoring Layer</text><!--class DataCollection--><g id="elem_DataCollection"><rect codeLine="5" fill="#F1F1F1" height="100.8281" id="DataCollection" rx="2.5" ry="2.5" style="stroke:#181818;stroke-width:0.5;" width="126.9375" x="18" y="45.6094"/><ellipse cx="33" cy="61.6094" fill="#ADD1B2" rx="11" ry="11" style="stroke:#181818;stroke-width:1.0;"/><path d="M35.7656,57.4844 Q35.9219,57.2656 36.1094,57.1563 Q36.2969,57.0469 36.5156,57.0469 Q36.8906,57.0469 37.125,57.3125 Q37.3594,57.5625 37.3594,58.1719 L37.3594,59.625 Q37.3594,60.2344 37.125,60.5 Q36.8906,60.7656 36.5156,60.7656 Q36.1719,60.7656 35.9688,60.5625 Q35.7656,60.375 35.6563,59.8594 Q35.6094,59.5 35.4219,59.3125 Q35.0938,58.9375 34.4844,58.7188 Q33.875,58.5 33.25,58.5 Q32.4844,58.5 31.8438,58.8281 Q31.2188,59.1563 30.7188,59.9063 Q30.2344,60.6563 30.2344,61.6875 L30.2344,62.7813 Q30.2344,64.0156 31.125,64.8438 Q32.0156,65.6563 33.6094,65.6563 Q34.5469,65.6563 35.2031,65.4063 Q35.5938,65.25 36.0156,64.8125 Q36.2813,64.5469 36.4219,64.4688 Q36.5781,64.3906 36.7813,64.3906 Q37.1094,64.3906 37.3594,64.6563 Q37.625,64.9063 37.625,65.25 Q37.625,65.5938 37.2813,66 Q36.7813,66.5781 35.9844,66.9063 Q34.9063,67.3594 33.6094,67.3594 Q32.0938,67.3594 30.8906,66.7344 Q29.9063,66.2344 29.2188,65.1719 Q28.5313,64.0938 28.5313,62.8125 L28.5313,61.6563 Q28.5313,60.3281 29.1406,59.1875 Q29.7656,58.0313 30.8594,57.4219 Q31.9531,56.7969 33.1875,56.7969 Q33.9219,56.7969 34.5625,56.9688 Q35.2188,57.125 35.7656,57.4844 Z " fill="#000000"/><text fill="#000000" font-family="sans-serif" font-size="14" lengthAdjust="spacing" textLength="94.9375" x="47" y="67.3379">Data Collection</text><line style="stroke:#181818;stroke-width:0.5;" x1="19" x2="143.9375" y1="77.6094" y2="77.6094"/><text fill="#000000" font-family="sans-serif" font-size="14" lengthAdjust="spacing" textLength="99.5723" x="24" y="96.1426">:Collect Metrics;</text><text fill="#000000" font-family="sans-serif" font-size="14" lengthAdjust="spacing" textLength="77.8271" x="24" y="113.752">:Log Events;</text><text fill="#000000" font-family="sans-serif" font-size="14" lengthAdjust="spacing" textLength="98.8203" x="24" y="131.3613">:Monitor Health;</text><line style="stroke:#181818;stroke-width:0.5;" x1="19" x2="143.9375" y1="138.4375" y2="138.4375"/></g><!--class DataAggregation--><g id="elem_DataAggregation"><rect codeLine="11" fill="#F1F1F1" height="100.8281" id="DataAggregation" rx="2.5" ry="2.5" style="stroke:#181818;stroke-width:0.5;" width="140.9648" x="11" y="206.6094"/><ellipse cx="26" cy="222.6094" fill="#ADD1B2" rx="11" ry="11" style="stroke:#181818;stroke-width:1.0;"/><path d="M28.7656,218.4844 Q28.9219,218.2656 29.1094,218.1563 Q29.2969,218.0469 29.5156,218.0469 Q29.8906,218.0469 30.125,218.3125 Q30.3594,218.5625 30.3594,219.1719 L30.3594,220.625 Q30.3594,221.2344 30.125,221.5 Q29.8906,221.7656 29.5156,221.7656 Q29.1719,221.7656 28.9688,221.5625 Q28.7656,221.375 28.6563,220.8594 Q28.6094,220.5 28.4219,220.3125 Q28.0938,219.9375 27.4844,219.7188 Q26.875,219.5 26.25,219.5 Q25.4844,219.5 24.8438,219.8281 Q24.2188,220.1563 23.7188,220.9063 Q23.2344,221.6563 23.2344,222.6875 L23.2344,223.7813 Q23.2344,225.0156 24.125,225.8438 Q25.0156,226.6563 26.6094,226.6563 Q27.5469,226.6563 28.2031,226.4063 Q28.5938,226.25 29.0156,225.8125 Q29.2813,225.5469 29.4219,225.4688 Q29.5781,225.3906 29.7813,225.3906 Q30.1094,225.3906 30.3594,225.6563 Q30.625,225.9063 30.625,226.25 Q30.625,226.5938 30.2813,227 Q29.7813,227.5781 28.9844,227.9063 Q27.9063,228.3594 26.6094,228.3594 Q25.0938,228.3594 23.8906,227.7344 Q22.9063,227.2344 22.2188,226.1719 Q21.5313,225.0938 21.5313,223.8125 L21.5313,222.6563 Q21.5313,221.3281 22.1406,220.1875 Q22.7656,219.0313 23.8594,218.4219 Q24.9531,217.7969 26.1875,217.7969 Q26.9219,217.7969 27.5625,217.9688 Q28.2188,218.125 28.7656,218.4844 Z " fill="#000000"/><text fill="#000000" font-family="sans-serif" font-size="14" lengthAdjust="spacing" textLength="108.9648" x="40" y="228.3379">Data Aggregation</text><line style="stroke:#181818;stroke-width:0.5;" x1="12" x2="150.9648" y1="238.6094" y2="238.6094"/><text fill="#000000" font-family="sans-serif" font-size="14" lengthAdjust="spacing" textLength="106.6338" x="17" y="257.1426">:Aggregate Logs;</text><text fill="#000000" font-family="sans-serif" font-size="14" lengthAdjust="spacing" textLength="114.3584" x="17" y="274.752">:Correlate Metrics;</text><text fill="#000000" font-family="sans-serif" font-size="14" lengthAdjust="spacing" textLength="74.7031" x="17" y="292.3613">:Store Data;</text><line style="stroke:#181818;stroke-width:0.5;" x1="12" x2="150.9648" y1="299.4375" y2="299.4375"/></g><!--class DataAnalysis--><g id="elem_DataAnalysis"><rect codeLine="17" fill="#F1F1F1" height="100.8281" id="DataAnalysis" rx="2.5" ry="2.5" style="stroke:#181818;stroke-width:0.5;" width="129.4961" x="17" y="367.6094"/><ellipse cx="37.3565" cy="383.6094" fill="#ADD1B2" rx="11" ry="11" style="stroke:#181818;stroke-width:1.0;"/><path d="M40.1221,379.4844 Q40.2784,379.2656 40.4659,379.1563 Q40.6534,379.0469 40.8721,379.0469 Q41.2471,379.0469 41.4815,379.3125 Q41.7159,379.5625 41.7159,380.1719 L41.7159,381.625 Q41.7159,382.2344 41.4815,382.5 Q41.2471,382.7656 40.8721,382.7656 Q40.5284,382.7656 40.3252,382.5625 Q40.1221,382.375 40.0127,381.8594 Q39.9659,381.5 39.7784,381.3125 Q39.4502,380.9375 38.8409,380.7188 Q38.2315,380.5 37.6065,380.5 Q36.8409,380.5 36.2002,380.8281 Q35.5752,381.1563 35.0752,381.9063 Q34.5909,382.6563 34.5909,383.6875 L34.5909,384.7813 Q34.5909,386.0156 35.4815,386.8438 Q36.3721,387.6563 37.9659,387.6563 Q38.9034,387.6563 39.5596,387.4063 Q39.9502,387.25 40.3721,386.8125 Q40.6377,386.5469 40.7784,386.4688 Q40.9346,386.3906 41.1377,386.3906 Q41.4659,386.3906 41.7159,386.6563 Q41.9815,386.9063 41.9815,387.25 Q41.9815,387.5938 41.6377,388 Q41.1377,388.5781 40.3409,388.9063 Q39.2627,389.3594 37.9659,389.3594 Q36.4502,389.3594 35.2471,388.7344 Q34.2627,388.2344 33.5752,387.1719 Q32.8877,386.0938 32.8877,384.8125 L32.8877,383.6563 Q32.8877,382.3281 33.4971,381.1875 Q34.1221,380.0313 35.2159,379.4219 Q36.3096,378.7969 37.544,378.7969 Q38.2784,378.7969 38.919,378.9688 Q39.5752,379.125 40.1221,379.4844 Z " fill="#000000"/><text fill="#000000" font-family="sans-serif" font-size="14" lengthAdjust="spacing" textLength="85.5928" x="52.5468" y="389.3379">Data Analysis</text><line style="stroke:#181818;stroke-width:0.5;" x1="18" x2="145.4961" y1="399.6094" y2="399.6094"/><text fill="#000000" font-family="sans-serif" font-size="14" lengthAdjust="spacing" textLength="105.0479" x="23" y="418.1426">:Analyze Trends;</text><text fill="#000000" font-family="sans-serif" font-size="14" lengthAdjust="spacing" textLength="117.4961" x="23" y="435.752">:Detect Anomalies;</text><text fill="#000000" font-family="sans-serif" font-size="14" lengthAdjust="spacing" textLength="105.8271" x="23" y="453.3613">:Generate Alerts;</text><line style="stroke:#181818;stroke-width:0.5;" x1="18" x2="145.4961" y1="460.4375" y2="460.4375"/></g><!--class Visualization--><g id="elem_Visualization"><rect codeLine="23" fill="#F1F1F1" height="100.8281" id="Visualization" rx="2.5" ry="2.5" style="stroke:#181818;stroke-width:0.5;" width="148.9375" x="7" y="528.6094"/><ellipse cx="39.2521" cy="544.6094" fill="#ADD1B2" rx="11" ry="11" style="stroke:#181818;stroke-width:1.0;"/><path d="M42.0177,540.4844 Q42.1739,540.2656 42.3614,540.1563 Q42.5489,540.0469 42.7677,540.0469 Q43.1427,540.0469 43.3771,540.3125 Q43.6114,540.5625 43.6114,541.1719 L43.6114,542.625 Q43.6114,543.2344 43.3771,543.5 Q43.1427,543.7656 42.7677,543.7656 Q42.4239,543.7656 42.2208,543.5625 Q42.0177,543.375 41.9083,542.8594 Q41.8614,542.5 41.6739,542.3125 Q41.3458,541.9375 40.7364,541.7188 Q40.1271,541.5 39.5021,541.5 Q38.7364,541.5 38.0958,541.8281 Q37.4708,542.1563 36.9708,542.9063 Q36.4864,543.6563 36.4864,544.6875 L36.4864,545.7813 Q36.4864,547.0156 37.3771,547.8438 Q38.2677,548.6563 39.8614,548.6563 Q40.7989,548.6563 41.4552,548.4063 Q41.8458,548.25 42.2677,547.8125 Q42.5333,547.5469 42.6739,547.4688 Q42.8302,547.3906 43.0333,547.3906 Q43.3614,547.3906 43.6114,547.6563 Q43.8771,547.9063 43.8771,548.25 Q43.8771,548.5938 43.5333,549 Q43.0333,549.5781 42.2364,549.9063 Q41.1583,550.3594 39.8614,550.3594 Q38.3458,550.3594 37.1427,549.7344 Q36.1583,549.2344 35.4708,548.1719 Q34.7833,547.0938 34.7833,545.8125 L34.7833,544.6563 Q34.7833,543.3281 35.3927,542.1875 Q36.0177,541.0313 37.1114,540.4219 Q38.2052,539.7969 39.4396,539.7969 Q40.1739,539.7969 40.8146,539.9688 Q41.4708,540.125 42.0177,540.4844 Z " fill="#000000"/><text fill="#000000" font-family="sans-serif" font-size="14" lengthAdjust="spacing" textLength="78.5996" x="57.0858" y="550.3379">Visualization</text><line style="stroke:#181818;stroke-width:0.5;" x1="8" x2="154.9375" y1="560.6094" y2="560.6094"/><text fill="#000000" font-family="sans-serif" font-size="14" lengthAdjust="spacing" textLength="83.2686" x="13" y="579.1426">:Dashboards;</text><text fill="#000000" font-family="sans-serif" font-size="14" lengthAdjust="spacing" textLength="56.7998" x="13" y="596.752">:Reports;</text><text fill="#000000" font-family="sans-serif" font-size="14" lengthAdjust="spacing" textLength="136.9375" x="13" y="614.3613">:Real-time Monitoring;</text><line style="stroke:#181818;stroke-width:0.5;" x1="8" x2="154.9375" y1="621.4375" y2="621.4375"/></g><!--link DataCollection to DataAggregation--><g id="link_DataCollection_DataAggregation"><path codeLine="29" d="M81.5,146.9794 C81.5,165.9294 81.5,181.4894 81.5,200.4094 " fill="none" id="DataCollection-to-DataAggregation" style="stroke:#181818;stroke-width:1.0;"/><polygon fill="#181818" points="81.5,206.4094,85.5,197.4094,81.5,201.4094,77.5,197.4094,81.5,206.4094" style="stroke:#181818;stroke-width:1.0;"/></g><!--link DataAggregation to DataAnalysis--><g id="link_DataAggregation_DataAnalysis"><path codeLine="30" d="M81.5,307.9794 C81.5,326.9294 81.5,342.4894 81.5,361.4094 " fill="none" id="DataAggregation-to-DataAnalysis" style="stroke:#181818;stroke-width:1.0;"/><polygon fill="#181818" points="81.5,367.4094,85.5,358.4094,81.5,362.4094,77.5,358.4094,81.5,367.4094" style="stroke:#181818;stroke-width:1.0;"/></g><!--link DataAnalysis to Visualization--><g id="link_DataAnalysis_Visualization"><path codeLine="31" d="M81.5,468.9794 C81.5,487.9294 81.5,503.4894 81.5,522.4094 " fill="none" id="DataAnalysis-to-Visualization" style="stroke:#181818;stroke-width:1.0;"/><polygon fill="#181818" points="81.5,528.4094,85.5,519.4094,81.5,523.4094,77.5,519.4094,81.5,528.4094" style="stroke:#181818;stroke-width:1.0;"/></g><!--SRC=[RP71JiCm38RlUGgpUr-0IKXLMur3ns5Ct4rhkaXPWXm3sX3lJhEaQbEunPyiV_djkvxUj2KuDDMnVDgr3NG6lLTAj1Y2lRDQ76ixG8iNOgNcnasDWb0vOwWJxUm6q4DWCu9l1N2VQjYJiExyDh3M3T1yafLO9Wyy4XevRTNFNr4v34m3PgO5Ywe948o2EBfop6G2MlgVHnlTPlmlisWkNllPb43IXEfAS6IoVHnOauICfNLdD9eYt94b3khI48UekUf5-u-n-Jg7oaXqrUXFhmuvUGxqxbYcDvf2z7bvfvjZTOMYTr-sU5YlJArNcFMbm2fBFtLa_rI_]--></g></svg>