<svg xmlns="http://www.w3.org/2000/svg" xmlns:xlink="http://www.w3.org/1999/xlink" contentStyleType="text/css" height="636px" preserveAspectRatio="none" style="width:155px;height:636px;background:#FFFFFF;" version="1.1" viewBox="0 0 155 636" width="155px" zoomAndPan="magnify"><title>Monitoring Layer</title><defs/><g><text fill="#000000" font-family="sans-serif" font-size="14" font-weight="bold" lengthAdjust="spacing" textLength="113.5586" x="13.7998" y="24.5332">Monitoring Layer</text><!--class DataCollection--><g id="elem_DataCollection"><rect codeLine="5" fill="#F1F1F1" height="100.8281" id="DataCollection" rx="2.5" ry="2.5" style="stroke:#181818;stroke-width:0.5;" width="126.9375" x="14" y="45.6094"/><ellipse cx="29" cy="61.6094" fill="#ADD1B2" rx="11" ry="11" style="stroke:#181818;stroke-width:1.0;"/><path d="M31.7656,57.4844 Q31.9219,57.2656 32.1094,57.1563 Q32.2969,57.0469 32.5156,57.0469 Q32.8906,57.0469 33.125,57.3125 Q33.3594,57.5625 33.3594,58.1719 L33.3594,59.625 Q33.3594,60.2344 33.125,60.5 Q32.8906,60.7656 32.5156,60.7656 Q32.1719,60.7656 31.9688,60.5625 Q31.7656,60.375 31.6563,59.8594 Q31.6094,59.5 31.4219,59.3125 Q31.0938,58.9375 30.4844,58.7188 Q29.875,58.5 29.25,58.5 Q28.4844,58.5 27.8438,58.8281 Q27.2188,59.1563 26.7188,59.9063 Q26.2344,60.6563 26.2344,61.6875 L26.2344,62.7813 Q26.2344,64.0156 27.125,64.8438 Q28.0156,65.6563 29.6094,65.6563 Q30.5469,65.6563 31.2031,65.4063 Q31.5938,65.25 32.0156,64.8125 Q32.2813,64.5469 32.4219,64.4688 Q32.5781,64.3906 32.7813,64.3906 Q33.1094,64.3906 33.3594,64.6563 Q33.625,64.9063 33.625,65.25 Q33.625,65.5938 33.2813,66 Q32.7813,66.5781 31.9844,66.9063 Q30.9063,67.3594 29.6094,67.3594 Q28.0938,67.3594 26.8906,66.7344 Q25.9063,66.2344 25.2188,65.1719 Q24.5313,64.0938 24.5313,62.8125 L24.5313,61.6563 Q24.5313,60.3281 25.1406,59.1875 Q25.7656,58.0313 26.8594,57.4219 Q27.9531,56.7969 29.1875,56.7969 Q29.9219,56.7969 30.5625,56.9688 Q31.2188,57.125 31.7656,57.4844 Z " fill="#000000"/><text fill="#000000" font-family="sans-serif" font-size="14" lengthAdjust="spacing" textLength="94.9375" x="43" y="67.3379">Data Collection</text><line style="stroke:#181818;stroke-width:0.5;" x1="15" x2="139.9375" y1="77.6094" y2="77.6094"/><text fill="#000000" font-family="sans-serif" font-size="14" lengthAdjust="spacing" textLength="91.793" x="20" y="96.1426">Collect Metrics</text><text fill="#000000" font-family="sans-serif" font-size="14" lengthAdjust="spacing" textLength="70.0479" x="20" y="113.752">Log Events</text><text fill="#000000" font-family="sans-serif" font-size="14" lengthAdjust="spacing" textLength="91.041" x="20" y="131.3613">Monitor Health</text><line style="stroke:#181818;stroke-width:0.5;" x1="15" x2="139.9375" y1="138.4375" y2="138.4375"/></g><!--class DataAggregation--><g id="elem_DataAggregation"><rect codeLine="11" fill="#F1F1F1" height="100.8281" id="DataAggregation" rx="2.5" ry="2.5" style="stroke:#181818;stroke-width:0.5;" width="140.9648" x="7" y="206.6094"/><ellipse cx="22" cy="222.6094" fill="#ADD1B2" rx="11" ry="11" style="stroke:#181818;stroke-width:1.0;"/><path d="M24.7656,218.4844 Q24.9219,218.2656 25.1094,218.1563 Q25.2969,218.0469 25.5156,218.0469 Q25.8906,218.0469 26.125,218.3125 Q26.3594,218.5625 26.3594,219.1719 L26.3594,220.625 Q26.3594,221.2344 26.125,221.5 Q25.8906,221.7656 25.5156,221.7656 Q25.1719,221.7656 24.9688,221.5625 Q24.7656,221.375 24.6563,220.8594 Q24.6094,220.5 24.4219,220.3125 Q24.0938,219.9375 23.4844,219.7188 Q22.875,219.5 22.25,219.5 Q21.4844,219.5 20.8438,219.8281 Q20.2188,220.1563 19.7188,220.9063 Q19.2344,221.6563 19.2344,222.6875 L19.2344,223.7813 Q19.2344,225.0156 20.125,225.8438 Q21.0156,226.6563 22.6094,226.6563 Q23.5469,226.6563 24.2031,226.4063 Q24.5938,226.25 25.0156,225.8125 Q25.2813,225.5469 25.4219,225.4688 Q25.5781,225.3906 25.7813,225.3906 Q26.1094,225.3906 26.3594,225.6563 Q26.625,225.9063 26.625,226.25 Q26.625,226.5938 26.2813,227 Q25.7813,227.5781 24.9844,227.9063 Q23.9063,228.3594 22.6094,228.3594 Q21.0938,228.3594 19.8906,227.7344 Q18.9063,227.2344 18.2188,226.1719 Q17.5313,225.0938 17.5313,223.8125 L17.5313,222.6563 Q17.5313,221.3281 18.1406,220.1875 Q18.7656,219.0313 19.8594,218.4219 Q20.9531,217.7969 22.1875,217.7969 Q22.9219,217.7969 23.5625,217.9688 Q24.2188,218.125 24.7656,218.4844 Z " fill="#000000"/><text fill="#000000" font-family="sans-serif" font-size="14" lengthAdjust="spacing" textLength="108.9648" x="36" y="228.3379">Data Aggregation</text><line style="stroke:#181818;stroke-width:0.5;" x1="8" x2="146.9648" y1="238.6094" y2="238.6094"/><text fill="#000000" font-family="sans-serif" font-size="14" lengthAdjust="spacing" textLength="98.8545" x="13" y="257.1426">Aggregate Logs</text><text fill="#000000" font-family="sans-serif" font-size="14" lengthAdjust="spacing" textLength="106.5791" x="13" y="274.752">Correlate Metrics</text><text fill="#000000" font-family="sans-serif" font-size="14" lengthAdjust="spacing" textLength="66.9238" x="13" y="292.3613">Store Data</text><line style="stroke:#181818;stroke-width:0.5;" x1="8" x2="146.9648" y1="299.4375" y2="299.4375"/></g><!--class DataAnalysis--><g id="elem_DataAnalysis"><rect codeLine="17" fill="#F1F1F1" height="100.8281" id="DataAnalysis" rx="2.5" ry="2.5" style="stroke:#181818;stroke-width:0.5;" width="121.7168" x="16.5" y="367.6094"/><ellipse cx="33.3558" cy="383.6094" fill="#ADD1B2" rx="11" ry="11" style="stroke:#181818;stroke-width:1.0;"/><path d="M36.1214,379.4844 Q36.2777,379.2656 36.4652,379.1563 Q36.6527,379.0469 36.8714,379.0469 Q37.2464,379.0469 37.4808,379.3125 Q37.7152,379.5625 37.7152,380.1719 L37.7152,381.625 Q37.7152,382.2344 37.4808,382.5 Q37.2464,382.7656 36.8714,382.7656 Q36.5277,382.7656 36.3246,382.5625 Q36.1214,382.375 36.0121,381.8594 Q35.9652,381.5 35.7777,381.3125 Q35.4496,380.9375 34.8402,380.7188 Q34.2308,380.5 33.6058,380.5 Q32.8402,380.5 32.1996,380.8281 Q31.5746,381.1563 31.0746,381.9063 Q30.5902,382.6563 30.5902,383.6875 L30.5902,384.7813 Q30.5902,386.0156 31.4808,386.8438 Q32.3714,387.6563 33.9652,387.6563 Q34.9027,387.6563 35.5589,387.4063 Q35.9496,387.25 36.3714,386.8125 Q36.6371,386.5469 36.7777,386.4688 Q36.9339,386.3906 37.1371,386.3906 Q37.4652,386.3906 37.7152,386.6563 Q37.9808,386.9063 37.9808,387.25 Q37.9808,387.5938 37.6371,388 Q37.1371,388.5781 36.3402,388.9063 Q35.2621,389.3594 33.9652,389.3594 Q32.4496,389.3594 31.2464,388.7344 Q30.2621,388.2344 29.5746,387.1719 Q28.8871,386.0938 28.8871,384.8125 L28.8871,383.6563 Q28.8871,382.3281 29.4964,381.1875 Q30.1214,380.0313 31.2152,379.4219 Q32.3089,378.7969 33.5433,378.7969 Q34.2777,378.7969 34.9183,378.9688 Q35.5746,379.125 36.1214,379.4844 Z " fill="#000000"/><text fill="#000000" font-family="sans-serif" font-size="14" lengthAdjust="spacing" textLength="85.5928" x="47.7682" y="389.3379">Data Analysis</text><line style="stroke:#181818;stroke-width:0.5;" x1="17.5" x2="137.2168" y1="399.6094" y2="399.6094"/><text fill="#000000" font-family="sans-serif" font-size="14" lengthAdjust="spacing" textLength="97.2686" x="22.5" y="418.1426">Analyze Trends</text><text fill="#000000" font-family="sans-serif" font-size="14" lengthAdjust="spacing" textLength="109.7168" x="22.5" y="435.752">Detect Anomalies</text><text fill="#000000" font-family="sans-serif" font-size="14" lengthAdjust="spacing" textLength="98.0479" x="22.5" y="453.3613">Generate Alerts</text><line style="stroke:#181818;stroke-width:0.5;" x1="17.5" x2="137.2168" y1="460.4375" y2="460.4375"/></g><!--class Visualization--><g id="elem_Visualization"><rect codeLine="23" fill="#F1F1F1" height="100.8281" id="Visualization" rx="2.5" ry="2.5" style="stroke:#181818;stroke-width:0.5;" width="141.1582" x="7" y="528.6094"/><ellipse cx="35.7514" cy="544.6094" fill="#ADD1B2" rx="11" ry="11" style="stroke:#181818;stroke-width:1.0;"/><path d="M38.517,540.4844 Q38.6732,540.2656 38.8607,540.1563 Q39.0482,540.0469 39.267,540.0469 Q39.642,540.0469 39.8764,540.3125 Q40.1107,540.5625 40.1107,541.1719 L40.1107,542.625 Q40.1107,543.2344 39.8764,543.5 Q39.642,543.7656 39.267,543.7656 Q38.9232,543.7656 38.7201,543.5625 Q38.517,543.375 38.4076,542.8594 Q38.3607,542.5 38.1732,542.3125 Q37.8451,541.9375 37.2357,541.7188 Q36.6264,541.5 36.0014,541.5 Q35.2357,541.5 34.5951,541.8281 Q33.9701,542.1563 33.4701,542.9063 Q32.9857,543.6563 32.9857,544.6875 L32.9857,545.7813 Q32.9857,547.0156 33.8764,547.8438 Q34.767,548.6563 36.3607,548.6563 Q37.2982,548.6563 37.9545,548.4063 Q38.3451,548.25 38.767,547.8125 Q39.0326,547.5469 39.1732,547.4688 Q39.3295,547.3906 39.5326,547.3906 Q39.8607,547.3906 40.1107,547.6563 Q40.3764,547.9063 40.3764,548.25 Q40.3764,548.5938 40.0326,549 Q39.5326,549.5781 38.7357,549.9063 Q37.6576,550.3594 36.3607,550.3594 Q34.8451,550.3594 33.642,549.7344 Q32.6576,549.2344 31.9701,548.1719 Q31.2826,547.0938 31.2826,545.8125 L31.2826,544.6563 Q31.2826,543.3281 31.892,542.1875 Q32.517,541.0313 33.6107,540.4219 Q34.7045,539.7969 35.9389,539.7969 Q36.6732,539.7969 37.3139,539.9688 Q37.9701,540.125 38.517,540.4844 Z " fill="#000000"/><text fill="#000000" font-family="sans-serif" font-size="14" lengthAdjust="spacing" textLength="78.5996" x="52.8072" y="550.3379">Visualization</text><line style="stroke:#181818;stroke-width:0.5;" x1="8" x2="147.1582" y1="560.6094" y2="560.6094"/><text fill="#000000" font-family="sans-serif" font-size="14" lengthAdjust="spacing" textLength="75.4893" x="13" y="579.1426">Dashboards</text><text fill="#000000" font-family="sans-serif" font-size="14" lengthAdjust="spacing" textLength="49.0205" x="13" y="596.752">Reports</text><text fill="#000000" font-family="sans-serif" font-size="14" lengthAdjust="spacing" textLength="129.1582" x="13" y="614.3613">Real-time Monitoring</text><line style="stroke:#181818;stroke-width:0.5;" x1="8" x2="147.1582" y1="621.4375" y2="621.4375"/></g><!--link DataCollection to DataAggregation--><g id="link_DataCollection_DataAggregation"><path codeLine="29" d="M77.5,146.9794 C77.5,165.9294 77.5,181.4894 77.5,200.4094 " fill="none" id="DataCollection-to-DataAggregation" style="stroke:#181818;stroke-width:1.0;"/><polygon fill="#181818" points="77.5,206.4094,81.5,197.4094,77.5,201.4094,73.5,197.4094,77.5,206.4094" style="stroke:#181818;stroke-width:1.0;"/></g><!--link DataAggregation to DataAnalysis--><g id="link_DataAggregation_DataAnalysis"><path codeLine="30" d="M77.5,307.9794 C77.5,326.9294 77.5,342.4894 77.5,361.4094 " fill="none" id="DataAggregation-to-DataAnalysis" style="stroke:#181818;stroke-width:1.0;"/><polygon fill="#181818" points="77.5,367.4094,81.5,358.4094,77.5,362.4094,73.5,358.4094,77.5,367.4094" style="stroke:#181818;stroke-width:1.0;"/></g><!--link DataAnalysis to Visualization--><g id="link_DataAnalysis_Visualization"><path codeLine="31" d="M77.5,468.9794 C77.5,487.9294 77.5,503.4894 77.5,522.4094 " fill="none" id="DataAnalysis-to-Visualization" style="stroke:#181818;stroke-width:1.0;"/><polygon fill="#181818" points="77.5,528.4094,81.5,519.4094,77.5,523.4094,73.5,519.4094,77.5,528.4094" style="stroke:#181818;stroke-width:1.0;"/></g><!--SRC=[RP71Ri8m38RlUGgFUrzXKaKhTYWxCBIxrteXKaYGuu5Wshkl2Qr2kjtgJt_zzNUV1leqZc3NhlVrwwPheRSOWb9Yn19ilJFYsJWD7Lw9bSh1LOE2iFRMKY_6knLWWCWoWcy5SmAs96pwC9BEQsZFv2GEam9U2AqSrCzVHQqrayR2yS2IP9ufBW_9oamsWknz6psKNlzNuz1UWmdPCO6x80utWZsJ6-AoXYIsgfq_eZKKqOOSSLJMbdWiLqhUJVWQaxTSf239qc0uV7ZaPDZHoRFSdz1MOewFFoHkNrox6lp5LS_B0wdbmOhSL58LZUT4yONg5m00]--></g></svg>