<svg xmlns="http://www.w3.org/2000/svg" xmlns:xlink="http://www.w3.org/1999/xlink" contentStyleType="text/css" height="636px" preserveAspectRatio="none" style="width:248px;height:636px;background:#FFFFFF;" version="1.1" viewBox="0 0 248 636" width="248px" zoomAndPan="magnify"><title>Continual Improvement Process</title><defs/><g><text fill="#000000" font-family="sans-serif" font-size="14" font-weight="bold" lengthAdjust="spacing" textLength="214.7168" x="10" y="24.5332">Continual Improvement Process</text><!--class Monitoring--><g id="elem_Monitoring"><rect codeLine="5" fill="#F1F1F1" height="100.8281" id="Monitoring" rx="2.5" ry="2.5" style="stroke:#181818;stroke-width:0.5;" width="166.6133" x="75.0518" y="45.6094"/><ellipse cx="90.0518" cy="61.6094" fill="#ADD1B2" rx="11" ry="11" style="stroke:#181818;stroke-width:1.0;"/><path d="M92.8174,57.4844 Q92.9736,57.2656 93.1611,57.1563 Q93.3486,57.0469 93.5674,57.0469 Q93.9424,57.0469 94.1768,57.3125 Q94.4111,57.5625 94.4111,58.1719 L94.4111,59.625 Q94.4111,60.2344 94.1768,60.5 Q93.9424,60.7656 93.5674,60.7656 Q93.2236,60.7656 93.0205,60.5625 Q92.8174,60.375 92.708,59.8594 Q92.6611,59.5 92.4736,59.3125 Q92.1455,58.9375 91.5361,58.7188 Q90.9268,58.5 90.3018,58.5 Q89.5361,58.5 88.8955,58.8281 Q88.2705,59.1563 87.7705,59.9063 Q87.2861,60.6563 87.2861,61.6875 L87.2861,62.7813 Q87.2861,64.0156 88.1768,64.8438 Q89.0674,65.6563 90.6611,65.6563 Q91.5986,65.6563 92.2549,65.4063 Q92.6455,65.25 93.0674,64.8125 Q93.333,64.5469 93.4736,64.4688 Q93.6299,64.3906 93.833,64.3906 Q94.1611,64.3906 94.4111,64.6563 Q94.6768,64.9063 94.6768,65.25 Q94.6768,65.5938 94.333,66 Q93.833,66.5781 93.0361,66.9063 Q91.958,67.3594 90.6611,67.3594 Q89.1455,67.3594 87.9424,66.7344 Q86.958,66.2344 86.2705,65.1719 Q85.583,64.0938 85.583,62.8125 L85.583,61.6563 Q85.583,60.3281 86.1924,59.1875 Q86.8174,58.0313 87.9111,57.4219 Q89.0049,56.7969 90.2393,56.7969 Q90.9736,56.7969 91.6143,56.9688 Q92.2705,57.125 92.8174,57.4844 Z " fill="#000000"/><text fill="#000000" font-family="sans-serif" font-size="14" lengthAdjust="spacing" textLength="134.6133" x="104.0518" y="67.3379">Monitoring &amp; Analysis</text><line style="stroke:#181818;stroke-width:0.5;" x1="76.0518" x2="240.665" y1="77.6094" y2="77.6094"/><text fill="#000000" font-family="sans-serif" font-size="14" lengthAdjust="spacing" textLength="99.5723" x="81.0518" y="96.1426">:Collect Metrics;</text><text fill="#000000" font-family="sans-serif" font-size="14" lengthAdjust="spacing" textLength="141.6201" x="81.0518" y="113.752">:Analyze Performance;</text><text fill="#000000" font-family="sans-serif" font-size="14" lengthAdjust="spacing" textLength="129.1787" x="81.0518" y="131.3613">:Identify Bottlenecks;</text><line style="stroke:#181818;stroke-width:0.5;" x1="76.0518" x2="240.665" y1="138.4375" y2="138.4375"/></g><!--class Planning--><g id="elem_Planning"><rect codeLine="11" fill="#F1F1F1" height="100.8281" id="Planning" rx="2.5" ry="2.5" style="stroke:#181818;stroke-width:0.5;" width="166.8408" x="7.0518" y="206.6094"/><ellipse cx="58.9775" cy="222.6094" fill="#ADD1B2" rx="11" ry="11" style="stroke:#181818;stroke-width:1.0;"/><path d="M61.7432,218.4844 Q61.8994,218.2656 62.0869,218.1563 Q62.2744,218.0469 62.4932,218.0469 Q62.8682,218.0469 63.1025,218.3125 Q63.3369,218.5625 63.3369,219.1719 L63.3369,220.625 Q63.3369,221.2344 63.1025,221.5 Q62.8682,221.7656 62.4932,221.7656 Q62.1494,221.7656 61.9463,221.5625 Q61.7432,221.375 61.6338,220.8594 Q61.5869,220.5 61.3994,220.3125 Q61.0713,219.9375 60.4619,219.7188 Q59.8525,219.5 59.2275,219.5 Q58.4619,219.5 57.8213,219.8281 Q57.1963,220.1563 56.6963,220.9063 Q56.2119,221.6563 56.2119,222.6875 L56.2119,223.7813 Q56.2119,225.0156 57.1025,225.8438 Q57.9932,226.6563 59.5869,226.6563 Q60.5244,226.6563 61.1807,226.4063 Q61.5713,226.25 61.9932,225.8125 Q62.2588,225.5469 62.3994,225.4688 Q62.5557,225.3906 62.7588,225.3906 Q63.0869,225.3906 63.3369,225.6563 Q63.6025,225.9063 63.6025,226.25 Q63.6025,226.5938 63.2588,227 Q62.7588,227.5781 61.9619,227.9063 Q60.8838,228.3594 59.5869,228.3594 Q58.0713,228.3594 56.8682,227.7344 Q55.8838,227.2344 55.1963,226.1719 Q54.5088,225.0938 54.5088,223.8125 L54.5088,222.6563 Q54.5088,221.3281 55.1182,220.1875 Q55.7432,219.0313 56.8369,218.4219 Q57.9307,217.7969 59.165,217.7969 Q59.8994,217.7969 60.54,217.9688 Q61.1963,218.125 61.7432,218.4844 Z " fill="#000000"/><text fill="#000000" font-family="sans-serif" font-size="14" lengthAdjust="spacing" textLength="54.4893" x="79.4775" y="228.3379">Planning</text><line style="stroke:#181818;stroke-width:0.5;" x1="8.0518" x2="172.8926" y1="238.6094" y2="238.6094"/><text fill="#000000" font-family="sans-serif" font-size="14" lengthAdjust="spacing" textLength="154.8408" x="13.0518" y="257.1426">:Set Improvement Goals;</text><text fill="#000000" font-family="sans-serif" font-size="14" lengthAdjust="spacing" textLength="112.0342" x="13.0518" y="274.752">:Prioritize Actions;</text><text fill="#000000" font-family="sans-serif" font-size="14" lengthAdjust="spacing" textLength="133.8545" x="13.0518" y="292.3613">:Develop Action Plan;</text><line style="stroke:#181818;stroke-width:0.5;" x1="8.0518" x2="172.8926" y1="299.4375" y2="299.4375"/></g><!--class Implementation--><g id="elem_Implementation"><rect codeLine="17" fill="#F1F1F1" height="100.8281" id="Implementation" rx="2.5" ry="2.5" style="stroke:#181818;stroke-width:0.5;" width="145.0752" x="24.0518" y="367.6094"/><ellipse cx="46.863" cy="383.6094" fill="#ADD1B2" rx="11" ry="11" style="stroke:#181818;stroke-width:1.0;"/><path d="M49.6287,379.4844 Q49.7849,379.2656 49.9724,379.1563 Q50.1599,379.0469 50.3787,379.0469 Q50.7537,379.0469 50.988,379.3125 Q51.2224,379.5625 51.2224,380.1719 L51.2224,381.625 Q51.2224,382.2344 50.988,382.5 Q50.7537,382.7656 50.3787,382.7656 Q50.0349,382.7656 49.8318,382.5625 Q49.6287,382.375 49.5193,381.8594 Q49.4724,381.5 49.2849,381.3125 Q48.9568,380.9375 48.3474,380.7188 Q47.738,380.5 47.113,380.5 Q46.3474,380.5 45.7068,380.8281 Q45.0818,381.1563 44.5818,381.9063 Q44.0974,382.6563 44.0974,383.6875 L44.0974,384.7813 Q44.0974,386.0156 44.988,386.8438 Q45.8787,387.6563 47.4724,387.6563 Q48.4099,387.6563 49.0662,387.4063 Q49.4568,387.25 49.8787,386.8125 Q50.1443,386.5469 50.2849,386.4688 Q50.4412,386.3906 50.6443,386.3906 Q50.9724,386.3906 51.2224,386.6563 Q51.488,386.9063 51.488,387.25 Q51.488,387.5938 51.1443,388 Q50.6443,388.5781 49.8474,388.9063 Q48.7693,389.3594 47.4724,389.3594 Q45.9568,389.3594 44.7537,388.7344 Q43.7693,388.2344 43.0818,387.1719 Q42.3943,386.0938 42.3943,384.8125 L42.3943,383.6563 Q42.3943,382.3281 43.0037,381.1875 Q43.6287,380.0313 44.7224,379.4219 Q45.8162,378.7969 47.0505,378.7969 Q47.7849,378.7969 48.4255,378.9688 Q49.0818,379.125 49.6287,379.4844 Z " fill="#000000"/><text fill="#000000" font-family="sans-serif" font-size="14" lengthAdjust="spacing" textLength="95.7168" x="62.5989" y="389.3379">Implementation</text><line style="stroke:#181818;stroke-width:0.5;" x1="25.0518" x2="168.127" y1="399.6094" y2="399.6094"/><text fill="#000000" font-family="sans-serif" font-size="14" lengthAdjust="spacing" textLength="133.0752" x="30.0518" y="418.1426">:Execute Action Plan;</text><text fill="#000000" font-family="sans-serif" font-size="14" lengthAdjust="spacing" textLength="111.2891" x="30.0518" y="435.752">:Deploy Changes;</text><text fill="#000000" font-family="sans-serif" font-size="14" lengthAdjust="spacing" textLength="100.3652" x="30.0518" y="453.3613">:Monitor Impact;</text><line style="stroke:#181818;stroke-width:0.5;" x1="25.0518" x2="168.127" y1="460.4375" y2="460.4375"/></g><!--class Review--><g id="elem_Review"><rect codeLine="23" fill="#F1F1F1" height="100.8281" id="Review" rx="2.5" ry="2.5" style="stroke:#181818;stroke-width:0.5;" width="148.9648" x="85.0518" y="528.6094"/><ellipse cx="132.3325" cy="544.6094" fill="#ADD1B2" rx="11" ry="11" style="stroke:#181818;stroke-width:1.0;"/><path d="M135.0981,540.4844 Q135.2544,540.2656 135.4419,540.1563 Q135.6294,540.0469 135.8481,540.0469 Q136.2231,540.0469 136.4575,540.3125 Q136.6919,540.5625 136.6919,541.1719 L136.6919,542.625 Q136.6919,543.2344 136.4575,543.5 Q136.2231,543.7656 135.8481,543.7656 Q135.5044,543.7656 135.3013,543.5625 Q135.0981,543.375 134.9888,542.8594 Q134.9419,542.5 134.7544,542.3125 Q134.4263,541.9375 133.8169,541.7188 Q133.2075,541.5 132.5825,541.5 Q131.8169,541.5 131.1763,541.8281 Q130.5513,542.1563 130.0513,542.9063 Q129.5669,543.6563 129.5669,544.6875 L129.5669,545.7813 Q129.5669,547.0156 130.4575,547.8438 Q131.3481,548.6563 132.9419,548.6563 Q133.8794,548.6563 134.5356,548.4063 Q134.9263,548.25 135.3481,547.8125 Q135.6138,547.5469 135.7544,547.4688 Q135.9106,547.3906 136.1138,547.3906 Q136.4419,547.3906 136.6919,547.6563 Q136.9575,547.9063 136.9575,548.25 Q136.9575,548.5938 136.6138,549 Q136.1138,549.5781 135.3169,549.9063 Q134.2388,550.3594 132.9419,550.3594 Q131.4263,550.3594 130.2231,549.7344 Q129.2388,549.2344 128.5513,548.1719 Q127.8638,547.0938 127.8638,545.8125 L127.8638,544.6563 Q127.8638,543.3281 128.4731,542.1875 Q129.0981,541.0313 130.1919,540.4219 Q131.2856,539.7969 132.52,539.7969 Q133.2544,539.7969 133.895,539.9688 Q134.5513,540.125 135.0981,540.4844 Z " fill="#000000"/><text fill="#000000" font-family="sans-serif" font-size="14" lengthAdjust="spacing" textLength="45.9033" x="152.8325" y="550.3379">Review</text><line style="stroke:#181818;stroke-width:0.5;" x1="86.0518" x2="233.0166" y1="560.6094" y2="560.6094"/><text fill="#000000" font-family="sans-serif" font-size="14" lengthAdjust="spacing" textLength="112.834" x="91.0518" y="579.1426">:Evaluate Results;</text><text fill="#000000" font-family="sans-serif" font-size="14" lengthAdjust="spacing" textLength="136.9648" x="91.0518" y="596.752">:Document Learnings;</text><text fill="#000000" font-family="sans-serif" font-size="14" lengthAdjust="spacing" textLength="113.6133" x="91.0518" y="614.3613">:Adjust Strategies;</text><line style="stroke:#181818;stroke-width:0.5;" x1="86.0518" x2="233.0166" y1="621.4375" y2="621.4375"/></g><!--link Monitoring to Planning--><g id="link_Monitoring_Planning"><path codeLine="29" d="M137.2218,146.9794 C129.1218,165.9294 122.2632,181.9736 114.1632,200.8936 " fill="none" id="Monitoring-to-Planning" style="stroke:#181818;stroke-width:1.0;"/><polygon fill="#181818" points="111.8018,206.4094,119.021,199.71,113.7696,201.8129,111.6667,196.5614,111.8018,206.4094" style="stroke:#181818;stroke-width:1.0;"/></g><!--link Planning to Implementation--><g id="link_Planning_Implementation"><path codeLine="30" d="M92.4318,307.9794 C93.1518,326.9294 93.7368,342.4936 94.4468,361.4136 " fill="none" id="Planning-to-Implementation" style="stroke:#181818;stroke-width:1.0;"/><polygon fill="#181818" points="94.6718,367.4094,98.3314,358.2657,94.4843,362.4129,90.3371,358.5657,94.6718,367.4094" style="stroke:#181818;stroke-width:1.0;"/></g><!--link Implementation to Review--><g id="link_Implementation_Review"><path codeLine="31" d="M116.3118,468.9794 C123.8218,487.9294 130.1507,503.9116 137.6507,522.8316 " fill="none" id="Implementation-to-Review" style="stroke:#181818;stroke-width:1.0;"/><polygon fill="#181818" points="139.8618,528.4094,140.2637,518.5687,138.0192,523.7613,132.8267,521.5168,139.8618,528.4094" style="stroke:#181818;stroke-width:1.0;"/></g><!--reverse link Monitoring to Review--><g id="link_Monitoring_Review"><path codeLine="32" d="M178.7204,152.5439 C184.6404,171.0439 188.6118,186.6694 191.5518,206.6094 C197.2618,245.3494 187.6018,460.9794 186.5518,468.6094 C183.8318,488.3994 179.0018,509.7994 174.1618,528.3894 " fill="none" id="Monitoring-backto-Review" style="stroke:#181818;stroke-width:1.0;"/><polygon fill="#181818" points="176.8918,146.8294,175.825,156.6203,178.4156,151.5915,183.4444,154.1821,176.8918,146.8294" style="stroke:#181818;stroke-width:1.0;"/></g><!--SRC=[NP5DJiCm48NtFiNG1RjU02Ia4YfKgKLHomKiPreCxanaZrCAukuuTlgJxk9dp_lUlDmrkBM4i9vNxxEtr-KSZDCXA2LM74B599QYTh3Ojvuxt2C9r9uDzeykKvCLanNsbdPm3pFIxXXic80ES7Npgm0UAdOEZS0AnLiJ7dij3_mWrEYtxFUQ36PzqIIUtHxXcINb8JHVQU1lHAwT9ahk6NOw5DG6PHJybRKhmDhR54biOiwCMAOYls27Zjj1oswtkEJdiflkdsJeM2he-JUQA3XsoeJMyH6g3qqxBD2XeDv66xdbhR6pUCYSyZduTzf5dG1h3D7949zDp8ikKVk-Xg7TvZC6WOtuDB2pM2gy-Y_JXWyqVJgtfyurdcx6AwgRZK-lIa0rv9p6DcaNZFe7]--></g></svg>