<svg xmlns="http://www.w3.org/2000/svg" xmlns:xlink="http://www.w3.org/1999/xlink" contentStyleType="text/css" height="636px" preserveAspectRatio="none" style="width:245px;height:636px;background:#FFFFFF;" version="1.1" viewBox="0 0 245 636" width="245px" zoomAndPan="magnify"><title>Continual Improvement Process</title><defs/><g><text fill="#000000" font-family="sans-serif" font-size="14" font-weight="bold" lengthAdjust="spacing" textLength="214.7168" x="10" y="24.5332">Continual Improvement Process</text><!--class Monitoring--><g id="elem_Monitoring"><rect codeLine="5" fill="#F1F1F1" height="100.8281" id="Monitoring" rx="2.5" ry="2.5" style="stroke:#181818;stroke-width:0.5;" width="166.6133" x="72.0518" y="45.6094"/><ellipse cx="87.0518" cy="61.6094" fill="#ADD1B2" rx="11" ry="11" style="stroke:#181818;stroke-width:1.0;"/><path d="M89.8174,57.4844 Q89.9736,57.2656 90.1611,57.1563 Q90.3486,57.0469 90.5674,57.0469 Q90.9424,57.0469 91.1768,57.3125 Q91.4111,57.5625 91.4111,58.1719 L91.4111,59.625 Q91.4111,60.2344 91.1768,60.5 Q90.9424,60.7656 90.5674,60.7656 Q90.2236,60.7656 90.0205,60.5625 Q89.8174,60.375 89.708,59.8594 Q89.6611,59.5 89.4736,59.3125 Q89.1455,58.9375 88.5361,58.7188 Q87.9268,58.5 87.3018,58.5 Q86.5361,58.5 85.8955,58.8281 Q85.2705,59.1563 84.7705,59.9063 Q84.2861,60.6563 84.2861,61.6875 L84.2861,62.7813 Q84.2861,64.0156 85.1768,64.8438 Q86.0674,65.6563 87.6611,65.6563 Q88.5986,65.6563 89.2549,65.4063 Q89.6455,65.25 90.0674,64.8125 Q90.333,64.5469 90.4736,64.4688 Q90.6299,64.3906 90.833,64.3906 Q91.1611,64.3906 91.4111,64.6563 Q91.6768,64.9063 91.6768,65.25 Q91.6768,65.5938 91.333,66 Q90.833,66.5781 90.0361,66.9063 Q88.958,67.3594 87.6611,67.3594 Q86.1455,67.3594 84.9424,66.7344 Q83.958,66.2344 83.2705,65.1719 Q82.583,64.0938 82.583,62.8125 L82.583,61.6563 Q82.583,60.3281 83.1924,59.1875 Q83.8174,58.0313 84.9111,57.4219 Q86.0049,56.7969 87.2393,56.7969 Q87.9736,56.7969 88.6143,56.9688 Q89.2705,57.125 89.8174,57.4844 Z " fill="#000000"/><text fill="#000000" font-family="sans-serif" font-size="14" lengthAdjust="spacing" textLength="134.6133" x="101.0518" y="67.3379">Monitoring &amp; Analysis</text><line style="stroke:#181818;stroke-width:0.5;" x1="73.0518" x2="237.665" y1="77.6094" y2="77.6094"/><text fill="#000000" font-family="sans-serif" font-size="14" lengthAdjust="spacing" textLength="91.793" x="78.0518" y="96.1426">Collect Metrics</text><text fill="#000000" font-family="sans-serif" font-size="14" lengthAdjust="spacing" textLength="133.8408" x="78.0518" y="113.752">Analyze Performance</text><text fill="#000000" font-family="sans-serif" font-size="14" lengthAdjust="spacing" textLength="121.3994" x="78.0518" y="131.3613">Identify Bottlenecks</text><line style="stroke:#181818;stroke-width:0.5;" x1="73.0518" x2="237.665" y1="138.4375" y2="138.4375"/></g><!--class Planning--><g id="elem_Planning"><rect codeLine="11" fill="#F1F1F1" height="100.8281" id="Planning" rx="2.5" ry="2.5" style="stroke:#181818;stroke-width:0.5;" width="159.0615" x="10.0518" y="206.6094"/><ellipse cx="58.0879" cy="222.6094" fill="#ADD1B2" rx="11" ry="11" style="stroke:#181818;stroke-width:1.0;"/><path d="M60.8535,218.4844 Q61.0098,218.2656 61.1973,218.1563 Q61.3848,218.0469 61.6035,218.0469 Q61.9785,218.0469 62.2129,218.3125 Q62.4473,218.5625 62.4473,219.1719 L62.4473,220.625 Q62.4473,221.2344 62.2129,221.5 Q61.9785,221.7656 61.6035,221.7656 Q61.2598,221.7656 61.0566,221.5625 Q60.8535,221.375 60.7441,220.8594 Q60.6973,220.5 60.5098,220.3125 Q60.1816,219.9375 59.5723,219.7188 Q58.9629,219.5 58.3379,219.5 Q57.5723,219.5 56.9316,219.8281 Q56.3066,220.1563 55.8066,220.9063 Q55.3223,221.6563 55.3223,222.6875 L55.3223,223.7813 Q55.3223,225.0156 56.2129,225.8438 Q57.1035,226.6563 58.6973,226.6563 Q59.6348,226.6563 60.291,226.4063 Q60.6816,226.25 61.1035,225.8125 Q61.3691,225.5469 61.5098,225.4688 Q61.666,225.3906 61.8691,225.3906 Q62.1973,225.3906 62.4473,225.6563 Q62.7129,225.9063 62.7129,226.25 Q62.7129,226.5938 62.3691,227 Q61.8691,227.5781 61.0723,227.9063 Q59.9941,228.3594 58.6973,228.3594 Q57.1816,228.3594 55.9785,227.7344 Q54.9941,227.2344 54.3066,226.1719 Q53.6191,225.0938 53.6191,223.8125 L53.6191,222.6563 Q53.6191,221.3281 54.2285,220.1875 Q54.8535,219.0313 55.9473,218.4219 Q57.041,217.7969 58.2754,217.7969 Q59.0098,217.7969 59.6504,217.9688 Q60.3066,218.125 60.8535,218.4844 Z " fill="#000000"/><text fill="#000000" font-family="sans-serif" font-size="14" lengthAdjust="spacing" textLength="54.4893" x="78.5879" y="228.3379">Planning</text><line style="stroke:#181818;stroke-width:0.5;" x1="11.0518" x2="168.1133" y1="238.6094" y2="238.6094"/><text fill="#000000" font-family="sans-serif" font-size="14" lengthAdjust="spacing" textLength="147.0615" x="16.0518" y="257.1426">Set Improvement Goals</text><text fill="#000000" font-family="sans-serif" font-size="14" lengthAdjust="spacing" textLength="104.2549" x="16.0518" y="274.752">Prioritize Actions</text><text fill="#000000" font-family="sans-serif" font-size="14" lengthAdjust="spacing" textLength="126.0752" x="16.0518" y="292.3613">Develop Action Plan</text><line style="stroke:#181818;stroke-width:0.5;" x1="11.0518" x2="168.1133" y1="299.4375" y2="299.4375"/></g><!--class Implementation--><g id="elem_Implementation"><rect codeLine="17" fill="#F1F1F1" height="100.8281" id="Implementation" rx="2.5" ry="2.5" style="stroke:#181818;stroke-width:0.5;" width="137.2959" x="27.0518" y="367.6094"/><ellipse cx="46.3624" cy="383.6094" fill="#ADD1B2" rx="11" ry="11" style="stroke:#181818;stroke-width:1.0;"/><path d="M49.128,379.4844 Q49.2842,379.2656 49.4717,379.1563 Q49.6592,379.0469 49.878,379.0469 Q50.253,379.0469 50.4874,379.3125 Q50.7217,379.5625 50.7217,380.1719 L50.7217,381.625 Q50.7217,382.2344 50.4874,382.5 Q50.253,382.7656 49.878,382.7656 Q49.5342,382.7656 49.3311,382.5625 Q49.128,382.375 49.0186,381.8594 Q48.9717,381.5 48.7842,381.3125 Q48.4561,380.9375 47.8467,380.7188 Q47.2374,380.5 46.6124,380.5 Q45.8467,380.5 45.2061,380.8281 Q44.5811,381.1563 44.0811,381.9063 Q43.5967,382.6563 43.5967,383.6875 L43.5967,384.7813 Q43.5967,386.0156 44.4874,386.8438 Q45.378,387.6563 46.9717,387.6563 Q47.9092,387.6563 48.5655,387.4063 Q48.9561,387.25 49.378,386.8125 Q49.6436,386.5469 49.7842,386.4688 Q49.9405,386.3906 50.1436,386.3906 Q50.4717,386.3906 50.7217,386.6563 Q50.9874,386.9063 50.9874,387.25 Q50.9874,387.5938 50.6436,388 Q50.1436,388.5781 49.3467,388.9063 Q48.2686,389.3594 46.9717,389.3594 Q45.4561,389.3594 44.253,388.7344 Q43.2686,388.2344 42.5811,387.1719 Q41.8936,386.0938 41.8936,384.8125 L41.8936,383.6563 Q41.8936,382.3281 42.503,381.1875 Q43.128,380.0313 44.2217,379.4219 Q45.3155,378.7969 46.5499,378.7969 Q47.2842,378.7969 47.9249,378.9688 Q48.5811,379.125 49.128,379.4844 Z " fill="#000000"/><text fill="#000000" font-family="sans-serif" font-size="14" lengthAdjust="spacing" textLength="95.7168" x="61.3203" y="389.3379">Implementation</text><line style="stroke:#181818;stroke-width:0.5;" x1="28.0518" x2="163.3477" y1="399.6094" y2="399.6094"/><text fill="#000000" font-family="sans-serif" font-size="14" lengthAdjust="spacing" textLength="125.2959" x="33.0518" y="418.1426">Execute Action Plan</text><text fill="#000000" font-family="sans-serif" font-size="14" lengthAdjust="spacing" textLength="103.5098" x="33.0518" y="435.752">Deploy Changes</text><text fill="#000000" font-family="sans-serif" font-size="14" lengthAdjust="spacing" textLength="92.5859" x="33.0518" y="453.3613">Monitor Impact</text><line style="stroke:#181818;stroke-width:0.5;" x1="28.0518" x2="163.3477" y1="460.4375" y2="460.4375"/></g><!--class Review--><g id="elem_Review"><rect codeLine="23" fill="#F1F1F1" height="100.8281" id="Review" rx="2.5" ry="2.5" style="stroke:#181818;stroke-width:0.5;" width="141.1855" x="86.0518" y="528.6094"/><ellipse cx="129.5288" cy="544.6094" fill="#ADD1B2" rx="11" ry="11" style="stroke:#181818;stroke-width:1.0;"/><path d="M132.2944,540.4844 Q132.4506,540.2656 132.6381,540.1563 Q132.8256,540.0469 133.0444,540.0469 Q133.4194,540.0469 133.6538,540.3125 Q133.8881,540.5625 133.8881,541.1719 L133.8881,542.625 Q133.8881,543.2344 133.6538,543.5 Q133.4194,543.7656 133.0444,543.7656 Q132.7006,543.7656 132.4975,543.5625 Q132.2944,543.375 132.185,542.8594 Q132.1381,542.5 131.9506,542.3125 Q131.6225,541.9375 131.0131,541.7188 Q130.4038,541.5 129.7788,541.5 Q129.0131,541.5 128.3725,541.8281 Q127.7475,542.1563 127.2475,542.9063 Q126.7631,543.6563 126.7631,544.6875 L126.7631,545.7813 Q126.7631,547.0156 127.6538,547.8438 Q128.5444,548.6563 130.1381,548.6563 Q131.0756,548.6563 131.7319,548.4063 Q132.1225,548.25 132.5444,547.8125 Q132.81,547.5469 132.9506,547.4688 Q133.1069,547.3906 133.31,547.3906 Q133.6381,547.3906 133.8881,547.6563 Q134.1538,547.9063 134.1538,548.25 Q134.1538,548.5938 133.81,549 Q133.31,549.5781 132.5131,549.9063 Q131.435,550.3594 130.1381,550.3594 Q128.6225,550.3594 127.4194,549.7344 Q126.435,549.2344 125.7475,548.1719 Q125.06,547.0938 125.06,545.8125 L125.06,544.6563 Q125.06,543.3281 125.6694,542.1875 Q126.2944,541.0313 127.3881,540.4219 Q128.4819,539.7969 129.7163,539.7969 Q130.4506,539.7969 131.0913,539.9688 Q131.7475,540.125 132.2944,540.4844 Z " fill="#000000"/><text fill="#000000" font-family="sans-serif" font-size="14" lengthAdjust="spacing" textLength="45.9033" x="149.857" y="550.3379">Review</text><line style="stroke:#181818;stroke-width:0.5;" x1="87.0518" x2="226.2373" y1="560.6094" y2="560.6094"/><text fill="#000000" font-family="sans-serif" font-size="14" lengthAdjust="spacing" textLength="105.0547" x="92.0518" y="579.1426">Evaluate Results</text><text fill="#000000" font-family="sans-serif" font-size="14" lengthAdjust="spacing" textLength="129.1855" x="92.0518" y="596.752">Document Learnings</text><text fill="#000000" font-family="sans-serif" font-size="14" lengthAdjust="spacing" textLength="105.834" x="92.0518" y="614.3613">Adjust Strategies</text><line style="stroke:#181818;stroke-width:0.5;" x1="87.0518" x2="226.2373" y1="621.4375" y2="621.4375"/></g><!--link Monitoring to Planning--><g id="link_Monitoring_Planning"><path codeLine="29" d="M134.8518,146.9794 C126.9918,165.9294 120.3311,181.9475 112.4811,200.8675 " fill="none" id="Monitoring-to-Planning" style="stroke:#181818;stroke-width:1.0;"/><polygon fill="#181818" points="110.1818,206.4094,117.3254,199.6294,112.0979,201.7911,109.9362,196.5636,110.1818,206.4094" style="stroke:#181818;stroke-width:1.0;"/></g><!--link Planning to Implementation--><g id="link_Planning_Implementation"><path codeLine="30" d="M91.4318,307.9794 C92.1518,326.9294 92.7368,342.4936 93.4468,361.4136 " fill="none" id="Planning-to-Implementation" style="stroke:#181818;stroke-width:1.0;"/><polygon fill="#181818" points="93.6718,367.4094,97.3314,358.2657,93.4843,362.4129,89.3371,358.5657,93.6718,367.4094" style="stroke:#181818;stroke-width:1.0;"/></g><!--link Implementation to Review--><g id="link_Implementation_Review"><path codeLine="31" d="M114.6818,468.9794 C121.9518,487.9294 128.0722,503.8876 135.3322,522.8076 " fill="none" id="Implementation-to-Review" style="stroke:#181818;stroke-width:1.0;"/><polygon fill="#181818" points="137.4818,528.4094,137.992,518.5737,135.6905,523.7412,130.523,521.4398,137.4818,528.4094" style="stroke:#181818;stroke-width:1.0;"/></g><!--reverse link Monitoring to Review--><g id="link_Monitoring_Review"><path codeLine="32" d="M174.4312,152.3847 C180.0212,170.9547 183.7818,186.6494 186.5518,206.6094 C192.0818,246.4394 182.3118,462.7094 181.5518,468.6094 C179.0018,488.4294 174.4918,509.9394 169.9918,528.5994 " fill="none" id="Monitoring-backto-Review" style="stroke:#181818;stroke-width:1.0;"/><polygon fill="#181818" points="172.7018,146.6394,171.4658,156.4104,174.143,151.4272,179.1262,154.1044,172.7018,146.6394" style="stroke:#181818;stroke-width:1.0;"/></g><!--SRC=[NP1DRW8n38NtEONBeZkkK8bIX91ADO9U8CeOcjROeyGPIglUlKdu7NR9Y_E-v_VGuiOpmcesVP-ypLzduCZ6Q8nw9OIfi7fEbc2nwuBqk4DMQ88uB4FNNwEbi5S9dhVm21EsT8W-Zi16k7dvDP0jYT0fB563Tp4hTVe7eS6maR2px32hYpQZ_EO0pw8v2gFxYkPlm6p8CcVVYZbVAcIDEaWy5qi5rGIVawZFj8bJBrp45-oHf3ifrUWEbAse6jaoKN53gK9dt-YIui2dk7Sa1vX-MDvYmPtwA0xMwHrfXRt7VIKSZqVdtbAosNg5CP7MqE9INUqLRIXxroRRpnGLrXhoyDPZBUoc_t4hUnu_NReobzBEByErpDsMvwbZD7DAE4vTrguOymy0]--></g></svg>