<svg xmlns="http://www.w3.org/2000/svg" xmlns:xlink="http://www.w3.org/1999/xlink" contentStyleType="text/css" height="226px" preserveAspectRatio="none" style="width:1448px;height:226px;background:#FFFFFF;" version="1.1" viewBox="0 0 1448 226" width="1448px" zoomAndPan="magnify"><title>Security and Key Management Layer</title><defs/><g><text fill="#000000" font-family="sans-serif" font-size="14" font-weight="bold" lengthAdjust="spacing" textLength="244.3096" x="595.2261" y="24.5332">Security and Key Management Layer</text><!--class EncryptionService--><g id="elem_EncryptionService"><rect fill="#F1F1F1" height="48" id="EncryptionService" rx="2.5" ry="2.5" style="stroke:#181818;stroke-width:0.5;" width="144.8271" x="7" y="45.6094"/><ellipse cx="22" cy="61.6094" fill="#ADD1B2" rx="11" ry="11" style="stroke:#181818;stroke-width:1.0;"/><path d="M24.7656,57.4844 Q24.9219,57.2656 25.1094,57.1563 Q25.2969,57.0469 25.5156,57.0469 Q25.8906,57.0469 26.125,57.3125 Q26.3594,57.5625 26.3594,58.1719 L26.3594,59.625 Q26.3594,60.2344 26.125,60.5 Q25.8906,60.7656 25.5156,60.7656 Q25.1719,60.7656 24.9688,60.5625 Q24.7656,60.375 24.6563,59.8594 Q24.6094,59.5 24.4219,59.3125 Q24.0938,58.9375 23.4844,58.7188 Q22.875,58.5 22.25,58.5 Q21.4844,58.5 20.8438,58.8281 Q20.2188,59.1563 19.7188,59.9063 Q19.2344,60.6563 19.2344,61.6875 L19.2344,62.7813 Q19.2344,64.0156 20.125,64.8438 Q21.0156,65.6563 22.6094,65.6563 Q23.5469,65.6563 24.2031,65.4063 Q24.5938,65.25 25.0156,64.8125 Q25.2813,64.5469 25.4219,64.4688 Q25.5781,64.3906 25.7813,64.3906 Q26.1094,64.3906 26.3594,64.6563 Q26.625,64.9063 26.625,65.25 Q26.625,65.5938 26.2813,66 Q25.7813,66.5781 24.9844,66.9063 Q23.9063,67.3594 22.6094,67.3594 Q21.0938,67.3594 19.8906,66.7344 Q18.9063,66.2344 18.2188,65.1719 Q17.5313,64.0938 17.5313,62.8125 L17.5313,61.6563 Q17.5313,60.3281 18.1406,59.1875 Q18.7656,58.0313 19.8594,57.4219 Q20.9531,56.7969 22.1875,56.7969 Q22.9219,56.7969 23.5625,56.9688 Q24.2188,57.125 24.7656,57.4844 Z " fill="#000000"/><text fill="#000000" font-family="sans-serif" font-size="14" lengthAdjust="spacing" textLength="112.8271" x="36" y="67.3379">EncryptionService</text><line style="stroke:#181818;stroke-width:0.5;" x1="8" x2="150.8271" y1="77.6094" y2="77.6094"/><line style="stroke:#181818;stroke-width:0.5;" x1="8" x2="150.8271" y1="85.6094" y2="85.6094"/></g><!--class KMS--><g id="elem_KMS"><rect fill="#F1F1F1" height="48" id="KMS" rx="2.5" ry="2.5" style="stroke:#181818;stroke-width:0.5;" width="62.3379" x="332.5" y="171.6094"/><ellipse cx="347.5" cy="187.6094" fill="#ADD1B2" rx="11" ry="11" style="stroke:#181818;stroke-width:1.0;"/><path d="M350.2656,183.4844 Q350.4219,183.2656 350.6094,183.1563 Q350.7969,183.0469 351.0156,183.0469 Q351.3906,183.0469 351.625,183.3125 Q351.8594,183.5625 351.8594,184.1719 L351.8594,185.625 Q351.8594,186.2344 351.625,186.5 Q351.3906,186.7656 351.0156,186.7656 Q350.6719,186.7656 350.4688,186.5625 Q350.2656,186.375 350.1563,185.8594 Q350.1094,185.5 349.9219,185.3125 Q349.5938,184.9375 348.9844,184.7188 Q348.375,184.5 347.75,184.5 Q346.9844,184.5 346.3438,184.8281 Q345.7188,185.1563 345.2188,185.9063 Q344.7344,186.6563 344.7344,187.6875 L344.7344,188.7813 Q344.7344,190.0156 345.625,190.8438 Q346.5156,191.6563 348.1094,191.6563 Q349.0469,191.6563 349.7031,191.4063 Q350.0938,191.25 350.5156,190.8125 Q350.7813,190.5469 350.9219,190.4688 Q351.0781,190.3906 351.2813,190.3906 Q351.6094,190.3906 351.8594,190.6563 Q352.125,190.9063 352.125,191.25 Q352.125,191.5938 351.7813,192 Q351.2813,192.5781 350.4844,192.9063 Q349.4063,193.3594 348.1094,193.3594 Q346.5938,193.3594 345.3906,192.7344 Q344.4063,192.2344 343.7188,191.1719 Q343.0313,190.0938 343.0313,188.8125 L343.0313,187.6563 Q343.0313,186.3281 343.6406,185.1875 Q344.2656,184.0313 345.3594,183.4219 Q346.4531,182.7969 347.6875,182.7969 Q348.4219,182.7969 349.0625,182.9688 Q349.7188,183.125 350.2656,183.4844 Z " fill="#000000"/><text fill="#000000" font-family="sans-serif" font-size="14" lengthAdjust="spacing" textLength="30.3379" x="361.5" y="193.3379">KMS</text><line style="stroke:#181818;stroke-width:0.5;" x1="333.5" x2="393.8379" y1="203.6094" y2="203.6094"/><line style="stroke:#181818;stroke-width:0.5;" x1="333.5" x2="393.8379" y1="211.6094" y2="211.6094"/></g><!--class KeyRotationService--><g id="elem_KeyRotationService"><rect fill="#F1F1F1" height="48" id="KeyRotationService" rx="2.5" ry="2.5" style="stroke:#181818;stroke-width:0.5;" width="154.9512" x="187" y="45.6094"/><ellipse cx="202" cy="61.6094" fill="#ADD1B2" rx="11" ry="11" style="stroke:#181818;stroke-width:1.0;"/><path d="M204.7656,57.4844 Q204.9219,57.2656 205.1094,57.1563 Q205.2969,57.0469 205.5156,57.0469 Q205.8906,57.0469 206.125,57.3125 Q206.3594,57.5625 206.3594,58.1719 L206.3594,59.625 Q206.3594,60.2344 206.125,60.5 Q205.8906,60.7656 205.5156,60.7656 Q205.1719,60.7656 204.9688,60.5625 Q204.7656,60.375 204.6563,59.8594 Q204.6094,59.5 204.4219,59.3125 Q204.0938,58.9375 203.4844,58.7188 Q202.875,58.5 202.25,58.5 Q201.4844,58.5 200.8438,58.8281 Q200.2188,59.1563 199.7188,59.9063 Q199.2344,60.6563 199.2344,61.6875 L199.2344,62.7813 Q199.2344,64.0156 200.125,64.8438 Q201.0156,65.6563 202.6094,65.6563 Q203.5469,65.6563 204.2031,65.4063 Q204.5938,65.25 205.0156,64.8125 Q205.2813,64.5469 205.4219,64.4688 Q205.5781,64.3906 205.7813,64.3906 Q206.1094,64.3906 206.3594,64.6563 Q206.625,64.9063 206.625,65.25 Q206.625,65.5938 206.2813,66 Q205.7813,66.5781 204.9844,66.9063 Q203.9063,67.3594 202.6094,67.3594 Q201.0938,67.3594 199.8906,66.7344 Q198.9063,66.2344 198.2188,65.1719 Q197.5313,64.0938 197.5313,62.8125 L197.5313,61.6563 Q197.5313,60.3281 198.1406,59.1875 Q198.7656,58.0313 199.8594,57.4219 Q200.9531,56.7969 202.1875,56.7969 Q202.9219,56.7969 203.5625,56.9688 Q204.2188,57.125 204.7656,57.4844 Z " fill="#000000"/><text fill="#000000" font-family="sans-serif" font-size="14" lengthAdjust="spacing" textLength="122.9512" x="216" y="67.3379">KeyRotationService</text><line style="stroke:#181818;stroke-width:0.5;" x1="188" x2="340.9512" y1="77.6094" y2="77.6094"/><line style="stroke:#181818;stroke-width:0.5;" x1="188" x2="340.9512" y1="85.6094" y2="85.6094"/></g><!--class AccessControlService--><g id="elem_AccessControlService"><rect fill="#F1F1F1" height="48" id="AccessControlService" rx="2.5" ry="2.5" style="stroke:#181818;stroke-width:0.5;" width="168.9375" x="377" y="45.6094"/><ellipse cx="392" cy="61.6094" fill="#ADD1B2" rx="11" ry="11" style="stroke:#181818;stroke-width:1.0;"/><path d="M394.7656,57.4844 Q394.9219,57.2656 395.1094,57.1563 Q395.2969,57.0469 395.5156,57.0469 Q395.8906,57.0469 396.125,57.3125 Q396.3594,57.5625 396.3594,58.1719 L396.3594,59.625 Q396.3594,60.2344 396.125,60.5 Q395.8906,60.7656 395.5156,60.7656 Q395.1719,60.7656 394.9688,60.5625 Q394.7656,60.375 394.6563,59.8594 Q394.6094,59.5 394.4219,59.3125 Q394.0938,58.9375 393.4844,58.7188 Q392.875,58.5 392.25,58.5 Q391.4844,58.5 390.8438,58.8281 Q390.2188,59.1563 389.7188,59.9063 Q389.2344,60.6563 389.2344,61.6875 L389.2344,62.7813 Q389.2344,64.0156 390.125,64.8438 Q391.0156,65.6563 392.6094,65.6563 Q393.5469,65.6563 394.2031,65.4063 Q394.5938,65.25 395.0156,64.8125 Q395.2813,64.5469 395.4219,64.4688 Q395.5781,64.3906 395.7813,64.3906 Q396.1094,64.3906 396.3594,64.6563 Q396.625,64.9063 396.625,65.25 Q396.625,65.5938 396.2813,66 Q395.7813,66.5781 394.9844,66.9063 Q393.9063,67.3594 392.6094,67.3594 Q391.0938,67.3594 389.8906,66.7344 Q388.9063,66.2344 388.2188,65.1719 Q387.5313,64.0938 387.5313,62.8125 L387.5313,61.6563 Q387.5313,60.3281 388.1406,59.1875 Q388.7656,58.0313 389.8594,57.4219 Q390.9531,56.7969 392.1875,56.7969 Q392.9219,56.7969 393.5625,56.9688 Q394.2188,57.125 394.7656,57.4844 Z " fill="#000000"/><text fill="#000000" font-family="sans-serif" font-size="14" lengthAdjust="spacing" textLength="136.9375" x="406" y="67.3379">AccessControlService</text><line style="stroke:#181818;stroke-width:0.5;" x1="378" x2="544.9375" y1="77.6094" y2="77.6094"/><line style="stroke:#181818;stroke-width:0.5;" x1="378" x2="544.9375" y1="85.6094" y2="85.6094"/></g><!--class AuditLoggingService--><g id="elem_AuditLoggingService"><rect fill="#F1F1F1" height="48" id="AuditLoggingService" rx="2.5" ry="2.5" style="stroke:#181818;stroke-width:0.5;" width="160.4199" x="581.5" y="45.6094"/><ellipse cx="596.5" cy="61.6094" fill="#ADD1B2" rx="11" ry="11" style="stroke:#181818;stroke-width:1.0;"/><path d="M599.2656,57.4844 Q599.4219,57.2656 599.6094,57.1563 Q599.7969,57.0469 600.0156,57.0469 Q600.3906,57.0469 600.625,57.3125 Q600.8594,57.5625 600.8594,58.1719 L600.8594,59.625 Q600.8594,60.2344 600.625,60.5 Q600.3906,60.7656 600.0156,60.7656 Q599.6719,60.7656 599.4688,60.5625 Q599.2656,60.375 599.1563,59.8594 Q599.1094,59.5 598.9219,59.3125 Q598.5938,58.9375 597.9844,58.7188 Q597.375,58.5 596.75,58.5 Q595.9844,58.5 595.3438,58.8281 Q594.7188,59.1563 594.2188,59.9063 Q593.7344,60.6563 593.7344,61.6875 L593.7344,62.7813 Q593.7344,64.0156 594.625,64.8438 Q595.5156,65.6563 597.1094,65.6563 Q598.0469,65.6563 598.7031,65.4063 Q599.0938,65.25 599.5156,64.8125 Q599.7813,64.5469 599.9219,64.4688 Q600.0781,64.3906 600.2813,64.3906 Q600.6094,64.3906 600.8594,64.6563 Q601.125,64.9063 601.125,65.25 Q601.125,65.5938 600.7813,66 Q600.2813,66.5781 599.4844,66.9063 Q598.4063,67.3594 597.1094,67.3594 Q595.5938,67.3594 594.3906,66.7344 Q593.4063,66.2344 592.7188,65.1719 Q592.0313,64.0938 592.0313,62.8125 L592.0313,61.6563 Q592.0313,60.3281 592.6406,59.1875 Q593.2656,58.0313 594.3594,57.4219 Q595.4531,56.7969 596.6875,56.7969 Q597.4219,56.7969 598.0625,56.9688 Q598.7188,57.125 599.2656,57.4844 Z " fill="#000000"/><text fill="#000000" font-family="sans-serif" font-size="14" lengthAdjust="spacing" textLength="128.4199" x="610.5" y="67.3379">AuditLoggingService</text><line style="stroke:#181818;stroke-width:0.5;" x1="582.5" x2="740.9199" y1="77.6094" y2="77.6094"/><line style="stroke:#181818;stroke-width:0.5;" x1="582.5" x2="740.9199" y1="85.6094" y2="85.6094"/></g><!--class SecurityServices--><g id="elem_SecurityServices"><rect fill="#F1F1F1" height="48" id="SecurityServices" rx="2.5" ry="2.5" style="stroke:#181818;stroke-width:0.5;" width="136.2549" x="976.5" y="45.6094"/><ellipse cx="991.5" cy="61.6094" fill="#ADD1B2" rx="11" ry="11" style="stroke:#181818;stroke-width:1.0;"/><path d="M994.2656,57.4844 Q994.4219,57.2656 994.6094,57.1563 Q994.7969,57.0469 995.0156,57.0469 Q995.3906,57.0469 995.625,57.3125 Q995.8594,57.5625 995.8594,58.1719 L995.8594,59.625 Q995.8594,60.2344 995.625,60.5 Q995.3906,60.7656 995.0156,60.7656 Q994.6719,60.7656 994.4688,60.5625 Q994.2656,60.375 994.1563,59.8594 Q994.1094,59.5 993.9219,59.3125 Q993.5938,58.9375 992.9844,58.7188 Q992.375,58.5 991.75,58.5 Q990.9844,58.5 990.3438,58.8281 Q989.7188,59.1563 989.2188,59.9063 Q988.7344,60.6563 988.7344,61.6875 L988.7344,62.7813 Q988.7344,64.0156 989.625,64.8438 Q990.5156,65.6563 992.1094,65.6563 Q993.0469,65.6563 993.7031,65.4063 Q994.0938,65.25 994.5156,64.8125 Q994.7813,64.5469 994.9219,64.4688 Q995.0781,64.3906 995.2813,64.3906 Q995.6094,64.3906 995.8594,64.6563 Q996.125,64.9063 996.125,65.25 Q996.125,65.5938 995.7813,66 Q995.2813,66.5781 994.4844,66.9063 Q993.4063,67.3594 992.1094,67.3594 Q990.5938,67.3594 989.3906,66.7344 Q988.4063,66.2344 987.7188,65.1719 Q987.0313,64.0938 987.0313,62.8125 L987.0313,61.6563 Q987.0313,60.3281 987.6406,59.1875 Q988.2656,58.0313 989.3594,57.4219 Q990.4531,56.7969 991.6875,56.7969 Q992.4219,56.7969 993.0625,56.9688 Q993.7188,57.125 994.2656,57.4844 Z " fill="#000000"/><text fill="#000000" font-family="sans-serif" font-size="14" lengthAdjust="spacing" textLength="104.2549" x="1005.5" y="67.3379">SecurityServices</text><line style="stroke:#181818;stroke-width:0.5;" x1="977.5" x2="1111.7549" y1="77.6094" y2="77.6094"/><line style="stroke:#181818;stroke-width:0.5;" x1="977.5" x2="1111.7549" y1="85.6094" y2="85.6094"/></g><!--class GraphQL--><g id="elem_GraphQL"><rect fill="#F1F1F1" height="48" id="GraphQL" rx="2.5" ry="2.5" style="stroke:#181818;stroke-width:0.5;" width="89.5859" x="753.5" y="171.6094"/><ellipse cx="768.5" cy="187.6094" fill="#ADD1B2" rx="11" ry="11" style="stroke:#181818;stroke-width:1.0;"/><path d="M771.2656,183.4844 Q771.4219,183.2656 771.6094,183.1563 Q771.7969,183.0469 772.0156,183.0469 Q772.3906,183.0469 772.625,183.3125 Q772.8594,183.5625 772.8594,184.1719 L772.8594,185.625 Q772.8594,186.2344 772.625,186.5 Q772.3906,186.7656 772.0156,186.7656 Q771.6719,186.7656 771.4688,186.5625 Q771.2656,186.375 771.1563,185.8594 Q771.1094,185.5 770.9219,185.3125 Q770.5938,184.9375 769.9844,184.7188 Q769.375,184.5 768.75,184.5 Q767.9844,184.5 767.3438,184.8281 Q766.7188,185.1563 766.2188,185.9063 Q765.7344,186.6563 765.7344,187.6875 L765.7344,188.7813 Q765.7344,190.0156 766.625,190.8438 Q767.5156,191.6563 769.1094,191.6563 Q770.0469,191.6563 770.7031,191.4063 Q771.0938,191.25 771.5156,190.8125 Q771.7813,190.5469 771.9219,190.4688 Q772.0781,190.3906 772.2813,190.3906 Q772.6094,190.3906 772.8594,190.6563 Q773.125,190.9063 773.125,191.25 Q773.125,191.5938 772.7813,192 Q772.2813,192.5781 771.4844,192.9063 Q770.4063,193.3594 769.1094,193.3594 Q767.5938,193.3594 766.3906,192.7344 Q765.4063,192.2344 764.7188,191.1719 Q764.0313,190.0938 764.0313,188.8125 L764.0313,187.6563 Q764.0313,186.3281 764.6406,185.1875 Q765.2656,184.0313 766.3594,183.4219 Q767.4531,182.7969 768.6875,182.7969 Q769.4219,182.7969 770.0625,182.9688 Q770.7188,183.125 771.2656,183.4844 Z " fill="#000000"/><text fill="#000000" font-family="sans-serif" font-size="14" lengthAdjust="spacing" textLength="57.5859" x="782.5" y="193.3379">GraphQL</text><line style="stroke:#181818;stroke-width:0.5;" x1="754.5" x2="842.0859" y1="203.6094" y2="203.6094"/><line style="stroke:#181818;stroke-width:0.5;" x1="754.5" x2="842.0859" y1="211.6094" y2="211.6094"/></g><!--class RSocket--><g id="elem_RSocket"><rect fill="#F1F1F1" height="48" id="RSocket" rx="2.5" ry="2.5" style="stroke:#181818;stroke-width:0.5;" width="84.9102" x="879" y="171.6094"/><ellipse cx="894" cy="187.6094" fill="#ADD1B2" rx="11" ry="11" style="stroke:#181818;stroke-width:1.0;"/><path d="M896.7656,183.4844 Q896.9219,183.2656 897.1094,183.1563 Q897.2969,183.0469 897.5156,183.0469 Q897.8906,183.0469 898.125,183.3125 Q898.3594,183.5625 898.3594,184.1719 L898.3594,185.625 Q898.3594,186.2344 898.125,186.5 Q897.8906,186.7656 897.5156,186.7656 Q897.1719,186.7656 896.9688,186.5625 Q896.7656,186.375 896.6563,185.8594 Q896.6094,185.5 896.4219,185.3125 Q896.0938,184.9375 895.4844,184.7188 Q894.875,184.5 894.25,184.5 Q893.4844,184.5 892.8438,184.8281 Q892.2188,185.1563 891.7188,185.9063 Q891.2344,186.6563 891.2344,187.6875 L891.2344,188.7813 Q891.2344,190.0156 892.125,190.8438 Q893.0156,191.6563 894.6094,191.6563 Q895.5469,191.6563 896.2031,191.4063 Q896.5938,191.25 897.0156,190.8125 Q897.2813,190.5469 897.4219,190.4688 Q897.5781,190.3906 897.7813,190.3906 Q898.1094,190.3906 898.3594,190.6563 Q898.625,190.9063 898.625,191.25 Q898.625,191.5938 898.2813,192 Q897.7813,192.5781 896.9844,192.9063 Q895.9063,193.3594 894.6094,193.3594 Q893.0938,193.3594 891.8906,192.7344 Q890.9063,192.2344 890.2188,191.1719 Q889.5313,190.0938 889.5313,188.8125 L889.5313,187.6563 Q889.5313,186.3281 890.1406,185.1875 Q890.7656,184.0313 891.8594,183.4219 Q892.9531,182.7969 894.1875,182.7969 Q894.9219,182.7969 895.5625,182.9688 Q896.2188,183.125 896.7656,183.4844 Z " fill="#000000"/><text fill="#000000" font-family="sans-serif" font-size="14" lengthAdjust="spacing" textLength="52.9102" x="908" y="193.3379">RSocket</text><line style="stroke:#181818;stroke-width:0.5;" x1="880" x2="962.9102" y1="203.6094" y2="203.6094"/><line style="stroke:#181818;stroke-width:0.5;" x1="880" x2="962.9102" y1="211.6094" y2="211.6094"/></g><!--class NgRxStore--><g id="elem_NgRxStore"><rect fill="#F1F1F1" height="48" id="NgRxStore" rx="2.5" ry="2.5" style="stroke:#181818;stroke-width:0.5;" width="100.4688" x="999.5" y="171.6094"/><ellipse cx="1014.5" cy="187.6094" fill="#ADD1B2" rx="11" ry="11" style="stroke:#181818;stroke-width:1.0;"/><path d="M1017.2656,183.4844 Q1017.4219,183.2656 1017.6094,183.1563 Q1017.7969,183.0469 1018.0156,183.0469 Q1018.3906,183.0469 1018.625,183.3125 Q1018.8594,183.5625 1018.8594,184.1719 L1018.8594,185.625 Q1018.8594,186.2344 1018.625,186.5 Q1018.3906,186.7656 1018.0156,186.7656 Q1017.6719,186.7656 1017.4688,186.5625 Q1017.2656,186.375 1017.1563,185.8594 Q1017.1094,185.5 1016.9219,185.3125 Q1016.5938,184.9375 1015.9844,184.7188 Q1015.375,184.5 1014.75,184.5 Q1013.9844,184.5 1013.3438,184.8281 Q1012.7188,185.1563 1012.2188,185.9063 Q1011.7344,186.6563 1011.7344,187.6875 L1011.7344,188.7813 Q1011.7344,190.0156 1012.625,190.8438 Q1013.5156,191.6563 1015.1094,191.6563 Q1016.0469,191.6563 1016.7031,191.4063 Q1017.0938,191.25 1017.5156,190.8125 Q1017.7813,190.5469 1017.9219,190.4688 Q1018.0781,190.3906 1018.2813,190.3906 Q1018.6094,190.3906 1018.8594,190.6563 Q1019.125,190.9063 1019.125,191.25 Q1019.125,191.5938 1018.7813,192 Q1018.2813,192.5781 1017.4844,192.9063 Q1016.4063,193.3594 1015.1094,193.3594 Q1013.5938,193.3594 1012.3906,192.7344 Q1011.4063,192.2344 1010.7188,191.1719 Q1010.0313,190.0938 1010.0313,188.8125 L1010.0313,187.6563 Q1010.0313,186.3281 1010.6406,185.1875 Q1011.2656,184.0313 1012.3594,183.4219 Q1013.4531,182.7969 1014.6875,182.7969 Q1015.4219,182.7969 1016.0625,182.9688 Q1016.7188,183.125 1017.2656,183.4844 Z " fill="#000000"/><text fill="#000000" font-family="sans-serif" font-size="14" lengthAdjust="spacing" textLength="68.4688" x="1028.5" y="193.3379">NgRxStore</text><line style="stroke:#181818;stroke-width:0.5;" x1="1000.5" x2="1098.9688" y1="203.6094" y2="203.6094"/><line style="stroke:#181818;stroke-width:0.5;" x1="1000.5" x2="1098.9688" y1="211.6094" y2="211.6094"/></g><!--class Kafka--><g id="elem_Kafka"><rect fill="#F1F1F1" height="48" id="Kafka" rx="2.5" ry="2.5" style="stroke:#181818;stroke-width:0.5;" width="67.7998" x="1139.5" y="171.6094"/><ellipse cx="1154.5" cy="187.6094" fill="#ADD1B2" rx="11" ry="11" style="stroke:#181818;stroke-width:1.0;"/><path d="M1157.2656,183.4844 Q1157.4219,183.2656 1157.6094,183.1563 Q1157.7969,183.0469 1158.0156,183.0469 Q1158.3906,183.0469 1158.625,183.3125 Q1158.8594,183.5625 1158.8594,184.1719 L1158.8594,185.625 Q1158.8594,186.2344 1158.625,186.5 Q1158.3906,186.7656 1158.0156,186.7656 Q1157.6719,186.7656 1157.4688,186.5625 Q1157.2656,186.375 1157.1563,185.8594 Q1157.1094,185.5 1156.9219,185.3125 Q1156.5938,184.9375 1155.9844,184.7188 Q1155.375,184.5 1154.75,184.5 Q1153.9844,184.5 1153.3438,184.8281 Q1152.7188,185.1563 1152.2188,185.9063 Q1151.7344,186.6563 1151.7344,187.6875 L1151.7344,188.7813 Q1151.7344,190.0156 1152.625,190.8438 Q1153.5156,191.6563 1155.1094,191.6563 Q1156.0469,191.6563 1156.7031,191.4063 Q1157.0938,191.25 1157.5156,190.8125 Q1157.7813,190.5469 1157.9219,190.4688 Q1158.0781,190.3906 1158.2813,190.3906 Q1158.6094,190.3906 1158.8594,190.6563 Q1159.125,190.9063 1159.125,191.25 Q1159.125,191.5938 1158.7813,192 Q1158.2813,192.5781 1157.4844,192.9063 Q1156.4063,193.3594 1155.1094,193.3594 Q1153.5938,193.3594 1152.3906,192.7344 Q1151.4063,192.2344 1150.7188,191.1719 Q1150.0313,190.0938 1150.0313,188.8125 L1150.0313,187.6563 Q1150.0313,186.3281 1150.6406,185.1875 Q1151.2656,184.0313 1152.3594,183.4219 Q1153.4531,182.7969 1154.6875,182.7969 Q1155.4219,182.7969 1156.0625,182.9688 Q1156.7188,183.125 1157.2656,183.4844 Z " fill="#000000"/><text fill="#000000" font-family="sans-serif" font-size="14" lengthAdjust="spacing" textLength="35.7998" x="1168.5" y="193.3379">Kafka</text><line style="stroke:#181818;stroke-width:0.5;" x1="1140.5" x2="1206.2998" y1="203.6094" y2="203.6094"/><line style="stroke:#181818;stroke-width:0.5;" x1="1140.5" x2="1206.2998" y1="211.6094" y2="211.6094"/></g><!--class CloudServices--><g id="elem_CloudServices"><rect fill="#F1F1F1" height="48" id="CloudServices" rx="2.5" ry="2.5" style="stroke:#181818;stroke-width:0.5;" width="122.2617" x="1319.5" y="171.6094"/><ellipse cx="1334.5" cy="187.6094" fill="#ADD1B2" rx="11" ry="11" style="stroke:#181818;stroke-width:1.0;"/><path d="M1337.2656,183.4844 Q1337.4219,183.2656 1337.6094,183.1563 Q1337.7969,183.0469 1338.0156,183.0469 Q1338.3906,183.0469 1338.625,183.3125 Q1338.8594,183.5625 1338.8594,184.1719 L1338.8594,185.625 Q1338.8594,186.2344 1338.625,186.5 Q1338.3906,186.7656 1338.0156,186.7656 Q1337.6719,186.7656 1337.4688,186.5625 Q1337.2656,186.375 1337.1563,185.8594 Q1337.1094,185.5 1336.9219,185.3125 Q1336.5938,184.9375 1335.9844,184.7188 Q1335.375,184.5 1334.75,184.5 Q1333.9844,184.5 1333.3438,184.8281 Q1332.7188,185.1563 1332.2188,185.9063 Q1331.7344,186.6563 1331.7344,187.6875 L1331.7344,188.7813 Q1331.7344,190.0156 1332.625,190.8438 Q1333.5156,191.6563 1335.1094,191.6563 Q1336.0469,191.6563 1336.7031,191.4063 Q1337.0938,191.25 1337.5156,190.8125 Q1337.7813,190.5469 1337.9219,190.4688 Q1338.0781,190.3906 1338.2813,190.3906 Q1338.6094,190.3906 1338.8594,190.6563 Q1339.125,190.9063 1339.125,191.25 Q1339.125,191.5938 1338.7813,192 Q1338.2813,192.5781 1337.4844,192.9063 Q1336.4063,193.3594 1335.1094,193.3594 Q1333.5938,193.3594 1332.3906,192.7344 Q1331.4063,192.2344 1330.7188,191.1719 Q1330.0313,190.0938 1330.0313,188.8125 L1330.0313,187.6563 Q1330.0313,186.3281 1330.6406,185.1875 Q1331.2656,184.0313 1332.3594,183.4219 Q1333.4531,182.7969 1334.6875,182.7969 Q1335.4219,182.7969 1336.0625,182.9688 Q1336.7188,183.125 1337.2656,183.4844 Z " fill="#000000"/><text fill="#000000" font-family="sans-serif" font-size="14" lengthAdjust="spacing" textLength="90.2617" x="1348.5" y="193.3379">CloudServices</text><line style="stroke:#181818;stroke-width:0.5;" x1="1320.5" x2="1440.7617" y1="203.6094" y2="203.6094"/><line style="stroke:#181818;stroke-width:0.5;" x1="1320.5" x2="1440.7617" y1="211.6094" y2="211.6094"/></g><!--link EncryptionService to KMS--><g id="link_EncryptionService_KMS"><path codeLine="7" d="M132.25,93.6394 C190.96,119.2794 278.4014,157.4584 326.6314,178.5184 " fill="none" id="EncryptionService-to-KMS" style="stroke:#181818;stroke-width:1.0;"/><polygon fill="#181818" points="332.13,180.9194,325.4827,173.6521,327.5478,178.9185,322.2814,180.9836,332.13,180.9194" style="stroke:#181818;stroke-width:1.0;"/><text fill="#000000" font-family="sans-serif" font-size="13" lengthAdjust="spacing" textLength="29.6182" x="240.5" y="138.1045">Uses</text></g><!--link KeyRotationService to KMS--><g id="link_KeyRotationService_KMS"><path codeLine="8" d="M278.68,93.6994 C287.77,107.9394 300.15,126.3394 312.5,141.6094 C320.77,151.8294 326.4432,158.1312 335.2832,167.1212 " fill="none" id="KeyRotationService-to-KMS" style="stroke:#181818;stroke-width:1.0;"/><polygon fill="#181818" points="339.49,171.3994,336.0319,162.1776,335.9843,167.8342,330.3277,167.7866,339.49,171.3994" style="stroke:#181818;stroke-width:1.0;"/><text fill="#000000" font-family="sans-serif" font-size="13" lengthAdjust="spacing" textLength="85.9917" x="313.5" y="138.1045">Manages Keys</text></g><!--link AccessControlService to KMS--><g id="link_AccessControlService_KMS"><path codeLine="9" d="M443.3,93.6394 C425.8,115.7794 403.2305,144.3421 385.6605,166.5721 " fill="none" id="AccessControlService-to-KMS" style="stroke:#181818;stroke-width:1.0;"/><polygon fill="#181818" points="381.94,171.2794,390.6589,166.6988,385.0404,167.3567,384.3826,161.7382,381.94,171.2794" style="stroke:#181818;stroke-width:1.0;"/><text fill="#000000" font-family="sans-serif" font-size="13" lengthAdjust="spacing" textLength="29.6182" x="419.5" y="138.1045">Uses</text></g><!--link AuditLoggingService to KMS--><g id="link_AuditLoggingService_KMS"><path codeLine="10" d="M606.15,93.6394 C543.87,119.5594 450.4196,158.4444 400.3096,179.2944 " fill="none" id="AuditLoggingService-to-KMS" style="stroke:#181818;stroke-width:1.0;"/><polygon fill="#181818" points="394.77,181.5994,404.616,181.835,399.3863,179.6786,401.5428,174.4489,394.77,181.5994" style="stroke:#181818;stroke-width:1.0;"/><text fill="#000000" font-family="sans-serif" font-size="13" lengthAdjust="spacing" textLength="95.3926" x="531.5" y="138.1045">Logs Key Usage</text></g><!--link SecurityServices to GraphQL--><g id="link_SecurityServices_GraphQL"><path codeLine="12" d="M997.56,93.6994 C978.85,102.9494 957.13,113.7394 937.5,123.6094 C905.91,139.4994 875.748,154.8998 848.528,168.8698 " fill="none" id="SecurityServices-to-GraphQL" style="stroke:#181818;stroke-width:1.0;"/><polygon fill="#181818" points="843.19,171.6094,853.0234,171.0586,847.6384,169.3264,849.3706,163.9413,843.19,171.6094" style="stroke:#181818;stroke-width:1.0;"/><text fill="#000000" font-family="sans-serif" font-size="13" lengthAdjust="spacing" textLength="29.6182" x="938.5" y="138.1045">Uses</text></g><!--link SecurityServices to RSocket--><g id="link_SecurityServices_RSocket"><path codeLine="13" d="M1021.65,93.6394 C999.7,115.7794 970.9154,144.7895 948.8654,167.0195 " fill="none" id="SecurityServices-to-RSocket" style="stroke:#181818;stroke-width:1.0;"/><polygon fill="#181818" points="944.64,171.2794,953.8179,167.7065,948.1611,167.7295,948.1381,162.0727,944.64,171.2794" style="stroke:#181818;stroke-width:1.0;"/><text fill="#000000" font-family="sans-serif" font-size="13" lengthAdjust="spacing" textLength="29.6182" x="991.5" y="138.1045">Uses</text></g><!--link SecurityServices to NgRxStore--><g id="link_SecurityServices_NgRxStore"><path codeLine="14" d="M1042.16,93.6494 C1041.09,107.5594 1040.3,125.6194 1041.5,141.6094 C1042.24,151.4494 1042.7806,156.2966 1044.2806,165.5566 " fill="none" id="SecurityServices-to-NgRxStore" style="stroke:#181818;stroke-width:1.0;"/><polygon fill="#181818" points="1045.24,171.4794,1047.7494,161.9556,1044.4405,166.5437,1039.8523,163.2348,1045.24,171.4794" style="stroke:#181818;stroke-width:1.0;"/><text fill="#000000" font-family="sans-serif" font-size="13" lengthAdjust="spacing" textLength="87.4453" x="1042.5" y="138.1045">Manages State</text></g><!--link SecurityServices to Kafka--><g id="link_SecurityServices_Kafka"><path codeLine="15" d="M1094.61,93.7894 C1108.64,101.8694 1123.13,111.8994 1134.5,123.6094 C1147.82,137.3394 1155.562,151.0326 1162.182,165.9926 " fill="none" id="SecurityServices-to-Kafka" style="stroke:#181818;stroke-width:1.0;"/><polygon fill="#181818" points="1164.61,171.4794,1164.6259,161.6305,1162.5867,166.907,1157.3102,164.8678,1164.61,171.4794" style="stroke:#181818;stroke-width:1.0;"/><text fill="#000000" font-family="sans-serif" font-size="13" lengthAdjust="spacing" textLength="165.4707" x="1149.5" y="138.1045">Publishes/Consumes Events</text></g><!--link SecurityServices to CloudServices--><g id="link_SecurityServices_CloudServices"><path codeLine="16" d="M1112.54,70.5894 C1172.1,73.4494 1258.94,84.8194 1323.5,123.6094 C1342.6,135.0894 1354.7946,150.3623 1364.7246,166.3523 " fill="none" id="SecurityServices-to-CloudServices" style="stroke:#181818;stroke-width:1.0;"/><polygon fill="#181818" points="1367.89,171.4494,1366.54,161.6935,1365.2522,167.2018,1359.7439,165.914,1367.89,171.4494" style="stroke:#181818;stroke-width:1.0;"/><text fill="#000000" font-family="sans-serif" font-size="13" lengthAdjust="spacing" textLength="29.6182" x="1344.5" y="138.1045">Uses</text></g><!--SRC=[XP3FRi8m38VlUGhp06Zt7IPLLSMXVu26FK2Mc13HnbMS0dtxPLj1EwpiQd_-RFzM1e_E8xH5ViYQJLM0xXIpMCtrV5lljatH741JFv177uM8BdO84lKON9n0UGCbJb0hhops2O5AJHY4ABmEqn0TUOdXuZJ2sj3Lhz-Wh2MymZiZYpJQKbJBr8-NltQmoBH6vfny3DGziMQZSR4YQvstVsEf-UrCVD8BSVzdflc1Ru8QJllgRbxaMadwZF5Vhh7jJKOA-EitcGB0vP5I7SyguRlnetDyGdv92V3O9wIufC2VRCix6isZEj_s2G00]--></g></svg>